<?xml version="1.0" encoding="utf-8"?>
<!-- Generator: Adobe Illustrator 16.0.0, SVG Export Plug-In . SVG Version: 6.00 Build 0)  -->
<!DOCTYPE svg PUBLIC "-//W3C//DTD SVG 1.1//EN" "http://www.w3.org/Graphics/SVG/1.1/DTD/svg11.dtd">
<svg version="1.1" xmlns="http://www.w3.org/2000/svg" xmlns:xlink="http://www.w3.org/1999/xlink" x="0px" y="0px" width="730px"
	 height="320px" viewBox="0 0 730 320" enable-background="new 0 0 730 320" xml:space="preserve">
<g id="Layer_3">
	<line fill="none" stroke="#CCCCCC" x1="305.204" y1="60.843" x2="262.775" y2="134.847"/>
	<line fill="none" stroke="#CCCCCC" x1="305.204" y1="60.843" x2="405.85" y2="146.687"/>
	<line fill="none" stroke="#CCCCCC" x1="405.85" y1="146.687" x2="484.787" y2="76.63"/>
	<line fill="none" stroke="#CCCCCC" x1="484.787" y1="76.63" x2="513.401" y2="168.395"/>
	<line fill="none" stroke="#CCCCCC" x1="405.85" y1="146.687" x2="363.42" y2="252.285"/>
	<line fill="none" stroke="#CCCCCC" x1="363.42" y1="252.285" x2="101.94" y2="168.395"/>
	<line fill="none" stroke="#CCCCCC" x1="101.94" y1="168.395" x2="131.02" y2="63.803"/>
	<line fill="none" stroke="#CCCCCC" x1="101.94" y1="168.395" x2="123.648" y2="266.08"/>
	<line fill="none" stroke="#CCCCCC" x1="513.401" y1="168.395" x2="560.764" y2="254.239"/>
	<line fill="none" stroke="#CCCCCC" x1="560.764" y1="254.239" x2="630.821" y2="58.869"/>
	<line fill="none" stroke="#CCCCCC" x1="630.821" y1="58.869" x2="594.066" y2="78.933"/>
	<line fill="none" stroke="#CCCCCC" x1="630.821" y1="58.869" x2="591.106" y2="46.042"/>
	<line fill="none" stroke="#CCCCCC" x1="630.821" y1="58.869" x2="612.156" y2="21.539"/>
	<line fill="none" stroke="#CCCCCC" x1="630.821" y1="58.869" x2="644.307" y2="19.894"/>
	<line fill="none" stroke="#CCCCCC" x1="630.821" y1="58.869" x2="666.015" y2="38.148"/>
	<line fill="none" stroke="#CCCCCC" x1="630.821" y1="58.869" x2="669.961" y2="69.395"/>
	<line fill="none" stroke="#CCCCCC" x1="630.821" y1="58.869" x2="652.2" y2="94.721"/>
	<line fill="none" stroke="#CCCCCC" x1="484.787" y1="76.63" x2="450.91" y2="73.012"/>
	<line fill="none" stroke="#CCCCCC" x1="484.787" y1="76.63" x2="469" y2="45.713"/>
	<line fill="none" stroke="#CCCCCC" x1="484.787" y1="76.63" x2="501.233" y2="45.713"/>
	<line fill="none" stroke="#CCCCCC" x1="484.787" y1="76.63" x2="519.322" y2="69.395"/>
	<line fill="none" stroke="#CCCCCC" x1="484.787" y1="76.63" x2="513.731" y2="96.364"/>
	<line fill="none" stroke="#CCCCCC" x1="513.401" y1="168.395" x2="546.621" y2="163.133"/>
	<line fill="none" stroke="#CCCCCC" x1="513.401" y1="168.395" x2="482.156" y2="155.238"/>
	<line fill="none" stroke="#CCCCCC" x1="513.401" y1="168.395" x2="491.036" y2="193.721"/>
	<line fill="none" stroke="#CCCCCC" x1="560.764" y1="254.239" x2="514.06" y2="246.346"/>
	<line fill="none" stroke="#CCCCCC" x1="560.764" y1="254.239" x2="518.993" y2="276.934"/>
	<line fill="none" stroke="#CCCCCC" x1="560.764" y1="254.239" x2="542.018" y2="297.983"/>
	<line fill="none" stroke="#CCCCCC" x1="560.764" y1="254.239" x2="567.343" y2="301.273"/>
	<line fill="none" stroke="#CCCCCC" x1="560.764" y1="254.239" x2="591.354" y2="290.419"/>
	<line fill="none" stroke="#CCCCCC" x1="560.764" y1="254.239" x2="606.154" y2="269.04"/>
	<line fill="none" stroke="#CCCCCC" x1="560.106" y1="254.954" x2="606.812" y2="241.083"/>
	<line fill="none" stroke="#CCCCCC" x1="363.42" y1="252.285" x2="343.687" y2="216.086"/>
	<line fill="none" stroke="#CCCCCC" x1="363.42" y1="252.285" x2="324.281" y2="261.805"/>
	<line fill="none" stroke="#CCCCCC" x1="363.42" y1="252.285" x2="344.673" y2="288.446"/>
	<line fill="none" stroke="#CCCCCC" x1="363.42" y1="252.285" x2="379.208" y2="289.761"/>
	<line fill="none" stroke="#CCCCCC" x1="363.42" y1="252.285" x2="402.231" y2="265.751"/>
	<line fill="none" stroke="#CCCCCC" x1="363.42" y1="252.285" x2="398.942" y2="230.887"/>
	<line fill="none" stroke="#CCCCCC" x1="405.85" y1="146.687" x2="432.162" y2="167.901"/>
	<line fill="none" stroke="#CCCCCC" x1="405.85" y1="146.687" x2="407.823" y2="113.139"/>
	<line fill="none" stroke="#CCCCCC" x1="123.648" y1="266.08" x2="155.881" y2="279.564"/>
	<line fill="none" stroke="#CCCCCC" x1="123.648" y1="266.08" x2="151.779" y2="246.016"/>
	<line fill="none" stroke="#CCCCCC" x1="123.648" y1="266.08" x2="129.568" y2="299.956"/>
	<line fill="none" stroke="#CCCCCC" x1="123.648" y1="266.08" x2="94.046" y2="285.238"/>
	<line fill="none" stroke="#CCCCCC" x1="123.648" y1="266.08" x2="90.757" y2="253.91"/>
	<line fill="none" stroke="#CCCCCC" x1="101.94" y1="168.395" x2="136.805" y2="145.947"/>
	<line fill="none" stroke="#CCCCCC" x1="101.94" y1="168.395" x2="77.355" y2="134.343"/>
	<line fill="none" stroke="#CCCCCC" x1="101.94" y1="168.395" x2="59.841" y2="165.682"/>
	<line fill="none" stroke="#CCCCCC" x1="101.94" y1="168.395" x2="71.352" y2="197.01"/>
	<line fill="none" stroke="#CCCCCC" x1="131.02" y1="63.803" x2="97.143" y2="92.911"/>
	<line fill="none" stroke="#CCCCCC" x1="131.02" y1="63.803" x2="86.289" y2="62.076"/>
	<line fill="none" stroke="#CCCCCC" x1="131.02" y1="63.803" x2="95.28" y2="36.01"/>
	<line fill="none" stroke="#CCCCCC" x1="119.934" y1="20.223" x2="131.02" y2="63.803"/>
	<line fill="none" stroke="#CCCCCC" x1="131.02" y1="63.803" x2="151.779" y2="24.17"/>
	<line fill="none" stroke="#CCCCCC" x1="171.915" y1="46.289" x2="131.02" y2="63.803"/>
	<line fill="none" stroke="#CCCCCC" x1="174.546" y1="74.163" x2="131.02" y2="63.803"/>
	<line fill="none" stroke="#CCCCCC" x1="131.02" y1="63.803" x2="153.414" y2="102.121"/>
	<line fill="none" stroke="#CCCCCC" x1="262.775" y1="134.847" x2="297.31" y2="138.793"/>
	<line fill="none" stroke="#CCCCCC" x1="277.576" y1="168.395" x2="262.775" y2="134.847"/>
	<line fill="none" stroke="#CCCCCC" x1="262.775" y1="134.847" x2="241.725" y2="164.448"/>
	<line fill="none" stroke="#CCCCCC" x1="262.775" y1="134.847" x2="225.279" y2="133.532"/>
	<line fill="none" stroke="#CCCCCC" x1="245.014" y1="103.271" x2="262.775" y2="134.847"/>
	<line fill="none" stroke="#CCCCCC" x1="305.204" y1="60.843" x2="269.682" y2="62.323"/>
	<line fill="none" stroke="#CCCCCC" x1="285.47" y1="30.254" x2="305.204" y2="60.843"/>
	<line fill="none" stroke="#CCCCCC" x1="305.204" y1="60.843" x2="322.965" y2="29.268"/>
	<line fill="none" stroke="#CCCCCC" x1="341.712" y1="56.156" x2="305.204" y2="60.843"/>
	<line fill="none" stroke="#E6E6E6" x1="77.355" y1="134.343" x2="75.371" y2="107.629"/>
	<line fill="none" stroke="#E6E6E6" x1="86.289" y1="62.076" x2="59.428" y2="62.076"/>
	<line fill="none" stroke="#E6E6E6" x1="86.289" y1="62.076" x2="65.01" y2="45.795"/>
	<line fill="none" stroke="#E6E6E6" x1="75.71" y1="20.962" x2="95.28" y2="36.01"/>
	<line fill="none" stroke="#E6E6E6" x1="178.164" y1="19.318" x2="151.779" y2="24.17"/>
	<line fill="none" stroke="#E6E6E6" x1="196.747" y1="34.448" x2="171.915" y2="46.289"/>
	<line fill="none" stroke="#E6E6E6" x1="171.915" y1="46.289" x2="198.227" y2="54.265"/>
	<line fill="none" stroke="#E6E6E6" x1="174.546" y1="74.163" x2="197.98" y2="86.416"/>
	<line fill="none" stroke="#E6E6E6" x1="153.414" y1="102.121" x2="178.657" y2="111.741"/>
	<line fill="none" stroke="#E6E6E6" x1="153.414" y1="102.121" x2="158.759" y2="127.199"/>
	<line fill="none" stroke="#E6E6E6" x1="136.805" y1="145.947" x2="162.376" y2="158.034"/>
	<line fill="none" stroke="#E6E6E6" x1="71.352" y1="197.01" x2="47.67" y2="212.304"/>
	<line fill="none" stroke="#E6E6E6" x1="241.725" y1="164.448" x2="225.938" y2="180.893"/>
	<line fill="none" stroke="#E6E6E6" x1="241.725" y1="164.448" x2="248.304" y2="192.404"/>
	<line fill="none" stroke="#E6E6E6" x1="277.576" y1="168.395" x2="294.68" y2="191.746"/>
	<line fill="none" stroke="#E6E6E6" x1="297.31" y1="138.793" x2="317.868" y2="162.31"/>
	<line fill="none" stroke="#E6E6E6" x1="328.063" y1="143.562" x2="297.31" y2="138.793"/>
	<line fill="none" stroke="#E6E6E6" x1="297.31" y1="138.793" x2="321.486" y2="119.387"/>
	<line fill="none" stroke="#E6E6E6" x1="258.007" y1="23.511" x2="285.47" y2="30.254"/>
	<line fill="none" stroke="#E6E6E6" x1="341.712" y1="56.156" x2="361.612" y2="37.818"/>
	<line fill="none" stroke="#E6E6E6" x1="341.712" y1="56.156" x2="370" y2="64.46"/>
	<line fill="none" stroke="#E6E6E6" x1="407.823" y1="113.139" x2="389.076" y2="88.141"/>
	<line fill="none" stroke="#E6E6E6" x1="407.823" y1="113.139" x2="411.936" y2="82.714"/>
	<line fill="none" stroke="#E6E6E6" x1="407.823" y1="113.139" x2="432.328" y2="93.732"/>
	<line fill="none" stroke="#E6E6E6" x1="469" y1="45.713" x2="446.964" y2="36.338"/>
	<line fill="none" stroke="#E6E6E6" x1="467.52" y1="21.867" x2="469" y2="45.713"/>
	<line fill="none" stroke="#E6E6E6" x1="519.322" y1="69.395" x2="541.523" y2="60.349"/>
	<line fill="none" stroke="#E6E6E6" x1="513.731" y1="96.364" x2="538.069" y2="105.245"/>
	<line fill="none" stroke="#E6E6E6" x1="652.2" y1="94.721" x2="656.641" y2="125.802"/>
	<line fill="none" stroke="#E6E6E6" x1="656.641" y1="125.802" x2="665.85" y2="156.554"/>
	<line fill="none" stroke="#E6E6E6" x1="652.2" y1="94.721" x2="676.539" y2="113.797"/>
	<line fill="none" stroke="#E6E6E6" x1="546.621" y1="163.133" x2="558.297" y2="139.78"/>
	<line fill="none" stroke="#E6E6E6" x1="546.621" y1="163.133" x2="570.138" y2="163.461"/>
	<line fill="none" stroke="#E6E6E6" x1="491.036" y1="193.721" x2="470.479" y2="207.37"/>
	<line fill="none" stroke="#E6E6E6" x1="94.046" y1="285.238" x2="67.405" y2="289.76"/>
	<line fill="none" stroke="#E6E6E6" x1="67.405" y1="289.76" x2="38.461" y2="296.667"/>
	<line fill="none" stroke="#E6E6E6" x1="151.779" y1="246.016" x2="147.164" y2="222.336"/>
	<line fill="none" stroke="#E6E6E6" x1="151.779" y1="246.016" x2="169.201" y2="228.255"/>
	<line fill="none" stroke="#E6E6E6" x1="151.779" y1="246.016" x2="176.273" y2="248.647"/>
	<line fill="none" stroke="#E6E6E6" x1="155.881" y1="279.564" x2="187.126" y2="283.512"/>
	<line fill="none" stroke="#E6E6E6" x1="155.881" y1="279.564" x2="175.944" y2="303.41"/>
	<line fill="none" stroke="#E6E6E6" x1="176.273" y1="248.647" x2="218.702" y2="242.069"/>
	<line fill="none" stroke="#E6E6E6" x1="212.946" y1="261.475" x2="176.273" y2="248.647"/>
	<line fill="none" stroke="#E6E6E6" x1="324.281" y1="261.805" x2="299.12" y2="267.23"/>
	<line fill="none" stroke="#E6E6E6" x1="299.12" y1="267.23" x2="278.892" y2="291.405"/>
	<line fill="none" stroke="#E6E6E6" x1="327.405" y1="300.122" x2="344.673" y2="288.446"/>
	<line fill="none" stroke="#E6E6E6" x1="402.231" y1="265.751" x2="431.504" y2="262.626"/>
	<line fill="none" stroke="#E6E6E6" x1="423.117" y1="284.827" x2="402.231" y2="265.751"/>
	<line fill="none" stroke="#E6E6E6" x1="514.06" y1="246.346" x2="487.747" y2="243.386"/>
	<line fill="none" stroke="#E6E6E6" x1="518.993" y1="276.934" x2="494.16" y2="281.867"/>
	<line fill="none" stroke="#E6E6E6" x1="606.812" y1="241.083" x2="633.288" y2="233.025"/>
	<line fill="none" stroke="#E6E6E6" x1="633.288" y1="233.025" x2="654.996" y2="208.851"/>
	<line fill="none" stroke="#E6E6E6" x1="606.154" y1="269.04" x2="646.608" y2="273.48"/>
	<line fill="none" stroke="#E6E6E6" x1="606.154" y1="269.04" x2="638.715" y2="295.188"/>
</g>
<g id="Layer_2">
	<circle fill="#00A99D" cx="305.204" cy="60.843" r="7.894"/>
	<circle fill="#00A99D" cx="262.775" cy="134.847" r="7.894"/>
	<circle fill="#00A99D" cx="101.94" cy="168.395" r="7.894"/>
	<circle fill="#00A99D" cx="123.648" cy="266.08" r="7.894"/>
	<circle fill="#00A99D" cx="131.02" cy="63.803" r="7.894"/>
	<circle fill="#00A99D" cx="405.849" cy="146.687" r="7.894"/>
	<circle fill="#00A99D" cx="363.42" cy="252.285" r="7.894"/>
	<circle fill="#00A99D" cx="560.764" cy="254.239" r="7.894"/>
	<circle fill="#00A99D" cx="484.787" cy="76.63" r="7.894"/>
	<circle fill="#00A99D" cx="513.401" cy="168.395" r="7.894"/>
	<circle fill="#00A99D" cx="630.821" cy="58.869" r="7.894"/>
	<circle fill="#FFDC1C" cx="269.682" cy="62.323" r="7.894"/>
	<circle fill="#FFDC1C" cx="322.965" cy="29.268" r="7.894"/>
	<circle fill="#FFDC1C" cx="285.469" cy="30.254" r="7.894"/>
	<circle fill="#FFDC1C" cx="341.713" cy="56.156" r="7.894"/>
	<circle fill="#FFDC1C" cx="241.725" cy="164.448" r="7.894"/>
	<circle fill="#FFDC1C" cx="277.576" cy="168.395" r="7.894"/>
	<circle fill="#FFDC1C" cx="297.31" cy="138.793" r="7.894"/>
	<circle fill="#FFDC1C" cx="245.014" cy="103.271" r="7.894"/>
	<circle fill="#FFDC1C" cx="153.414" cy="102.121" r="7.894"/>
	<circle fill="#FFDC1C" cx="174.546" cy="74.163" r="7.894"/>
	<circle fill="#FFDC1C" cx="171.915" cy="46.289" r="7.894"/>
	<circle fill="#FFDC1C" cx="151.779" cy="24.17" r="7.894"/>
	<circle fill="#FFDC1C" cx="119.934" cy="20.223" r="7.894"/>
	<circle fill="#FFDC1C" cx="95.28" cy="36.01" r="7.894"/>
	<circle fill="#FFDC1C" cx="86.289" cy="62.076" r="7.894"/>
	<circle fill="#FFF3B8" cx="59.666" cy="62.405" r="4.44"/>
	<circle fill="#FFF3B8" cx="75.371" cy="107.629" r="4.44"/>
	<circle fill="#FFF3B8" cx="75.71" cy="20.962" r="4.44"/>
	<circle fill="#FFF3B8" cx="178.164" cy="19.318" r="4.44"/>
	<circle fill="#FFF3B8" cx="196.747" cy="34.448" r="4.44"/>
	<circle fill="#FFF3B8" cx="198.227" cy="54.265" r="4.44"/>
	<circle fill="#FFF3B8" cx="197.981" cy="86.416" r="4.44"/>
	<circle fill="#FFF3B8" cx="178.657" cy="111.741" r="4.44"/>
	<circle fill="#FFF3B8" cx="158.759" cy="127.199" r="4.44"/>
	<circle fill="#FFF3B8" cx="162.376" cy="158.034" r="4.44"/>
	<circle fill="#FFF3B8" cx="47.671" cy="212.304" r="4.44"/>
	<circle fill="#FFF3B8" cx="176.273" cy="248.647" r="4.44"/>
	<circle fill="#FFF3B8" cx="212.946" cy="261.475" r="4.44"/>
	<circle fill="#FFF3B8" cx="218.702" cy="242.069" r="4.44"/>
	<circle fill="#FFF3B8" cx="225.938" cy="180.893" r="4.44"/>
	<circle fill="#FFF3B8" cx="248.304" cy="192.404" r="4.44"/>
	<circle fill="#FFF3B8" cx="294.679" cy="191.746" r="4.44"/>
	<circle fill="#FFF3B8" cx="299.12" cy="267.23" r="4.44"/>
	<circle fill="#FFF3B8" cx="278.892" cy="291.405" r="4.44"/>
	<circle fill="#FFF3B8" cx="327.405" cy="300.122" r="4.44"/>
	<circle fill="#FFF3B8" cx="423.117" cy="284.827" r="4.44"/>
	<circle fill="#FFF3B8" cx="431.504" cy="262.626" r="4.44"/>
	<circle fill="#FFF3B8" cx="487.747" cy="243.386" r="4.44"/>
	<circle fill="#FFF3B8" cx="470.479" cy="207.37" r="4.44"/>
	<circle fill="#FFF3B8" cx="494.161" cy="281.867" r="4.44"/>
	<circle fill="#FFF3B8" cx="317.867" cy="162.31" r="4.44"/>
	<circle fill="#FFF3B8" cx="328.064" cy="143.562" r="4.44"/>
	<circle fill="#FFF3B8" cx="321.486" cy="119.387" r="4.44"/>
	<circle fill="#FFF3B8" cx="258.007" cy="23.511" r="4.44"/>
	<circle fill="#FFF3B8" cx="361.612" cy="37.818" r="4.44"/>
	<circle fill="#FFF3B8" cx="370" cy="64.46" r="4.441"/>
	<circle fill="#FFF3B8" cx="389.076" cy="88.141" r="4.44"/>
	<circle fill="#FFF3B8" cx="411.935" cy="82.714" r="4.44"/>
	<circle fill="#FFF3B8" cx="446.964" cy="36.338" r="4.44"/>
	<circle fill="#FFF3B8" cx="467.519" cy="21.867" r="4.44"/>
	<circle fill="#FFF3B8" cx="541.523" cy="60.349" r="4.44"/>
	<circle fill="#FFF3B8" cx="538.069" cy="105.245" r="4.44"/>
	<circle fill="#FFF3B8" cx="558.297" cy="139.78" r="4.44"/>
	<circle fill="#FFF3B8" cx="570.138" cy="163.461" r="4.44"/>
	<circle fill="#FFF3B8" cx="638.715" cy="295.188" r="4.44"/>
	<circle fill="#FFF3B8" cx="646.608" cy="273.48" r="4.44"/>
	<circle fill="#FFF3B8" cx="633.288" cy="233.025" r="4.44"/>
	<circle fill="#FFF3B8" cx="654.996" cy="208.851" r="4.44"/>
	<circle fill="#FFF3B8" cx="656.641" cy="125.802" r="4.44"/>
	<circle fill="#FFF3B8" cx="676.539" cy="113.797" r="4.44"/>
	<circle fill="#FFF3B8" cx="665.85" cy="156.554" r="4.44"/>
	<circle fill="#FFF3B8" cx="432.328" cy="93.732" r="4.44"/>
	<circle fill="#FFF3B8" cx="175.944" cy="303.41" r="4.44"/>
	<circle fill="#FFF3B8" cx="187.126" cy="283.512" r="4.44"/>
	<circle fill="#FFF3B8" cx="67.405" cy="289.76" r="4.44"/>
	<circle fill="#FFF3B8" cx="38.461" cy="296.667" r="4.44"/>
	<circle fill="#FFF3B8" cx="169.2" cy="228.255" r="4.44"/>
	<circle fill="#FFF3B8" cx="147.164" cy="222.336" r="4.44"/>
	<circle fill="#FFF3B8" cx="65.01" cy="45.795" r="4.44"/>
	<circle fill="#FFDC1C" cx="97.143" cy="92.911" r="7.894"/>
	<circle fill="#FFDC1C" cx="77.355" cy="134.343" r="7.894"/>
	<circle fill="#FFDC1C" cx="59.841" cy="165.682" r="7.894"/>
	<circle fill="#FFDC1C" cx="71.352" cy="197.01" r="7.894"/>
	<circle fill="#FFDC1C" cx="90.758" cy="253.91" r="7.894"/>
	<circle fill="#FFDC1C" cx="94.046" cy="285.238" r="7.894"/>
	<circle fill="#FFDC1C" cx="129.569" cy="299.956" r="7.894"/>
	<circle fill="#FFDC1C" cx="155.881" cy="279.564" r="7.894"/>
	<circle fill="#FFDC1C" cx="151.779" cy="246.016" r="7.894"/>
	<circle fill="#FFDC1C" cx="324.281" cy="261.805" r="7.894"/>
	<circle fill="#FFDC1C" cx="343.686" cy="216.086" r="7.894"/>
	<circle fill="#FFDC1C" cx="407.824" cy="113.139" r="7.894"/>
	<circle fill="#FFDC1C" cx="469" cy="45.713" r="7.894"/>
	<circle fill="#FFDC1C" cx="501.233" cy="45.713" r="7.894"/>
	<circle fill="#FFDC1C" cx="519.323" cy="69.395" r="7.894"/>
	<circle fill="#FFDC1C" cx="513.731" cy="96.364" r="7.894"/>
	<circle fill="#FFDC1C" cx="546.621" cy="163.133" r="7.894"/>
	<circle fill="#FFDC1C" cx="491.037" cy="193.721" r="7.894"/>
	<circle fill="#FFDC1C" cx="514.06" cy="246.346" r="7.894"/>
	<circle fill="#FFDC1C" cx="518.993" cy="276.934" r="7.894"/>
	<circle fill="#FFDC1C" cx="542.017" cy="297.983" r="7.894"/>
	<circle fill="#FFDC1C" cx="567.342" cy="301.273" r="7.894"/>
	<circle fill="#FFDC1C" cx="591.353" cy="290.419" r="7.894"/>
	<circle fill="#FFDC1C" cx="606.154" cy="269.04" r="7.894"/>
	<circle fill="#FFDC1C" cx="606.154" cy="241.083" r="7.894"/>
	<circle fill="#FFDC1C" cx="594.067" cy="78.933" r="7.894"/>
	<circle fill="#FFDC1C" cx="591.106" cy="46.042" r="7.894"/>
	<circle fill="#FFDC1C" cx="612.156" cy="21.539" r="7.894"/>
	<circle fill="#FFDC1C" cx="644.307" cy="19.894" r="7.894"/>
	<circle fill="#FFDC1C" cx="666.014" cy="38.148" r="7.894"/>
	<circle fill="#FFDC1C" cx="669.961" cy="69.395" r="7.894"/>
	<circle fill="#FFDC1C" cx="652.2" cy="94.721" r="7.894"/>
	<circle fill="#FFDC1C" cx="482.156" cy="155.238" r="7.894"/>
	<circle fill="#FFDC1C" cx="450.91" cy="73.012" r="7.894"/>
	<circle fill="#FFDC1C" cx="432.162" cy="167.901" r="7.894"/>
	<circle fill="#FFDC1C" cx="398.942" cy="230.887" r="7.894"/>
	<circle fill="#FFDC1C" cx="402.232" cy="265.751" r="7.894"/>
	<circle fill="#FFDC1C" cx="379.208" cy="289.761" r="7.894"/>
	<circle fill="#FFDC1C" cx="344.673" cy="288.446" r="7.894"/>
	<circle fill="#FFDC1C" cx="136.805" cy="145.947" r="7.894"/>
	<circle fill="#FFDC1C" cx="225.279" cy="133.532" r="7.894"/>
</g>
<g id="Layer_4">
</g>
</svg>
