<?xml version='1.0' encoding='utf-8'?>
<?xml-stylesheet href="https://fonts.googleapis.com/css?family=Open+Sans:300italic,400italic,600italic,700italic,800italic,400,300,600,700,800|Open+Sans+Condensed:300,300italic,700|Cousine|Lato|Noto+Serif" type="text/css"?><svg xmlns="http://www.w3.org/2000/svg" xmlns:xlink="http://www.w3.org/1999/xlink" class="marks" width="705" height="345" viewBox="0 0 705 345" version="1.1"><rect width="705" height="345" fill="#ffffff"/><rect width="705" height="345" style="fill: #ffffff;"/><g transform="translate(58,60)"><g class="mark-group role-frame root" role="graphics-object" aria-roledescription="group mark container"><g transform="translate(0,0)"><path class="background" aria-hidden="true" d="M0,0h545v242h-545Z" style="fill: none;"/><g><g class="mark-group role-axis" aria-hidden="true"><g transform="translate(0.5,242.5)"><path class="background" aria-hidden="true" d="M0,0h0v0h0Z" style="pointer-events: none; fill: none;"/><g><g class="mark-rule role-axis-grid" style="pointer-events: none;"><line transform="translate(5,-242)" x2="0" y2="242" style="fill: none; stroke: #E4EEF5; stroke-width: 1; opacity: 1;"/><line transform="translate(16,-242)" x2="0" y2="242" style="fill: none; stroke-width: 1; opacity: 1;"/><line transform="translate(27,-242)" x2="0" y2="242" style="fill: none; stroke-width: 1; opacity: 1;"/><line transform="translate(37,-242)" x2="0" y2="242" style="fill: none; stroke-width: 1; opacity: 1;"/><line transform="translate(48,-242)" x2="0" y2="242" style="fill: none; stroke: #E4EEF5; stroke-width: 1; opacity: 1;"/><line transform="translate(59,-242)" x2="0" y2="242" style="fill: none; stroke-width: 1; opacity: 1;"/><line transform="translate(69,-242)" x2="0" y2="242" style="fill: none; stroke-width: 1; opacity: 1;"/><line transform="translate(80,-242)" x2="0" y2="242" style="fill: none; stroke-width: 1; opacity: 1;"/><line transform="translate(91,-242)" x2="0" y2="242" style="fill: none; stroke: #E4EEF5; stroke-width: 1; opacity: 1;"/><line transform="translate(102,-242)" x2="0" y2="242" style="fill: none; stroke-width: 1; opacity: 1;"/><line transform="translate(112,-242)" x2="0" y2="242" style="fill: none; stroke-width: 1; opacity: 1;"/><line transform="translate(123,-242)" x2="0" y2="242" style="fill: none; stroke-width: 1; opacity: 1;"/><line transform="translate(134,-242)" x2="0" y2="242" style="fill: none; stroke: #E4EEF5; stroke-width: 1; opacity: 1;"/><line transform="translate(144,-242)" x2="0" y2="242" style="fill: none; stroke-width: 1; opacity: 1;"/><line transform="translate(155,-242)" x2="0" y2="242" style="fill: none; stroke-width: 1; opacity: 1;"/><line transform="translate(166,-242)" x2="0" y2="242" style="fill: none; stroke-width: 1; opacity: 1;"/><line transform="translate(176,-242)" x2="0" y2="242" style="fill: none; stroke: #E4EEF5; stroke-width: 1; opacity: 1;"/><line transform="translate(187,-242)" x2="0" y2="242" style="fill: none; stroke-width: 1; opacity: 1;"/><line transform="translate(198,-242)" x2="0" y2="242" style="fill: none; stroke-width: 1; opacity: 1;"/><line transform="translate(208,-242)" x2="0" y2="242" style="fill: none; stroke-width: 1; opacity: 1;"/><line transform="translate(219,-242)" x2="0" y2="242" style="fill: none; stroke: #E4EEF5; stroke-width: 1; opacity: 1;"/><line transform="translate(230,-242)" x2="0" y2="242" style="fill: none; stroke-width: 1; opacity: 1;"/><line transform="translate(240,-242)" x2="0" y2="242" style="fill: none; stroke-width: 1; opacity: 1;"/><line transform="translate(251,-242)" x2="0" y2="242" style="fill: none; stroke-width: 1; opacity: 1;"/><line transform="translate(262,-242)" x2="0" y2="242" style="fill: none; stroke: #E4EEF5; stroke-width: 1; opacity: 1;"/><line transform="translate(273,-242)" x2="0" y2="242" style="fill: none; stroke-width: 1; opacity: 1;"/><line transform="translate(283,-242)" x2="0" y2="242" style="fill: none; stroke-width: 1; opacity: 1;"/><line transform="translate(294,-242)" x2="0" y2="242" style="fill: none; stroke-width: 1; opacity: 1;"/><line transform="translate(305,-242)" x2="0" y2="242" style="fill: none; stroke: #E4EEF5; stroke-width: 1; opacity: 1;"/><line transform="translate(315,-242)" x2="0" y2="242" style="fill: none; stroke-width: 1; opacity: 1;"/><line transform="translate(326,-242)" x2="0" y2="242" style="fill: none; stroke-width: 1; opacity: 1;"/><line transform="translate(337,-242)" x2="0" y2="242" style="fill: none; stroke-width: 1; opacity: 1;"/><line transform="translate(347,-242)" x2="0" y2="242" style="fill: none; stroke: #E4EEF5; stroke-width: 1; opacity: 1;"/><line transform="translate(358,-242)" x2="0" y2="242" style="fill: none; stroke-width: 1; opacity: 1;"/><line transform="translate(369,-242)" x2="0" y2="242" style="fill: none; stroke-width: 1; opacity: 1;"/><line transform="translate(379,-242)" x2="0" y2="242" style="fill: none; stroke-width: 1; opacity: 1;"/><line transform="translate(390,-242)" x2="0" y2="242" style="fill: none; stroke: #E4EEF5; stroke-width: 1; opacity: 1;"/><line transform="translate(401,-242)" x2="0" y2="242" style="fill: none; stroke-width: 1; opacity: 1;"/><line transform="translate(411,-242)" x2="0" y2="242" style="fill: none; stroke-width: 1; opacity: 1;"/><line transform="translate(422,-242)" x2="0" y2="242" style="fill: none; stroke-width: 1; opacity: 1;"/><line transform="translate(433,-242)" x2="0" y2="242" style="fill: none; stroke: #E4EEF5; stroke-width: 1; opacity: 1;"/><line transform="translate(443,-242)" x2="0" y2="242" style="fill: none; stroke-width: 1; opacity: 1;"/><line transform="translate(454,-242)" x2="0" y2="242" style="fill: none; stroke-width: 1; opacity: 1;"/><line transform="translate(465,-242)" x2="0" y2="242" style="fill: none; stroke-width: 1; opacity: 1;"/><line transform="translate(476,-242)" x2="0" y2="242" style="fill: none; stroke: #E4EEF5; stroke-width: 1; opacity: 1;"/><line transform="translate(486,-242)" x2="0" y2="242" style="fill: none; stroke-width: 1; opacity: 1;"/><line transform="translate(497,-242)" x2="0" y2="242" style="fill: none; stroke-width: 1; opacity: 1;"/><line transform="translate(508,-242)" x2="0" y2="242" style="fill: none; stroke-width: 1; opacity: 1;"/><line transform="translate(518,-242)" x2="0" y2="242" style="fill: none; stroke: #E4EEF5; stroke-width: 1; opacity: 1;"/><line transform="translate(529,-242)" x2="0" y2="242" style="fill: none; stroke-width: 1; opacity: 1;"/><line transform="translate(540,-242)" x2="0" y2="242" style="fill: none; stroke-width: 1; opacity: 1;"/></g></g><path class="foreground" aria-hidden="true" d="" style="pointer-events: none; display: none; fill: none;"/></g></g><g class="mark-group role-axis" aria-hidden="true"><g transform="translate(0.5,0.5)"><path class="background" aria-hidden="true" d="M0,0h0v0h0Z" style="pointer-events: none; fill: none;"/><g><g class="mark-rule role-axis-grid" style="pointer-events: none;"><line transform="translate(0,242)" x2="545" y2="0" style="fill: none; stroke: #E4EEF5; stroke-width: 1; opacity: 1;"/><line transform="translate(0,215)" x2="545" y2="0" style="fill: none; stroke: #E4EEF5; stroke-width: 1; opacity: 1;"/><line transform="translate(0,188)" x2="545" y2="0" style="fill: none; stroke: #E4EEF5; stroke-width: 1; opacity: 1;"/><line transform="translate(0,161)" x2="545" y2="0" style="fill: none; stroke: #E4EEF5; stroke-width: 1; opacity: 1;"/><line transform="translate(0,134)" x2="545" y2="0" style="fill: none; stroke: #E4EEF5; stroke-width: 1; opacity: 1;"/><line transform="translate(0,108)" x2="545" y2="0" style="fill: none; stroke: #E4EEF5; stroke-width: 1; opacity: 1;"/><line transform="translate(0,81)" x2="545" y2="0" style="fill: none; stroke: #E4EEF5; stroke-width: 1; opacity: 1;"/><line transform="translate(0,54)" x2="545" y2="0" style="fill: none; stroke: #E4EEF5; stroke-width: 1; opacity: 1;"/><line transform="translate(0,27)" x2="545" y2="0" style="fill: none; stroke: #E4EEF5; stroke-width: 1; opacity: 1;"/><line transform="translate(0,0)" x2="545" y2="0" style="fill: none; stroke: #E4EEF5; stroke-width: 1; opacity: 1;"/></g></g><path class="foreground" aria-hidden="true" d="" style="pointer-events: none; display: none; fill: none;"/></g></g><g class="mark-group role-axis" aria-hidden="true"><g transform="translate(0.5,242.5)"><path class="background" aria-hidden="true" d="M0,0h0v0h0Z" style="pointer-events: none; fill: none;"/><g><g class="mark-rule role-axis-tick" style="pointer-events: none;"><line transform="translate(5,0)" x2="0" y2="5" style="fill: none; stroke: #E4EEF5; stroke-width: 1; opacity: 1;"/><line transform="translate(16,0)" x2="0" y2="5" style="fill: none; stroke-width: 1; opacity: 1;"/><line transform="translate(27,0)" x2="0" y2="5" style="fill: none; stroke-width: 1; opacity: 1;"/><line transform="translate(37,0)" x2="0" y2="5" style="fill: none; stroke-width: 1; opacity: 1;"/><line transform="translate(48,0)" x2="0" y2="5" style="fill: none; stroke: #E4EEF5; stroke-width: 1; opacity: 1;"/><line transform="translate(59,0)" x2="0" y2="5" style="fill: none; stroke-width: 1; opacity: 1;"/><line transform="translate(69,0)" x2="0" y2="5" style="fill: none; stroke-width: 1; opacity: 1;"/><line transform="translate(80,0)" x2="0" y2="5" style="fill: none; stroke-width: 1; opacity: 1;"/><line transform="translate(91,0)" x2="0" y2="5" style="fill: none; stroke: #E4EEF5; stroke-width: 1; opacity: 1;"/><line transform="translate(102,0)" x2="0" y2="5" style="fill: none; stroke-width: 1; opacity: 1;"/><line transform="translate(112,0)" x2="0" y2="5" style="fill: none; stroke-width: 1; opacity: 1;"/><line transform="translate(123,0)" x2="0" y2="5" style="fill: none; stroke-width: 1; opacity: 1;"/><line transform="translate(134,0)" x2="0" y2="5" style="fill: none; stroke: #E4EEF5; stroke-width: 1; opacity: 1;"/><line transform="translate(144,0)" x2="0" y2="5" style="fill: none; stroke-width: 1; opacity: 1;"/><line transform="translate(155,0)" x2="0" y2="5" style="fill: none; stroke-width: 1; opacity: 1;"/><line transform="translate(166,0)" x2="0" y2="5" style="fill: none; stroke-width: 1; opacity: 1;"/><line transform="translate(176,0)" x2="0" y2="5" style="fill: none; stroke: #E4EEF5; stroke-width: 1; opacity: 1;"/><line transform="translate(187,0)" x2="0" y2="5" style="fill: none; stroke-width: 1; opacity: 1;"/><line transform="translate(198,0)" x2="0" y2="5" style="fill: none; stroke-width: 1; opacity: 1;"/><line transform="translate(208,0)" x2="0" y2="5" style="fill: none; stroke-width: 1; opacity: 1;"/><line transform="translate(219,0)" x2="0" y2="5" style="fill: none; stroke: #E4EEF5; stroke-width: 1; opacity: 1;"/><line transform="translate(230,0)" x2="0" y2="5" style="fill: none; stroke-width: 1; opacity: 1;"/><line transform="translate(240,0)" x2="0" y2="5" style="fill: none; stroke-width: 1; opacity: 1;"/><line transform="translate(251,0)" x2="0" y2="5" style="fill: none; stroke-width: 1; opacity: 1;"/><line transform="translate(262,0)" x2="0" y2="5" style="fill: none; stroke: #E4EEF5; stroke-width: 1; opacity: 1;"/><line transform="translate(273,0)" x2="0" y2="5" style="fill: none; stroke-width: 1; opacity: 1;"/><line transform="translate(283,0)" x2="0" y2="5" style="fill: none; stroke-width: 1; opacity: 1;"/><line transform="translate(294,0)" x2="0" y2="5" style="fill: none; stroke-width: 1; opacity: 1;"/><line transform="translate(305,0)" x2="0" y2="5" style="fill: none; stroke: #E4EEF5; stroke-width: 1; opacity: 1;"/><line transform="translate(315,0)" x2="0" y2="5" style="fill: none; stroke-width: 1; opacity: 1;"/><line transform="translate(326,0)" x2="0" y2="5" style="fill: none; stroke-width: 1; opacity: 1;"/><line transform="translate(337,0)" x2="0" y2="5" style="fill: none; stroke-width: 1; opacity: 1;"/><line transform="translate(347,0)" x2="0" y2="5" style="fill: none; stroke: #E4EEF5; stroke-width: 1; opacity: 1;"/><line transform="translate(358,0)" x2="0" y2="5" style="fill: none; stroke-width: 1; opacity: 1;"/><line transform="translate(369,0)" x2="0" y2="5" style="fill: none; stroke-width: 1; opacity: 1;"/><line transform="translate(379,0)" x2="0" y2="5" style="fill: none; stroke-width: 1; opacity: 1;"/><line transform="translate(390,0)" x2="0" y2="5" style="fill: none; stroke: #E4EEF5; stroke-width: 1; opacity: 1;"/><line transform="translate(401,0)" x2="0" y2="5" style="fill: none; stroke-width: 1; opacity: 1;"/><line transform="translate(411,0)" x2="0" y2="5" style="fill: none; stroke-width: 1; opacity: 1;"/><line transform="translate(422,0)" x2="0" y2="5" style="fill: none; stroke-width: 1; opacity: 1;"/><line transform="translate(433,0)" x2="0" y2="5" style="fill: none; stroke: #E4EEF5; stroke-width: 1; opacity: 1;"/><line transform="translate(443,0)" x2="0" y2="5" style="fill: none; stroke-width: 1; opacity: 1;"/><line transform="translate(454,0)" x2="0" y2="5" style="fill: none; stroke-width: 1; opacity: 1;"/><line transform="translate(465,0)" x2="0" y2="5" style="fill: none; stroke-width: 1; opacity: 1;"/><line transform="translate(476,0)" x2="0" y2="5" style="fill: none; stroke: #E4EEF5; stroke-width: 1; opacity: 1;"/><line transform="translate(486,0)" x2="0" y2="5" style="fill: none; stroke-width: 1; opacity: 1;"/><line transform="translate(497,0)" x2="0" y2="5" style="fill: none; stroke-width: 1; opacity: 1;"/><line transform="translate(508,0)" x2="0" y2="5" style="fill: none; stroke-width: 1; opacity: 1;"/><line transform="translate(518,0)" x2="0" y2="5" style="fill: none; stroke: #E4EEF5; stroke-width: 1; opacity: 1;"/><line transform="translate(529,0)" x2="0" y2="5" style="fill: none; stroke-width: 1; opacity: 1;"/><line transform="translate(540,0)" x2="0" y2="5" style="fill: none; stroke-width: 1; opacity: 1;"/></g><g class="mark-text role-axis-label" style="pointer-events: none;"><text text-anchor="middle" transform="translate(5.34313725490199,20)" style="font-family: Lato; font-size: 13px; font-weight: normal; fill: #687299; opacity: 1;">AK</text><text text-anchor="middle" transform="translate(16.029411764705912,20)" style="font-family: Lato; font-size: 13px; font-weight: normal; fill: #687299; opacity: 0;">AL</text><text text-anchor="middle" transform="translate(26.71568627450983,20)" style="font-family: Lato; font-size: 13px; font-weight: normal; fill: #687299; opacity: 0;">AR</text><text text-anchor="middle" transform="translate(37.40196078431375,20)" style="font-family: Lato; font-size: 13px; font-weight: normal; fill: #687299; opacity: 0;">AZ</text><text text-anchor="middle" transform="translate(48.08823529411767,20)" style="font-family: Lato; font-size: 13px; font-weight: normal; fill: #687299; opacity: 1;">CA</text><text text-anchor="middle" transform="translate(58.774509803921596,20)" style="font-family: Lato; font-size: 13px; font-weight: normal; fill: #687299; opacity: 0;">CO</text><text text-anchor="middle" transform="translate(69.46078431372551,20)" style="font-family: Lato; font-size: 13px; font-weight: normal; fill: #687299; opacity: 0;">CT</text><text text-anchor="middle" transform="translate(80.14705882352943,20)" style="font-family: Lato; font-size: 13px; font-weight: normal; fill: #687299; opacity: 0;">DC</text><text text-anchor="middle" transform="translate(90.83333333333336,20)" style="font-family: Lato; font-size: 13px; font-weight: normal; fill: #687299; opacity: 1;">DE</text><text text-anchor="middle" transform="translate(101.51960784313728,20)" style="font-family: Lato; font-size: 13px; font-weight: normal; fill: #687299; opacity: 0;">FL</text><text text-anchor="middle" transform="translate(112.2058823529412,20)" style="font-family: Lato; font-size: 13px; font-weight: normal; fill: #687299; opacity: 0;">GA</text><text text-anchor="middle" transform="translate(122.89215686274513,20)" style="font-family: Lato; font-size: 13px; font-weight: normal; fill: #687299; opacity: 0;">HI</text><text text-anchor="middle" transform="translate(133.57843137254903,20)" style="font-family: Lato; font-size: 13px; font-weight: normal; fill: #687299; opacity: 1;">IA</text><text text-anchor="middle" transform="translate(144.26470588235296,20)" style="font-family: Lato; font-size: 13px; font-weight: normal; fill: #687299; opacity: 0;">ID</text><text text-anchor="middle" transform="translate(154.95098039215688,20)" style="font-family: Lato; font-size: 13px; font-weight: normal; fill: #687299; opacity: 0;">IL</text><text text-anchor="middle" transform="translate(165.6372549019608,20)" style="font-family: Lato; font-size: 13px; font-weight: normal; fill: #687299; opacity: 0;">IN</text><text text-anchor="middle" transform="translate(176.32352941176472,20)" style="font-family: Lato; font-size: 13px; font-weight: normal; fill: #687299; opacity: 1;">KS</text><text text-anchor="middle" transform="translate(187.00980392156865,20)" style="font-family: Lato; font-size: 13px; font-weight: normal; fill: #687299; opacity: 0;">KY</text><text text-anchor="middle" transform="translate(197.69607843137257,20)" style="font-family: Lato; font-size: 13px; font-weight: normal; fill: #687299; opacity: 0;">LA</text><text text-anchor="middle" transform="translate(208.3823529411765,20)" style="font-family: Lato; font-size: 13px; font-weight: normal; fill: #687299; opacity: 0;">MA</text><text text-anchor="middle" transform="translate(219.06862745098042,20)" style="font-family: Lato; font-size: 13px; font-weight: normal; fill: #687299; opacity: 1;">MD</text><text text-anchor="middle" transform="translate(229.75490196078434,20)" style="font-family: Lato; font-size: 13px; font-weight: normal; fill: #687299; opacity: 0;">ME</text><text text-anchor="middle" transform="translate(240.44117647058826,20)" style="font-family: Lato; font-size: 13px; font-weight: normal; fill: #687299; opacity: 0;">MI</text><text text-anchor="middle" transform="translate(251.12745098039218,20)" style="font-family: Lato; font-size: 13px; font-weight: normal; fill: #687299; opacity: 0;">MN</text><text text-anchor="middle" transform="translate(261.8137254901961,20)" style="font-family: Lato; font-size: 13px; font-weight: normal; fill: #687299; opacity: 1;">MO</text><text text-anchor="middle" transform="translate(272.5,20)" style="font-family: Lato; font-size: 13px; font-weight: normal; fill: #687299; opacity: 0;">MS</text><text text-anchor="middle" transform="translate(283.1862745098039,20)" style="font-family: Lato; font-size: 13px; font-weight: normal; fill: #687299; opacity: 0;">MT</text><text text-anchor="middle" transform="translate(293.87254901960785,20)" style="font-family: Lato; font-size: 13px; font-weight: normal; fill: #687299; opacity: 0;">NC</text><text text-anchor="middle" transform="translate(304.55882352941177,20)" style="font-family: Lato; font-size: 13px; font-weight: normal; fill: #687299; opacity: 1;">ND</text><text text-anchor="middle" transform="translate(315.2450980392157,20)" style="font-family: Lato; font-size: 13px; font-weight: normal; fill: #687299; opacity: 0;">NE</text><text text-anchor="middle" transform="translate(325.9313725490196,20)" style="font-family: Lato; font-size: 13px; font-weight: normal; fill: #687299; opacity: 0;">NH</text><text text-anchor="middle" transform="translate(336.61764705882354,20)" style="font-family: Lato; font-size: 13px; font-weight: normal; fill: #687299; opacity: 0;">NJ</text><text text-anchor="middle" transform="translate(347.30392156862746,20)" style="font-family: Lato; font-size: 13px; font-weight: normal; fill: #687299; opacity: 1;">NM</text><text text-anchor="middle" transform="translate(357.9901960784314,20)" style="font-family: Lato; font-size: 13px; font-weight: normal; fill: #687299; opacity: 0;">NV</text><text text-anchor="middle" transform="translate(368.6764705882353,20)" style="font-family: Lato; font-size: 13px; font-weight: normal; fill: #687299; opacity: 0;">NY</text><text text-anchor="middle" transform="translate(379.3627450980392,20)" style="font-family: Lato; font-size: 13px; font-weight: normal; fill: #687299; opacity: 0;">OH</text><text text-anchor="middle" transform="translate(390.04901960784315,20)" style="font-family: Lato; font-size: 13px; font-weight: normal; fill: #687299; opacity: 1;">OK</text><text text-anchor="middle" transform="translate(400.7352941176471,20)" style="font-family: Lato; font-size: 13px; font-weight: normal; fill: #687299; opacity: 0;">OR</text><text text-anchor="middle" transform="translate(411.421568627451,20)" style="font-family: Lato; font-size: 13px; font-weight: normal; fill: #687299; opacity: 0;">PA</text><text text-anchor="middle" transform="translate(422.1078431372549,20)" style="font-family: Lato; font-size: 13px; font-weight: normal; fill: #687299; opacity: 0;">RI</text><text text-anchor="middle" transform="translate(432.79411764705884,20)" style="font-family: Lato; font-size: 13px; font-weight: normal; fill: #687299; opacity: 1;">SC</text><text text-anchor="middle" transform="translate(443.48039215686276,20)" style="font-family: Lato; font-size: 13px; font-weight: normal; fill: #687299; opacity: 0;">SD</text><text text-anchor="middle" transform="translate(454.1666666666667,20)" style="font-family: Lato; font-size: 13px; font-weight: normal; fill: #687299; opacity: 0;">TN</text><text text-anchor="middle" transform="translate(464.8529411764706,20)" style="font-family: Lato; font-size: 13px; font-weight: normal; fill: #687299; opacity: 0;">TX</text><text text-anchor="middle" transform="translate(475.53921568627453,20)" style="font-family: Lato; font-size: 13px; font-weight: normal; fill: #687299; opacity: 1;">UT</text><text text-anchor="middle" transform="translate(486.22549019607845,20)" style="font-family: Lato; font-size: 13px; font-weight: normal; fill: #687299; opacity: 0;">VA</text><text text-anchor="middle" transform="translate(496.9117647058824,20)" style="font-family: Lato; font-size: 13px; font-weight: normal; fill: #687299; opacity: 0;">VT</text><text text-anchor="middle" transform="translate(507.5980392156863,20)" style="font-family: Lato; font-size: 13px; font-weight: normal; fill: #687299; opacity: 0;">WA</text><text text-anchor="middle" transform="translate(518.2843137254902,20)" style="font-family: Lato; font-size: 13px; font-weight: normal; fill: #687299; opacity: 1;">WI</text><text text-anchor="middle" transform="translate(528.9705882352941,20)" style="font-family: Lato; font-size: 13px; font-weight: normal; fill: #687299; opacity: 0;">WV</text><text text-anchor="middle" transform="translate(539.656862745098,20)" style="font-family: Lato; font-size: 13px; font-weight: normal; fill: #687299; opacity: 0;">WY</text></g></g><path class="foreground" aria-hidden="true" d="" style="pointer-events: none; display: none; fill: none;"/></g></g><g class="mark-group role-axis" aria-hidden="true"><g transform="translate(0.5,0.5)"><path class="background" aria-hidden="true" d="M0,0h0v0h0Z" style="pointer-events: none; fill: none;"/><g><g class="mark-rule role-axis-tick" style="pointer-events: none;"><line transform="translate(0,242)" x2="-5" y2="0" style="fill: none; stroke: #E4EEF5; stroke-width: 1; opacity: 1;"/><line transform="translate(0,215)" x2="-5" y2="0" style="fill: none; stroke: #E4EEF5; stroke-width: 1; opacity: 1;"/><line transform="translate(0,188)" x2="-5" y2="0" style="fill: none; stroke: #E4EEF5; stroke-width: 1; opacity: 1;"/><line transform="translate(0,161)" x2="-5" y2="0" style="fill: none; stroke: #E4EEF5; stroke-width: 1; opacity: 1;"/><line transform="translate(0,134)" x2="-5" y2="0" style="fill: none; stroke: #E4EEF5; stroke-width: 1; opacity: 1;"/><line transform="translate(0,108)" x2="-5" y2="0" style="fill: none; stroke: #E4EEF5; stroke-width: 1; opacity: 1;"/><line transform="translate(0,81)" x2="-5" y2="0" style="fill: none; stroke: #E4EEF5; stroke-width: 1; opacity: 1;"/><line transform="translate(0,54)" x2="-5" y2="0" style="fill: none; stroke: #E4EEF5; stroke-width: 1; opacity: 1;"/><line transform="translate(0,27)" x2="-5" y2="0" style="fill: none; stroke: #E4EEF5; stroke-width: 1; opacity: 1;"/><line transform="translate(0,0)" x2="-5" y2="0" style="fill: none; stroke: #E4EEF5; stroke-width: 1; opacity: 1;"/></g><g class="mark-text role-axis-label" style="pointer-events: none;"><text text-anchor="end" transform="translate(-15,246)" style="font-family: Lato; font-size: 13px; font-weight: normal; fill: #687299; opacity: 1;">20</text><text text-anchor="end" transform="translate(-15,219.1111111111111)" style="font-family: Lato; font-size: 13px; font-weight: normal; fill: #687299; opacity: 1;">40</text><text text-anchor="end" transform="translate(-15,192.22222222222223)" style="font-family: Lato; font-size: 13px; font-weight: normal; fill: #687299; opacity: 1;">60</text><text text-anchor="end" transform="translate(-15,165.33333333333334)" style="font-family: Lato; font-size: 13px; font-weight: normal; fill: #687299; opacity: 1;">80</text><text text-anchor="end" transform="translate(-15,138.44444444444446)" style="font-family: Lato; font-size: 13px; font-weight: normal; fill: #687299; opacity: 1;">100</text><text text-anchor="end" transform="translate(-15,111.55555555555554)" style="font-family: Lato; font-size: 13px; font-weight: normal; fill: #687299; opacity: 1;">120</text><text text-anchor="end" transform="translate(-15,84.66666666666667)" style="font-family: Lato; font-size: 13px; font-weight: normal; fill: #687299; opacity: 1;">140</text><text text-anchor="end" transform="translate(-15,57.77777777777777)" style="font-family: Lato; font-size: 13px; font-weight: normal; fill: #687299; opacity: 1;">160</text><text text-anchor="end" transform="translate(-15,30.8888888888889)" style="font-family: Lato; font-size: 13px; font-weight: normal; fill: #687299; opacity: 1;">180</text><text text-anchor="end" transform="translate(-15,4)" style="font-family: Lato; font-size: 13px; font-weight: normal; fill: #687299; opacity: 1;">200</text></g></g><path class="foreground" aria-hidden="true" d="" style="pointer-events: none; display: none; fill: none;"/></g></g><g class="mark-symbol role-mark marks" role="graphics-symbol" aria-roledescription="symbol mark container"><path transform="translate(5.34313725490199,203.01111111111112)" d="M8.60279725726766,0A8.60279725726766,8.60279725726766,0,1,1,-8.60279725726766,0A8.60279725726766,8.60279725726766,0,1,1,8.60279725726766,0" style="fill: #475999; stroke-width: 2; opacity: 0.6;"/><path transform="translate(16.029411764705912,227.2111111111111)" d="M4.868336066428082,0A4.868336066428082,4.868336066428082,0,1,1,-4.868336066428082,0A4.868336066428082,4.868336066428082,0,1,1,4.868336066428082,0" style="fill: #475999; stroke-width: 2; opacity: 0.6;"/><path transform="translate(26.71568627450983,229.89999999999998)" d="M3.669969685733049,0A3.669969685733049,3.669969685733049,0,1,1,-3.669969685733049,0A3.669969685733049,3.669969685733049,0,1,1,3.669969685733049,0" style="fill: #475999; stroke-width: 2; opacity: 0.6;"/><path transform="translate(37.40196078431375,64.53333333333335)" d="M17.344101747546176,0A17.344101747546176,17.344101747546176,0,1,1,-17.344101747546176,0A17.344101747546176,17.344101747546176,0,1,1,17.344101747546176,0" style="fill: #475999; stroke-width: 2; opacity: 0.6;"/><path transform="translate(48.08823529411767,201.66666666666669)" d="M8.092060214499222,0A8.092060214499222,8.092060214499222,0,1,1,-8.092060214499222,0A8.092060214499222,8.092060214499222,0,1,1,8.092060214499222,0" style="fill: #475999; stroke-width: 2; opacity: 0.6;"/><path transform="translate(58.774509803921596,196.2888888888889)" d="M8.19675392713453,0A8.19675392713453,8.19675392713453,0,1,1,-8.19675392713453,0A8.19675392713453,8.19675392713453,0,1,1,8.19675392713453,0" style="fill: #475999; stroke-width: 2; opacity: 0.6;"/><path transform="translate(69.46078431372551,211.07777777777778)" d="M6.897492735225068,0A6.897492735225068,6.897492735225068,0,1,1,-6.897492735225068,0A6.897492735225068,6.897492735225068,0,1,1,6.897492735225068,0" style="fill: #475999; stroke-width: 2; opacity: 0.6;"/><path transform="translate(80.14705882352943,212.42222222222222)" d="M6.835403266744803,0A6.835403266744803,6.835403266744803,0,1,1,-6.835403266744803,0A6.835403266744803,6.835403266744803,0,1,1,6.835403266744803,0" style="fill: #475999; stroke-width: 2; opacity: 0.6;"/><path transform="translate(90.83333333333336,203.01111111111112)" d="M7.932429254314846,0A7.932429254314846,7.932429254314846,0,1,1,-7.932429254314846,0A7.932429254314846,7.932429254314846,0,1,1,7.932429254314846,0" style="fill: #475999; stroke-width: 2; opacity: 0.6;"/><path transform="translate(101.51960784313728,227.2111111111111)" d="M3.669969685733049,0A3.669969685733049,3.669969685733049,0,1,1,-3.669969685733049,0A3.669969685733049,3.669969685733049,0,1,1,3.669969685733049,0" style="fill: #475999; stroke-width: 2; opacity: 0.6;"/><path transform="translate(112.2058823529412,219.14444444444445)" d="M5.44696002829872,0A5.44696002829872,5.44696002829872,0,1,1,-5.44696002829872,0A5.44696002829872,5.44696002829872,0,1,1,5.44696002829872,0" style="fill: #475999; stroke-width: 2; opacity: 0.6;"/><path transform="translate(122.89215686274513,190.9111111111111)" d="M8.798795002923995,0A8.798795002923995,8.798795002923995,0,1,1,-8.798795002923995,0A8.798795002923995,8.798795002923995,0,1,1,8.798795002923995,0" style="fill: #475999; stroke-width: 2; opacity: 0.6;"/><path transform="translate(133.57843137254903,228.55555555555554)" d="M4.779961071204176,0A4.779961071204176,4.779961071204176,0,1,1,-4.779961071204176,0A4.779961071204176,4.779961071204176,0,1,1,4.779961071204176,0" style="fill: #475999; stroke-width: 2; opacity: 0.6;"/><path transform="translate(144.26470588235296,190.9111111111111)" d="M9.178242708227804,0A9.178242708227804,9.178242708227804,0,1,1,-9.178242708227804,0A9.178242708227804,9.178242708227804,0,1,1,9.178242708227804,0" style="fill: #475999; stroke-width: 2; opacity: 0.6;"/><path transform="translate(154.95098039215688,228.55555555555554)" d="M5.5246757156724655,0A5.5246757156724655,5.5246757156724655,0,1,1,-5.5246757156724655,0A5.5246757156724655,5.5246757156724655,0,1,1,5.5246757156724655,0" style="fill: #475999; stroke-width: 2; opacity: 0.6;"/><path transform="translate(165.6372549019608,236.6222222222222)" d="M2.7386127875258306,0A2.7386127875258306,2.7386127875258306,0,1,1,-2.7386127875258306,0A2.7386127875258306,2.7386127875258306,0,1,1,2.7386127875258306,0" style="fill: #475999; stroke-width: 2; opacity: 0.6;"/><path transform="translate(176.32352941176472,211.07777777777778)" d="M6.709500830323472,0A6.709500830323472,6.709500830323472,0,1,1,-6.709500830323472,0A6.709500830323472,6.709500830323472,0,1,1,6.709500830323472,0" style="fill: #475999; stroke-width: 2; opacity: 0.6;"/><path transform="translate(187.00980392156865,233.93333333333334)" d="M3.5519022059654826,0A3.5519022059654826,3.5519022059654826,0,1,1,-3.5519022059654826,0A3.5519022059654826,3.5519022059654826,0,1,1,3.5519022059654826,0" style="fill: #475999; stroke-width: 2; opacity: 0.6;"/><path transform="translate(197.69607843137257,220.48888888888888)" d="M5.368119348191405,0A5.368119348191405,5.368119348191405,0,1,1,-5.368119348191405,0A5.368119348191405,5.368119348191405,0,1,1,5.368119348191405,0" style="fill: #475999; stroke-width: 2; opacity: 0.6;"/><path transform="translate(208.3823529411765,200.32222222222222)" d="M8.144575294546566,0A8.144575294546566,8.144575294546566,0,1,1,-8.144575294546566,0A8.144575294546566,8.144575294546566,0,1,1,8.144575294546566,0" style="fill: #475999; stroke-width: 2; opacity: 0.6;"/><path transform="translate(219.06862745098042,197.63333333333333)" d="M8.55309607313018,0A8.55309607313018,8.55309607313018,0,1,1,-8.55309607313018,0A8.55309607313018,8.55309607313018,0,1,1,8.55309607313018,0" style="fill: #475999; stroke-width: 2; opacity: 0.6;"/><path transform="translate(229.75490196078434,212.42222222222222)" d="M6.248897814647942,0A6.248897814647942,6.248897814647942,0,1,1,-6.248897814647942,0A6.248897814647942,6.248897814647942,0,1,1,6.248897814647942,0" style="fill: #475999; stroke-width: 2; opacity: 0.6;"/><path transform="translate(240.44117647058826,228.55555555555554)" d="M4.310996030494809,0A4.310996030494809,4.310996030494809,0,1,1,-4.310996030494809,0A4.310996030494809,4.310996030494809,0,1,1,4.310996030494809,0" style="fill: #475999; stroke-width: 2; opacity: 0.6;"/><path transform="translate(251.12745098039218,219.14444444444445)" d="M6.040754858255763,0A6.040754858255763,6.040754858255763,0,1,1,-6.040754858255763,0A6.040754858255763,6.040754858255763,0,1,1,6.040754858255763,0" style="fill: #475999; stroke-width: 2; opacity: 0.6;"/><path transform="translate(261.8137254901961,219.14444444444445)" d="M6.516087534075962,0A6.516087534075962,6.516087534075962,0,1,1,-6.516087534075962,0A6.516087534075962,6.516087534075962,0,1,1,6.516087534075962,0" style="fill: #475999; stroke-width: 2; opacity: 0.6;"/><path transform="translate(272.5,231.24444444444447)" d="M4.108448654666119,0A4.108448654666119,4.108448654666119,0,1,1,-4.108448654666119,0A4.108448654666119,4.108448654666119,0,1,1,4.108448654666119,0" style="fill: #475999; stroke-width: 2; opacity: 0.6;"/><path transform="translate(283.1862745098039,204.35555555555555)" d="M6.959028254428895,0A6.959028254428895,6.959028254428895,0,1,1,-6.959028254428895,0A6.959028254428895,6.959028254428895,0,1,1,6.959028254428895,0" style="fill: #475999; stroke-width: 2; opacity: 0.6;"/><path transform="translate(293.87254901960785,220.48888888888888)" d="M5.601313236804218,0A5.601313236804218,5.601313236804218,0,1,1,-5.601313236804218,0A5.601313236804218,5.601313236804218,0,1,1,5.601313236804218,0" style="fill: #475999; stroke-width: 2; opacity: 0.6;"/><path transform="translate(304.55882352941177,212.42222222222222)" d="M6.040754858255763,0A6.040754858255763,6.040754858255763,0,1,1,-6.040754858255763,0A6.040754858255763,6.040754858255763,0,1,1,6.040754858255763,0" style="fill: #475999; stroke-width: 2; opacity: 0.6;"/><path transform="translate(315.2450980392157,220.48888888888888)" d="M5.206857872989501,0A5.206857872989501,5.206857872989501,0,1,1,-5.206857872989501,0A5.206857872989501,5.206857872989501,0,1,1,5.206857872989501,0" style="fill: #475999; stroke-width: 2; opacity: 0.6;"/><path transform="translate(325.9313725490196,212.42222222222222)" d="M7.658987714275601,0A7.658987714275601,7.658987714275601,0,1,1,-7.658987714275601,0A7.658987714275601,7.658987714275601,0,1,1,7.658987714275601,0" style="fill: #475999; stroke-width: 2; opacity: 0.6;"/><path transform="translate(336.61764705882354,196.2888888888889)" d="M7.932429254314846,0A7.932429254314846,7.932429254314846,0,1,1,-7.932429254314846,0A7.932429254314846,7.932429254314846,0,1,1,7.932429254314846,0" style="fill: #475999; stroke-width: 2; opacity: 0.6;"/><path transform="translate(347.30392156862746,36.300000000000004)" d="M17.92433827376074,0A17.92433827376074,17.92433827376074,0,1,1,-17.92433827376074,0A17.92433827376074,17.92433827376074,0,1,1,17.92433827376074,0" style="fill: #475999; stroke-width: 2; opacity: 0.6;"/><path transform="translate(357.9901960784314,196.2888888888889)" d="M8.847116011273807,0A8.847116011273807,8.847116011273807,0,1,1,-8.847116011273807,0A8.847116011273807,8.847116011273807,0,1,1,8.847116011273807,0" style="fill: #475999; stroke-width: 2; opacity: 0.6;"/><path transform="translate(368.6764705882353,208.3888888888889)" d="M7.375415360516262,0A7.375415360516262,7.375415360516262,0,1,1,-7.375415360516262,0A7.375415360516262,7.375415360516262,0,1,1,7.375415360516262,0" style="fill: #475999; stroke-width: 2; opacity: 0.6;"/><path transform="translate(379.3627450980392,229.89999999999998)" d="M2.7386127875258306,0A2.7386127875258306,2.7386127875258306,0,1,1,-2.7386127875258306,0A2.7386127875258306,2.7386127875258306,0,1,1,2.7386127875258306,0" style="fill: #475999; stroke-width: 2; opacity: 0.6;"/><path transform="translate(390.04901960784315,6.722222222222225)" d="M19.364916731037084,0A19.364916731037084,19.364916731037084,0,1,1,-19.364916731037084,0A19.364916731037084,19.364916731037084,0,1,1,19.364916731037084,0" style="fill: #475999; stroke-width: 2; opacity: 0.6;"/><path transform="translate(400.7352941176471,209.73333333333335)" d="M7.375415360516262,0A7.375415360516262,7.375415360516262,0,1,1,-7.375415360516262,0A7.375415360516262,7.375415360516262,0,1,1,7.375415360516262,0" style="fill: #475999; stroke-width: 2; opacity: 0.6;"/><path transform="translate(411.421568627451,211.07777777777778)" d="M7.258885266569865,0A7.258885266569865,7.258885266569865,0,1,1,-7.258885266569865,0A7.258885266569865,7.258885266569865,0,1,1,7.258885266569865,0" style="fill: #475999; stroke-width: 2; opacity: 0.6;"/><path transform="translate(422.1078431372549,208.3888888888889)" d="M7.375415360516262,0A7.375415360516262,7.375415360516262,0,1,1,-7.375415360516262,0A7.375415360516262,7.375415360516262,0,1,1,7.375415360516262,0" style="fill: #475999; stroke-width: 2; opacity: 0.6;"/><path transform="translate(432.79411764705884,232.5888888888889)" d="M3.429772742804599,0A3.429772742804599,3.429772742804599,0,1,1,-3.429772742804599,0A3.429772742804599,3.429772742804599,0,1,1,3.429772742804599,0" style="fill: #475999; stroke-width: 2; opacity: 0.6;"/><path transform="translate(443.48039215686276,235.27777777777777)" d="M3.429772742804599,0A3.429772742804599,3.429772742804599,0,1,1,-3.429772742804599,0A3.429772742804599,3.429772742804599,0,1,1,3.429772742804599,0" style="fill: #475999; stroke-width: 2; opacity: 0.6;"/><path transform="translate(454.1666666666667,213.76666666666665)" d="M6.897492735225068,0A6.897492735225068,6.897492735225068,0,1,1,-6.897492735225068,0A6.897492735225068,6.897492735225068,0,1,1,6.897492735225068,0" style="fill: #475999; stroke-width: 2; opacity: 0.6;"/><path transform="translate(464.8529411764706,43.02222222222223)" d="M17.78105433520357,0A17.78105433520357,17.78105433520357,0,1,1,-17.78105433520357,0A17.78105433520357,17.78105433520357,0,1,1,17.78105433520357,0" style="fill: #475999; stroke-width: 2; opacity: 0.6;"/><path transform="translate(475.53921568627453,201.66666666666669)" d="M7.658987714275601,0A7.658987714275601,7.658987714275601,0,1,1,-7.658987714275601,0A7.658987714275601,7.658987714275601,0,1,1,7.658987714275601,0" style="fill: #475999; stroke-width: 2; opacity: 0.6;"/><path transform="translate(486.22549019607845,223.17777777777778)" d="M5.751525571855896,0A5.751525571855896,5.751525571855896,0,1,1,-5.751525571855896,0A5.751525571855896,5.751525571855896,0,1,1,5.751525571855896,0" style="fill: #475999; stroke-width: 2; opacity: 0.6;"/><path transform="translate(496.9117647058824,189.56666666666666)" d="M9.807012501242975,0A9.807012501242975,9.807012501242975,0,1,1,-9.807012501242975,0A9.807012501242975,9.807012501242975,0,1,1,9.807012501242975,0" style="fill: #475999; stroke-width: 2; opacity: 0.6;"/><path transform="translate(507.5980392156863,212.42222222222222)" d="M7.375415360516262,0A7.375415360516262,7.375415360516262,0,1,1,-7.375415360516262,0A7.375415360516262,7.375415360516262,0,1,1,7.375415360516262,0" style="fill: #475999; stroke-width: 2; opacity: 0.6;"/><path transform="translate(518.2843137254902,227.2111111111111)" d="M3.895383668024716,0A3.895383668024716,3.895383668024716,0,1,1,-3.895383668024716,0A3.895383668024716,3.895383668024716,0,1,1,3.895383668024716,0" style="fill: #475999; stroke-width: 2; opacity: 0.6;"/><path transform="translate(528.9705882352941,221.83333333333331)" d="M5.751525571855896,0A5.751525571855896,5.751525571855896,0,1,1,-5.751525571855896,0A5.751525571855896,5.751525571855896,0,1,1,5.751525571855896,0" style="fill: #475999; stroke-width: 2; opacity: 0.6;"/><path transform="translate(539.656862745098,196.2888888888889)" d="M8.144575294546566,0A8.144575294546566,8.144575294546566,0,1,1,-8.144575294546566,0A8.144575294546566,8.144575294546566,0,1,1,8.144575294546566,0" style="fill: #475999; stroke-width: 2; opacity: 0.6;"/></g><g class="mark-group role-legend" aria-hidden="true"><g transform="translate(552,0)"><path class="background" aria-hidden="true" d="M5,0L70,0C72.75957512247,0,75,2.24042487753,75,5L75,130C75,132.75957512247,72.75957512247,135,70,135L5,135C2.24042487753,135,0,132.75957512247,0,130L0,5C0,2.24042487753,2.24042487753,0,5,0Z" style="pointer-events: none; fill: none;"/><g><g class="mark-group role-legend-entry"><g transform="translate(5,5)"><path class="background" aria-hidden="true" d="M0,0h0v0h0Z" style="pointer-events: none; fill: none;"/><g><g class="mark-group role-scope" role="graphics-object" aria-roledescription="group mark container"><g transform="translate(0,0)"><path class="background" aria-hidden="true" d="M0,0h64.35989379882812v15.38389068866518h-64.35989379882812Z" style="pointer-events: none; fill: none; opacity: 1;"/><g><g class="mark-symbol role-legend-symbol" style="pointer-events: none;"><path transform="translate(18,7.5)" d="M6.38389068866518,0A6.38389068866518,6.38389068866518,0,1,1,-6.38389068866518,0A6.38389068866518,6.38389068866518,0,1,1,6.38389068866518,0" style="fill: #475999; stroke: none; stroke-width: 1.5; opacity: 0.6;"/></g><g class="mark-text role-legend-label" style="pointer-events: none;"><text text-anchor="start" transform="translate(40,11.5)" style="font-family: Lato; font-size: 14px; font-weight: normal; fill: #687299; opacity: 1;">100</text></g></g><path class="foreground" aria-hidden="true" d="" style="pointer-events: none; display: none; fill: none;"/></g><g transform="translate(0,21)"><path class="background" aria-hidden="true" d="M0,0h64.35989379882812v24.725902265320755h-64.35989379882812Z" style="pointer-events: none; fill: none; opacity: 1;"/><g><g class="mark-symbol role-legend-symbol" style="pointer-events: none;"><path transform="translate(18,12)" d="M11.225902265320753,0A11.225902265320753,11.225902265320753,0,1,1,-11.225902265320753,0A11.225902265320753,11.225902265320753,0,1,1,11.225902265320753,0" style="fill: #475999; stroke: none; stroke-width: 1.5; opacity: 0.6;"/></g><g class="mark-text role-legend-label" style="pointer-events: none;"><text text-anchor="start" transform="translate(40,16)" style="font-family: Lato; font-size: 14px; font-weight: normal; fill: #687299; opacity: 1;">200</text></g></g><path class="foreground" aria-hidden="true" d="" style="pointer-events: none; display: none; fill: none;"/></g><g transform="translate(0,51)"><path class="background" aria-hidden="true" d="M0,0h64.35989379882812v31.535738819070787h-64.35989379882812Z" style="pointer-events: none; fill: none; opacity: 1;"/><g><g class="mark-symbol role-legend-symbol" style="pointer-events: none;"><path transform="translate(18,15.5)" d="M14.535738819070783,0A14.535738819070783,14.535738819070783,0,1,1,-14.535738819070783,0A14.535738819070783,14.535738819070783,0,1,1,14.535738819070783,0" style="fill: #475999; stroke: none; stroke-width: 1.5; opacity: 0.6;"/></g><g class="mark-text role-legend-label" style="pointer-events: none;"><text text-anchor="start" transform="translate(40,19.5)" style="font-family: Lato; font-size: 14px; font-weight: normal; fill: #687299; opacity: 1;">300</text></g></g><path class="foreground" aria-hidden="true" d="" style="pointer-events: none; display: none; fill: none;"/></g><g transform="translate(0,88)"><path class="background" aria-hidden="true" d="M0,0h64.35989379882812v36.72075853038852h-64.35989379882812Z" style="pointer-events: none; fill: none; opacity: 1;"/><g><g class="mark-symbol role-legend-symbol" style="pointer-events: none;"><path transform="translate(18,18)" d="M17.22075853038852,0A17.22075853038852,17.22075853038852,0,1,1,-17.22075853038852,0A17.22075853038852,17.22075853038852,0,1,1,17.22075853038852,0" style="fill: #475999; stroke: none; stroke-width: 1.5; opacity: 0.6;"/></g><g class="mark-text role-legend-label" style="pointer-events: none;"><text text-anchor="start" transform="translate(40,22)" style="font-family: Lato; font-size: 14px; font-weight: normal; fill: #687299; opacity: 1;">400</text></g></g><path class="foreground" aria-hidden="true" d="" style="pointer-events: none; display: none; fill: none;"/></g></g></g><path class="foreground" aria-hidden="true" d="" style="pointer-events: none; display: none; fill: none;"/></g></g></g><path class="foreground" aria-hidden="true" d="" style="pointer-events: none; display: none; fill: none;"/></g></g><g class="mark-group role-title"><g transform="translate(-37.620025634765625,-42.642694508814856)"><path class="background" aria-hidden="true" d="M0,0h0v0h0Z" style="pointer-events: none; fill: none;"/><g><g class="mark-text role-title-text" role="graphics-symbol" aria-roledescription="title" aria-label="Title text 'Orgs vs Users'" style="pointer-events: none;"><text text-anchor="start" transform="translate(0,12)" style="font-family: Lato; font-size: 15px; font-weight: 500; fill: #00092E; opacity: 1;">Orgs vs Users</text></g></g><path class="foreground" aria-hidden="true" d="" style="pointer-events: none; display: none; fill: none;"/></g></g></g><path class="foreground" aria-hidden="true" d="" style="display: none; fill: none;"/></g></g></g></svg>