<?xml version='1.0' encoding='utf-8'?>
<?xml-stylesheet href="https://fonts.googleapis.com/css?family=Open+Sans:300italic,400italic,600italic,700italic,800italic,400,300,600,700,800|Open+Sans+Condensed:300,300italic,700|Cousine|Lato|Noto+Serif" type="text/css"?><svg xmlns="http://www.w3.org/2000/svg" xmlns:xlink="http://www.w3.org/1999/xlink" class="marks" width="705" height="345" viewBox="0 0 705 345" version="1.1"><rect width="705" height="345" fill="#ffffff"/><rect width="705" height="345" style="fill: #ffffff;"/><g transform="translate(83,81)"><g class="mark-group role-frame root" role="graphics-object" aria-roledescription="group mark container"><g transform="translate(0,0)"><path class="background" aria-hidden="true" d="M0,0h554v221h-554Z" style="fill: none;"/><g><g class="mark-group role-axis" aria-hidden="true"><g transform="translate(0.5,221.5)"><path class="background" aria-hidden="true" d="M0,0h0v0h0Z" style="pointer-events: none; fill: none;"/><g><g class="mark-rule role-axis-tick" style="pointer-events: none;"><line transform="translate(46,0)" x2="0" y2="5" style="fill: none; stroke: #E4EEF5; stroke-width: 1; opacity: 1;"/><line transform="translate(138,0)" x2="0" y2="5" style="fill: none; stroke: #E4EEF5; stroke-width: 1; opacity: 1;"/><line transform="translate(230,0)" x2="0" y2="5" style="fill: none; stroke: #E4EEF5; stroke-width: 1; opacity: 1;"/><line transform="translate(323,0)" x2="0" y2="5" style="fill: none; stroke: #E4EEF5; stroke-width: 1; opacity: 1;"/><line transform="translate(415,0)" x2="0" y2="5" style="fill: none; stroke: #E4EEF5; stroke-width: 1; opacity: 1;"/><line transform="translate(507,0)" x2="0" y2="5" style="fill: none; stroke: #E4EEF5; stroke-width: 1; opacity: 1;"/></g><g class="mark-text role-axis-label" style="pointer-events: none;"><text text-anchor="middle" transform="translate(45.66666666666667,20)" style="font-family: Lato; font-size: 13px; font-weight: normal; fill: #687299; opacity: 1;">Jun 2020</text><text text-anchor="middle" transform="translate(138,20)" style="font-family: Lato; font-size: 13px; font-weight: normal; fill: #687299; opacity: 1;">Jul 2020</text><text text-anchor="middle" transform="translate(230.33333333333331,20)" style="font-family: Lato; font-size: 13px; font-weight: normal; fill: #687299; opacity: 1;">Aug 2020</text><text text-anchor="middle" transform="translate(322.6666666666667,20)" style="font-family: Lato; font-size: 13px; font-weight: normal; fill: #687299; opacity: 1;">Sep 2020</text><text text-anchor="middle" transform="translate(415,20)" style="font-family: Lato; font-size: 13px; font-weight: normal; fill: #687299; opacity: 1;">Oct 2020</text><text text-anchor="middle" transform="translate(507.3333333333333,20)" style="font-family: Lato; font-size: 13px; font-weight: normal; fill: #687299; opacity: 1;">Nov 2020</text></g></g><path class="foreground" aria-hidden="true" d="" style="pointer-events: none; display: none; fill: none;"/></g></g><g class="mark-group role-axis" aria-hidden="true"><g transform="translate(0.5,0.5)"><path class="background" aria-hidden="true" d="M0,0h0v0h0Z" style="pointer-events: none; fill: none;"/><g><g class="mark-rule role-axis-tick" style="pointer-events: none;"><line transform="translate(0,221)" x2="-5" y2="0" style="fill: none; stroke: #E4EEF5; stroke-width: 1; opacity: 1;"/><line transform="translate(0,189)" x2="-5" y2="0" style="fill: none; stroke: #E4EEF5; stroke-width: 1; opacity: 1;"/><line transform="translate(0,158)" x2="-5" y2="0" style="fill: none; stroke: #E4EEF5; stroke-width: 1; opacity: 1;"/><line transform="translate(0,126)" x2="-5" y2="0" style="fill: none; stroke: #E4EEF5; stroke-width: 1; opacity: 1;"/><line transform="translate(0,95)" x2="-5" y2="0" style="fill: none; stroke: #E4EEF5; stroke-width: 1; opacity: 1;"/><line transform="translate(0,63)" x2="-5" y2="0" style="fill: none; stroke: #E4EEF5; stroke-width: 1; opacity: 1;"/><line transform="translate(0,32)" x2="-5" y2="0" style="fill: none; stroke: #E4EEF5; stroke-width: 1; opacity: 1;"/><line transform="translate(0,0)" x2="-5" y2="0" style="fill: none; stroke: #E4EEF5; stroke-width: 1; opacity: 1;"/></g><g class="mark-text role-axis-label" style="pointer-events: none;"><text text-anchor="end" transform="translate(-15,225)" style="font-family: Lato; font-size: 13px; font-weight: normal; fill: #687299; opacity: 1;">0</text><text text-anchor="end" transform="translate(-15,193.42857142857144)" style="font-family: Lato; font-size: 13px; font-weight: normal; fill: #687299; opacity: 1;">50,000</text><text text-anchor="end" transform="translate(-15,161.85714285714286)" style="font-family: Lato; font-size: 13px; font-weight: normal; fill: #687299; opacity: 1;">100,000</text><text text-anchor="end" transform="translate(-15,130.28571428571428)" style="font-family: Lato; font-size: 13px; font-weight: normal; fill: #687299; opacity: 1;">150,000</text><text text-anchor="end" transform="translate(-15,98.71428571428572)" style="font-family: Lato; font-size: 13px; font-weight: normal; fill: #687299; opacity: 1;">200,000</text><text text-anchor="end" transform="translate(-15,67.14285714285714)" style="font-family: Lato; font-size: 13px; font-weight: normal; fill: #687299; opacity: 1;">250,000</text><text text-anchor="end" transform="translate(-15,35.571428571428584)" style="font-family: Lato; font-size: 13px; font-weight: normal; fill: #687299; opacity: 1;">300,000</text><text text-anchor="end" transform="translate(-15,4)" style="font-family: Lato; font-size: 13px; font-weight: normal; fill: #687299; opacity: 1;">350,000</text></g></g><path class="foreground" aria-hidden="true" d="" style="pointer-events: none; display: none; fill: none;"/></g></g><g class="mark-group role-axis" aria-hidden="true"><g transform="translate(554.5,0.5)"><path class="background" aria-hidden="true" d="M0,0h0v0h0Z" style="pointer-events: none; fill: none;"/><g><g class="mark-rule role-axis-tick" style="pointer-events: none;"><line transform="translate(0,221)" x2="5" y2="0" style="fill: none; stroke: #E4EEF5; stroke-width: 1; opacity: 1;"/><line transform="translate(0,181)" x2="5" y2="0" style="fill: none; stroke: #E4EEF5; stroke-width: 1; opacity: 1;"/><line transform="translate(0,141)" x2="5" y2="0" style="fill: none; stroke: #E4EEF5; stroke-width: 1; opacity: 1;"/><line transform="translate(0,100)" x2="5" y2="0" style="fill: none; stroke: #E4EEF5; stroke-width: 1; opacity: 1;"/><line transform="translate(0,60)" x2="5" y2="0" style="fill: none; stroke: #E4EEF5; stroke-width: 1; opacity: 1;"/><line transform="translate(0,20)" x2="5" y2="0" style="fill: none; stroke: #E4EEF5; stroke-width: 1; opacity: 1;"/></g><g class="mark-text role-axis-label" style="pointer-events: none;"><text text-anchor="start" transform="translate(15,225)" style="font-family: Lato; font-size: 13px; font-weight: normal; fill: #687299; opacity: 1;">1,200</text><text text-anchor="start" transform="translate(15,184.8181818181818)" style="font-family: Lato; font-size: 13px; font-weight: normal; fill: #687299; opacity: 1;">1,400</text><text text-anchor="start" transform="translate(15,144.63636363636363)" style="font-family: Lato; font-size: 13px; font-weight: normal; fill: #687299; opacity: 1;">1,600</text><text text-anchor="start" transform="translate(15,104.45454545454547)" style="font-family: Lato; font-size: 13px; font-weight: normal; fill: #687299; opacity: 1;">1,800</text><text text-anchor="start" transform="translate(15,64.27272727272727)" style="font-family: Lato; font-size: 13px; font-weight: normal; fill: #687299; opacity: 1;">2,000</text><text text-anchor="start" transform="translate(15,24.090909090909097)" style="font-family: Lato; font-size: 13px; font-weight: normal; fill: #687299; opacity: 1;">2,200</text></g></g><path class="foreground" aria-hidden="true" d="" style="pointer-events: none; display: none; fill: none;"/></g></g><g class="mark-rect role-mark Left_Y_Axis_Layers_layer_0_marks" role="graphics-symbol" aria-roledescription="rect mark container" style="pointer-events: none;"><path d="M4.616666666666674,99.55102857142857h83.1v121.44897142857143h-83.1Z" style="fill: #475999; stroke-dasharray: 1,0;"/><path d="M96.95,84.08102857142856h83.1v136.91897142857144h-83.1Z" style="fill: #475999; stroke-dasharray: 1,0;"/><path d="M189.28333333333333,65.70645714285715h83.1v155.29354285714285h-83.1Z" style="fill: #475999; stroke-dasharray: 1,0;"/><path d="M281.6166666666667,54.41651428571429h83.1v166.5834857142857h-83.1Z" style="fill: #475999; stroke-dasharray: 1,0;"/><path d="M373.95,22.983999999999995h83.1v198.01600000000002h-83.1Z" style="fill: #475999; stroke-dasharray: 1,0;"/><path d="M466.2833333333333,10.027085714285725h83.1v210.97291428571427h-83.1Z" style="fill: #475999; stroke-dasharray: 1,0;"/></g><g class="mark-group role-scope Right_Y_Axis_Layers_layer_0_pathgroup" role="graphics-object" aria-roledescription="group mark container"><g transform="translate(0,0)"><path class="background" aria-hidden="true" d="M0,0h554v221h-554Z" style="fill: none;"/><g><g class="mark-line role-mark Right_Y_Axis_Layers_layer_0_marks" role="graphics-symbol" aria-roledescription="line mark container" style="pointer-events: none;"><path d="M46.16666666666667,203.7218181818182L138.5,170.3709090909091L230.83333333333331,133.60454545454544L323.1666666666667,107.88818181818182L415.5,41.98999999999999L507.8333333333333,11.652727272727274" style="fill: none; stroke: #E59043; stroke-width: 1.75; stroke-dasharray: 1,0;"/></g></g><path class="foreground" aria-hidden="true" d="" style="display: none; fill: none;"/></g></g><g class="mark-rule role-mark layer_1_layer_0_marks" role="graphics-symbol" aria-roledescription="rule mark container"><line transform="translate(46.16666666666667,0)" x2="0" y2="221" style="fill: none; stroke: black; opacity: 0;"/><line transform="translate(46.16666666666667,0)" x2="0" y2="221" style="fill: none; stroke: black; opacity: 0;"/><line transform="translate(138.5,0)" x2="0" y2="221" style="fill: none; stroke: black; opacity: 0;"/><line transform="translate(138.5,0)" x2="0" y2="221" style="fill: none; stroke: black; opacity: 0;"/><line transform="translate(230.83333333333331,0)" x2="0" y2="221" style="fill: none; stroke: black; opacity: 0;"/><line transform="translate(230.83333333333331,0)" x2="0" y2="221" style="fill: none; stroke: black; opacity: 0;"/><line transform="translate(323.1666666666667,0)" x2="0" y2="221" style="fill: none; stroke: black; opacity: 0;"/><line transform="translate(323.1666666666667,0)" x2="0" y2="221" style="fill: none; stroke: black; opacity: 0;"/><line transform="translate(415.5,0)" x2="0" y2="221" style="fill: none; stroke: black; opacity: 0;"/><line transform="translate(415.5,0)" x2="0" y2="221" style="fill: none; stroke: black; opacity: 0;"/><line transform="translate(507.8333333333333,0)" x2="0" y2="221" style="fill: none; stroke: black; opacity: 0;"/><line transform="translate(507.8333333333333,0)" x2="0" y2="221" style="fill: none; stroke: black; opacity: 0;"/></g><g class="mark-path role-mark layer_1_layer_0_voronoi" role="graphics-symbol" aria-roledescription="path mark container"><path transform="translate(0,0)" d="M92.33333583615143,0L92.33331882374863,221L0,221L0,0Z" style="fill: none; stroke: none; stroke-width: 0.35;"/><path transform="translate(0,0)" style="fill: none; stroke: none; stroke-width: 0.35;"/><path transform="translate(0,0)" d="M92.33331882374863,221L92.33333583615143,0L184.6666649801383,0L184.6666764439759,221Z" style="fill: none; stroke: none; stroke-width: 0.35;"/><path transform="translate(0,0)" style="fill: none; stroke: none; stroke-width: 0.35;"/><path transform="translate(0,0)" d="M276.99999863365207,0L277.0000079211274,221L184.6666764439759,221L184.6666649801383,0Z" style="fill: none; stroke: none; stroke-width: 0.35;"/><path transform="translate(0,0)" style="fill: none; stroke: none; stroke-width: 0.35;"/><path transform="translate(0,0)" d="M369.3333359405775,0L369.3333182183591,221L277.0000079211274,221L276.99999863365207,0Z" style="fill: none; stroke: none; stroke-width: 0.35;"/><path transform="translate(0,0)" style="fill: none; stroke: none; stroke-width: 0.35;"/><path transform="translate(0,0)" d="M369.3333182183591,221L369.3333359405775,0L461.6666662761186,0L461.66666893079065,221Z" style="fill: none; stroke: none; stroke-width: 0.35;"/><path transform="translate(0,0)" style="fill: none; stroke: none; stroke-width: 0.35;"/><path transform="translate(0,0)" d="M554,0L554,221L461.66666893079065,221L461.6666662761186,0Z" style="fill: none; stroke: none; stroke-width: 0.35;"/><path transform="translate(0,0)" style="fill: none; stroke: none; stroke-width: 0.35;"/></g><g class="mark-group role-legend" aria-hidden="true"><g transform="translate(338,-31)"><path class="background" aria-hidden="true" d="M5,0L211,0C213.75957512247,0,216,2.24042487753,216,5L216,19C216,21.75957512247,213.75957512247,24,211,24L5,24C2.24042487753,24,0,21.75957512247,0,19L0,5C0,2.24042487753,2.24042487753,0,5,0Z" style="pointer-events: none; fill: none;"/><g><g class="mark-group role-legend-entry"><g transform="translate(5,5)"><path class="background" aria-hidden="true" d="M0,0h0v0h0Z" style="pointer-events: none; fill: none;"/><g><g class="mark-group role-scope" role="graphics-object" aria-roledescription="group mark container"><g transform="translate(0,0)"><path class="background" aria-hidden="true" d="M0,0h100.76766967773438v14h-100.76766967773438Z" style="pointer-events: none; fill: none; opacity: 1;"/><g><g class="mark-symbol role-legend-symbol" style="pointer-events: none;"><path transform="translate(7,7)" d="M-5,-5h10v10h-10Z" style="fill: #475999; stroke: #475999; stroke-width: 0; stroke-dasharray: 1,0; opacity: 1;"/></g><g class="mark-text role-legend-label" style="pointer-events: none;"><text text-anchor="start" transform="translate(18,11)" style="font-family: Lato; font-size: 14px; font-weight: normal; fill: #687299; opacity: 1;">Total Amount</text></g></g><path class="foreground" aria-hidden="true" d="" style="pointer-events: none; display: none; fill: none;"/></g><g transform="translate(111,0)"><path class="background" aria-hidden="true" d="M0,0h94.18768310546875v14h-94.18768310546875Z" style="pointer-events: none; fill: none; opacity: 1;"/><g><g class="mark-symbol role-legend-symbol" style="pointer-events: none;"><path transform="translate(7,7)" d="M-5,-5h10v10h-10Z" style="fill: #E59043; stroke: #E59043; stroke-width: 0; stroke-dasharray: 1,0; opacity: 1;"/></g><g class="mark-text role-legend-label" style="pointer-events: none;"><text text-anchor="start" transform="translate(18,11)" style="font-family: Lato; font-size: 14px; font-weight: normal; fill: #687299; opacity: 1;"># of Invoices</text></g></g><path class="foreground" aria-hidden="true" d="" style="pointer-events: none; display: none; fill: none;"/></g></g></g><path class="foreground" aria-hidden="true" d="" style="pointer-events: none; display: none; fill: none;"/></g></g></g><path class="foreground" aria-hidden="true" d="" style="pointer-events: none; display: none; fill: none;"/></g></g><g class="mark-group role-title"><g transform="translate(-62.99604797363281,-61)"><path class="background" aria-hidden="true" d="M0,0h0v0h0Z" style="pointer-events: none; fill: none;"/><g><g class="mark-text role-title-text" role="graphics-symbol" aria-roledescription="title" aria-label="Title text 'Invoices'" style="pointer-events: none;"><text text-anchor="start" transform="translate(0,12)" style="font-family: Lato; font-size: 15px; font-weight: 500; fill: #00092E; opacity: 1;">Invoices</text></g></g><path class="foreground" aria-hidden="true" d="" style="pointer-events: none; display: none; fill: none;"/></g></g></g><path class="foreground" aria-hidden="true" d="" style="display: none; fill: none;"/></g></g></g></svg>