<?xml version="1.0" encoding="utf-8"?>
<!-- Generator: Adobe Illustrator 16.0.0, SVG Export Plug-In . SVG Version: 6.00 Build 0)  -->
<!DOCTYPE svg PUBLIC "-//W3C//DTD SVG 1.1//EN" "http://www.w3.org/Graphics/SVG/1.1/DTD/svg11.dtd">
<svg version="1.1" xmlns="http://www.w3.org/2000/svg" xmlns:xlink="http://www.w3.org/1999/xlink" x="0px" y="0px" width="730px"
	 height="320px" viewBox="0 0 730 320" enable-background="new 0 0 730 320" xml:space="preserve">
<g id="Layer_4">
	<g>
		<path fill="#CCCCCC" d="M35.701,294.213c0.281,0.52,0.422,1.229,0.422,2.132c0,0.855-0.127,1.563-0.382,2.122
			c-0.369,0.804-0.973,1.205-1.811,1.205c-0.756,0-1.318-0.328-1.688-0.984c-0.308-0.548-0.461-1.283-0.461-2.207
			c0-0.714,0.092-1.328,0.277-1.841c0.346-0.955,0.971-1.433,1.876-1.433C34.749,293.207,35.338,293.543,35.701,294.213z
			 M34.905,298.406c0.244-0.363,0.365-1.04,0.365-2.031c0-0.714-0.088-1.303-0.264-1.764c-0.176-0.462-0.518-0.692-1.025-0.692
			c-0.467,0-0.808,0.219-1.023,0.657c-0.216,0.438-0.324,1.083-0.324,1.936c0,0.642,0.069,1.157,0.207,1.547
			c0.211,0.595,0.572,0.893,1.083,0.893C34.334,298.951,34.662,298.77,34.905,298.406z"/>
		<path fill="#CCCCCC" d="M37.817,295.044v-0.606c0.571-0.056,0.97-0.148,1.195-0.279c0.226-0.13,0.394-0.438,0.505-0.925h0.624
			v6.267h-0.844v-4.456H37.817z"/>
		<path fill="#CCCCCC" d="M43.408,294.855h0.918v0.957h-0.918V294.855z M43.408,298.542h0.918v0.958h-0.918V298.542z"/>
		<path fill="#CCCCCC" d="M49.562,294.213c0.281,0.52,0.422,1.229,0.422,2.132c0,0.855-0.127,1.563-0.382,2.122
			c-0.369,0.804-0.973,1.205-1.811,1.205c-0.756,0-1.318-0.328-1.688-0.984c-0.308-0.548-0.461-1.283-0.461-2.207
			c0-0.714,0.092-1.328,0.277-1.841c0.346-0.955,0.971-1.433,1.876-1.433C48.61,293.207,49.199,293.543,49.562,294.213z
			 M48.767,298.406c0.244-0.363,0.365-1.04,0.365-2.031c0-0.714-0.088-1.303-0.264-1.764c-0.176-0.462-0.518-0.692-1.025-0.692
			c-0.467,0-0.808,0.219-1.023,0.657c-0.216,0.438-0.324,1.083-0.324,1.936c0,0.642,0.069,1.157,0.207,1.547
			c0.211,0.595,0.572,0.893,1.083,0.893C48.196,298.951,48.523,298.77,48.767,298.406z"/>
		<path fill="#CCCCCC" d="M55.018,294.213c0.281,0.52,0.422,1.229,0.422,2.132c0,0.855-0.127,1.563-0.382,2.122
			c-0.369,0.804-0.973,1.205-1.811,1.205c-0.756,0-1.318-0.328-1.688-0.984c-0.308-0.548-0.461-1.283-0.461-2.207
			c0-0.714,0.092-1.328,0.277-1.841c0.346-0.955,0.971-1.433,1.876-1.433C54.065,293.207,54.654,293.543,55.018,294.213z
			 M54.222,298.406c0.244-0.363,0.365-1.04,0.365-2.031c0-0.714-0.088-1.303-0.264-1.764c-0.176-0.462-0.518-0.692-1.025-0.692
			c-0.467,0-0.808,0.219-1.023,0.657c-0.216,0.438-0.324,1.083-0.324,1.936c0,0.642,0.069,1.157,0.207,1.547
			c0.211,0.595,0.572,0.893,1.083,0.893C53.651,298.951,53.978,298.77,54.222,298.406z"/>
	</g>
	<g>
		<path fill="#CCCCCC" d="M77.951,294.213c0.281,0.52,0.422,1.229,0.422,2.132c0,0.855-0.127,1.563-0.382,2.122
			c-0.369,0.804-0.973,1.205-1.811,1.205c-0.756,0-1.318-0.328-1.688-0.984c-0.308-0.548-0.461-1.283-0.461-2.207
			c0-0.714,0.092-1.328,0.277-1.841c0.346-0.955,0.971-1.433,1.876-1.433C76.999,293.207,77.588,293.543,77.951,294.213z
			 M77.155,298.406c0.244-0.363,0.365-1.04,0.365-2.031c0-0.714-0.088-1.303-0.264-1.764c-0.176-0.462-0.518-0.692-1.025-0.692
			c-0.467,0-0.808,0.219-1.023,0.657c-0.216,0.438-0.324,1.083-0.324,1.936c0,0.642,0.069,1.157,0.207,1.547
			c0.211,0.595,0.572,0.893,1.083,0.893C76.584,298.951,76.912,298.77,77.155,298.406z"/>
		<path fill="#CCCCCC" d="M79.823,298.085c0.195-0.401,0.575-0.766,1.141-1.095l0.844-0.487c0.378-0.22,0.643-0.407,0.795-0.562
			c0.24-0.244,0.36-0.522,0.36-0.837c0-0.367-0.11-0.658-0.33-0.874s-0.513-0.323-0.879-0.323c-0.542,0-0.917,0.205-1.125,0.616
			c-0.111,0.221-0.173,0.526-0.185,0.917h-0.804c0.009-0.548,0.11-0.994,0.303-1.34c0.343-0.609,0.948-0.914,1.815-0.914
			c0.721,0,1.247,0.194,1.58,0.584s0.499,0.823,0.499,1.301c0,0.504-0.177,0.935-0.532,1.292c-0.205,0.208-0.573,0.46-1.103,0.756
			l-0.602,0.334c-0.287,0.158-0.513,0.31-0.677,0.452c-0.293,0.256-0.478,0.538-0.554,0.849h3.437v0.747h-4.32
			C79.516,298.958,79.628,298.486,79.823,298.085z"/>
		<path fill="#CCCCCC" d="M85.658,294.855h0.918v0.957h-0.918V294.855z M85.658,298.542h0.918v0.958h-0.918V298.542z"/>
		<path fill="#CCCCCC" d="M91.812,294.213c0.281,0.52,0.422,1.229,0.422,2.132c0,0.855-0.127,1.563-0.382,2.122
			c-0.369,0.804-0.973,1.205-1.811,1.205c-0.756,0-1.318-0.328-1.688-0.984c-0.308-0.548-0.461-1.283-0.461-2.207
			c0-0.714,0.092-1.328,0.277-1.841c0.346-0.955,0.971-1.433,1.876-1.433C90.86,293.207,91.449,293.543,91.812,294.213z
			 M91.017,298.406c0.244-0.363,0.365-1.04,0.365-2.031c0-0.714-0.088-1.303-0.264-1.764c-0.176-0.462-0.518-0.692-1.025-0.692
			c-0.467,0-0.808,0.219-1.023,0.657c-0.216,0.438-0.324,1.083-0.324,1.936c0,0.642,0.069,1.157,0.207,1.547
			c0.211,0.595,0.572,0.893,1.083,0.893C90.446,298.951,90.773,298.77,91.017,298.406z"/>
		<path fill="#CCCCCC" d="M97.268,294.213c0.281,0.52,0.422,1.229,0.422,2.132c0,0.855-0.127,1.563-0.382,2.122
			c-0.369,0.804-0.973,1.205-1.811,1.205c-0.756,0-1.318-0.328-1.688-0.984c-0.308-0.548-0.461-1.283-0.461-2.207
			c0-0.714,0.092-1.328,0.277-1.841c0.346-0.955,0.971-1.433,1.876-1.433C96.315,293.207,96.904,293.543,97.268,294.213z
			 M96.472,298.406c0.244-0.363,0.365-1.04,0.365-2.031c0-0.714-0.088-1.303-0.264-1.764c-0.176-0.462-0.518-0.692-1.025-0.692
			c-0.467,0-0.808,0.219-1.023,0.657c-0.216,0.438-0.324,1.083-0.324,1.936c0,0.642,0.069,1.157,0.207,1.547
			c0.211,0.595,0.572,0.893,1.083,0.893C95.901,298.951,96.228,298.77,96.472,298.406z"/>
	</g>
	<g>
		<path fill="#CCCCCC" d="M120.951,294.213c0.281,0.52,0.422,1.229,0.422,2.132c0,0.855-0.127,1.563-0.382,2.122
			c-0.369,0.804-0.973,1.205-1.811,1.205c-0.756,0-1.318-0.328-1.688-0.984c-0.308-0.548-0.461-1.283-0.461-2.207
			c0-0.714,0.092-1.328,0.277-1.841c0.346-0.955,0.971-1.433,1.876-1.433C119.999,293.207,120.588,293.543,120.951,294.213z
			 M120.155,298.406c0.244-0.363,0.365-1.04,0.365-2.031c0-0.714-0.088-1.303-0.264-1.764c-0.176-0.462-0.518-0.692-1.025-0.692
			c-0.467,0-0.808,0.219-1.023,0.657c-0.216,0.438-0.324,1.083-0.324,1.936c0,0.642,0.069,1.157,0.207,1.547
			c0.211,0.595,0.572,0.893,1.083,0.893C119.584,298.951,119.912,298.77,120.155,298.406z"/>
		<path fill="#CCCCCC" d="M122.924,299.059c-0.336-0.409-0.503-0.906-0.503-1.492h0.826c0.035,0.407,0.111,0.703,0.229,0.888
			c0.205,0.331,0.576,0.497,1.112,0.497c0.416,0,0.75-0.111,1.002-0.334s0.378-0.51,0.378-0.861c0-0.434-0.133-0.737-0.397-0.91
			c-0.266-0.173-0.634-0.26-1.105-0.26c-0.053,0-0.106,0.001-0.16,0.003c-0.055,0.001-0.109,0.004-0.165,0.007v-0.699
			c0.082,0.009,0.151,0.015,0.207,0.018s0.116,0.004,0.18,0.004c0.296,0,0.539-0.046,0.729-0.141
			c0.334-0.163,0.501-0.457,0.501-0.879c0-0.312-0.111-0.555-0.334-0.725s-0.482-0.255-0.778-0.255
			c-0.527,0-0.892,0.176-1.094,0.527c-0.111,0.193-0.174,0.469-0.189,0.826h-0.782c0-0.469,0.094-0.867,0.281-1.195
			c0.322-0.586,0.889-0.879,1.701-0.879c0.642,0,1.138,0.143,1.49,0.429c0.352,0.285,0.527,0.699,0.527,1.241
			c0,0.387-0.104,0.7-0.312,0.94c-0.129,0.149-0.296,0.267-0.501,0.352c0.331,0.091,0.589,0.266,0.775,0.525
			c0.186,0.259,0.279,0.576,0.279,0.951c0,0.601-0.198,1.09-0.593,1.468s-0.957,0.567-1.683,0.567
			C123.799,299.672,123.259,299.467,122.924,299.059z"/>
		<path fill="#CCCCCC" d="M128.658,294.855h0.918v0.957h-0.918V294.855z M128.658,298.542h0.918v0.958h-0.918V298.542z"/>
		<path fill="#CCCCCC" d="M134.812,294.213c0.281,0.52,0.422,1.229,0.422,2.132c0,0.855-0.127,1.563-0.382,2.122
			c-0.369,0.804-0.973,1.205-1.811,1.205c-0.756,0-1.318-0.328-1.688-0.984c-0.308-0.548-0.461-1.283-0.461-2.207
			c0-0.714,0.092-1.328,0.277-1.841c0.346-0.955,0.971-1.433,1.876-1.433C133.86,293.207,134.449,293.543,134.812,294.213z
			 M134.017,298.406c0.244-0.363,0.365-1.04,0.365-2.031c0-0.714-0.088-1.303-0.264-1.764c-0.176-0.462-0.518-0.692-1.025-0.692
			c-0.467,0-0.808,0.219-1.023,0.657c-0.216,0.438-0.324,1.083-0.324,1.936c0,0.642,0.069,1.157,0.207,1.547
			c0.211,0.595,0.572,0.893,1.083,0.893C133.446,298.951,133.773,298.77,134.017,298.406z"/>
		<path fill="#CCCCCC" d="M140.268,294.213c0.281,0.52,0.422,1.229,0.422,2.132c0,0.855-0.127,1.563-0.382,2.122
			c-0.369,0.804-0.973,1.205-1.811,1.205c-0.756,0-1.318-0.328-1.688-0.984c-0.308-0.548-0.461-1.283-0.461-2.207
			c0-0.714,0.092-1.328,0.277-1.841c0.346-0.955,0.971-1.433,1.876-1.433C139.315,293.207,139.904,293.543,140.268,294.213z
			 M139.472,298.406c0.244-0.363,0.365-1.04,0.365-2.031c0-0.714-0.088-1.303-0.264-1.764c-0.176-0.462-0.518-0.692-1.025-0.692
			c-0.467,0-0.808,0.219-1.023,0.657c-0.216,0.438-0.324,1.083-0.324,1.936c0,0.642,0.069,1.157,0.207,1.547
			c0.211,0.595,0.572,0.893,1.083,0.893C138.901,298.951,139.228,298.77,139.472,298.406z"/>
	</g>
	<g>
		<path fill="#CCCCCC" d="M163.701,294.213c0.281,0.52,0.422,1.229,0.422,2.132c0,0.855-0.127,1.563-0.382,2.122
			c-0.369,0.804-0.973,1.205-1.811,1.205c-0.756,0-1.318-0.328-1.688-0.984c-0.308-0.548-0.461-1.283-0.461-2.207
			c0-0.714,0.092-1.328,0.277-1.841c0.346-0.955,0.971-1.433,1.876-1.433C162.749,293.207,163.338,293.543,163.701,294.213z
			 M162.905,298.406c0.244-0.363,0.365-1.04,0.365-2.031c0-0.714-0.088-1.303-0.264-1.764c-0.176-0.462-0.518-0.692-1.025-0.692
			c-0.467,0-0.808,0.219-1.023,0.657c-0.216,0.438-0.324,1.083-0.324,1.936c0,0.642,0.069,1.157,0.207,1.547
			c0.211,0.595,0.572,0.893,1.083,0.893C162.334,298.951,162.662,298.77,162.905,298.406z"/>
		<path fill="#CCCCCC" d="M167.944,299.5v-1.538h-2.76v-0.773l2.883-3.999h0.668v4.082h0.927v0.69h-0.927v1.538H167.944z
			 M167.931,297.271v-2.857l-2.017,2.857H167.931z"/>
		<path fill="#CCCCCC" d="M171.408,294.855h0.918v0.957h-0.918V294.855z M171.408,298.542h0.918v0.958h-0.918V298.542z"/>
		<path fill="#CCCCCC" d="M177.562,294.213c0.281,0.52,0.422,1.229,0.422,2.132c0,0.855-0.127,1.563-0.382,2.122
			c-0.369,0.804-0.973,1.205-1.811,1.205c-0.756,0-1.318-0.328-1.688-0.984c-0.308-0.548-0.461-1.283-0.461-2.207
			c0-0.714,0.092-1.328,0.277-1.841c0.346-0.955,0.971-1.433,1.876-1.433C176.61,293.207,177.199,293.543,177.562,294.213z
			 M176.767,298.406c0.244-0.363,0.365-1.04,0.365-2.031c0-0.714-0.088-1.303-0.264-1.764c-0.176-0.462-0.518-0.692-1.025-0.692
			c-0.467,0-0.808,0.219-1.023,0.657c-0.216,0.438-0.324,1.083-0.324,1.936c0,0.642,0.069,1.157,0.207,1.547
			c0.211,0.595,0.572,0.893,1.083,0.893C176.196,298.951,176.523,298.77,176.767,298.406z"/>
		<path fill="#CCCCCC" d="M183.018,294.213c0.281,0.52,0.422,1.229,0.422,2.132c0,0.855-0.127,1.563-0.382,2.122
			c-0.369,0.804-0.973,1.205-1.811,1.205c-0.756,0-1.318-0.328-1.688-0.984c-0.308-0.548-0.461-1.283-0.461-2.207
			c0-0.714,0.092-1.328,0.277-1.841c0.346-0.955,0.971-1.433,1.876-1.433C182.065,293.207,182.654,293.543,183.018,294.213z
			 M182.222,298.406c0.244-0.363,0.365-1.04,0.365-2.031c0-0.714-0.088-1.303-0.264-1.764c-0.176-0.462-0.518-0.692-1.025-0.692
			c-0.467,0-0.808,0.219-1.023,0.657c-0.216,0.438-0.324,1.083-0.324,1.936c0,0.642,0.069,1.157,0.207,1.547
			c0.211,0.595,0.572,0.893,1.083,0.893C181.651,298.951,181.978,298.77,182.222,298.406z"/>
	</g>
	<g>
		<path fill="#CCCCCC" d="M206.701,294.213c0.281,0.52,0.422,1.229,0.422,2.132c0,0.855-0.127,1.563-0.382,2.122
			c-0.369,0.804-0.973,1.205-1.811,1.205c-0.756,0-1.318-0.328-1.688-0.984c-0.308-0.548-0.461-1.283-0.461-2.207
			c0-0.714,0.092-1.328,0.277-1.841c0.346-0.955,0.971-1.433,1.876-1.433C205.749,293.207,206.338,293.543,206.701,294.213z
			 M205.905,298.406c0.244-0.363,0.365-1.04,0.365-2.031c0-0.714-0.088-1.303-0.264-1.764c-0.176-0.462-0.518-0.692-1.025-0.692
			c-0.467,0-0.808,0.219-1.023,0.657c-0.216,0.438-0.324,1.083-0.324,1.936c0,0.642,0.069,1.157,0.207,1.547
			c0.211,0.595,0.572,0.893,1.083,0.893C205.334,298.951,205.662,298.77,205.905,298.406z"/>
		<path fill="#CCCCCC" d="M209.067,297.896c0.053,0.451,0.262,0.763,0.628,0.936c0.188,0.088,0.404,0.132,0.65,0.132
			c0.469,0,0.816-0.149,1.042-0.448s0.338-0.63,0.338-0.993c0-0.439-0.134-0.779-0.402-1.02c-0.268-0.24-0.589-0.36-0.964-0.36
			c-0.272,0-0.506,0.053-0.701,0.158c-0.195,0.105-0.361,0.252-0.499,0.439l-0.686-0.039l0.479-3.389h3.27v0.765h-2.676
			l-0.268,1.749c0.146-0.111,0.286-0.194,0.417-0.25c0.234-0.098,0.505-0.146,0.813-0.146c0.577,0,1.066,0.187,1.468,0.558
			c0.401,0.373,0.602,0.844,0.602,1.416c0,0.595-0.184,1.119-0.552,1.572c-0.368,0.455-0.954,0.682-1.76,0.682
			c-0.513,0-0.966-0.145-1.36-0.433c-0.394-0.289-0.614-0.731-0.661-1.329H209.067z"/>
		<path fill="#CCCCCC" d="M214.408,294.855h0.918v0.957h-0.918V294.855z M214.408,298.542h0.918v0.958h-0.918V298.542z"/>
		<path fill="#CCCCCC" d="M220.562,294.213c0.281,0.52,0.422,1.229,0.422,2.132c0,0.855-0.127,1.563-0.382,2.122
			c-0.369,0.804-0.973,1.205-1.811,1.205c-0.756,0-1.318-0.328-1.688-0.984c-0.308-0.548-0.461-1.283-0.461-2.207
			c0-0.714,0.092-1.328,0.277-1.841c0.346-0.955,0.971-1.433,1.876-1.433C219.61,293.207,220.199,293.543,220.562,294.213z
			 M219.767,298.406c0.244-0.363,0.365-1.04,0.365-2.031c0-0.714-0.088-1.303-0.264-1.764c-0.176-0.462-0.518-0.692-1.025-0.692
			c-0.467,0-0.808,0.219-1.023,0.657c-0.216,0.438-0.324,1.083-0.324,1.936c0,0.642,0.069,1.157,0.207,1.547
			c0.211,0.595,0.572,0.893,1.083,0.893C219.196,298.951,219.523,298.77,219.767,298.406z"/>
		<path fill="#CCCCCC" d="M226.018,294.213c0.281,0.52,0.422,1.229,0.422,2.132c0,0.855-0.127,1.563-0.382,2.122
			c-0.369,0.804-0.973,1.205-1.811,1.205c-0.756,0-1.318-0.328-1.688-0.984c-0.308-0.548-0.461-1.283-0.461-2.207
			c0-0.714,0.092-1.328,0.277-1.841c0.346-0.955,0.971-1.433,1.876-1.433C225.065,293.207,225.654,293.543,226.018,294.213z
			 M225.222,298.406c0.244-0.363,0.365-1.04,0.365-2.031c0-0.714-0.088-1.303-0.264-1.764c-0.176-0.462-0.518-0.692-1.025-0.692
			c-0.467,0-0.808,0.219-1.023,0.657c-0.216,0.438-0.324,1.083-0.324,1.936c0,0.642,0.069,1.157,0.207,1.547
			c0.211,0.595,0.572,0.893,1.083,0.893C224.651,298.951,224.978,298.77,225.222,298.406z"/>
	</g>
	<g>
		<path fill="#CCCCCC" d="M249.868,294.213c0.281,0.52,0.422,1.229,0.422,2.132c0,0.855-0.127,1.563-0.382,2.122
			c-0.369,0.804-0.973,1.205-1.811,1.205c-0.756,0-1.318-0.328-1.688-0.984c-0.308-0.548-0.461-1.283-0.461-2.207
			c0-0.714,0.092-1.328,0.277-1.841c0.346-0.955,0.971-1.433,1.876-1.433C248.916,293.207,249.504,293.543,249.868,294.213z
			 M249.072,298.406c0.244-0.363,0.365-1.04,0.365-2.031c0-0.714-0.088-1.303-0.264-1.764c-0.176-0.462-0.518-0.692-1.025-0.692
			c-0.467,0-0.808,0.219-1.023,0.657c-0.216,0.438-0.324,1.083-0.324,1.936c0,0.642,0.069,1.157,0.207,1.547
			c0.211,0.595,0.572,0.893,1.083,0.893C248.501,298.951,248.828,298.77,249.072,298.406z"/>
		<path fill="#CCCCCC" d="M255.225,293.728c0.276,0.365,0.415,0.741,0.415,1.128h-0.782c-0.047-0.249-0.122-0.444-0.224-0.585
			c-0.19-0.264-0.479-0.396-0.866-0.396c-0.442,0-0.794,0.204-1.055,0.613c-0.261,0.408-0.406,0.994-0.435,1.756
			c0.182-0.267,0.41-0.467,0.686-0.598c0.252-0.117,0.533-0.176,0.844-0.176c0.527,0,0.987,0.168,1.38,0.505
			s0.589,0.839,0.589,1.507c0,0.572-0.186,1.078-0.558,1.519c-0.372,0.441-0.902,0.661-1.591,0.661c-0.589,0-1.097-0.223-1.525-0.67
			c-0.428-0.446-0.642-1.198-0.642-2.256c0-0.783,0.095-1.446,0.286-1.991c0.366-1.043,1.036-1.564,2.008-1.564
			C254.458,293.181,254.947,293.363,255.225,293.728z M254.631,298.54c0.207-0.28,0.31-0.61,0.31-0.991
			c0-0.322-0.092-0.629-0.277-0.921c-0.185-0.291-0.52-0.437-1.006-0.437c-0.34,0-0.638,0.112-0.894,0.338
			c-0.257,0.226-0.385,0.565-0.385,1.02c0,0.398,0.116,0.733,0.35,1.004c0.232,0.271,0.556,0.406,0.969,0.406
			C254.113,298.959,254.425,298.819,254.631,298.54z"/>
		<path fill="#CCCCCC" d="M257.575,294.855h0.918v0.957h-0.918V294.855z M257.575,298.542h0.918v0.958h-0.918V298.542z"/>
		<path fill="#CCCCCC" d="M263.729,294.213c0.281,0.52,0.422,1.229,0.422,2.132c0,0.855-0.127,1.563-0.382,2.122
			c-0.369,0.804-0.973,1.205-1.811,1.205c-0.756,0-1.318-0.328-1.688-0.984c-0.308-0.548-0.461-1.283-0.461-2.207
			c0-0.714,0.092-1.328,0.277-1.841c0.346-0.955,0.971-1.433,1.876-1.433C262.777,293.207,263.366,293.543,263.729,294.213z
			 M262.933,298.406c0.244-0.363,0.365-1.04,0.365-2.031c0-0.714-0.088-1.303-0.264-1.764c-0.176-0.462-0.518-0.692-1.025-0.692
			c-0.467,0-0.808,0.219-1.023,0.657c-0.216,0.438-0.324,1.083-0.324,1.936c0,0.642,0.069,1.157,0.207,1.547
			c0.211,0.595,0.572,0.893,1.083,0.893C262.362,298.951,262.689,298.77,262.933,298.406z"/>
		<path fill="#CCCCCC" d="M269.184,294.213c0.281,0.52,0.422,1.229,0.422,2.132c0,0.855-0.127,1.563-0.382,2.122
			c-0.369,0.804-0.973,1.205-1.811,1.205c-0.756,0-1.318-0.328-1.688-0.984c-0.308-0.548-0.461-1.283-0.461-2.207
			c0-0.714,0.092-1.328,0.277-1.841c0.346-0.955,0.971-1.433,1.876-1.433C268.232,293.207,268.821,293.543,269.184,294.213z
			 M268.388,298.406c0.244-0.363,0.365-1.04,0.365-2.031c0-0.714-0.088-1.303-0.264-1.764c-0.176-0.462-0.518-0.692-1.025-0.692
			c-0.467,0-0.808,0.219-1.023,0.657c-0.216,0.438-0.324,1.083-0.324,1.936c0,0.642,0.069,1.157,0.207,1.547
			c0.211,0.595,0.572,0.893,1.083,0.893C267.817,298.951,268.145,298.77,268.388,298.406z"/>
	</g>
	<g>
		<path fill="#CCCCCC" d="M292.819,294.213c0.281,0.52,0.422,1.229,0.422,2.132c0,0.855-0.127,1.563-0.382,2.122
			c-0.369,0.804-0.973,1.205-1.811,1.205c-0.756,0-1.318-0.328-1.688-0.984c-0.308-0.548-0.461-1.283-0.461-2.207
			c0-0.714,0.092-1.328,0.277-1.841c0.346-0.955,0.971-1.433,1.876-1.433C291.867,293.207,292.456,293.543,292.819,294.213z
			 M292.023,298.406c0.244-0.363,0.365-1.04,0.365-2.031c0-0.714-0.088-1.303-0.264-1.764c-0.176-0.462-0.518-0.692-1.025-0.692
			c-0.467,0-0.808,0.219-1.023,0.657c-0.216,0.438-0.324,1.083-0.324,1.936c0,0.642,0.069,1.157,0.207,1.547
			c0.211,0.595,0.572,0.893,1.083,0.893C291.453,298.951,291.78,298.77,292.023,298.406z"/>
		<path fill="#CCCCCC" d="M298.78,293.312v0.689c-0.202,0.197-0.471,0.538-0.806,1.024c-0.336,0.486-0.632,1.011-0.89,1.573
			c-0.255,0.548-0.448,1.048-0.58,1.498c-0.085,0.291-0.195,0.758-0.33,1.402H295.3c0.199-1.201,0.639-2.396,1.318-3.586
			c0.401-0.697,0.823-1.299,1.266-1.807h-3.48v-0.795H298.78z"/>
		<path fill="#CCCCCC" d="M300.526,294.855h0.918v0.957h-0.918V294.855z M300.526,298.542h0.918v0.958h-0.918V298.542z"/>
		<path fill="#CCCCCC" d="M306.681,294.213c0.281,0.52,0.422,1.229,0.422,2.132c0,0.855-0.127,1.563-0.382,2.122
			c-0.369,0.804-0.973,1.205-1.811,1.205c-0.756,0-1.318-0.328-1.688-0.984c-0.308-0.548-0.461-1.283-0.461-2.207
			c0-0.714,0.092-1.328,0.277-1.841c0.346-0.955,0.971-1.433,1.876-1.433C305.729,293.207,306.317,293.543,306.681,294.213z
			 M305.885,298.406c0.244-0.363,0.365-1.04,0.365-2.031c0-0.714-0.088-1.303-0.264-1.764c-0.176-0.462-0.518-0.692-1.025-0.692
			c-0.467,0-0.808,0.219-1.023,0.657c-0.216,0.438-0.324,1.083-0.324,1.936c0,0.642,0.069,1.157,0.207,1.547
			c0.211,0.595,0.572,0.893,1.083,0.893C305.314,298.951,305.641,298.77,305.885,298.406z"/>
		<path fill="#CCCCCC" d="M312.136,294.213c0.281,0.52,0.422,1.229,0.422,2.132c0,0.855-0.127,1.563-0.382,2.122
			c-0.369,0.804-0.973,1.205-1.811,1.205c-0.756,0-1.318-0.328-1.688-0.984c-0.308-0.548-0.461-1.283-0.461-2.207
			c0-0.714,0.092-1.328,0.277-1.841c0.346-0.955,0.971-1.433,1.876-1.433C311.184,293.207,311.772,293.543,312.136,294.213z
			 M311.34,298.406c0.244-0.363,0.365-1.04,0.365-2.031c0-0.714-0.088-1.303-0.264-1.764c-0.176-0.462-0.518-0.692-1.025-0.692
			c-0.467,0-0.808,0.219-1.023,0.657c-0.216,0.438-0.324,1.083-0.324,1.936c0,0.642,0.069,1.157,0.207,1.547
			c0.211,0.595,0.572,0.893,1.083,0.893C310.769,298.951,311.096,298.77,311.34,298.406z"/>
	</g>
	<g>
		<path fill="#CCCCCC" d="M335.716,294.213c0.281,0.52,0.422,1.229,0.422,2.132c0,0.855-0.127,1.563-0.382,2.122
			c-0.369,0.804-0.973,1.205-1.811,1.205c-0.756,0-1.318-0.328-1.688-0.984c-0.308-0.548-0.461-1.283-0.461-2.207
			c0-0.714,0.092-1.328,0.277-1.841c0.346-0.955,0.971-1.433,1.876-1.433C334.764,293.207,335.353,293.543,335.716,294.213z
			 M334.92,298.406c0.244-0.363,0.365-1.04,0.365-2.031c0-0.714-0.088-1.303-0.264-1.764c-0.176-0.462-0.518-0.692-1.025-0.692
			c-0.467,0-0.808,0.219-1.023,0.657c-0.216,0.438-0.324,1.083-0.324,1.936c0,0.642,0.069,1.157,0.207,1.547
			c0.211,0.595,0.572,0.893,1.083,0.893C334.35,298.951,334.677,298.77,334.92,298.406z"/>
		<path fill="#CCCCCC" d="M337.828,295.817c-0.231-0.234-0.347-0.539-0.347-0.914c0-0.469,0.169-0.871,0.509-1.208
			c0.339-0.337,0.821-0.506,1.444-0.506c0.603,0,1.076,0.159,1.418,0.477c0.342,0.318,0.514,0.689,0.514,1.114
			c0,0.393-0.1,0.711-0.299,0.954c-0.111,0.138-0.284,0.271-0.518,0.404c0.262,0.12,0.468,0.258,0.618,0.412
			c0.279,0.294,0.419,0.675,0.419,1.143c0,0.555-0.186,1.023-0.558,1.409c-0.372,0.385-0.898,0.577-1.578,0.577
			c-0.612,0-1.13-0.166-1.554-0.498c-0.423-0.333-0.635-0.815-0.635-1.448c0-0.372,0.091-0.693,0.272-0.965
			c0.182-0.271,0.451-0.478,0.809-0.622C338.122,296.054,337.951,295.943,337.828,295.817z M340.379,298.663
			c0.241-0.198,0.362-0.493,0.362-0.886c0-0.407-0.125-0.717-0.374-0.928s-0.568-0.316-0.958-0.316
			c-0.378,0-0.687,0.108-0.925,0.323c-0.239,0.216-0.358,0.514-0.358,0.895c0,0.328,0.109,0.611,0.328,0.851
			c0.218,0.238,0.556,0.357,1.013,0.357C339.833,298.959,340.137,298.86,340.379,298.663z M340.232,295.551
			c0.196-0.195,0.294-0.428,0.294-0.698c0-0.234-0.094-0.45-0.281-0.647c-0.187-0.196-0.472-0.295-0.855-0.295
			c-0.38,0-0.655,0.099-0.825,0.295c-0.169,0.197-0.254,0.428-0.254,0.691c0,0.297,0.109,0.529,0.329,0.696
			c0.219,0.167,0.478,0.251,0.776,0.251C339.764,295.844,340.036,295.746,340.232,295.551z"/>
		<path fill="#CCCCCC" d="M343.423,294.855h0.918v0.957h-0.918V294.855z M343.423,298.542h0.918v0.958h-0.918V298.542z"/>
		<path fill="#CCCCCC" d="M349.578,294.213c0.281,0.52,0.422,1.229,0.422,2.132c0,0.855-0.127,1.563-0.382,2.122
			c-0.369,0.804-0.973,1.205-1.811,1.205c-0.756,0-1.318-0.328-1.688-0.984c-0.308-0.548-0.461-1.283-0.461-2.207
			c0-0.714,0.092-1.328,0.277-1.841c0.346-0.955,0.971-1.433,1.876-1.433C348.625,293.207,349.214,293.543,349.578,294.213z
			 M348.782,298.406c0.244-0.363,0.365-1.04,0.365-2.031c0-0.714-0.088-1.303-0.264-1.764c-0.176-0.462-0.518-0.692-1.025-0.692
			c-0.467,0-0.808,0.219-1.023,0.657c-0.216,0.438-0.324,1.083-0.324,1.936c0,0.642,0.069,1.157,0.207,1.547
			c0.211,0.595,0.572,0.893,1.083,0.893C348.211,298.951,348.538,298.77,348.782,298.406z"/>
		<path fill="#CCCCCC" d="M355.033,294.213c0.281,0.52,0.422,1.229,0.422,2.132c0,0.855-0.127,1.563-0.382,2.122
			c-0.369,0.804-0.973,1.205-1.811,1.205c-0.756,0-1.318-0.328-1.688-0.984c-0.308-0.548-0.461-1.283-0.461-2.207
			c0-0.714,0.092-1.328,0.277-1.841c0.346-0.955,0.971-1.433,1.876-1.433C354.081,293.207,354.669,293.543,355.033,294.213z
			 M354.237,298.406c0.244-0.363,0.365-1.04,0.365-2.031c0-0.714-0.088-1.303-0.264-1.764c-0.176-0.462-0.518-0.692-1.025-0.692
			c-0.467,0-0.808,0.219-1.023,0.657c-0.216,0.438-0.324,1.083-0.324,1.936c0,0.642,0.069,1.157,0.207,1.547
			c0.211,0.595,0.572,0.893,1.083,0.893C353.666,298.951,353.993,298.77,354.237,298.406z"/>
	</g>
	<g>
		<path fill="#CCCCCC" d="M378.613,294.213c0.281,0.52,0.422,1.229,0.422,2.132c0,0.855-0.127,1.563-0.383,2.122
			c-0.369,0.804-0.973,1.205-1.811,1.205c-0.756,0-1.318-0.328-1.688-0.984c-0.307-0.548-0.461-1.283-0.461-2.207
			c0-0.714,0.092-1.328,0.277-1.841c0.346-0.955,0.971-1.433,1.876-1.433C377.661,293.207,378.25,293.543,378.613,294.213z
			 M377.817,298.406c0.243-0.363,0.365-1.04,0.365-2.031c0-0.714-0.088-1.303-0.265-1.764c-0.176-0.462-0.518-0.692-1.025-0.692
			c-0.467,0-0.808,0.219-1.023,0.657c-0.215,0.438-0.323,1.083-0.323,1.936c0,0.642,0.069,1.157,0.207,1.547
			c0.211,0.595,0.572,0.893,1.083,0.893C377.246,298.951,377.574,298.77,377.817,298.406z"/>
		<path fill="#CCCCCC" d="M381.062,297.975c0.023,0.438,0.192,0.738,0.506,0.906c0.161,0.088,0.343,0.131,0.545,0.131
			c0.378,0,0.7-0.157,0.967-0.472c0.267-0.315,0.455-0.954,0.566-1.918c-0.176,0.278-0.393,0.474-0.652,0.586
			c-0.26,0.113-0.538,0.169-0.837,0.169c-0.606,0-1.087-0.188-1.438-0.565c-0.354-0.378-0.53-0.863-0.53-1.458
			c0-0.57,0.175-1.072,0.522-1.506c0.35-0.433,0.863-0.649,1.543-0.649c0.917,0,1.55,0.413,1.898,1.238
			c0.193,0.454,0.29,1.021,0.29,1.704c0,0.77-0.116,1.452-0.347,2.047c-0.385,0.989-1.035,1.484-1.951,1.484
			c-0.615,0-1.083-0.162-1.402-0.484c-0.319-0.321-0.479-0.726-0.479-1.213H381.062z M383.121,296.374
			c0.26-0.206,0.39-0.567,0.39-1.082c0-0.462-0.116-0.807-0.349-1.033c-0.234-0.227-0.53-0.34-0.891-0.34
			c-0.387,0-0.693,0.13-0.92,0.389c-0.229,0.259-0.342,0.604-0.342,1.037c0,0.41,0.1,0.735,0.299,0.977s0.518,0.362,0.954,0.362
			C382.576,296.684,382.863,296.58,383.121,296.374z"/>
		<path fill="#CCCCCC" d="M386.32,294.855h0.918v0.957h-0.918V294.855z M386.32,298.542h0.918v0.958h-0.918V298.542z"/>
		<path fill="#CCCCCC" d="M392.475,294.213c0.281,0.52,0.422,1.229,0.422,2.132c0,0.855-0.127,1.563-0.383,2.122
			c-0.369,0.804-0.973,1.205-1.811,1.205c-0.756,0-1.318-0.328-1.688-0.984c-0.307-0.548-0.461-1.283-0.461-2.207
			c0-0.714,0.092-1.328,0.277-1.841c0.346-0.955,0.971-1.433,1.876-1.433C391.522,293.207,392.111,293.543,392.475,294.213z
			 M391.679,298.406c0.243-0.363,0.365-1.04,0.365-2.031c0-0.714-0.088-1.303-0.265-1.764c-0.176-0.462-0.518-0.692-1.025-0.692
			c-0.467,0-0.808,0.219-1.023,0.657c-0.215,0.438-0.323,1.083-0.323,1.936c0,0.642,0.069,1.157,0.207,1.547
			c0.211,0.595,0.572,0.893,1.083,0.893C391.107,298.951,391.436,298.77,391.679,298.406z"/>
		<path fill="#CCCCCC" d="M397.93,294.213c0.281,0.52,0.422,1.229,0.422,2.132c0,0.855-0.127,1.563-0.383,2.122
			c-0.369,0.804-0.973,1.205-1.811,1.205c-0.756,0-1.318-0.328-1.688-0.984c-0.307-0.548-0.461-1.283-0.461-2.207
			c0-0.714,0.092-1.328,0.277-1.841c0.346-0.955,0.971-1.433,1.876-1.433C396.978,293.207,397.566,293.543,397.93,294.213z
			 M397.134,298.406c0.243-0.363,0.365-1.04,0.365-2.031c0-0.714-0.088-1.303-0.265-1.764c-0.176-0.462-0.518-0.692-1.025-0.692
			c-0.467,0-0.808,0.219-1.023,0.657c-0.215,0.438-0.323,1.083-0.323,1.936c0,0.642,0.069,1.157,0.207,1.547
			c0.211,0.595,0.572,0.893,1.083,0.893C396.562,298.951,396.891,298.77,397.134,298.406z"/>
	</g>
	<g>
		<path fill="#CCCCCC" d="M418.171,295.044v-0.606c0.571-0.056,0.97-0.148,1.195-0.279c0.226-0.13,0.394-0.438,0.505-0.925h0.625
			v6.267h-0.844v-4.456H418.171z"/>
		<path fill="#CCCCCC" d="M426.967,294.213c0.281,0.52,0.422,1.229,0.422,2.132c0,0.855-0.128,1.563-0.383,2.122
			c-0.369,0.804-0.973,1.205-1.811,1.205c-0.756,0-1.318-0.328-1.688-0.984c-0.308-0.548-0.461-1.283-0.461-2.207
			c0-0.714,0.092-1.328,0.276-1.841c0.346-0.955,0.972-1.433,1.876-1.433C426.014,293.207,426.604,293.543,426.967,294.213z
			 M426.17,298.406c0.244-0.363,0.365-1.04,0.365-2.031c0-0.714-0.088-1.303-0.264-1.764c-0.176-0.462-0.518-0.692-1.025-0.692
			c-0.467,0-0.809,0.219-1.023,0.657c-0.216,0.438-0.324,1.083-0.324,1.936c0,0.642,0.069,1.157,0.207,1.547
			c0.211,0.595,0.572,0.893,1.083,0.893C425.6,298.951,425.927,298.77,426.17,298.406z"/>
		<path fill="#CCCCCC" d="M429.218,294.855h0.919v0.957h-0.919V294.855z M429.218,298.542h0.919v0.958h-0.919V298.542z"/>
		<path fill="#CCCCCC" d="M435.372,294.213c0.281,0.52,0.422,1.229,0.422,2.132c0,0.855-0.128,1.563-0.382,2.122
			c-0.369,0.804-0.973,1.205-1.811,1.205c-0.756,0-1.318-0.328-1.688-0.984c-0.309-0.548-0.462-1.283-0.462-2.207
			c0-0.714,0.093-1.328,0.276-1.841c0.346-0.955,0.972-1.433,1.877-1.433C434.42,293.207,435.009,293.543,435.372,294.213z
			 M434.576,298.406c0.244-0.363,0.365-1.04,0.365-2.031c0-0.714-0.088-1.303-0.264-1.764c-0.177-0.462-0.519-0.692-1.025-0.692
			c-0.467,0-0.809,0.219-1.023,0.657c-0.217,0.438-0.324,1.083-0.324,1.936c0,0.642,0.068,1.157,0.207,1.547
			c0.211,0.595,0.572,0.893,1.082,0.893C434.006,298.951,434.332,298.77,434.576,298.406z"/>
		<path fill="#CCCCCC" d="M440.827,294.213c0.281,0.52,0.422,1.229,0.422,2.132c0,0.855-0.128,1.563-0.382,2.122
			c-0.369,0.804-0.973,1.205-1.811,1.205c-0.756,0-1.318-0.328-1.688-0.984c-0.309-0.548-0.462-1.283-0.462-2.207
			c0-0.714,0.093-1.328,0.276-1.841c0.346-0.955,0.972-1.433,1.877-1.433C439.875,293.207,440.464,293.543,440.827,294.213z
			 M440.031,298.406c0.244-0.363,0.365-1.04,0.365-2.031c0-0.714-0.088-1.303-0.264-1.764c-0.177-0.462-0.519-0.692-1.025-0.692
			c-0.467,0-0.809,0.219-1.023,0.657c-0.217,0.438-0.324,1.083-0.324,1.936c0,0.642,0.068,1.157,0.207,1.547
			c0.211,0.595,0.572,0.893,1.082,0.893C439.461,298.951,439.787,298.77,440.031,298.406z"/>
	</g>
	<g>
		<path fill="#CCCCCC" d="M461.399,295.044v-0.606c0.571-0.056,0.97-0.148,1.195-0.279c0.226-0.13,0.394-0.438,0.505-0.925h0.625
			v6.267h-0.844v-4.456H461.399z"/>
		<path fill="#CCCCCC" d="M466.191,295.044v-0.606c0.571-0.056,0.97-0.148,1.195-0.279c0.226-0.13,0.395-0.438,0.506-0.925h0.623
			v6.267h-0.844v-4.456H466.191z"/>
		<path fill="#CCCCCC" d="M471.783,294.855h0.918v0.957h-0.918V294.855z M471.783,298.542h0.918v0.958h-0.918V298.542z"/>
		<path fill="#CCCCCC" d="M477.938,294.213c0.281,0.52,0.422,1.229,0.422,2.132c0,0.855-0.128,1.563-0.383,2.122
			c-0.369,0.804-0.973,1.205-1.811,1.205c-0.756,0-1.318-0.328-1.688-0.984c-0.308-0.548-0.461-1.283-0.461-2.207
			c0-0.714,0.092-1.328,0.276-1.841c0.346-0.955,0.972-1.433,1.876-1.433C476.984,293.207,477.574,293.543,477.938,294.213z
			 M477.141,298.406c0.244-0.363,0.365-1.04,0.365-2.031c0-0.714-0.088-1.303-0.264-1.764c-0.176-0.462-0.518-0.692-1.025-0.692
			c-0.467,0-0.809,0.219-1.023,0.657c-0.216,0.438-0.324,1.083-0.324,1.936c0,0.642,0.069,1.157,0.207,1.547
			c0.211,0.595,0.572,0.893,1.083,0.893C476.57,298.951,476.897,298.77,477.141,298.406z"/>
		<path fill="#CCCCCC" d="M483.393,294.213c0.281,0.52,0.422,1.229,0.422,2.132c0,0.855-0.128,1.563-0.383,2.122
			c-0.369,0.804-0.973,1.205-1.811,1.205c-0.756,0-1.318-0.328-1.688-0.984c-0.308-0.548-0.461-1.283-0.461-2.207
			c0-0.714,0.092-1.328,0.276-1.841c0.346-0.955,0.972-1.433,1.876-1.433C482.439,293.207,483.029,293.543,483.393,294.213z
			 M482.596,298.406c0.244-0.363,0.365-1.04,0.365-2.031c0-0.714-0.088-1.303-0.264-1.764c-0.176-0.462-0.518-0.692-1.025-0.692
			c-0.467,0-0.809,0.219-1.023,0.657c-0.216,0.438-0.324,1.083-0.324,1.936c0,0.642,0.069,1.157,0.207,1.547
			c0.211,0.595,0.572,0.893,1.083,0.893C482.025,298.951,482.353,298.77,482.596,298.406z"/>
	</g>
	<g>
		<path fill="#CCCCCC" d="M503.965,295.044v-0.606c0.571-0.056,0.97-0.148,1.195-0.279c0.226-0.13,0.395-0.438,0.506-0.925h0.623
			v6.267h-0.844v-4.456H503.965z"/>
		<path fill="#CCCCCC" d="M509.176,298.085c0.195-0.401,0.576-0.766,1.141-1.095l0.844-0.487c0.379-0.22,0.644-0.407,0.796-0.562
			c0.24-0.244,0.36-0.522,0.36-0.837c0-0.367-0.109-0.658-0.33-0.874c-0.219-0.216-0.512-0.323-0.879-0.323
			c-0.541,0-0.916,0.205-1.125,0.616c-0.111,0.221-0.172,0.526-0.184,0.917h-0.805c0.009-0.548,0.109-0.994,0.303-1.34
			c0.344-0.609,0.948-0.914,1.815-0.914c0.721,0,1.247,0.194,1.579,0.584c0.333,0.39,0.5,0.823,0.5,1.301
			c0,0.504-0.178,0.935-0.532,1.292c-0.205,0.208-0.573,0.46-1.103,0.756l-0.603,0.334c-0.287,0.158-0.513,0.31-0.677,0.452
			c-0.293,0.256-0.478,0.538-0.554,0.849h3.437v0.747h-4.32C508.869,298.958,508.981,298.486,509.176,298.085z"/>
		<path fill="#CCCCCC" d="M515.012,294.855h0.918v0.957h-0.918V294.855z M515.012,298.542h0.918v0.958h-0.918V298.542z"/>
		<path fill="#CCCCCC" d="M521.166,294.213c0.281,0.52,0.422,1.229,0.422,2.132c0,0.855-0.127,1.563-0.383,2.122
			c-0.369,0.804-0.973,1.205-1.811,1.205c-0.756,0-1.318-0.328-1.688-0.984c-0.307-0.548-0.461-1.283-0.461-2.207
			c0-0.714,0.092-1.328,0.277-1.841c0.346-0.955,0.971-1.433,1.876-1.433C520.214,293.207,520.803,293.543,521.166,294.213z
			 M520.37,298.406c0.243-0.363,0.365-1.04,0.365-2.031c0-0.714-0.088-1.303-0.265-1.764c-0.176-0.462-0.518-0.692-1.025-0.692
			c-0.467,0-0.808,0.219-1.023,0.657c-0.215,0.438-0.323,1.083-0.323,1.936c0,0.642,0.069,1.157,0.207,1.547
			c0.211,0.595,0.572,0.893,1.083,0.893C519.799,298.951,520.127,298.77,520.37,298.406z"/>
		<path fill="#CCCCCC" d="M526.621,294.213c0.281,0.52,0.422,1.229,0.422,2.132c0,0.855-0.127,1.563-0.383,2.122
			c-0.369,0.804-0.973,1.205-1.811,1.205c-0.756,0-1.318-0.328-1.688-0.984c-0.307-0.548-0.461-1.283-0.461-2.207
			c0-0.714,0.092-1.328,0.277-1.841c0.346-0.955,0.971-1.433,1.876-1.433C525.669,293.207,526.258,293.543,526.621,294.213z
			 M525.825,298.406c0.243-0.363,0.365-1.04,0.365-2.031c0-0.714-0.088-1.303-0.265-1.764c-0.176-0.462-0.518-0.692-1.025-0.692
			c-0.467,0-0.808,0.219-1.023,0.657c-0.215,0.438-0.323,1.083-0.323,1.936c0,0.642,0.069,1.157,0.207,1.547
			c0.211,0.595,0.572,0.893,1.083,0.893C525.254,298.951,525.582,298.77,525.825,298.406z"/>
	</g>
	<g>
		<path fill="#CCCCCC" d="M546.862,295.044v-0.606c0.571-0.056,0.97-0.148,1.195-0.279c0.226-0.13,0.394-0.438,0.505-0.925h0.625
			v6.267h-0.844v-4.456H546.862z"/>
		<path fill="#CCCCCC" d="M552.176,299.059c-0.336-0.409-0.504-0.906-0.504-1.492h0.826c0.035,0.407,0.111,0.703,0.229,0.888
			c0.205,0.331,0.576,0.497,1.111,0.497c0.416,0,0.75-0.111,1.002-0.334s0.379-0.51,0.379-0.861c0-0.434-0.133-0.737-0.398-0.91
			s-0.633-0.26-1.105-0.26c-0.053,0-0.105,0.001-0.16,0.003c-0.055,0.001-0.109,0.004-0.164,0.007v-0.699
			c0.082,0.009,0.15,0.015,0.206,0.018s0.116,0.004,0.181,0.004c0.295,0,0.539-0.046,0.729-0.141
			c0.334-0.163,0.502-0.457,0.502-0.879c0-0.312-0.111-0.555-0.334-0.725s-0.482-0.255-0.778-0.255
			c-0.527,0-0.892,0.176-1.095,0.527c-0.111,0.193-0.174,0.469-0.188,0.826h-0.782c0-0.469,0.094-0.867,0.281-1.195
			c0.322-0.586,0.889-0.879,1.701-0.879c0.641,0,1.138,0.143,1.489,0.429c0.352,0.285,0.527,0.699,0.527,1.241
			c0,0.387-0.104,0.7-0.312,0.94c-0.129,0.149-0.297,0.267-0.502,0.352c0.332,0.091,0.59,0.266,0.775,0.525
			c0.187,0.259,0.279,0.576,0.279,0.951c0,0.601-0.197,1.09-0.593,1.468s-0.956,0.567-1.683,0.567
			C553.051,299.672,552.51,299.467,552.176,299.059z"/>
		<path fill="#CCCCCC" d="M557.909,294.855h0.919v0.957h-0.919V294.855z M557.909,298.542h0.919v0.958h-0.919V298.542z"/>
		<path fill="#CCCCCC" d="M564.063,294.213c0.281,0.52,0.422,1.229,0.422,2.132c0,0.855-0.128,1.563-0.382,2.122
			c-0.369,0.804-0.973,1.205-1.811,1.205c-0.756,0-1.318-0.328-1.688-0.984c-0.309-0.548-0.462-1.283-0.462-2.207
			c0-0.714,0.093-1.328,0.276-1.841c0.346-0.955,0.972-1.433,1.877-1.433C563.111,293.207,563.7,293.543,564.063,294.213z
			 M563.268,298.406c0.244-0.363,0.365-1.04,0.365-2.031c0-0.714-0.088-1.303-0.264-1.764c-0.177-0.462-0.519-0.692-1.025-0.692
			c-0.467,0-0.809,0.219-1.023,0.657c-0.217,0.438-0.324,1.083-0.324,1.936c0,0.642,0.068,1.157,0.207,1.547
			c0.211,0.595,0.572,0.893,1.082,0.893C562.697,298.951,563.023,298.77,563.268,298.406z"/>
		<path fill="#CCCCCC" d="M569.519,294.213c0.281,0.52,0.422,1.229,0.422,2.132c0,0.855-0.128,1.563-0.382,2.122
			c-0.369,0.804-0.973,1.205-1.811,1.205c-0.756,0-1.318-0.328-1.688-0.984c-0.309-0.548-0.462-1.283-0.462-2.207
			c0-0.714,0.093-1.328,0.276-1.841c0.346-0.955,0.972-1.433,1.877-1.433C568.566,293.207,569.155,293.543,569.519,294.213z
			 M568.723,298.406c0.244-0.363,0.365-1.04,0.365-2.031c0-0.714-0.088-1.303-0.264-1.764c-0.177-0.462-0.519-0.692-1.025-0.692
			c-0.467,0-0.809,0.219-1.023,0.657c-0.217,0.438-0.324,1.083-0.324,1.936c0,0.642,0.068,1.157,0.207,1.547
			c0.211,0.595,0.572,0.893,1.082,0.893C568.152,298.951,568.479,298.77,568.723,298.406z"/>
	</g>
	<g>
		<path fill="#CCCCCC" d="M589.759,295.044v-0.606c0.571-0.056,0.97-0.148,1.195-0.279c0.226-0.13,0.394-0.438,0.505-0.925h0.625
			v6.267h-0.844v-4.456H589.759z"/>
		<path fill="#CCCCCC" d="M597.342,299.5v-1.538h-2.76v-0.773l2.883-3.999h0.668v4.082h0.927v0.69h-0.927v1.538H597.342z
			 M597.328,297.271v-2.857l-2.018,2.857H597.328z"/>
		<path fill="#CCCCCC" d="M600.806,294.855h0.919v0.957h-0.919V294.855z M600.806,298.542h0.919v0.958h-0.919V298.542z"/>
		<path fill="#CCCCCC" d="M606.96,294.213c0.281,0.52,0.422,1.229,0.422,2.132c0,0.855-0.128,1.563-0.382,2.122
			c-0.369,0.804-0.973,1.205-1.811,1.205c-0.756,0-1.318-0.328-1.688-0.984c-0.309-0.548-0.462-1.283-0.462-2.207
			c0-0.714,0.093-1.328,0.276-1.841c0.346-0.955,0.972-1.433,1.877-1.433C606.008,293.207,606.597,293.543,606.96,294.213z
			 M606.164,298.406c0.244-0.363,0.365-1.04,0.365-2.031c0-0.714-0.088-1.303-0.264-1.764c-0.177-0.462-0.519-0.692-1.025-0.692
			c-0.467,0-0.809,0.219-1.023,0.657c-0.217,0.438-0.324,1.083-0.324,1.936c0,0.642,0.068,1.157,0.207,1.547
			c0.211,0.595,0.572,0.893,1.082,0.893C605.594,298.951,605.92,298.77,606.164,298.406z"/>
		<path fill="#CCCCCC" d="M612.415,294.213c0.281,0.52,0.422,1.229,0.422,2.132c0,0.855-0.128,1.563-0.382,2.122
			c-0.369,0.804-0.973,1.205-1.811,1.205c-0.756,0-1.318-0.328-1.688-0.984c-0.309-0.548-0.462-1.283-0.462-2.207
			c0-0.714,0.093-1.328,0.276-1.841c0.346-0.955,0.972-1.433,1.877-1.433C611.463,293.207,612.052,293.543,612.415,294.213z
			 M611.619,298.406c0.244-0.363,0.365-1.04,0.365-2.031c0-0.714-0.088-1.303-0.264-1.764c-0.177-0.462-0.519-0.692-1.025-0.692
			c-0.467,0-0.809,0.219-1.023,0.657c-0.217,0.438-0.324,1.083-0.324,1.936c0,0.642,0.068,1.157,0.207,1.547
			c0.211,0.595,0.572,0.893,1.082,0.893C611.049,298.951,611.375,298.77,611.619,298.406z"/>
	</g>
	<g>
		<path fill="#CCCCCC" d="M632.656,295.044v-0.606c0.571-0.056,0.97-0.148,1.195-0.279c0.226-0.13,0.395-0.438,0.506-0.925h0.623
			v6.267h-0.844v-4.456H632.656z"/>
		<path fill="#CCCCCC" d="M638.362,297.896c0.053,0.451,0.263,0.763,0.628,0.936c0.188,0.088,0.404,0.132,0.65,0.132
			c0.469,0,0.816-0.149,1.042-0.448s0.339-0.63,0.339-0.993c0-0.439-0.135-0.779-0.402-1.02s-0.59-0.36-0.965-0.36
			c-0.272,0-0.506,0.053-0.701,0.158s-0.361,0.252-0.498,0.439l-0.686-0.039l0.479-3.389h3.27v0.765h-2.676l-0.269,1.749
			c0.146-0.111,0.286-0.194,0.417-0.25c0.234-0.098,0.506-0.146,0.813-0.146c0.577,0,1.066,0.187,1.468,0.558
			c0.401,0.373,0.602,0.844,0.602,1.416c0,0.595-0.184,1.119-0.551,1.572c-0.368,0.455-0.955,0.682-1.76,0.682
			c-0.514,0-0.967-0.145-1.361-0.433c-0.394-0.289-0.613-0.731-0.66-1.329H638.362z"/>
		<path fill="#CCCCCC" d="M643.703,294.855h0.918v0.957h-0.918V294.855z M643.703,298.542h0.918v0.958h-0.918V298.542z"/>
		<path fill="#CCCCCC" d="M649.857,294.213c0.281,0.52,0.422,1.229,0.422,2.132c0,0.855-0.127,1.563-0.383,2.122
			c-0.369,0.804-0.973,1.205-1.811,1.205c-0.756,0-1.318-0.328-1.688-0.984c-0.307-0.548-0.461-1.283-0.461-2.207
			c0-0.714,0.092-1.328,0.277-1.841c0.346-0.955,0.971-1.433,1.876-1.433C648.905,293.207,649.494,293.543,649.857,294.213z
			 M649.062,298.406c0.243-0.363,0.365-1.04,0.365-2.031c0-0.714-0.088-1.303-0.265-1.764c-0.176-0.462-0.518-0.692-1.025-0.692
			c-0.467,0-0.808,0.219-1.023,0.657c-0.215,0.438-0.323,1.083-0.323,1.936c0,0.642,0.069,1.157,0.207,1.547
			c0.211,0.595,0.572,0.893,1.083,0.893C648.49,298.951,648.818,298.77,649.062,298.406z"/>
		<path fill="#CCCCCC" d="M655.312,294.213c0.281,0.52,0.422,1.229,0.422,2.132c0,0.855-0.127,1.563-0.383,2.122
			c-0.369,0.804-0.973,1.205-1.811,1.205c-0.756,0-1.318-0.328-1.688-0.984c-0.307-0.548-0.461-1.283-0.461-2.207
			c0-0.714,0.092-1.328,0.277-1.841c0.346-0.955,0.971-1.433,1.876-1.433C654.36,293.207,654.949,293.543,655.312,294.213z
			 M654.517,298.406c0.243-0.363,0.365-1.04,0.365-2.031c0-0.714-0.088-1.303-0.265-1.764c-0.176-0.462-0.518-0.692-1.025-0.692
			c-0.467,0-0.808,0.219-1.023,0.657c-0.215,0.438-0.323,1.083-0.323,1.936c0,0.642,0.069,1.157,0.207,1.547
			c0.211,0.595,0.572,0.893,1.083,0.893C653.945,298.951,654.273,298.77,654.517,298.406z"/>
	</g>
	<g>
		<path fill="#CCCCCC" d="M675.553,295.044v-0.606c0.571-0.056,0.97-0.148,1.195-0.279c0.226-0.13,0.395-0.438,0.506-0.925h0.623
			v6.267h-0.844v-4.456H675.553z"/>
		<path fill="#CCCCCC" d="M684.25,293.728c0.275,0.365,0.414,0.741,0.414,1.128h-0.781c-0.047-0.249-0.122-0.444-0.225-0.585
			c-0.19-0.264-0.479-0.396-0.865-0.396c-0.443,0-0.795,0.204-1.055,0.613c-0.262,0.408-0.406,0.994-0.436,1.756
			c0.182-0.267,0.41-0.467,0.686-0.598c0.252-0.117,0.533-0.176,0.844-0.176c0.527,0,0.987,0.168,1.38,0.505
			s0.589,0.839,0.589,1.507c0,0.572-0.186,1.078-0.559,1.519c-0.371,0.441-0.902,0.661-1.59,0.661c-0.59,0-1.098-0.223-1.525-0.67
			c-0.428-0.446-0.642-1.198-0.642-2.256c0-0.783,0.095-1.446,0.286-1.991c0.365-1.043,1.035-1.564,2.008-1.564
			C683.482,293.181,683.973,293.363,684.25,293.728z M683.656,298.54c0.207-0.28,0.31-0.61,0.31-0.991
			c0-0.322-0.093-0.629-0.276-0.921c-0.186-0.291-0.521-0.437-1.007-0.437c-0.34,0-0.638,0.112-0.894,0.338
			c-0.258,0.226-0.385,0.565-0.385,1.02c0,0.398,0.115,0.733,0.35,1.004c0.232,0.271,0.555,0.406,0.969,0.406
			C683.139,298.959,683.449,298.819,683.656,298.54z"/>
		<path fill="#CCCCCC" d="M686.6,294.855h0.918v0.957H686.6V294.855z M686.6,298.542h0.918v0.958H686.6V298.542z"/>
		<path fill="#CCCCCC" d="M692.754,294.213c0.281,0.52,0.422,1.229,0.422,2.132c0,0.855-0.127,1.563-0.383,2.122
			c-0.369,0.804-0.973,1.205-1.811,1.205c-0.756,0-1.318-0.328-1.688-0.984c-0.307-0.548-0.461-1.283-0.461-2.207
			c0-0.714,0.092-1.328,0.277-1.841c0.346-0.955,0.971-1.433,1.876-1.433C691.802,293.207,692.391,293.543,692.754,294.213z
			 M691.958,298.406c0.243-0.363,0.365-1.04,0.365-2.031c0-0.714-0.088-1.303-0.265-1.764c-0.176-0.462-0.518-0.692-1.025-0.692
			c-0.467,0-0.808,0.219-1.023,0.657c-0.215,0.438-0.323,1.083-0.323,1.936c0,0.642,0.069,1.157,0.207,1.547
			c0.211,0.595,0.572,0.893,1.083,0.893C691.387,298.951,691.715,298.77,691.958,298.406z"/>
		<path fill="#CCCCCC" d="M698.209,294.213c0.281,0.52,0.422,1.229,0.422,2.132c0,0.855-0.127,1.563-0.383,2.122
			c-0.369,0.804-0.973,1.205-1.811,1.205c-0.756,0-1.318-0.328-1.688-0.984c-0.307-0.548-0.461-1.283-0.461-2.207
			c0-0.714,0.092-1.328,0.277-1.841c0.346-0.955,0.971-1.433,1.876-1.433C697.257,293.207,697.846,293.543,698.209,294.213z
			 M697.413,298.406c0.243-0.363,0.365-1.04,0.365-2.031c0-0.714-0.088-1.303-0.265-1.764c-0.176-0.462-0.518-0.692-1.025-0.692
			c-0.467,0-0.808,0.219-1.023,0.657c-0.215,0.438-0.323,1.083-0.323,1.936c0,0.642,0.069,1.157,0.207,1.547
			c0.211,0.595,0.572,0.893,1.083,0.893C696.842,298.951,697.17,298.77,697.413,298.406z"/>
	</g>
</g>
<g id="Layer_2">
	<path fill="#A1DBFF" d="M-1.833,110.253c29.283-2.688,69.499,2.806,92.43-16.743c17.296-14.745,29.615-22.228,49.445-7.621
		c16.635,12.253,40.707,19.739,59.125,6.181c11.433-9.413,32.202-81.52,52.089-51.69c7.725,11.586,13.294,24.595,20.758,36.401
		c12.127,19.181,28.072,3.456,44.366-1.409c16.474-4.917,33.989,2.629,50.27-5.591c9.25-4.67,18.865-10.916,29.324-12.366
		c11.578-1.605,22.126,9.416,31.379,14.724c17.463,10.019,25.827-3.685,37.363-16.13c14.723-15.882,25.643-1.519,35.197,10.322
		c6.647,8.238,18.812,27.211,29.839,14.623c10.134-11.57,16.138-26.683,26.149-38.545c25.352-30.038,63.819,2.314,90.875,10.619
		c26.519,8.141,52.746,18.578,79.853,24.621c11.179,2.492,10.681,35.992,12.538,47.279c-89.32-2.117-178.631-4.768-267.974-5.586
		c-90.812-0.833-183.278-5.725-273.912,0.184c-38.984,2.542-77.968,5.083-116.952,7.625c-17.564,1.145-35.485,0.287-53.083,0.424
		c-8.82,0.069-17.64,0.138-26.46,0.207C-4.227,127.82-1.752,114.511-1.833,110.253z"/>
	<path fill="#44A0DB" d="M-2.167,111.848c13.846,1.582,27.761,3.39,41.686,4.077c23.56,1.163,37.537-0.675,56.101-15.199
		c18.758-14.677,27.048-16.649,46.546-1c12.274,9.168,24.524,14.27,40.009,11.512c17.803-3.17,27.215-15.608,36.027-30.014
		c4.418-7.223,14.338-24.921,25.333-20.842c15.065,5.589,20.428,24.417,34.845,31.511c15.708,7.729,27.568-7.513,43.079-7.478
		c11.956,0.027,27.925-2.223,39.289,1.802c13.627,4.827,27.457,9.503,41.835,11.36c18.484,2.388,34.104-0.48,49.544-10.823
		c18.221-12.206,25.644-25.293,45.533-8.779c18.444,15.313,27.422,19.852,49.605,5.282c18.771-12.328,34.742,4.833,53.899,0.52
		c13.011-2.93,26.253-9.22,38.437-14.573c12.889-5.663,28.16-5.972,41.563-10.309c15.911-5.148,31.426,12.206,45.096,17.677
		c4.067,1.627,12.938,19.611,7.221,21.47c-26.879,8.737-53.758,17.475-80.637,26.213c-37.977,12.345-81.284,12.375-121.089,9.864
		c-22.019-1.39-43.37-3.858-65.26-1.294c-26.479,3.101-52.957,6.202-79.436,9.303c-35.743,4.186-73.178,2.579-109.266,2.579
		c-63.309,0-126.619,0-189.928,0c-25.265,0-50.529,0-75.793,0c-4.61,0-9.221,0-13.832,0C-1.963,144.705-2.134,115.02-2.167,111.848z
		"/>
	<path fill="#4FBBFF" d="M-2.167,121.419c0,0,31.333,7.975,44.333,7.975s31-2.552,36-5.423c0,0,11.334-5.742,16.667-11.484
		c5.333-5.742,18-15.631,25-13.398c7,2.233,20,12.76,29.667,23.925c0,0,6.333,5.742,15,5.742c0,0,7.667-0.639,14-5.104
		s21.667-9.889,21.667-9.889s25-5.104,39-0.319c14,4.785,32.334,22.649,40.667,22.649s13,0.638,21.667-1.595
		c8.667-2.233,18.667-4.147,18.667-4.147s34.666-5.104,40-4.146c5.334,0.957,31.332,6.061,40.332,6.061s34.334-8.613,39.667-11.803
		s29.332-25.201,40.666-25.201s29.668,17.545,40.334,21.373c0,0,11,0.957,16-0.319c5-1.276,19.999-2.552,24.666-1.276
		c0,0,12.331,3.19,23.665,7.976c0,0,13.001,5.742,29.334-0.319c16.333-6.061,29-18.502,36.666-25.201
		c7.666-6.699,26.666-36.684,39.666-37.003s27.588,29.667,40.588,23.606v56.463l-92.588,58.058l-77,12.761l-62.333-40.833
		l-46.667,19.459l-80.666-5.104l-90-0.318l-35.667,24.882l-47-32.22l-98.333-10.846l-104.333,1.276L-2.167,121.419z"/>
	<path fill="#005EA3" d="M-1.25,177.402c0,1.226-0.393,11.181,0.119,11.264c5.768,0.93,11.547,1.792,17.332,2.606
		c7.963,1.119,15.959,2.229,23.985,2.781c10.982,0.756,22.458-0.672,33.259,1.849c7.824,1.826,15.436,7.814,21.61,12.753
		c7.046,5.636,14.366,14.922,24.194,14.922c10.647,0,18.955-7.67,27.016-13.526c9.032-6.561,20.258-8.665,31.234-8.245
		c16.544,0.634,24.515,9.358,32.062,22.839c7.107,12.694,12.124,29.778,22.67,40.229c12.853,12.737,23.204-11.625,28.06-20.641
		c6.632-12.312,12.441-29.849,28.603-30.224c6.276-0.146,11.966,2.977,17.024,6.382c6.547,4.407,15.127,5.737,22.83,6.058
		c12.257-0.1,24.795-1.973,36.372,3.508c11.193,5.3,19.561,15.435,32.147,18.372c5.223,1.219,9.687-2.122,13.916-4.901
		c8.355-5.487,16.513-19.163,27.201-19.5c15.864-0.5,28.788,35.086,44.608,26.967c11.833-6.072,18.779-19.802,27.459-29.319
		c13.759-15.088,27.988,12.2,34.403,21.799c7.798,11.67,17.412,21.969,30.454,27.627c12.868,5.582,24.994,6.247,36.617-1.367
		c10.91-7.147,18.066-15.686,30.861-19.604c17.923-5.489,39.117-3.421,57.64-2.115c10.512,0.74,20.77,3.229,31.07,5.33
		c-0.854-5.928,0.277-19.306-5.518-21.973c-10.893-5.015-21.785-10.029-32.678-15.043c-5.631-2.592-7.534-0.794-13.509,1.402
		c-11.422,4.199-22.844,8.398-34.265,12.598c-11.603,4.266-23.204,8.531-34.806,12.796c-3.164,1.164-8.646,4.948-11.624,2.708
		c-18.22-13.708-36.439-27.416-54.66-41.123c-7.348-5.528-14.695-11.057-22.043-16.585c-3.341-2.513-12.111,6.666-15.002,8.748
		c-9.686,6.979-19.372,13.956-29.059,20.935c-4.7,3.386-18.041-6.161-22.871-8.393c-16.494-7.62-36.458-7.177-54.343-9.371
		c-14.26-1.749-28.139-3.91-42.482-3.784c-27.81,0.245-55.62,0.49-83.43,0.736c-5.373,0.047-12.833-2.085-15.86,2.768
		c-6.117,9.806-12.234,19.611-18.352,29.417c-12.141-16.204-24.281-32.409-36.421-48.613c-2.325-3.104-4.793-2.346-8.703-2.636
		c-9.399-0.696-18.799-1.393-28.198-2.089c-26.662-1.976-53.324-3.951-79.987-5.927c-13.157-0.975-27.662-3.899-40.859-2.848
		c-10.613,0.847-21.226,1.693-31.839,2.54c-4.398,0.351-8.797,0.701-13.196,1.052C-1.452,170.819-0.706,174.486-1.25,177.402z"/>
	<path fill="#35A2FF" d="M0,132.902c0,0,35.833,3.829,41.5,3.509c5.667-0.319,32-0.957,37.667-3.828
		c5.667-2.871,30.667-21.054,40.333-19.14c0,0,9.333-0.319,27,14.993c0,0,13,11.803,31.667,0.638c0,0,18.333-12.441,34,0
		c0,0,22,16.27,27,17.864c5,1.595,18.667,6.38,40,5.743c21.333-0.639,67.667-9.252,75-10.847s28.666,2.872,35.333,5.104
		s20-1.595,26.667-4.466c6.667-2.871,39-15.631,65-16.269c26-0.638,26.667,0.319,39.667,6.061c0,0,12.334,8.932,26,27.753
		c0,0,10,10.525,12,11.803c2,1.276,11.333,6.38,31.333-3.189c20-9.57,43-23.925,51-34.771c0,0,30.332-38.918,35.999-50.083
		c0,0,5.668-10.208,15.334-8.932s22,29.668,34.5,31.263l8.166,0v99.846h-170l-42.333-40.513h-94.334l-34.833,33.335h-84.5
		l-31.333-7.177L243.5,214.886l-49.333-45.617L120.5,168.95H43.166H-2.167v-36.367L0,132.902z"/>
	<path fill="#00375E" d="M-1.833,134.816c0,0,30,6.061,43.333,5.742c13.333-0.319,33-3.509,36.667-3.828
		c3.667-0.319,33.667-4.147,41-4.147s28,7.976,39.667,6.062s19-7.337,19-7.337s11.667-8.613,21.333-2.871
		c9.667,5.742,26,36.046,26,36.046s9.333,14.993,14,15.95c0,0,10.667,5.104,26-13.398c0,0,13-17.226,44.667-7.975
		c0,0,18,2.232,36-8.932c0,0,16.667-9.571,42.667,5.422c0,0,16.666,5.742,39-9.251c0,0,18.001-9.889,53.334-11.484
		c0,0,28.333-4.559,45.666,10.435l11.667,16.042c0,0,13.333,21.691,22,26.796s22.334,5.104,40.334-4.785
		c0,0,18.998-7.655,40.332-35.727c0,0,34.332-50.083,39.666-62.206c0,0,4.334-6.699,11.667-5.423c0,0,4.438-0.653,11.334,7.258
		c7.946,9.117,18.771,27.001,23.5,27.514l3.832,0.639v94.423H549.166l-26-24.882H344.165h-69.333l-33.833,32.378l-46.833-44.819
		h-196L-1.833,134.816z"/>
	<path fill="#0085E5" d="M728.167,122.375c-8.666-3.828-27-36.685-27-36.685c-12.333-13.398-20.667,2.711-20.667,2.711
		c-6,13.398-39.75,65.315-39.75,65.315c-17.25,27.514-40,39.236-40,39.236c-22.5,11.245-40.25-1.675-40.25-1.675
		c-5-2.87-33-41.868-33-41.868c-5.25-8.613-19-10.766-31.25-2.632S470,151.085,470,151.085c-17.5-6.46-29.75-4.307-29.75-4.307
		c-5.5,0.718-13.25,6.46-13.25,6.46c-16.5,13.876-27.25,15.312-27.25,15.312c-7.5-0.239-14-5.264-14-5.264
		c-21.25-14.594-26-12.68-26-12.68c-7-1.196-19.25,7.177-19.25,7.177c-7.5,5.502-20.75,10.048-20.75,10.048
		c-6.25,1.675-32.5-4.067-32.5-4.067c-11.25-1.675-24,14.355-24,14.355c-13.5,17.704-24.084,14.115-24.084,14.115
		c-8.667-4.784-19-27.753-19-27.753c-15.333-32.218-21-32.219-21-32.219c-9.667-7.656-20.333,0.638-20.333,0.638
		c-8,5.423-19.667,7.975-19.667,7.975c-13,0.638-34-1.914-40-2.232c-6-0.319-29.333-0.639-40.667-0.319s-25.333,4.785-37,4.466
		S0,136.73,0,136.73l-2.5-0.638v41.47c0,0,0.334,0,6.667,0.638c0,0,32.833,3.987,37.583,3.748s12.5-0.957,18.75-2.632
		s13.5-2.871,18.5,0s10.5,6.46,24.25,18.661c13.75,12.202,12.5,9.57,15.5,9.81s10.5-0.239,26.25-12.441c0,0,10.25-6.46,20.75-9.809
		c0,0,22-7.656,33.25,0.479c0,0,6.5,1.675,19.5,29.666c0,0,11.5,26.079,21,28.231c0,0,7.25,5.981,24.75-28.231
		c0,0,10-20.575,23-16.508s16.75,16.029,32,18.422s21.5-17.465,41-16.986S386,220.945,400,221.424s26.5-13.397,40-12.44
		s24.25,18.9,40.5,18.9c21.5-10.527,23.5-34.213,39.5-33.734c0,0,7.5-2.393,25.5,23.446c0,0,10.5,13.638,14.75,16.748
		s15.25,18.183,40.25,23.686c0,0,7.5,0.957,21.75-9.331c0,0,11.75-8.373,19-11.244c0,0,34.25-12.681,39.5-12.92
		c0,0,16.25-3.11,23.75,3.11s19.5,19.618,27,17.704L728.167,122.375z"/>
</g>
</svg>
