<?xml version='1.0' encoding='utf-8'?>
<?xml-stylesheet href="https://fonts.googleapis.com/css?family=Open+Sans:300italic,400italic,600italic,700italic,800italic,400,300,600,700,800|Open+Sans+Condensed:300,300italic,700|Cousine|Lato|Noto+Serif" type="text/css"?><svg xmlns="http://www.w3.org/2000/svg" xmlns:xlink="http://www.w3.org/1999/xlink" class="marks" width="705" height="345" viewBox="0 0 705 345" version="1.1"><rect width="705" height="345" fill="#ffffff"/><rect width="705" height="345" style="fill: #ffffff;"/><g transform="translate(76,81)"><g class="mark-group role-frame root" role="graphics-object" aria-roledescription="group mark container"><g transform="translate(0,0)"><path class="background" aria-hidden="true" d="M0,0h608v221h-608Z" style="fill: none;"/><g><g class="mark-group role-axis" aria-hidden="true"><g transform="translate(0.5,0.5)"><path class="background" aria-hidden="true" d="M0,0h0v0h0Z" style="pointer-events: none; fill: none;"/><g><g class="mark-rule role-axis-grid" style="pointer-events: none;"><line transform="translate(0,221)" x2="608" y2="0" style="fill: none; stroke: #E4EEF5; stroke-width: 1; opacity: 1;"/><line transform="translate(0,111)" x2="608" y2="0" style="fill: none; stroke: #E4EEF5; stroke-width: 1; opacity: 1;"/><line transform="translate(0,0)" x2="608" y2="0" style="fill: none; stroke: #E4EEF5; stroke-width: 1; opacity: 1;"/><line transform="translate(0,166)" x2="608" y2="0" style="fill: none; stroke: #E4EEF5; stroke-width: 1; opacity: 1;"/><line transform="translate(0,55)" x2="608" y2="0" style="fill: none; stroke: #E4EEF5; stroke-width: 1; opacity: 1;"/></g></g><path class="foreground" aria-hidden="true" d="" style="pointer-events: none; display: none; fill: none;"/></g></g><g class="mark-group role-axis" aria-hidden="true"><g transform="translate(0.5,221.5)"><path class="background" aria-hidden="true" d="M0,0h0v0h0Z" style="pointer-events: none; fill: none;"/><g><g class="mark-rule role-axis-tick" style="pointer-events: none;"><line transform="translate(51,0)" x2="0" y2="5" style="fill: none; stroke: #E4EEF5; stroke-width: 1; opacity: 1;"/><line transform="translate(152,0)" x2="0" y2="5" style="fill: none; stroke: #E4EEF5; stroke-width: 1; opacity: 1;"/><line transform="translate(253,0)" x2="0" y2="5" style="fill: none; stroke: #E4EEF5; stroke-width: 1; opacity: 1;"/><line transform="translate(355,0)" x2="0" y2="5" style="fill: none; stroke: #E4EEF5; stroke-width: 1; opacity: 1;"/><line transform="translate(456,0)" x2="0" y2="5" style="fill: none; stroke: #E4EEF5; stroke-width: 1; opacity: 1;"/><line transform="translate(557,0)" x2="0" y2="5" style="fill: none; stroke: #E4EEF5; stroke-width: 1; opacity: 1;"/></g><g class="mark-text role-axis-label" style="pointer-events: none;"><text text-anchor="middle" transform="translate(50.610169491525454,20)" style="font-family: Lato; font-size: 13px; font-weight: normal; fill: #687299; opacity: 1;">2020-06</text><text text-anchor="middle" transform="translate(151.96610169491527,20)" style="font-family: Lato; font-size: 13px; font-weight: normal; fill: #687299; opacity: 1;">2020-07</text><text text-anchor="middle" transform="translate(253.3220338983051,20)" style="font-family: Lato; font-size: 13px; font-weight: normal; fill: #687299; opacity: 1;">2020-08</text><text text-anchor="middle" transform="translate(354.67796610169495,20)" style="font-family: Lato; font-size: 13px; font-weight: normal; fill: #687299; opacity: 1;">2020-09</text><text text-anchor="middle" transform="translate(456.03389830508473,20)" style="font-family: Lato; font-size: 13px; font-weight: normal; fill: #687299; opacity: 1;">2020-10</text><text text-anchor="middle" transform="translate(557.3898305084746,20)" style="font-family: Lato; font-size: 13px; font-weight: normal; fill: #687299; opacity: 1;">2020-11</text></g></g><path class="foreground" aria-hidden="true" d="" style="pointer-events: none; display: none; fill: none;"/></g></g><g class="mark-group role-axis" aria-hidden="true"><g transform="translate(0.5,0.5)"><path class="background" aria-hidden="true" d="M0,0h0v0h0Z" style="pointer-events: none; fill: none;"/><g><g class="mark-rule role-axis-tick" style="pointer-events: none;"><line transform="translate(0,221)" x2="-5" y2="0" style="fill: none; stroke: #E4EEF5; stroke-width: 1; opacity: 1;"/><line transform="translate(0,111)" x2="-5" y2="0" style="fill: none; stroke: #E4EEF5; stroke-width: 1; opacity: 1;"/><line transform="translate(0,0)" x2="-5" y2="0" style="fill: none; stroke: #E4EEF5; stroke-width: 1; opacity: 1;"/><line transform="translate(0,166)" x2="-5" y2="0" style="fill: none; stroke: #E4EEF5; stroke-width: 1; opacity: 1;"/><line transform="translate(0,55)" x2="-5" y2="0" style="fill: none; stroke: #E4EEF5; stroke-width: 1; opacity: 1;"/></g><g class="mark-text role-axis-label" style="pointer-events: none;"><text text-anchor="end" transform="translate(-15,225)" style="font-family: Lato; font-size: 13px; font-weight: normal; fill: #687299; opacity: 1;">0</text><text text-anchor="end" transform="translate(-15,114.5)" style="font-family: Lato; font-size: 13px; font-weight: normal; fill: #687299; opacity: 1;">10,000</text><text text-anchor="end" transform="translate(-15,4)" style="font-family: Lato; font-size: 13px; font-weight: normal; fill: #687299; opacity: 1;">20,000</text><text text-anchor="end" transform="translate(-15,169.75)" style="font-family: Lato; font-size: 13px; font-weight: normal; fill: #687299; opacity: 1;">5,000</text><text text-anchor="end" transform="translate(-15,59.25)" style="font-family: Lato; font-size: 13px; font-weight: normal; fill: #687299; opacity: 1;">15,000</text></g></g><path class="foreground" aria-hidden="true" d="" style="pointer-events: none; display: none; fill: none;"/></g></g><g class="mark-rect role-mark Left_Y_Axis_Layers_layer_0_marks" role="graphics-symbol" aria-roledescription="rect mark container" style="pointer-events: none;"><path d="M5.0000000000000355,204.425h22.805084745762706v16.57499999999999h-22.805084745762706Z" style="fill: #475999;"/><path d="M106.35593220338986,173.485h22.8050847457627v47.514999999999986h-22.8050847457627Z" style="fill: #475999;"/><path d="M207.71186440677965,129.50600000000003h22.805084745762713v91.49399999999997h-22.805084745762713Z" style="fill: #475999;"/><path d="M309.06779661016947,100.776h22.805084745762713v120.224h-22.805084745762713Z" style="fill: #475999;"/><path d="M410.4237288135593,132.158h22.805084745762713v88.84200000000001h-22.805084745762713Z" style="fill: #475999;"/><path d="M511.7796610169491,183.42999999999998h22.805084745762827v37.57000000000002h-22.805084745762827Z" style="fill: #475999;"/><path d="M27.80508474576274,188.513h22.805084745762713v32.486999999999995h-22.805084745762713Z" style="fill: #E59043;"/><path d="M129.16101694915255,154.479h22.805084745762713v66.52099999999999h-22.805084745762713Z" style="fill: #E59043;"/><path d="M230.51694915254237,166.63400000000001h22.80508474576274v54.365999999999985h-22.80508474576274Z" style="fill: #E59043;"/><path d="M331.8728813559322,135.47299999999998h22.80508474576277v85.52700000000002h-22.80508474576277Z" style="fill: #E59043;"/><path d="M433.228813559322,139.23h22.805084745762713v81.77000000000001h-22.805084745762713Z" style="fill: #E59043;"/><path d="M534.5847457627119,187.18699999999998h22.805084745762656v33.81300000000002h-22.805084745762656Z" style="fill: #E59043;"/><path d="M50.610169491525454,158.45700000000002h22.805084745762713v62.54299999999998h-22.805084745762713Z" style="fill: #9156B5;"/><path d="M151.96610169491527,77.571h22.805084745762713v143.429h-22.805084745762713Z" style="fill: #9156B5;"/><path d="M253.3220338983051,20.773999999999994h22.805084745762713v200.226h-22.805084745762713Z" style="fill: #9156B5;"/><path d="M354.67796610169495,38.89600000000001h22.8050847457626v182.10399999999998h-22.8050847457626Z" style="fill: #9156B5;"/><path d="M456.03389830508473,41.32700000000001h22.805084745762713v179.673h-22.805084745762713Z" style="fill: #9156B5;"/><path d="M557.3898305084746,125.52800000000002h22.805084745762656v95.47199999999998h-22.805084745762656Z" style="fill: #9156B5;"/><path d="M73.41525423728817,213.04399999999998h22.8050847457627v7.956000000000017h-22.8050847457627Z" style="fill: #E5CC49;"/><path d="M174.77118644067798,189.176h22.80508474576274v31.824000000000012h-22.80508474576274Z" style="fill: #E5CC49;"/><path d="M276.1271186440678,174.369h22.805084745762713v46.631h-22.805084745762713Z" style="fill: #E5CC49;"/><path d="M377.48305084745755,172.159h22.80508474576277v48.84100000000001h-22.80508474576277Z" style="fill: #E5CC49;"/><path d="M478.83898305084745,171.275h22.80508474576277v49.724999999999994h-22.80508474576277Z" style="fill: #E5CC49;"/><path d="M580.1949152542372,190.72299999999998h22.80508474576277v30.277000000000015h-22.80508474576277Z" style="fill: #E5CC49;"/></g><g class="mark-rule role-mark layer_1_layer_0_marks" role="graphics-symbol" aria-roledescription="rule mark container"><line transform="translate(50.610169491525454,0)" x2="0" y2="221" style="fill: none; stroke: black; opacity: 0;"/><line transform="translate(50.610169491525454,0)" x2="0" y2="221" style="fill: none; stroke: black; opacity: 0;"/><line transform="translate(50.610169491525454,0)" x2="0" y2="221" style="fill: none; stroke: black; opacity: 0;"/><line transform="translate(50.610169491525454,0)" x2="0" y2="221" style="fill: none; stroke: black; opacity: 0;"/><line transform="translate(151.96610169491527,0)" x2="0" y2="221" style="fill: none; stroke: black; opacity: 0;"/><line transform="translate(151.96610169491527,0)" x2="0" y2="221" style="fill: none; stroke: black; opacity: 0;"/><line transform="translate(151.96610169491527,0)" x2="0" y2="221" style="fill: none; stroke: black; opacity: 0;"/><line transform="translate(151.96610169491527,0)" x2="0" y2="221" style="fill: none; stroke: black; opacity: 0;"/><line transform="translate(253.3220338983051,0)" x2="0" y2="221" style="fill: none; stroke: black; opacity: 0;"/><line transform="translate(253.3220338983051,0)" x2="0" y2="221" style="fill: none; stroke: black; opacity: 0;"/><line transform="translate(253.3220338983051,0)" x2="0" y2="221" style="fill: none; stroke: black; opacity: 0;"/><line transform="translate(253.3220338983051,0)" x2="0" y2="221" style="fill: none; stroke: black; opacity: 0;"/><line transform="translate(354.67796610169495,0)" x2="0" y2="221" style="fill: none; stroke: black; opacity: 0;"/><line transform="translate(354.67796610169495,0)" x2="0" y2="221" style="fill: none; stroke: black; opacity: 0;"/><line transform="translate(354.67796610169495,0)" x2="0" y2="221" style="fill: none; stroke: black; opacity: 0;"/><line transform="translate(354.67796610169495,0)" x2="0" y2="221" style="fill: none; stroke: black; opacity: 0;"/><line transform="translate(456.03389830508473,0)" x2="0" y2="221" style="fill: none; stroke: black; opacity: 0;"/><line transform="translate(456.03389830508473,0)" x2="0" y2="221" style="fill: none; stroke: black; opacity: 0;"/><line transform="translate(456.03389830508473,0)" x2="0" y2="221" style="fill: none; stroke: black; opacity: 0;"/><line transform="translate(456.03389830508473,0)" x2="0" y2="221" style="fill: none; stroke: black; opacity: 0;"/><line transform="translate(557.3898305084746,0)" x2="0" y2="221" style="fill: none; stroke: black; opacity: 0;"/><line transform="translate(557.3898305084746,0)" x2="0" y2="221" style="fill: none; stroke: black; opacity: 0;"/><line transform="translate(557.3898305084746,0)" x2="0" y2="221" style="fill: none; stroke: black; opacity: 0;"/><line transform="translate(557.3898305084746,0)" x2="0" y2="221" style="fill: none; stroke: black; opacity: 0;"/></g><g class="mark-path role-mark layer_1_layer_0_voronoi" role="graphics-symbol" aria-roledescription="path mark container"><path transform="translate(0,0)" style="fill: none; stroke: none; stroke-width: 0.35;"/><path transform="translate(0,0)" d="M0,221L0,0L101.28813878217653,0L101.28814486753629,221Z" style="fill: none; stroke: none; stroke-width: 0.35;"/><path transform="translate(0,0)" style="fill: none; stroke: none; stroke-width: 0.35;"/><path transform="translate(0,0)" style="fill: none; stroke: none; stroke-width: 0.35;"/><path transform="translate(0,0)" style="fill: none; stroke: none; stroke-width: 0.35;"/><path transform="translate(0,0)" style="fill: none; stroke: none; stroke-width: 0.35;"/><path transform="translate(0,0)" style="fill: none; stroke: none; stroke-width: 0.35;"/><path transform="translate(0,0)" d="M202.64407243906194,0L202.6440812980705,221L101.2881448675362,221L101.28813878217645,0Z" style="fill: none; stroke: none; stroke-width: 0.35;"/><path transform="translate(0,0)" d="M304.000003111603,0L304.00000904935285,221L202.64408129807052,221L202.64407243906197,0Z" style="fill: none; stroke: none; stroke-width: 0.35;"/><path transform="translate(0,0)" style="fill: none; stroke: none; stroke-width: 0.35;"/><path transform="translate(0,0)" style="fill: none; stroke: none; stroke-width: 0.35;"/><path transform="translate(0,0)" style="fill: none; stroke: none; stroke-width: 0.35;"/><path transform="translate(0,0)" d="M405.3559317838873,0L405.3559309833669,221L304.00000904935285,221L304.000003111603,0Z" style="fill: none; stroke: none; stroke-width: 0.35;"/><path transform="translate(0,0)" style="fill: none; stroke: none; stroke-width: 0.35;"/><path transform="translate(0,0)" style="fill: none; stroke: none; stroke-width: 0.35;"/><path transform="translate(0,0)" style="fill: none; stroke: none; stroke-width: 0.35;"/><path transform="translate(0,0)" d="M506.7118607258437,0L506.711853701658,221L405.3559309833669,221L405.3559317838873,0Z" style="fill: none; stroke: none; stroke-width: 0.35;"/><path transform="translate(0,0)" style="fill: none; stroke: none; stroke-width: 0.35;"/><path transform="translate(0,0)" style="fill: none; stroke: none; stroke-width: 0.35;"/><path transform="translate(0,0)" style="fill: none; stroke: none; stroke-width: 0.35;"/><path transform="translate(0,0)" style="fill: none; stroke: none; stroke-width: 0.35;"/><path transform="translate(0,0)" style="fill: none; stroke: none; stroke-width: 0.35;"/><path transform="translate(0,0)" d="M506.711853701658,221L506.7118607258437,0L608,0L608,221Z" style="fill: none; stroke: none; stroke-width: 0.35;"/><path transform="translate(0,0)" style="fill: none; stroke: none; stroke-width: 0.35;"/></g><g class="mark-group role-legend" aria-hidden="true"><g transform="translate(269,-31)"><path class="background" aria-hidden="true" d="M5,0L334,0C336.75957512247,0,339,2.24042487753,339,5L339,19C339,21.75957512247,336.75957512247,24,334,24L5,24C2.24042487753,24,0,21.75957512247,0,19L0,5C0,2.24042487753,2.24042487753,0,5,0Z" style="pointer-events: none; fill: none;"/><g><g class="mark-group role-legend-entry"><g transform="translate(5,5)"><path class="background" aria-hidden="true" d="M0,0h0v0h0Z" style="pointer-events: none; fill: none;"/><g><g class="mark-group role-scope" role="graphics-object" aria-roledescription="group mark container"><g transform="translate(0,0)"><path class="background" aria-hidden="true" d="M0,0h82.48374938964844v14h-82.48374938964844Z" style="pointer-events: none; fill: none; opacity: 1;"/><g><g class="mark-symbol role-legend-symbol" style="pointer-events: none;"><path transform="translate(7,7)" d="M-5,-5h10v10h-10Z" style="fill: #475999; stroke-width: 0; opacity: 1;"/></g><g class="mark-text role-legend-label" style="pointer-events: none;"><text text-anchor="start" transform="translate(18,11)" style="font-family: Lato; font-size: 14px; font-weight: normal; fill: #687299; opacity: 1;">Enterprise</text></g></g><path class="foreground" aria-hidden="true" d="" style="pointer-events: none; display: none; fill: none;"/></g><g transform="translate(93,0)"><path class="background" aria-hidden="true" d="M0,0h76.519775390625v14h-76.519775390625Z" style="pointer-events: none; fill: none; opacity: 1;"/><g><g class="mark-symbol role-legend-symbol" style="pointer-events: none;"><path transform="translate(7,7)" d="M-5,-5h10v10h-10Z" style="fill: #E59043; stroke-width: 0; opacity: 1;"/></g><g class="mark-text role-legend-label" style="pointer-events: none;"><text text-anchor="start" transform="translate(18,11)" style="font-family: Lato; font-size: 14px; font-weight: normal; fill: #687299; opacity: 1;">Extended</text></g></g><path class="foreground" aria-hidden="true" d="" style="pointer-events: none; display: none; fill: none;"/></g><g transform="translate(180,0)"><path class="background" aria-hidden="true" d="M0,0h73.88778686523438v14h-73.88778686523438Z" style="pointer-events: none; fill: none; opacity: 1;"/><g><g class="mark-symbol role-legend-symbol" style="pointer-events: none;"><path transform="translate(7,7)" d="M-5,-5h10v10h-10Z" style="fill: #9156B5; stroke-width: 0; opacity: 1;"/></g><g class="mark-text role-legend-label" style="pointer-events: none;"><text text-anchor="start" transform="translate(18,11)" style="font-family: Lato; font-size: 14px; font-weight: normal; fill: #687299; opacity: 1;">Premium</text></g></g><path class="foreground" aria-hidden="true" d="" style="pointer-events: none; display: none; fill: none;"/></g><g transform="translate(264,0)"><path class="background" aria-hidden="true" d="M0,0h64.11582946777344v14h-64.11582946777344Z" style="pointer-events: none; fill: none; opacity: 1;"/><g><g class="mark-symbol role-legend-symbol" style="pointer-events: none;"><path transform="translate(7,7)" d="M-5,-5h10v10h-10Z" style="fill: #E5CC49; stroke-width: 0; opacity: 1;"/></g><g class="mark-text role-legend-label" style="pointer-events: none;"><text text-anchor="start" transform="translate(18,11)" style="font-family: Lato; font-size: 14px; font-weight: normal; fill: #687299; opacity: 1;">Startup</text></g></g><path class="foreground" aria-hidden="true" d="" style="pointer-events: none; display: none; fill: none;"/></g></g></g><path class="foreground" aria-hidden="true" d="" style="pointer-events: none; display: none; fill: none;"/></g></g></g><path class="foreground" aria-hidden="true" d="" style="pointer-events: none; display: none; fill: none;"/></g></g><g class="mark-group role-title"><g transform="translate(-55.45603942871094,-61)"><path class="background" aria-hidden="true" d="M0,0h0v0h0Z" style="pointer-events: none; fill: none;"/><g><g class="mark-text role-title-text" role="graphics-symbol" aria-roledescription="title" aria-label="Title text 'MRR by Plan'" style="pointer-events: none;"><text text-anchor="start" transform="translate(0,12)" style="font-family: Lato; font-size: 15px; font-weight: 500; fill: #00092E; opacity: 1;">MRR by Plan</text></g></g><path class="foreground" aria-hidden="true" d="" style="pointer-events: none; display: none; fill: none;"/></g></g></g><path class="foreground" aria-hidden="true" d="" style="display: none; fill: none;"/></g></g></g></svg>