<?xml version='1.0' encoding='utf-8'?>
<?xml-stylesheet href="https://fonts.googleapis.com/css?family=Open+Sans:300italic,400italic,600italic,700italic,800italic,400,300,600,700,800|Open+Sans+Condensed:300,300italic,700|Cousine|Lato|Noto+Serif" type="text/css"?><svg xmlns="http://www.w3.org/2000/svg" xmlns:xlink="http://www.w3.org/1999/xlink" preserveAspectRatio="xMinYMin" viewBox="0 0 705 225" width="705" height="225"><rect width="705" height="225" fill="#ffffff"/><rect transform="translate(1, 1)" width="703" height="223" class="background" fill="#ffffff" fill-opacity="1.0" style="shape-rendering: crispEdges"/><g class="chart-body" pointer-events="all" transform="translate(20, 65)"><rect width="665" height="140" fill-opacity="0" style="shape-rendering: crispEdges"/><g shape-rendering="crispEdges"><rect x="0" y="0" width="665" height="140" fill="#ffffff" stroke-width="1"/><rect x="0.0" y="0" width="266.0" height="140" fill="#bbb" stroke-width="1"/><rect x="266.0" y="0" width="266.0" height="140" fill="#ccc" stroke-width="1"/><rect x="532.0" y="0" width="133.0" height="140" fill="#ddd" stroke-width="1"/><rect x="0" y="49.0" width="478.5626693305414" height="42.0" fill="#475999" stroke-width="1" class="tooltip-trigger"/></g><g transform="translate(0, 140)"><g style="stroke-width:1" shape-rendering="crispEdges"><line x1="0.25" x2="0.25" y1="0" y2="3" stroke="#999" stroke-width="0.5"/><line x1="266.0" x2="266.0" y1="0" y2="3" stroke="#999" stroke-width="0.5"/><line x1="532.0" x2="532.0" y1="0" y2="3" stroke="#999" stroke-width="0.5"/><line x1="664.75" x2="664.75" y1="0" y2="3" stroke="#999" stroke-width="0.5"/></g><g style="font-family:Open Sans;font-size:10px;fill:#000000" text-anchor="middle"><text x="0.25" y="10">0</text><text x="266.0" y="10">500K</text><text x="532.0" y="10">1M</text><text x="664.75" y="10">1.25M</text></g></g></g><g transform="translate(1, 1)"><g transform="translate(329.0, 11.25)" class="drag-handle-icon hover" fill="rgb(0, 9, 46)" opacity="0.3" display="none"><svg width="45" height="22.5" viewBox="0 0 38 6" version="1.1" id="glbawfhrlk">
    <g stroke-width="1" fill-rule="evenodd">
        <rect x="0" y="0" width="2" height="2"/>
        <rect x="4" y="0" width="2" height="2"/>
        <rect x="0" y="4" width="2" height="2"/>
        <rect x="4" y="4" width="2" height="2"/>
        <rect x="8" y="0" width="2" height="2"/>
        <rect x="12" y="0" width="2" height="2"/>
        <rect x="8" y="4" width="2" height="2"/>
        <rect x="12" y="4" width="2" height="2"/>
        <rect x="16" y="0" width="2" height="2"/>
        <rect x="16" y="4" width="2" height="2"/>
        <rect x="20" y="0" width="2" height="2"/>
        <rect x="24" y="0" width="2" height="2"/>
        <rect x="20" y="4" width="2" height="2"/>
        <rect x="24" y="4" width="2" height="2"/>
        <rect x="28" y="0" width="2" height="2"/>
        <rect x="32" y="0" width="2" height="2"/>
        <rect x="28" y="4" width="2" height="2"/>
        <rect x="32" y="4" width="2" height="2"/>
        <rect x="36" y="0" width="2" height="2"/>
        <rect x="36" y="4" width="2" height="2"/>
    </g>
</svg></g><g class="title drag-handle" pointer-events="all"><rect width="703" height="45" class="title-background" fill-opacity="0" stroke-dasharray="0 748 703 45"/><g style="text-anchor:start;font-family:Open Sans;font-size:15px;font-weight:400;fill:#000000" transform="translate(15, 0)"><text y="28.0">Revenue</text></g></g></g><g transform="translate(674, 1)" class="settings-button" pointer-events="all" display="none"><rect width="30" height="45" fill="#000000" fill-opacity="0.0"/><circle cx="15.0" cy="15.0" r="2.5" fill="#00092e" fill-opacity="0.3"/><circle cx="15.0" cy="22.5" r="2.5" fill="#00092e" fill-opacity="0.3"/><circle cx="15.0" cy="30.0" r="2.5" fill="#00092e" fill-opacity="0.3"/></g><g transform="translate(639.0, 1)" class="chart-comments-button" pointer-events="all" display="none"><rect width="36.0" height="45" fill="#000000" fill-opacity="0.0"/><g transform="translate(8, 10.799999999999999)"><svg width="26.0" height="23.400000000000002" viewBox="0 0 20 18" fill="none" id="inlyyiaigx">
<path class="chart-comment-bubble-path" d="M0 4C0 1.79086 1.79086 0 4 0H16C18.2091 0 20 1.79086 20 4V11C20 13.2091 18.2091 15 16 15H10L4 18V15C1.79086 15 0 13.2091 0 11V4Z" fill="#C1C1C1"/>
<text fill="white" xml:space="preserve" style="white-space: pre; text-anchor: middle" font-family="Open Sans" font-size="11" font-weight="600" letter-spacing="-0.3px">
<tspan class="chart-comment-bubble-text" x="11" y="11.2673">
</tspan></text>
</svg></g></g></svg>