<?xml version="1.0" encoding="utf-8"?>
<!-- Generator: Adobe Illustrator 26.0.1, SVG Export Plug-In . SVG Version: 6.00 Build 0)  -->
<svg version="1.1" xmlns="http://www.w3.org/2000/svg" xmlns:xlink="http://www.w3.org/1999/xlink" x="0px" y="0px" width="1584px"
	 height="1224px" viewBox="0 0 1584 1224" style="enable-background:new 0 0 1584 1224;" xml:space="preserve">
<style type="text/css">
	.st0{fill:#979797;}
	.st1{fill:#99CBDF;}
	.st2{fill:#8CC440;}
	.st3{fill:#CCCCCC;}
	.st4{fill:#013F58;}
	.st5{fill:#007EB1;}
	.st6{fill:#FFFFFF;}
	.st7{fill:#EAE9EB;}
	.st8{fill-rule:evenodd;clip-rule:evenodd;fill:#979797;}
	.st9{fill-rule:evenodd;clip-rule:evenodd;fill:#CCCCCC;}
	.st10{fill:none;stroke:#FFFFFF;stroke-width:7;stroke-linecap:round;stroke-miterlimit:10;}
	.st11{fill-rule:evenodd;clip-rule:evenodd;fill:#007EB1;}
	.st12{display:none;}
	.st13{display:inline;fill:none;}
	.st14{display:inline;fill:#FFFFFF;}
	.st15{display:inline;fill:#231F20;}
	.st16{fill:none;}
	.st17{fill:#221F1F;}
	.st18{fill:#231F20;}
	.st19{fill:#EAEAEA;}
</style>
<g id="Layer_1">
	<path class="st0" d="M423.4,514c27.1-101.7,92.8-182.7,177.1-231.6L505,117.6C378.5,190.9,279.9,312.5,239.3,465
		c-13,48.8-19.2,97.8-19.4,146.1l190.5,0.3C410.6,579.2,414.8,546.5,423.4,514z"/>
	<path class="st1" d="M410.5,611.4L220,611.1c-0.5,204.9,110.2,395.8,288.2,497.3l94.5-165.5C484,875.3,410.2,748,410.5,611.4z"/>
	<path class="st2" d="M889.5,243.8c32.5,8.7,63,21.3,90.9,37.2l94.5-165.5c-41.9-23.9-87.5-42.8-136.3-55.8
		c-152.5-40.6-307-15.5-433.5,57.8l95.5,164.8C684.9,233.5,787.9,216.8,889.5,243.8z"/>
	<path class="st3" d="M693.6,980.1c-32.5-8.7-63-21.3-90.9-37.2l-94.5,165.5c41.9,23.9,87.5,42.8,136.3,55.8
		c152.5,40.6,307,15.5,433.5-57.8l-95.5-164.8C898.2,990.5,795.2,1007.2,693.6,980.1z"/>
	<path class="st4" d="M1159.7,710c-27.1,101.7-92.8,182.7-177.1,231.6l95.5,164.8c126.5-73.3,225.1-194.9,265.7-347.4
		c13-48.8,19.2-97.8,19.3-146.1l-190.5-0.3C1172.5,644.8,1168.4,677.4,1159.7,710z"/>
	<path class="st5" d="M1074.9,115.6l-94.5,165.5c118.7,67.7,192.5,194.9,192.2,331.5l190.5,0.3
		C1363.6,408,1252.9,217.1,1074.9,115.6z"/>
	<path class="st6" d="M791.6,612L602.7,942.9c27.9,15.9,58.4,28.6,90.9,37.2c101.7,27.1,204.7,10.3,289-38.5L791.6,612L791.6,612z"
		/>
	<path class="st6" d="M791.6,612l-191-329.6c-84.4,48.9-150.1,130-177.1,231.6c-8.7,32.5-12.8,65.2-12.9,97.4L791.6,612L791.6,612z"
		/>
	<path class="st7" d="M410.5,611.4C410.2,748,484,875.2,602.7,942.9L791.6,612L410.5,611.4z"/>
	<path class="st7" d="M600.5,282.4l191,329.6l188.9-330.9c-27.9-15.9-58.4-28.6-90.9-37.2C787.9,216.8,684.9,233.5,600.5,282.4z"/>
	<path class="st7" d="M982.6,941.6c84.4-48.9,150.1-130,177.1-231.6c8.7-32.5,12.8-65.2,12.9-97.4l-381-0.6L982.6,941.6z"/>
	<path class="st6" d="M791.6,612l381,0.6c0.3-136.6-73.4-263.9-192.1-331.5L791.6,612L791.6,612z"/>
	<g>
		<path class="st8" d="M539,455.9h68.5h5.4l-0.9,5.3l-10.9,65.2l-0.6,3.8h-3.8h-46.8H546l-0.6-3.8l-10.9-65.2l-0.9-5.3H539
			L539,455.9z M602.1,465h-57.8l9.4,56.1h39L602.1,465z"/>
		<rect x="529.3" y="451" class="st8" width="88.5" height="10.6"/>
		<polygon class="st8" points="563.6,461.2 570,525.3 561,526.1 554.5,462 		"/>
		<polygon class="st8" points="590.7,462 584.6,526.1 575.5,525.3 581.7,461.2 		"/>
		<rect x="543.1" y="475.9" class="st8" width="59.6" height="7.1"/>
		<rect x="543.1" y="495.8" class="st8" width="59.6" height="7.1"/>
		<polygon class="st8" points="547.1,447.5 568.5,447.5 572.3,439.9 566.2,435 557.4,438.4 553.2,434.5 		"/>
		<polygon class="st8" points="574.8,447.2 579,439.2 576.1,434.2 589.2,432.6 598.6,447.3 		"/>
	</g>
	<path class="st9" d="M835.5,831.7l9.9,57.1l-60.2-5.2l15.2-15.7c-16.3-12.2-39.5-10.7-54.1,4.3c-3.1,3.2-5.6,6.8-7.4,10.6l-8.3-3.7
		c2-10.7,7-21,15.1-29.4c20.7-21.4,54.1-23.1,76.8-4.8L835.5,831.7L835.5,831.7z M824.4,856c-6.6-5.9-13.9-10.1-21.6-13.3
		c15.9,11.5,25.3,20,35.3,36.5l-7.8-29.1L824.4,856z"/>
	<g>
		<path class="st1" d="M540.6,733.4l-15.2,26v-61.1c0-5.8,4.7-10.6,10.6-10.6h35.2l14.1,14.1h35.2c5.8,0,10.6,4.7,10.6,10.6v10.5
			h-72.1C551.3,722.9,544.3,726.9,540.6,733.4z M635.3,765.2c-2.2,3.9-7.7,7-12.2,7h-87.9c-4.1,0-6.6-4.4-4.6-7.9l15.9-27.3
			c2.2-3.9,7.7-7,12.2-7h87.9c4.1,0,6.6,4.4,4.6,7.9L635.3,765.2z"/>
	</g>
	<g>
		<circle class="st2" cx="793.2" cy="358.5" r="63"/>
		<line class="st10" x1="793.2" y1="325.4" x2="793.2" y2="359.7"/>
		<g>
			<path class="st10" d="M776.1,328.6c-9.9,5.8-16.5,16.6-16.5,28.9c0,18.6,15,33.6,33.6,33.6c18.6,0,33.6-15,33.6-33.6
				c0-12.3-6.6-23.1-16.5-28.9"/>
		</g>
	</g>
	<path class="st4" d="M1053.2,713.5l-6.5-1.2c-2.3-0.6-4.2-2.2-5.1-4.4c-0.9-2.2-0.7-4.7,0.5-6.7l3.7-4.9c1.5-2.1,1.2-4.9-0.6-6.6
		l-5.4-5.3c-1.8-1.8-4.5-2-6.6-0.6l-5.2,3.7c-2,1.2-4.5,1.4-6.7,0.5c-2-1.1-3.5-2.9-4.1-5.1l-1.2-6.5c-0.5-2.3-2.5-4-4.9-4h-7.7
		c-2.4,0-4.4,1.7-4.9,4l-1.2,6.5c-0.6,2.3-2.2,4.1-4.3,5c-2.1,0.9-4.6,0.8-6.6-0.4l-5-3.7c-2-1.4-4.8-1.2-6.6,0.6l-5.4,5.3
		c-1.8,1.8-2.1,4.6-0.6,6.6l3.7,5.2c1.1,2,1.2,4.4,0.3,6.5c-0.9,2.1-2.7,3.7-4.9,4.3l-6.5,1.2c-2.3,0.5-4,2.5-4,4.9v7.7
		c0,2.4,1.7,4.4,4,4.9l6.5,1.2c2.3,0.6,4.2,2.2,5.1,4.4c0.9,2.2,0.7,4.7-0.5,6.7l-3.7,4.9c-1.5,2.1-1.2,4.9,0.6,6.6l5.4,5.3
		c1.8,1.8,4.5,2,6.6,0.6l5.2-3.7c2-1.1,4.4-1.2,6.5-0.3s3.7,2.7,4.3,4.9l1.2,6.5c0.5,2.3,2.5,4,4.9,4h7.7c2.4,0,4.4-1.7,4.9-4
		l1.2-6.5c0.6-2.3,2.2-4.2,4.4-5.1c2.2-0.9,4.7-0.7,6.7,0.5l5.2,3.7c2,1.3,4.6,1,6.3-0.6l5.4-5.3c1.8-1.8,2.1-4.6,0.6-6.6l-3.7-5.2
		c-1.1-2-1.2-4.4-0.3-6.5c0.9-2.1,2.7-3.7,4.9-4.3l6.5-1.2c2.3-0.5,4-2.5,4-4.9v-7.7C1057.2,716.1,1055.5,714.1,1053.2,713.5z
		 M1007.4,740.3c-9.9,0-17.9-8-17.9-17.9c0-9.9,8-17.9,17.9-17.9c9.9,0,17.9,8,17.9,17.9C1025.3,732.2,1017.3,740.3,1007.4,740.3z"
		/>
	<path class="st11" d="M966.9,450h81c0.9,0,1.6,0.7,1.6,1.6v23.1c0,0.9-0.7,1.6-1.6,1.6h-81c-0.9,0-1.6-0.7-1.6-1.6v-23.1
		C965.3,450.8,966,450,966.9,450L966.9,450z M977.2,460.9c-1.3,0-2.4,1.1-2.4,2.4c0,1.3,1.1,2.4,2.4,2.4c1.3,0,2.4-1.1,2.4-2.4
		C979.6,462,978.5,460.9,977.2,460.9L977.2,460.9z M986.3,460.9c-1.3,0-2.4,1.1-2.4,2.4c0,1.3,1.1,2.4,2.4,2.4
		c1.3,0,2.4-1.1,2.4-2.4C988.7,462,987.6,460.9,986.3,460.9L986.3,460.9z M995.4,460.9c-1.3,0-2.4,1.1-2.4,2.4
		c0,1.3,1.1,2.4,2.4,2.4c1.3,0,2.4-1.1,2.4-2.4C997.7,462,996.7,460.9,995.4,460.9L995.4,460.9z M1004.4,460.9
		c-1.3,0-2.4,1.1-2.4,2.4c0,1.3,1.1,2.4,2.4,2.4c1.3,0,2.4-1.1,2.4-2.4C1006.8,462,1005.7,460.9,1004.4,460.9L1004.4,460.9z
		 M972.7,467.4c-1.3,0-2.4,1.1-2.4,2.4c0,1.3,1.1,2.4,2.4,2.4c1.3,0,2.4-1.1,2.4-2.4C975,468.5,974,467.4,972.7,467.4L972.7,467.4z
		 M981.7,467.4c-1.3,0-2.4,1.1-2.4,2.4c0,1.3,1.1,2.4,2.4,2.4s2.4-1.1,2.4-2.4C984.1,468.5,983,467.4,981.7,467.4L981.7,467.4z
		 M990.8,467.4c-1.3,0-2.4,1.1-2.4,2.4c0,1.3,1.1,2.4,2.4,2.4c1.3,0,2.4-1.1,2.4-2.4C993.2,468.5,992.1,467.4,990.8,467.4
		L990.8,467.4z M999.9,467.4c-1.3,0-2.4,1.1-2.4,2.4c0,1.3,1.1,2.4,2.4,2.4c1.3,0,2.4-1.1,2.4-2.4
		C1002.2,468.5,1001.2,467.4,999.9,467.4L999.9,467.4z M972.7,454.4c-1.3,0-2.4,1.1-2.4,2.4c0,1.3,1.1,2.4,2.4,2.4
		c1.3,0,2.4-1.1,2.4-2.4C975,455.5,974,454.4,972.7,454.4L972.7,454.4z M981.7,454.4c-1.3,0-2.4,1.1-2.4,2.4c0,1.3,1.1,2.4,2.4,2.4
		s2.4-1.1,2.4-2.4C984.1,455.5,983,454.4,981.7,454.4L981.7,454.4z M990.8,454.4c-1.3,0-2.4,1.1-2.4,2.4c0,1.3,1.1,2.4,2.4,2.4
		c1.3,0,2.4-1.1,2.4-2.4C993.2,455.5,992.1,454.4,990.8,454.4L990.8,454.4z M999.9,454.4c-1.3,0-2.4,1.1-2.4,2.4
		c0,1.3,1.1,2.4,2.4,2.4c1.3,0,2.4-1.1,2.4-2.4C1002.2,455.5,1001.2,454.4,999.9,454.4L999.9,454.4z M1034.9,459.2
		c-0.4,0-0.8,0.4-0.8,0.8v6.4c0,0.4,0.4,0.8,0.8,0.8h6.4c0.4,0,0.8-0.4,0.8-0.8V460c0-0.4-0.4-0.8-0.8-0.8H1034.9L1034.9,459.2z
		 M966.9,480.5h81c0.9,0,1.6,0.7,1.6,1.6v23.1c0,0.9-0.7,1.6-1.6,1.6h-81c-0.9,0-1.6-0.7-1.6-1.6v-23.1
		C965.3,481.2,966,480.5,966.9,480.5L966.9,480.5z M977.2,491.4c-1.3,0-2.4,1.1-2.4,2.4c0,1.3,1.1,2.4,2.4,2.4
		c1.3,0,2.4-1.1,2.4-2.4C979.6,492.4,978.5,491.4,977.2,491.4L977.2,491.4z M986.3,491.4c-1.3,0-2.4,1.1-2.4,2.4
		c0,1.3,1.1,2.4,2.4,2.4c1.3,0,2.4-1.1,2.4-2.4C988.7,492.4,987.6,491.4,986.3,491.4L986.3,491.4z M995.4,491.4
		c-1.3,0-2.4,1.1-2.4,2.4c0,1.3,1.1,2.4,2.4,2.4c1.3,0,2.4-1.1,2.4-2.4C997.7,492.4,996.7,491.4,995.4,491.4L995.4,491.4z
		 M1004.4,491.4c-1.3,0-2.4,1.1-2.4,2.4c0,1.3,1.1,2.4,2.4,2.4c1.3,0,2.4-1.1,2.4-2.4C1006.8,492.4,1005.7,491.4,1004.4,491.4
		L1004.4,491.4z M972.7,497.9c-1.3,0-2.4,1.1-2.4,2.4c0,1.3,1.1,2.4,2.4,2.4c1.3,0,2.4-1.1,2.4-2.4C975,498.9,974,497.9,972.7,497.9
		L972.7,497.9z M981.7,497.9c-1.3,0-2.4,1.1-2.4,2.4c0,1.3,1.1,2.4,2.4,2.4s2.4-1.1,2.4-2.4C984.1,498.9,983,497.9,981.7,497.9
		L981.7,497.9z M990.8,497.9c-1.3,0-2.4,1.1-2.4,2.4c0,1.3,1.1,2.4,2.4,2.4c1.3,0,2.4-1.1,2.4-2.4
		C993.2,498.9,992.1,497.9,990.8,497.9L990.8,497.9z M999.9,497.9c-1.3,0-2.4,1.1-2.4,2.4c0,1.3,1.1,2.4,2.4,2.4
		c1.3,0,2.4-1.1,2.4-2.4C1002.2,498.9,1001.2,497.9,999.9,497.9L999.9,497.9z M972.7,484.9c-1.3,0-2.4,1.1-2.4,2.4
		c0,1.3,1.1,2.4,2.4,2.4c1.3,0,2.4-1.1,2.4-2.4C975,486,974,484.9,972.7,484.9L972.7,484.9z M981.7,484.9c-1.3,0-2.4,1.1-2.4,2.4
		c0,1.3,1.1,2.4,2.4,2.4s2.4-1.1,2.4-2.4C984.1,486,983,484.9,981.7,484.9L981.7,484.9z M990.8,484.9c-1.3,0-2.4,1.1-2.4,2.4
		c0,1.3,1.1,2.4,2.4,2.4c1.3,0,2.4-1.1,2.4-2.4C993.2,486,992.1,484.9,990.8,484.9L990.8,484.9z M999.9,484.9
		c-1.3,0-2.4,1.1-2.4,2.4c0,1.3,1.1,2.4,2.4,2.4c1.3,0,2.4-1.1,2.4-2.4C1002.2,486,1001.2,484.9,999.9,484.9L999.9,484.9z
		 M1034.9,489.7c-0.4,0-0.8,0.4-0.8,0.8v6.4c0,0.4,0.4,0.8,0.8,0.8h6.4c0.4,0,0.8-0.4,0.8-0.8v-6.4c0-0.4-0.4-0.8-0.8-0.8H1034.9
		L1034.9,489.7z M966.9,510.9h81c0.9,0,1.6,0.7,1.6,1.6v23.1c0,0.9-0.7,1.6-1.6,1.6h-81c-0.9,0-1.6-0.7-1.6-1.6v-23.1
		C965.3,511.7,966,510.9,966.9,510.9L966.9,510.9z M977.2,521.8c-1.3,0-2.4,1.1-2.4,2.4c0,1.3,1.1,2.4,2.4,2.4
		c1.3,0,2.4-1.1,2.4-2.4C979.6,522.9,978.5,521.8,977.2,521.8L977.2,521.8z M986.3,521.8c-1.3,0-2.4,1.1-2.4,2.4
		c0,1.3,1.1,2.4,2.4,2.4c1.3,0,2.4-1.1,2.4-2.4C988.7,522.9,987.6,521.8,986.3,521.8L986.3,521.8z M995.4,521.8
		c-1.3,0-2.4,1.1-2.4,2.4c0,1.3,1.1,2.4,2.4,2.4c1.3,0,2.4-1.1,2.4-2.4C997.7,522.9,996.7,521.8,995.4,521.8L995.4,521.8z
		 M1004.4,521.8c-1.3,0-2.4,1.1-2.4,2.4c0,1.3,1.1,2.4,2.4,2.4c1.3,0,2.4-1.1,2.4-2.4C1006.8,522.9,1005.7,521.8,1004.4,521.8
		L1004.4,521.8z M972.7,528.3c-1.3,0-2.4,1.1-2.4,2.4c0,1.3,1.1,2.4,2.4,2.4c1.3,0,2.4-1.1,2.4-2.4C975,529.4,974,528.3,972.7,528.3
		L972.7,528.3z M981.7,528.3c-1.3,0-2.4,1.1-2.4,2.4c0,1.3,1.1,2.4,2.4,2.4s2.4-1.1,2.4-2.4C984.1,529.4,983,528.3,981.7,528.3
		L981.7,528.3z M990.8,528.3c-1.3,0-2.4,1.1-2.4,2.4c0,1.3,1.1,2.4,2.4,2.4c1.3,0,2.4-1.1,2.4-2.4
		C993.2,529.4,992.1,528.3,990.8,528.3L990.8,528.3z M999.9,528.3c-1.3,0-2.4,1.1-2.4,2.4c0,1.3,1.1,2.4,2.4,2.4
		c1.3,0,2.4-1.1,2.4-2.4C1002.2,529.4,1001.2,528.3,999.9,528.3L999.9,528.3z M972.7,515.3c-1.3,0-2.4,1.1-2.4,2.4
		c0,1.3,1.1,2.4,2.4,2.4c1.3,0,2.4-1.1,2.4-2.4C975,516.4,974,515.3,972.7,515.3L972.7,515.3z M981.7,515.3c-1.3,0-2.4,1.1-2.4,2.4
		c0,1.3,1.1,2.4,2.4,2.4s2.4-1.1,2.4-2.4C984.1,516.4,983,515.3,981.7,515.3L981.7,515.3z M990.8,515.3c-1.3,0-2.4,1.1-2.4,2.4
		c0,1.3,1.1,2.4,2.4,2.4c1.3,0,2.4-1.1,2.4-2.4C993.2,516.4,992.1,515.3,990.8,515.3L990.8,515.3z M999.9,515.3
		c-1.3,0-2.4,1.1-2.4,2.4c0,1.3,1.1,2.4,2.4,2.4c1.3,0,2.4-1.1,2.4-2.4C1002.2,516.4,1001.2,515.3,999.9,515.3L999.9,515.3z
		 M1034.9,520.1c-0.4,0-0.8,0.4-0.8,0.8v6.4c0,0.4,0.4,0.8,0.8,0.8h6.4c0.4,0,0.8-0.4,0.8-0.8v-6.4c0-0.4-0.4-0.8-0.8-0.8H1034.9z"
		/>
</g>
<g id="text">
	<g class="st12">
		<path class="st13" d="M1221.6,726.4c-63.2,237.5-307,378.8-544.5,315.6c-237.5-63.2-378.8-307-315.6-544.5
			C424.7,260,668.5,118.7,906,182C1143.5,245.2,1284.8,489,1221.6,726.4z"/>
		<path class="st14" d="M315.1,502.5l4.5-16c0.4-1.4,1-2.8,1.7-4.2c0.7-1.4,1.7-2.8,2.8-4.1c1.1-1.3,2.4-2.5,3.9-3.6
			c1.5-1.1,3.2-1.9,5-2.6c1.9-0.6,3.9-1,6.1-1c2.2-0.1,4.6,0.3,7.1,1c2.6,0.7,4.7,1.7,6.6,2.9c1.8,1.2,3.4,2.6,4.6,4.1
			c1.3,1.5,2.2,3.1,2.9,4.8c0.7,1.7,1.2,3.4,1.4,5.1c0.3,1.7,0.3,3.4,0.2,5c-0.1,1.6-0.4,3.1-0.8,4.5l-4.5,16L315.1,502.5z
			 M353.6,508.1l2.7-9.4c0.7-2.4,1-4.7,0.9-6.9c0-2.2-0.5-4.3-1.4-6.1c-0.9-1.9-2.2-3.5-4-5c-1.8-1.4-4.1-2.6-7-3.4
			c-2.9-0.8-5.4-1.1-7.7-0.8c-2.3,0.3-4.3,1-6,2.1c-1.7,1.1-3.2,2.6-4.4,4.5c-1.2,1.9-2.2,4-2.8,6.4l-2.7,9.4L353.6,508.1z"/>
		<path class="st14" d="M329.2,454.4l9.4-25.5l4.5,1.7l-7.6,20.7l12.7,4.7l7.1-19.3l4.5,1.7l-7.1,19.3l14.5,5.3l8-21.8l4.5,1.7
			l-9.8,26.6L329.2,454.4z"/>
		<path class="st14" d="M359.4,401.3c-1.6,0.2-3,0.8-4.2,1.8c-1.2,1-2.1,2.2-2.7,3.7c-0.5,1-0.8,2.1-1,3.2s-0.2,2.2-0.1,3.2
			c0.1,1,0.5,2,1.2,2.9c0.6,0.9,1.5,1.6,2.7,2.1c0.9,0.4,1.7,0.6,2.6,0.7c0.8,0,1.6-0.1,2.5-0.5c0.8-0.4,1.8-1,2.7-1.8
			s2.1-1.9,3.3-3.3c1.2-1.3,2.4-2.5,3.6-3.7s2.5-2.1,3.9-2.8c1.4-0.7,2.8-1.1,4.4-1.1c1.6-0.1,3.3,0.4,5.3,1.3
			c2,0.9,3.5,2.1,4.6,3.5c1.1,1.4,1.8,3,2.2,4.7c0.4,1.7,0.4,3.5,0.1,5.4c-0.3,1.9-0.9,3.7-1.7,5.5c-0.5,1.1-1.2,2.2-1.9,3.3
			c-0.7,1.1-1.6,2-2.5,2.9c-0.9,0.9-1.9,1.6-3,2.2c-1.1,0.6-2.3,1-3.6,1.2l-1.4-5.5c1.8-0.2,3.5-0.9,4.9-2c1.4-1.2,2.6-2.6,3.3-4.3
			c0.5-1,0.8-2.1,1-3.2c0.2-1.2,0.2-2.3,0-3.4c-0.2-1.1-0.6-2.1-1.2-3c-0.6-0.9-1.5-1.6-2.6-2.1c-1.2-0.6-2.3-0.8-3.3-0.8
			c-0.9,0.1-1.9,0.4-2.8,1c-1,0.6-1.9,1.4-3,2.5c-1,1.1-2.3,2.4-3.7,3.8c-1.1,1.2-2.2,2.3-3.3,3.2c-1.1,0.9-2.3,1.6-3.5,2.1
			c-1.2,0.5-2.6,0.7-4,0.7c-1.4,0-2.9-0.4-4.5-1.2c-1.9-0.9-3.4-2-4.4-3.4c-1.1-1.4-1.8-2.9-2.1-4.6c-0.4-1.7-0.4-3.5-0.2-5.3
			c0.3-1.8,0.8-3.6,1.6-5.3c1-2.2,2.3-4.1,3.8-5.6c1.5-1.5,3.5-2.6,5.9-3.3L359.4,401.3z"/>
		<path class="st14" d="M378.8,359.3l-7,12.5l33.6,18.9l-2.5,4.5l-33.6-18.9l-7,12.5l-4.2-2.3l16.6-29.4L378.8,359.3z"/>
		<path class="st14" d="M380.2,348.3l6.2-9.2c1.2-1.7,2.4-3.4,3.8-4.9c1.4-1.6,2.8-2.8,4.4-3.7c1.6-0.9,3.3-1.3,5.2-1.3
			c1.9,0,3.9,0.8,6.1,2.3c2.6,1.8,4.2,4,4.8,6.7c0.5,2.7,0.1,5.6-1.4,8.7l23.4,1.1l-3.5,5.2l-22.7-1.2l-3.7,5.5l16.1,10.9l-2.9,4.2
			L380.2,348.3z M398.9,354.8l2.6-3.8c0.8-1.2,1.6-2.4,2.4-3.7c0.8-1.3,1.4-2.6,1.7-3.9c0.4-1.3,0.4-2.6,0-3.8
			c-0.3-1.2-1.2-2.4-2.7-3.4c-1.3-0.9-2.5-1.3-3.6-1.3c-1.1,0-2.2,0.2-3.2,0.8c-1,0.5-1.9,1.3-2.7,2.2c-0.8,0.9-1.6,1.9-2.3,3
			l-4.1,6L398.9,354.8z"/>
		<path class="st14" d="M451.3,326.7c-2.1,2.5-4.5,4.5-7.2,5.9c-2.6,1.4-5.4,2.2-8.2,2.4c-2.8,0.2-5.7-0.1-8.6-1
			c-2.9-0.9-5.5-2.5-8-4.6c-2.5-2.1-4.5-4.5-5.9-7.1c-1.4-2.7-2.3-5.4-2.5-8.3c-0.2-2.8,0.1-5.7,1-8.5c0.9-2.8,2.4-5.5,4.5-8.1
			c2.1-2.5,4.5-4.5,7.2-5.9c2.6-1.4,5.4-2.2,8.2-2.4c2.8-0.2,5.7,0.1,8.6,1c2.9,0.9,5.5,2.5,8,4.6c2.5,2.1,4.5,4.5,5.9,7.1
			c1.4,2.7,2.3,5.4,2.5,8.3c0.2,2.8-0.1,5.7-1,8.5S453.5,324.2,451.3,326.7z M447.7,323.7c1.6-1.9,2.8-4,3.4-6.2
			c0.6-2.2,0.8-4.4,0.5-6.6c-0.3-2.2-1-4.3-2.1-6.4c-1.1-2-2.7-3.9-4.6-5.5c-1.9-1.6-4-2.8-6.2-3.5c-2.2-0.8-4.4-1.1-6.6-1
			c-2.2,0.1-4.4,0.7-6.4,1.7c-2.1,1-3.9,2.5-5.5,4.4c-1.6,1.9-2.8,4-3.4,6.2c-0.6,2.2-0.8,4.4-0.5,6.6c0.3,2.2,1,4.3,2.1,6.4
			c1.1,2,2.7,3.9,4.6,5.5c1.9,1.6,4,2.8,6.2,3.5c2.2,0.8,4.4,1.1,6.6,1c2.2-0.1,4.4-0.7,6.4-1.7
			C444.2,327.1,446.1,325.6,447.7,323.7z"/>
		<path class="st14" d="M465.7,282.1l-28.8-6.4l4.7-4.6l22.4,5.5l-4.7-22.8l4.4-4.3l5.7,28.9l13,13.4l-3.7,3.6L465.7,282.1z"/>
		<path class="st15" d="M712.8,138.8c-1.6-1.5-3.5-2.4-5.5-2.9c-2.1-0.5-4.1-0.5-6.1-0.1c-2.4,0.5-4.4,1.4-6.2,2.7
			c-1.8,1.4-3.2,3-4.4,4.9c-1.1,1.9-1.9,4-2.2,6.3c-0.4,2.3-0.3,4.6,0.1,6.9c0.5,2.5,1.3,4.7,2.6,6.7c1.2,2,2.7,3.6,4.4,4.9
			c1.7,1.3,3.7,2.2,5.8,2.7c2.2,0.5,4.4,0.6,6.8,0.1c2.6-0.5,4.8-1.5,6.7-2.9c1.8-1.4,3.3-3.2,4.5-5.5l4.4,2.4
			c-1.4,2.9-3.4,5.3-5.8,7c-2.5,1.7-5.4,2.9-8.8,3.6c-3,0.6-6,0.6-8.9,0c-2.9-0.6-5.5-1.7-7.8-3.3c-2.3-1.6-4.3-3.6-6-6.2
			c-1.6-2.5-2.8-5.4-3.4-8.6c-0.6-3.1-0.7-6.1-0.1-9.1c0.5-2.9,1.5-5.6,3.1-8c1.5-2.4,3.5-4.4,5.9-6.1c2.4-1.7,5.2-2.8,8.4-3.5
			c2.9-0.6,5.8-0.6,8.6-0.1c2.9,0.5,5.4,1.8,7.7,3.8L712.8,138.8z"/>
		<path class="st15" d="M728.2,127.5l11-1.1c2.1-0.2,4.1-0.3,6.2-0.3c2.1,0,4,0.4,5.7,1c1.7,0.6,3.1,1.7,4.3,3.2
			c1.2,1.5,1.9,3.5,2.2,6.2c0.3,3.2-0.4,5.8-2.1,8c-1.7,2.1-4.2,3.7-7.5,4.5l14.3,18.6l-6.3,0.6L742.3,150l-6.6,0.7l2,19.4l-5.1,0.5
			L728.2,127.5z M735.2,146l4.6-0.5c1.4-0.1,2.9-0.3,4.4-0.6c1.5-0.2,2.9-0.6,4.1-1.2c1.2-0.6,2.2-1.4,2.9-2.4c0.7-1,1-2.5,0.8-4.2
			c-0.2-1.5-0.6-2.7-1.3-3.6c-0.7-0.9-1.6-1.5-2.6-1.9c-1-0.4-2.2-0.6-3.5-0.7c-1.3,0-2.5,0-3.8,0.1l-7.2,0.7L735.2,146z"/>
		<path class="st15" d="M769.7,123.9l27.2-0.5l0.1,4.8l-22.1,0.4l0.2,13.6l20.6-0.4l0.1,4.8l-20.6,0.4l0.3,15.4l23.2-0.4l0.1,4.8
			l-28.3,0.5L769.7,123.9z"/>
		<path class="st15" d="M824.6,124.7l4.8,0.4l15.2,44.6l-6-0.4l-3.6-10.9l-21.6-1.6l-5.2,10.3l-5.8-0.4L824.6,124.7z M826.4,131.5
			l-0.1,0L815.8,152l17.6,1.3L826.4,131.5z"/>
		<path class="st15" d="M885.8,137.4l-14.1-2.3l-6.2,38l-5.1-0.8l6.2-38l-14.1-2.3l0.8-4.7l33.3,5.5L885.8,137.4z"/>
		<path class="st15" d="M896.6,134.9l26.4,6.6l-1.1,4.6l-21.4-5.3l-3.3,13.2l20,5l-1.1,4.6l-20-5l-3.7,15l22.5,5.6l-1.1,4.6
			l-27.5-6.8L896.6,134.9z"/>
		<path class="st15" d="M1183.4,333.4c0.6-1.5,0.7-3,0.4-4.6c-0.3-1.5-1-2.9-1.9-4.2c-0.7-0.9-1.5-1.7-2.3-2.5
			c-0.9-0.7-1.8-1.3-2.8-1.6c-1-0.4-2-0.5-3.1-0.4c-1.1,0.1-2.1,0.6-3.1,1.3c-0.8,0.6-1.4,1.2-1.8,1.9c-0.4,0.7-0.7,1.5-0.8,2.4
			c-0.1,0.9,0,2,0.3,3.3c0.3,1.3,0.7,2.7,1.3,4.4c0.6,1.7,1.1,3.3,1.5,4.9c0.4,1.6,0.6,3.2,0.6,4.7c0,1.5-0.4,3-1.1,4.4
			c-0.7,1.4-1.9,2.7-3.6,4c-1.7,1.3-3.5,2.1-5.3,2.3c-1.8,0.3-3.5,0.1-5.2-0.4c-1.7-0.5-3.3-1.4-4.8-2.5c-1.5-1.2-2.8-2.5-4-4.1
			c-0.8-1-1.4-2.1-2-3.3c-0.6-1.2-1-2.3-1.3-3.5c-0.3-1.2-0.5-2.5-0.5-3.7c0-1.3,0.2-2.5,0.7-3.8l5.5,1.4c-0.7,1.7-0.9,3.5-0.6,5.3
			c0.3,1.8,1.1,3.5,2.2,5c0.7,0.9,1.4,1.7,2.4,2.4c0.9,0.7,1.9,1.2,3,1.6c1,0.3,2.1,0.5,3.2,0.4c1.1-0.1,2.1-0.5,3.1-1.2
			c1.1-0.8,1.8-1.6,2.2-2.5c0.4-0.9,0.6-1.8,0.5-3c-0.1-1.1-0.3-2.4-0.8-3.8c-0.5-1.4-1-3.1-1.6-5.1c-0.5-1.5-0.9-3-1.2-4.4
			c-0.3-1.4-0.3-2.8-0.1-4.1c0.2-1.3,0.6-2.6,1.3-3.8c0.7-1.2,1.8-2.3,3.2-3.4c1.7-1.2,3.4-2,5.1-2.3c1.7-0.3,3.4-0.1,5.1,0.3
			c1.7,0.5,3.2,1.3,4.7,2.4c1.5,1.1,2.8,2.4,3.9,4c1.5,2,2.5,4,3.1,6.1c0.6,2.1,0.6,4.3,0,6.7L1183.4,333.4z"/>
		<path class="st15" d="M1210.8,370.5l-7.6-12.2l-32.7,20.4l-2.7-4.4l32.7-20.4l-7.6-12.2l4.1-2.5l17.9,28.7L1210.8,370.5z"/>
		<path class="st15" d="M1189.4,415.1c-1.5-3-2.3-5.9-2.5-8.9c-0.2-3,0.2-5.8,1.1-8.5c0.9-2.7,2.4-5.2,4.4-7.4
			c2-2.2,4.5-4.1,7.4-5.5c2.9-1.4,5.9-2.3,8.9-2.5c3-0.2,5.9,0.1,8.6,1c2.7,0.9,5.2,2.4,7.4,4.3c2.2,2,4.1,4.4,5.6,7.4
			c1.5,3,2.3,5.9,2.5,8.9c0.2,3-0.2,5.8-1.1,8.5c-0.9,2.7-2.4,5.2-4.4,7.4c-2,2.2-4.5,4.1-7.4,5.5c-2.9,1.4-5.9,2.3-8.9,2.5
			c-3,0.2-5.9-0.1-8.6-1s-5.2-2.4-7.4-4.3C1192.7,420.5,1190.9,418.1,1189.4,415.1z M1193.7,413c1.1,2.3,2.6,4.1,4.3,5.6
			c1.8,1.5,3.7,2.5,5.9,3.1c2.1,0.6,4.4,0.8,6.7,0.6c2.3-0.2,4.6-0.9,6.8-2c2.2-1.1,4.1-2.5,5.7-4.2c1.6-1.7,2.8-3.6,3.6-5.7
			c0.8-2.1,1.1-4.3,1-6.6c-0.1-2.3-0.7-4.6-1.8-6.8c-1.1-2.3-2.6-4.1-4.3-5.6c-1.8-1.5-3.7-2.5-5.9-3.1c-2.1-0.6-4.4-0.8-6.7-0.6
			c-2.3,0.2-4.6,0.9-6.8,2c-2.2,1.1-4.1,2.5-5.7,4.2c-1.6,1.7-2.8,3.6-3.6,5.7c-0.8,2.1-1.1,4.3-1.1,6.6
			C1192,408.4,1192.6,410.7,1193.7,413z"/>
		<path class="st15" d="M1244.1,427.9l3.9,10.4c0.7,1.9,1.3,3.9,1.8,5.9s0.7,3.9,0.5,5.7c-0.2,1.8-0.8,3.5-1.9,5
			c-1.1,1.5-2.9,2.7-5.4,3.7c-3,1.1-5.7,1.1-8.2,0c-2.5-1.1-4.6-3.1-6.3-6.1L1214,471l-2.2-5.9l14.1-17.9l-2.3-6.2l-18.2,6.9
			l-1.8-4.8L1244.1,427.9z M1228,439.4l1.6,4.3c0.5,1.3,1.1,2.7,1.7,4.1c0.6,1.4,1.4,2.6,2.2,3.7c0.9,1,1.9,1.8,3.1,2.2
			c1.2,0.4,2.6,0.4,4.3-0.3c1.5-0.5,2.5-1.3,3.2-2.2s1.1-1.9,1.2-3c0.1-1.1,0-2.3-0.2-3.5c-0.3-1.2-0.7-2.4-1.1-3.6l-2.5-6.8
			L1228,439.4z"/>
		<path class="st15" d="M1258.1,467.1l7.4,26.2l-4.6,1.3l-6-21.3l-13.1,3.7l5.6,19.8l-4.6,1.3l-5.6-19.8l-14.8,4.2l6.3,22.3
			l-4.6,1.3l-7.7-27.3L1258.1,467.1z"/>
		<path class="st14" d="M1205.1,817.7c-2.2-1-4.1-2.2-5.8-3.6c-1.7-1.4-3-3-3.9-4.9c-0.9-1.8-1.4-3.9-1.4-6.2c0-2.3,0.6-4.8,1.8-7.5
			c1.2-2.7,2.7-4.8,4.4-6.3c1.7-1.5,3.6-2.5,5.6-3c2-0.5,4.1-0.6,6.3-0.3c2.2,0.3,4.3,1,6.5,2L1243,799l-2.1,4.7l-23.7-10.8
			c-1.6-0.7-3.2-1.3-4.9-1.6c-1.6-0.3-3.2-0.4-4.7-0.1c-1.5,0.3-2.9,0.9-4.2,1.9c-1.3,1-2.4,2.5-3.3,4.4c-0.9,2-1.3,3.8-1.2,5.4
			c0.1,1.6,0.5,3.1,1.3,4.4c0.8,1.3,1.9,2.5,3.2,3.5c1.3,1,2.8,1.9,4.4,2.6l23.7,10.8l-2.1,4.7L1205.1,817.7z"/>
		<path class="st14" d="M1205.8,856.3c1.6-0.1,3.1-0.6,4.3-1.5c1.3-0.9,2.3-2.1,3-3.4c0.6-1,1-2,1.3-3.1c0.3-1.1,0.4-2.2,0.3-3.2
			s-0.4-2-0.9-3c-0.6-0.9-1.4-1.7-2.5-2.3c-0.9-0.5-1.7-0.8-2.5-0.9c-0.8-0.1-1.6,0-2.5,0.3c-0.9,0.3-1.8,0.8-2.9,1.6
			c-1,0.8-2.2,1.8-3.5,3c-1.3,1.2-2.6,2.3-3.9,3.4c-1.3,1.1-2.7,1.9-4.1,2.5c-1.4,0.6-2.9,0.8-4.5,0.8c-1.6-0.1-3.3-0.6-5.1-1.7
			c-1.9-1.1-3.3-2.4-4.3-3.9s-1.6-3.2-1.8-4.9c-0.2-1.7-0.1-3.5,0.4-5.4c0.5-1.8,1.2-3.6,2.1-5.3c0.6-1.1,1.3-2.1,2.2-3.1
			c0.8-1,1.7-1.9,2.7-2.7c1-0.8,2-1.4,3.2-1.9c1.2-0.5,2.4-0.8,3.7-0.9l1,5.6c-1.8,0-3.5,0.6-5.1,1.6c-1.5,1.1-2.8,2.4-3.7,4
			c-0.5,1-0.9,2-1.2,3.1c-0.3,1.1-0.3,2.3-0.2,3.3c0.1,1.1,0.4,2.1,1,3.1c0.5,1,1.3,1.7,2.4,2.3c1.2,0.7,2.2,1,3.2,1
			c0.9,0,1.9-0.2,2.9-0.7c1-0.5,2.1-1.3,3.2-2.3c1.1-1,2.4-2.2,4-3.5c1.2-1.1,2.4-2.1,3.6-2.9c1.2-0.8,2.4-1.4,3.7-1.8
			c1.3-0.4,2.6-0.5,4-0.3c1.4,0.2,2.9,0.7,4.4,1.6c1.8,1,3.2,2.3,4.1,3.7c0.9,1.5,1.5,3.1,1.8,4.8c0.2,1.7,0.1,3.5-0.3,5.3
			c-0.4,1.8-1.1,3.5-2,5.2c-1.2,2.1-2.6,3.9-4.3,5.3c-1.7,1.4-3.7,2.3-6.1,2.8L1205.8,856.3z"/>
		<path class="st14" d="M1203.3,875.1l-15.3,22.6l-4-2.7l12.4-18.3l-11.3-7.6l-11.6,17.1l-4-2.7l11.6-17.1l-12.8-8.6l-13,19.2
			l-4-2.7l15.9-23.5L1203.3,875.1z"/>
		<path class="st14" d="M879.9,1084.7c1.1,1.2,2.4,1.9,4,2.3c1.5,0.3,3,0.3,4.6,0c1.1-0.2,2.2-0.6,3.2-1.1s1.9-1.1,2.6-1.9
			c0.7-0.7,1.3-1.6,1.6-2.6c0.3-1,0.4-2.2,0.1-3.4c-0.2-1-0.5-1.8-1-2.5c-0.5-0.7-1.1-1.2-1.9-1.7c-0.8-0.5-1.8-0.8-3.1-1.1
			c-1.3-0.3-2.8-0.5-4.6-0.7c-1.7-0.2-3.4-0.4-5.1-0.7c-1.7-0.3-3.2-0.8-4.5-1.4c-1.4-0.7-2.5-1.6-3.5-2.9c-1-1.2-1.7-2.9-2.1-5
			c-0.4-2.1-0.4-4,0.1-5.8s1.4-3.2,2.5-4.6c1.2-1.3,2.6-2.4,4.3-3.3c1.7-0.9,3.5-1.5,5.4-1.9c1.2-0.3,2.5-0.4,3.8-0.4
			s2.5,0.1,3.8,0.3c1.2,0.2,2.4,0.6,3.6,1.1c1.2,0.5,2.2,1.3,3.1,2.2l-3.6,4.4c-1.2-1.4-2.8-2.3-4.6-2.7c-1.8-0.5-3.6-0.5-5.5-0.1
			c-1.1,0.2-2.1,0.6-3.2,1.2c-1,0.5-1.9,1.2-2.7,2c-0.8,0.8-1.3,1.7-1.7,2.8c-0.4,1-0.4,2.2-0.2,3.3c0.3,1.3,0.7,2.3,1.3,3.1
			c0.6,0.7,1.4,1.3,2.5,1.7c1,0.4,2.3,0.7,3.8,0.9c1.5,0.2,3.3,0.4,5.3,0.7c1.6,0.2,3.1,0.4,4.5,0.8c1.4,0.4,2.7,0.9,3.8,1.6
			c1.1,0.7,2.1,1.6,2.9,2.8c0.8,1.1,1.4,2.6,1.7,4.4c0.4,2,0.4,3.9-0.1,5.6s-1.3,3.2-2.4,4.5c-1.1,1.3-2.5,2.4-4.1,3.3
			c-1.6,0.9-3.4,1.5-5.2,1.9c-2.4,0.5-4.7,0.6-6.8,0.2s-4.2-1.3-6.1-2.8L879.9,1084.7z"/>
		<path class="st14" d="M863.8,1095.4l-5.1,0.6l-2.1-18.2l-23,2.6l2.1,18.2l-5.1,0.6l-4.9-43l5.1-0.6l2.3,20.1l23-2.6l-2.3-20.1
			l5.1-0.6L863.8,1095.4z"/>
		<path class="st14" d="M800.9,1100.3l-4.8,0.1l-19-43.1l6-0.1l4.6,10.6l21.7-0.3l4.3-10.7l5.8-0.1L800.9,1100.3z M798.5,1093.8
			l0.1,0l8.7-21.4l-17.7,0.3L798.5,1093.8z"/>
		<path class="st14" d="M767.3,1100l-11-0.9c-2.1-0.2-4.1-0.4-6.2-0.9c-2-0.4-3.8-1.1-5.4-2c-1.6-0.9-2.8-2.2-3.7-3.9
			c-0.9-1.6-1.2-3.8-1-6.5c0.2-3.2,1.4-5.7,3.5-7.5c2.1-1.8,4.8-2.8,8.2-3.1l-10.7-20.8l6.3,0.5l10.2,20.3l6.6,0.5l1.5-19.4l5.1,0.4
			L767.3,1100z M763.7,1080.6l-4.6-0.4c-1.4-0.1-2.9-0.2-4.4-0.2c-1.5,0-3,0.1-4.3,0.5c-1.3,0.3-2.4,1-3.3,1.9
			c-0.9,0.9-1.4,2.2-1.6,4c-0.1,1.5,0.1,2.8,0.6,3.8c0.5,1,1.3,1.8,2.2,2.4c1,0.6,2,1,3.3,1.3c1.2,0.3,2.5,0.4,3.7,0.5l7.2,0.6
			L763.7,1080.6z"/>
		<path class="st14" d="M725.8,1096.1l-26.9-4.4l0.8-4.7l21.8,3.6l2.2-13.4l-20.4-3.3l0.8-4.7l20.4,3.3l2.5-15.2l-22.9-3.7l0.8-4.7
			l28,4.6L725.8,1096.1z"/>
		<path class="st15" d="M449.3,960.4l-3.4-3.4l17.4-43.7l4.3,4.2l-4.4,10.7l15.4,15.3l10.7-4.4l4.1,4.1L449.3,960.4z M452.3,954.1
			L452.3,954.1l21.5-8.7l-12.6-12.5L452.3,954.1z"/>
		<path class="st15" d="M426.1,936.2l-7.1-8.5c-1.3-1.6-2.6-3.3-3.7-5c-1.1-1.7-1.9-3.5-2.3-5.3c-0.4-1.8-0.4-3.6,0.2-5.3
			c0.5-1.8,1.9-3.5,3.9-5.3c2.4-2,5-3,7.8-2.7c2.7,0.2,5.4,1.4,8,3.7l7.4-22.2l4,4.8l-7.4,21.5l4.2,5.1l14.9-12.5l3.3,3.9
			L426.1,936.2z M437.4,920l-2.9-3.5c-0.9-1.1-1.9-2.2-2.9-3.3s-2.2-2-3.3-2.7c-1.2-0.7-2.4-1.1-3.7-1.1c-1.3,0-2.6,0.5-4,1.7
			c-1.2,1-1.9,2-2.3,3.1c-0.3,1.1-0.4,2.2-0.1,3.2c0.3,1.1,0.7,2.2,1.4,3.2c0.7,1.1,1.4,2.1,2.2,3l4.6,5.5L437.4,920z"/>
		<path class="st15" d="M389.6,873.7c-0.7,2.1-0.9,4.1-0.5,6.2c0.4,2.1,1.1,4,2.3,5.7c1.4,2,3,3.5,5,4.6c2,1.1,4,1.8,6.2,2.1
			c2.2,0.3,4.4,0.1,6.7-0.5c2.3-0.6,4.4-1.5,6.3-2.9c2.1-1.4,3.8-3.1,5.1-5c1.3-1.9,2.2-3.9,2.7-6c0.5-2.1,0.6-4.3,0.2-6.5
			c-0.4-2.2-1.3-4.3-2.7-6.3c-1.5-2.2-3.3-3.8-5.3-4.9c-2-1.1-4.3-1.8-6.8-1.9l0.5-5c3.3,0.1,6.2,1,8.8,2.5c2.6,1.6,4.9,3.8,6.8,6.6
			c1.8,2.5,2.9,5.3,3.5,8.1c0.6,2.9,0.6,5.7,0.1,8.5c-0.5,2.8-1.6,5.4-3.3,7.9c-1.6,2.5-3.8,4.7-6.5,6.6c-2.6,1.8-5.4,3.1-8.3,3.8
			c-2.9,0.7-5.7,0.8-8.5,0.4c-2.8-0.4-5.4-1.4-7.9-3c-2.5-1.5-4.7-3.6-6.5-6.3c-1.7-2.4-2.8-5-3.5-7.9c-0.7-2.8-0.5-5.7,0.4-8.6
			L389.6,873.7z"/>
		<path class="st15" d="M372.9,863.9l-2.5-4.5l16-8.9l-11.2-20.2l-16,8.9l-2.5-4.5l37.9-21.1l2.5,4.5l-17.6,9.8l11.2,20.2l17.6-9.8
			l2.5,4.5L372.9,863.9z"/>
		<path class="st15" d="M350.5,821.5l-2.2-4.7l39.2-18.4l2.2,4.7L350.5,821.5z"/>
		<path class="st15" d="M344.5,809.4l-2.1-5.4l28.2-25.5l0-0.1l-38.2,0.3l-2-5.1l46.5-0.2l1.8,4.6L344.5,809.4z"/>
		<path class="st15" d="M327.6,764.9l-7.9-26.1l4.6-1.4l6.4,21.1l13-3.9l-6-19.7l4.6-1.4l6,19.7l14.8-4.5l-6.7-22.2l4.6-1.4
			l8.2,27.1L327.6,764.9z"/>
	</g>
	<g class="st12">
		<path class="st13" d="M1221.6,726.4c-63.2,237.5-307,378.8-544.5,315.6c-237.5-63.2-378.8-307-315.6-544.5
			C424.7,260,668.5,118.7,906,182C1143.5,245.2,1284.8,489,1221.6,726.4z"/>
		<path class="st14" d="M315.1,502.5l4.5-16c0.4-1.4,1-2.8,1.7-4.2c0.7-1.4,1.7-2.8,2.8-4.1c1.1-1.3,2.4-2.5,3.9-3.6
			c1.5-1.1,3.2-1.9,5-2.6c1.9-0.6,3.9-1,6.1-1c2.2-0.1,4.6,0.3,7.1,1c2.6,0.7,4.7,1.7,6.6,2.9c1.8,1.2,3.4,2.6,4.6,4.1
			c1.3,1.5,2.2,3.1,2.9,4.8c0.7,1.7,1.2,3.4,1.4,5.1c0.3,1.7,0.3,3.4,0.2,5c-0.1,1.6-0.4,3.1-0.8,4.5l-4.5,16L315.1,502.5z
			 M353.6,508.1l2.7-9.4c0.7-2.4,1-4.7,0.9-6.9c0-2.2-0.5-4.3-1.4-6.1c-0.9-1.9-2.2-3.5-4-5c-1.8-1.4-4.1-2.6-7-3.4
			c-2.9-0.8-5.4-1.1-7.7-0.8c-2.3,0.3-4.3,1-6,2.1c-1.7,1.1-3.2,2.6-4.4,4.5c-1.2,1.9-2.2,4-2.8,6.4l-2.7,9.4L353.6,508.1z"/>
		<path class="st14" d="M329.2,454.4l9.4-25.5l4.5,1.7l-7.6,20.7l12.7,4.7l7.1-19.3l4.5,1.7l-7.1,19.3l14.5,5.3l8-21.8l4.5,1.7
			l-9.8,26.6L329.2,454.4z"/>
		<path class="st14" d="M359.4,401.3c-1.6,0.2-3,0.8-4.2,1.8c-1.2,1-2.1,2.2-2.7,3.7c-0.5,1-0.8,2.1-1,3.2s-0.2,2.2-0.1,3.2
			c0.1,1,0.5,2,1.2,2.9c0.6,0.9,1.5,1.6,2.7,2.1c0.9,0.4,1.7,0.6,2.6,0.7c0.8,0,1.6-0.1,2.5-0.5c0.8-0.4,1.8-1,2.7-1.8
			s2.1-1.9,3.3-3.3c1.2-1.3,2.4-2.5,3.6-3.7s2.5-2.1,3.9-2.8c1.4-0.7,2.8-1.1,4.4-1.1c1.6-0.1,3.3,0.4,5.3,1.3
			c2,0.9,3.5,2.1,4.6,3.5c1.1,1.4,1.8,3,2.2,4.7c0.4,1.7,0.4,3.5,0.1,5.4c-0.3,1.9-0.9,3.7-1.7,5.5c-0.5,1.1-1.2,2.2-1.9,3.3
			c-0.7,1.1-1.6,2-2.5,2.9c-0.9,0.9-1.9,1.6-3,2.2c-1.1,0.6-2.3,1-3.6,1.2l-1.4-5.5c1.8-0.2,3.5-0.9,4.9-2c1.4-1.2,2.6-2.6,3.3-4.3
			c0.5-1,0.8-2.1,1-3.2c0.2-1.2,0.2-2.3,0-3.4c-0.2-1.1-0.6-2.1-1.2-3c-0.6-0.9-1.5-1.6-2.6-2.1c-1.2-0.6-2.3-0.8-3.3-0.8
			c-0.9,0.1-1.9,0.4-2.8,1c-1,0.6-1.9,1.4-3,2.5c-1,1.1-2.3,2.4-3.7,3.8c-1.1,1.2-2.2,2.3-3.3,3.2c-1.1,0.9-2.3,1.6-3.5,2.1
			c-1.2,0.5-2.6,0.7-4,0.7c-1.4,0-2.9-0.4-4.5-1.2c-1.9-0.9-3.4-2-4.4-3.4c-1.1-1.4-1.8-2.9-2.1-4.6c-0.4-1.7-0.4-3.5-0.2-5.3
			c0.3-1.8,0.8-3.6,1.6-5.3c1-2.2,2.3-4.1,3.8-5.6c1.5-1.5,3.5-2.6,5.9-3.3L359.4,401.3z"/>
		<path class="st14" d="M378.8,359.3l-7,12.5l33.6,18.9l-2.5,4.5l-33.6-18.9l-7,12.5l-4.2-2.3l16.6-29.4L378.8,359.3z"/>
		<path class="st14" d="M380.2,348.3l6.2-9.2c1.2-1.7,2.4-3.4,3.8-4.9c1.4-1.6,2.8-2.8,4.4-3.7c1.6-0.9,3.3-1.3,5.2-1.3
			c1.9,0,3.9,0.8,6.1,2.3c2.6,1.8,4.2,4,4.8,6.7c0.5,2.7,0.1,5.6-1.4,8.7l23.4,1.1l-3.5,5.2l-22.7-1.2l-3.7,5.5l16.1,10.9l-2.9,4.2
			L380.2,348.3z M398.9,354.8l2.6-3.8c0.8-1.2,1.6-2.4,2.4-3.7c0.8-1.3,1.4-2.6,1.7-3.9c0.4-1.3,0.4-2.6,0-3.8
			c-0.3-1.2-1.2-2.4-2.7-3.4c-1.3-0.9-2.5-1.3-3.6-1.3c-1.1,0-2.2,0.2-3.2,0.8c-1,0.5-1.9,1.3-2.7,2.2c-0.8,0.9-1.6,1.9-2.3,3
			l-4.1,6L398.9,354.8z"/>
		<path class="st14" d="M451.3,326.7c-2.1,2.5-4.5,4.5-7.2,5.9c-2.6,1.4-5.4,2.2-8.2,2.4c-2.8,0.2-5.7-0.1-8.6-1
			c-2.9-0.9-5.5-2.5-8-4.6c-2.5-2.1-4.5-4.5-5.9-7.1c-1.4-2.7-2.3-5.4-2.5-8.3c-0.2-2.8,0.1-5.7,1-8.5c0.9-2.8,2.4-5.5,4.5-8.1
			c2.1-2.5,4.5-4.5,7.2-5.9c2.6-1.4,5.4-2.2,8.2-2.4c2.8-0.2,5.7,0.1,8.6,1c2.9,0.9,5.5,2.5,8,4.6c2.5,2.1,4.5,4.5,5.9,7.1
			c1.4,2.7,2.3,5.4,2.5,8.3c0.2,2.8-0.1,5.7-1,8.5S453.5,324.2,451.3,326.7z M447.7,323.7c1.6-1.9,2.8-4,3.4-6.2
			c0.6-2.2,0.8-4.4,0.5-6.6c-0.3-2.2-1-4.3-2.1-6.4c-1.1-2-2.7-3.9-4.6-5.5c-1.9-1.6-4-2.8-6.2-3.5c-2.2-0.8-4.4-1.1-6.6-1
			c-2.2,0.1-4.4,0.7-6.4,1.7c-2.1,1-3.9,2.5-5.5,4.4c-1.6,1.9-2.8,4-3.4,6.2c-0.6,2.2-0.8,4.4-0.5,6.6c0.3,2.2,1,4.3,2.1,6.4
			c1.1,2,2.7,3.9,4.6,5.5c1.9,1.6,4,2.8,6.2,3.5c2.2,0.8,4.4,1.1,6.6,1c2.2-0.1,4.4-0.7,6.4-1.7
			C444.2,327.1,446.1,325.6,447.7,323.7z"/>
		<path class="st14" d="M465.7,282.1l-28.8-6.4l4.7-4.6l22.4,5.5l-4.7-22.8l4.4-4.3l5.7,28.9l13,13.4l-3.7,3.6L465.7,282.1z"/>
		<path class="st15" d="M712.8,138.8c-1.6-1.5-3.5-2.4-5.5-2.9c-2.1-0.5-4.1-0.5-6.1-0.1c-2.4,0.5-4.4,1.4-6.2,2.7
			c-1.8,1.4-3.2,3-4.4,4.9c-1.1,1.9-1.9,4-2.2,6.3c-0.4,2.3-0.3,4.6,0.1,6.9c0.5,2.5,1.3,4.7,2.6,6.7c1.2,2,2.7,3.6,4.4,4.9
			c1.7,1.3,3.7,2.2,5.8,2.7c2.2,0.5,4.4,0.6,6.8,0.1c2.6-0.5,4.8-1.5,6.7-2.9c1.8-1.4,3.3-3.2,4.5-5.5l4.4,2.4
			c-1.4,2.9-3.4,5.3-5.8,7c-2.5,1.7-5.4,2.9-8.8,3.6c-3,0.6-6,0.6-8.9,0c-2.9-0.6-5.5-1.7-7.8-3.3c-2.3-1.6-4.3-3.6-6-6.2
			c-1.6-2.5-2.8-5.4-3.4-8.6c-0.6-3.1-0.7-6.1-0.1-9.1c0.5-2.9,1.5-5.6,3.1-8c1.5-2.4,3.5-4.4,5.9-6.1c2.4-1.7,5.2-2.8,8.4-3.5
			c2.9-0.6,5.8-0.6,8.6-0.1c2.9,0.5,5.4,1.8,7.7,3.8L712.8,138.8z"/>
		<path class="st15" d="M728.2,127.5l11-1.1c2.1-0.2,4.1-0.3,6.2-0.3c2.1,0,4,0.4,5.7,1c1.7,0.6,3.1,1.7,4.3,3.2
			c1.2,1.5,1.9,3.5,2.2,6.2c0.3,3.2-0.4,5.8-2.1,8c-1.7,2.1-4.2,3.7-7.5,4.5l14.3,18.6l-6.3,0.6L742.3,150l-6.6,0.7l2,19.4l-5.1,0.5
			L728.2,127.5z M735.2,146l4.6-0.5c1.4-0.1,2.9-0.3,4.4-0.6c1.5-0.2,2.9-0.6,4.1-1.2c1.2-0.6,2.2-1.4,2.9-2.4c0.7-1,1-2.5,0.8-4.2
			c-0.2-1.5-0.6-2.7-1.3-3.6c-0.7-0.9-1.6-1.5-2.6-1.9c-1-0.4-2.2-0.6-3.5-0.7c-1.3,0-2.5,0-3.8,0.1l-7.2,0.7L735.2,146z"/>
		<path class="st15" d="M769.7,123.9l27.2-0.5l0.1,4.8l-22.1,0.4l0.2,13.6l20.6-0.4l0.1,4.8l-20.6,0.4l0.3,15.4l23.2-0.4l0.1,4.8
			l-28.3,0.5L769.7,123.9z"/>
		<path class="st15" d="M824.6,124.7l4.8,0.4l15.2,44.6l-6-0.4l-3.6-10.9l-21.6-1.6l-5.2,10.3l-5.8-0.4L824.6,124.7z M826.4,131.5
			l-0.1,0L815.8,152l17.6,1.3L826.4,131.5z"/>
		<path class="st15" d="M885.8,137.4l-14.1-2.3l-6.2,38l-5.1-0.8l6.2-38l-14.1-2.3l0.8-4.7l33.3,5.5L885.8,137.4z"/>
		<path class="st15" d="M896.6,134.9l26.4,6.6l-1.1,4.6l-21.4-5.3l-3.3,13.2l20,5l-1.1,4.6l-20-5l-3.7,15l22.5,5.6l-1.1,4.6
			l-27.5-6.8L896.6,134.9z"/>
		<path class="st15" d="M1183.4,333.4c0.6-1.5,0.7-3,0.4-4.6c-0.3-1.5-1-2.9-1.9-4.2c-0.7-0.9-1.5-1.7-2.3-2.5
			c-0.9-0.7-1.8-1.3-2.8-1.6c-1-0.4-2-0.5-3.1-0.4c-1.1,0.1-2.1,0.6-3.1,1.3c-0.8,0.6-1.4,1.2-1.8,1.9c-0.4,0.7-0.7,1.5-0.8,2.4
			c-0.1,0.9,0,2,0.3,3.3c0.3,1.3,0.7,2.7,1.3,4.4c0.6,1.7,1.1,3.3,1.5,4.9c0.4,1.6,0.6,3.2,0.6,4.7c0,1.5-0.4,3-1.1,4.4
			c-0.7,1.4-1.9,2.7-3.6,4c-1.7,1.3-3.5,2.1-5.3,2.3c-1.8,0.3-3.5,0.1-5.2-0.4c-1.7-0.5-3.3-1.4-4.8-2.5c-1.5-1.2-2.8-2.5-4-4.1
			c-0.8-1-1.4-2.1-2-3.3c-0.6-1.2-1-2.3-1.3-3.5c-0.3-1.2-0.5-2.5-0.5-3.7c0-1.3,0.2-2.5,0.7-3.8l5.5,1.4c-0.7,1.7-0.9,3.5-0.6,5.3
			c0.3,1.8,1.1,3.5,2.2,5c0.7,0.9,1.4,1.7,2.4,2.4c0.9,0.7,1.9,1.2,3,1.6c1,0.3,2.1,0.5,3.2,0.4c1.1-0.1,2.1-0.5,3.1-1.2
			c1.1-0.8,1.8-1.6,2.2-2.5c0.4-0.9,0.6-1.8,0.5-3c-0.1-1.1-0.3-2.4-0.8-3.8c-0.5-1.4-1-3.1-1.6-5.1c-0.5-1.5-0.9-3-1.2-4.4
			c-0.3-1.4-0.3-2.8-0.1-4.1c0.2-1.3,0.6-2.6,1.3-3.8c0.7-1.2,1.8-2.3,3.2-3.4c1.7-1.2,3.4-2,5.1-2.3c1.7-0.3,3.4-0.1,5.1,0.3
			c1.7,0.5,3.2,1.3,4.7,2.4c1.5,1.1,2.8,2.4,3.9,4c1.5,2,2.5,4,3.1,6.1c0.6,2.1,0.6,4.3,0,6.7L1183.4,333.4z"/>
		<path class="st15" d="M1210.8,370.5l-7.6-12.2l-32.7,20.4l-2.7-4.4l32.7-20.4l-7.6-12.2l4.1-2.5l17.9,28.7L1210.8,370.5z"/>
		<path class="st15" d="M1189.4,415.1c-1.5-3-2.3-5.9-2.5-8.9c-0.2-3,0.2-5.8,1.1-8.5c0.9-2.7,2.4-5.2,4.4-7.4
			c2-2.2,4.5-4.1,7.4-5.5c2.9-1.4,5.9-2.3,8.9-2.5c3-0.2,5.9,0.1,8.6,1c2.7,0.9,5.2,2.4,7.4,4.3c2.2,2,4.1,4.4,5.6,7.4
			c1.5,3,2.3,5.9,2.5,8.9c0.2,3-0.2,5.8-1.1,8.5c-0.9,2.7-2.4,5.2-4.4,7.4c-2,2.2-4.5,4.1-7.4,5.5c-2.9,1.4-5.9,2.3-8.9,2.5
			c-3,0.2-5.9-0.1-8.6-1s-5.2-2.4-7.4-4.3C1192.7,420.5,1190.9,418.1,1189.4,415.1z M1193.7,413c1.1,2.3,2.6,4.1,4.3,5.6
			c1.8,1.5,3.7,2.5,5.9,3.1c2.1,0.6,4.4,0.8,6.7,0.6c2.3-0.2,4.6-0.9,6.8-2c2.2-1.1,4.1-2.5,5.7-4.2c1.6-1.7,2.8-3.6,3.6-5.7
			c0.8-2.1,1.1-4.3,1-6.6c-0.1-2.3-0.7-4.6-1.8-6.8c-1.1-2.3-2.6-4.1-4.3-5.6c-1.8-1.5-3.7-2.5-5.9-3.1c-2.1-0.6-4.4-0.8-6.7-0.6
			c-2.3,0.2-4.6,0.9-6.8,2c-2.2,1.1-4.1,2.5-5.7,4.2c-1.6,1.7-2.8,3.6-3.6,5.7c-0.8,2.1-1.1,4.3-1.1,6.6
			C1192,408.4,1192.6,410.7,1193.7,413z"/>
		<path class="st15" d="M1244.1,427.9l3.9,10.4c0.7,1.9,1.3,3.9,1.8,5.9s0.7,3.9,0.5,5.7c-0.2,1.8-0.8,3.5-1.9,5
			c-1.1,1.5-2.9,2.7-5.4,3.7c-3,1.1-5.7,1.1-8.2,0c-2.5-1.1-4.6-3.1-6.3-6.1L1214,471l-2.2-5.9l14.1-17.9l-2.3-6.2l-18.2,6.9
			l-1.8-4.8L1244.1,427.9z M1228,439.4l1.6,4.3c0.5,1.3,1.1,2.7,1.7,4.1c0.6,1.4,1.4,2.6,2.2,3.7c0.9,1,1.9,1.8,3.1,2.2
			c1.2,0.4,2.6,0.4,4.3-0.3c1.5-0.5,2.5-1.3,3.2-2.2s1.1-1.9,1.2-3c0.1-1.1,0-2.3-0.2-3.5c-0.3-1.2-0.7-2.4-1.1-3.6l-2.5-6.8
			L1228,439.4z"/>
		<path class="st15" d="M1258.1,467.1l7.4,26.2l-4.6,1.3l-6-21.3l-13.1,3.7l5.6,19.8l-4.6,1.3l-5.6-19.8l-14.8,4.2l6.3,22.3
			l-4.6,1.3l-7.7-27.3L1258.1,467.1z"/>
		<path class="st14" d="M1205.1,817.7c-2.2-1-4.1-2.2-5.8-3.6c-1.7-1.4-3-3-3.9-4.9c-0.9-1.8-1.4-3.9-1.4-6.2c0-2.3,0.6-4.8,1.8-7.5
			c1.2-2.7,2.7-4.8,4.4-6.3c1.7-1.5,3.6-2.5,5.6-3c2-0.5,4.1-0.6,6.3-0.3c2.2,0.3,4.3,1,6.5,2L1243,799l-2.1,4.7l-23.7-10.8
			c-1.6-0.7-3.2-1.3-4.9-1.6c-1.6-0.3-3.2-0.4-4.7-0.1c-1.5,0.3-2.9,0.9-4.2,1.9c-1.3,1-2.4,2.5-3.3,4.4c-0.9,2-1.3,3.8-1.2,5.4
			c0.1,1.6,0.5,3.1,1.3,4.4c0.8,1.3,1.9,2.5,3.2,3.5c1.3,1,2.8,1.9,4.4,2.6l23.7,10.8l-2.1,4.7L1205.1,817.7z"/>
		<path class="st14" d="M1205.8,856.3c1.6-0.1,3.1-0.6,4.3-1.5c1.3-0.9,2.3-2.1,3-3.4c0.6-1,1-2,1.3-3.1c0.3-1.1,0.4-2.2,0.3-3.2
			s-0.4-2-0.9-3c-0.6-0.9-1.4-1.7-2.5-2.3c-0.9-0.5-1.7-0.8-2.5-0.9c-0.8-0.1-1.6,0-2.5,0.3c-0.9,0.3-1.8,0.8-2.9,1.6
			c-1,0.8-2.2,1.8-3.5,3c-1.3,1.2-2.6,2.3-3.9,3.4c-1.3,1.1-2.7,1.9-4.1,2.5c-1.4,0.6-2.9,0.8-4.5,0.8c-1.6-0.1-3.3-0.6-5.1-1.7
			c-1.9-1.1-3.3-2.4-4.3-3.9s-1.6-3.2-1.8-4.9c-0.2-1.7-0.1-3.5,0.4-5.4c0.5-1.8,1.2-3.6,2.1-5.3c0.6-1.1,1.3-2.1,2.2-3.1
			c0.8-1,1.7-1.9,2.7-2.7c1-0.8,2-1.4,3.2-1.9c1.2-0.5,2.4-0.8,3.7-0.9l1,5.6c-1.8,0-3.5,0.6-5.1,1.6c-1.5,1.1-2.8,2.4-3.7,4
			c-0.5,1-0.9,2-1.2,3.1c-0.3,1.1-0.3,2.3-0.2,3.3c0.1,1.1,0.4,2.1,1,3.1c0.5,1,1.3,1.7,2.4,2.3c1.2,0.7,2.2,1,3.2,1
			c0.9,0,1.9-0.2,2.9-0.7c1-0.5,2.1-1.3,3.2-2.3c1.1-1,2.4-2.2,4-3.5c1.2-1.1,2.4-2.1,3.6-2.9c1.2-0.8,2.4-1.4,3.7-1.8
			c1.3-0.4,2.6-0.5,4-0.3c1.4,0.2,2.9,0.7,4.4,1.6c1.8,1,3.2,2.3,4.1,3.7c0.9,1.5,1.5,3.1,1.8,4.8c0.2,1.7,0.1,3.5-0.3,5.3
			c-0.4,1.8-1.1,3.5-2,5.2c-1.2,2.1-2.6,3.9-4.3,5.3c-1.7,1.4-3.7,2.3-6.1,2.8L1205.8,856.3z"/>
		<path class="st14" d="M1203.3,875.1l-15.3,22.6l-4-2.7l12.4-18.3l-11.3-7.6l-11.6,17.1l-4-2.7l11.6-17.1l-12.8-8.6l-13,19.2
			l-4-2.7l15.9-23.5L1203.3,875.1z"/>
		<path class="st14" d="M879.9,1084.7c1.1,1.2,2.4,1.9,4,2.3c1.5,0.3,3,0.3,4.6,0c1.1-0.2,2.2-0.6,3.2-1.1s1.9-1.1,2.6-1.9
			c0.7-0.7,1.3-1.6,1.6-2.6c0.3-1,0.4-2.2,0.1-3.4c-0.2-1-0.5-1.8-1-2.5c-0.5-0.7-1.1-1.2-1.9-1.7c-0.8-0.5-1.8-0.8-3.1-1.1
			c-1.3-0.3-2.8-0.5-4.6-0.7c-1.7-0.2-3.4-0.4-5.1-0.7c-1.7-0.3-3.2-0.8-4.5-1.4c-1.4-0.7-2.5-1.6-3.5-2.9c-1-1.2-1.7-2.9-2.1-5
			c-0.4-2.1-0.4-4,0.1-5.8s1.4-3.2,2.5-4.6c1.2-1.3,2.6-2.4,4.3-3.3c1.7-0.9,3.5-1.5,5.4-1.9c1.2-0.3,2.5-0.4,3.8-0.4
			s2.5,0.1,3.8,0.3c1.2,0.2,2.4,0.6,3.6,1.1c1.2,0.5,2.2,1.3,3.1,2.2l-3.6,4.4c-1.2-1.4-2.8-2.3-4.6-2.7c-1.8-0.5-3.6-0.5-5.5-0.1
			c-1.1,0.2-2.1,0.6-3.2,1.2c-1,0.5-1.9,1.2-2.7,2c-0.8,0.8-1.3,1.7-1.7,2.8c-0.4,1-0.4,2.2-0.2,3.3c0.3,1.3,0.7,2.3,1.3,3.1
			c0.6,0.7,1.4,1.3,2.5,1.7c1,0.4,2.3,0.7,3.8,0.9c1.5,0.2,3.3,0.4,5.3,0.7c1.6,0.2,3.1,0.4,4.5,0.8c1.4,0.4,2.7,0.9,3.8,1.6
			c1.1,0.7,2.1,1.6,2.9,2.8c0.8,1.1,1.4,2.6,1.7,4.4c0.4,2,0.4,3.9-0.1,5.6s-1.3,3.2-2.4,4.5c-1.1,1.3-2.5,2.4-4.1,3.3
			c-1.6,0.9-3.4,1.5-5.2,1.9c-2.4,0.5-4.7,0.6-6.8,0.2s-4.2-1.3-6.1-2.8L879.9,1084.7z"/>
		<path class="st14" d="M863.8,1095.4l-5.1,0.6l-2.1-18.2l-23,2.6l2.1,18.2l-5.1,0.6l-4.9-43l5.1-0.6l2.3,20.1l23-2.6l-2.3-20.1
			l5.1-0.6L863.8,1095.4z"/>
		<path class="st14" d="M800.9,1100.3l-4.8,0.1l-19-43.1l6-0.1l4.6,10.6l21.7-0.3l4.3-10.7l5.8-0.1L800.9,1100.3z M798.5,1093.8
			l0.1,0l8.7-21.4l-17.7,0.3L798.5,1093.8z"/>
		<path class="st14" d="M767.3,1100l-11-0.9c-2.1-0.2-4.1-0.4-6.2-0.9c-2-0.4-3.8-1.1-5.4-2c-1.6-0.9-2.8-2.2-3.7-3.9
			c-0.9-1.6-1.2-3.8-1-6.5c0.2-3.2,1.4-5.7,3.5-7.5c2.1-1.8,4.8-2.8,8.2-3.1l-10.7-20.8l6.3,0.5l10.2,20.3l6.6,0.5l1.5-19.4l5.1,0.4
			L767.3,1100z M763.7,1080.6l-4.6-0.4c-1.4-0.1-2.9-0.2-4.4-0.2c-1.5,0-3,0.1-4.3,0.5c-1.3,0.3-2.4,1-3.3,1.9
			c-0.9,0.9-1.4,2.2-1.6,4c-0.1,1.5,0.1,2.8,0.6,3.8c0.5,1,1.3,1.8,2.2,2.4c1,0.6,2,1,3.3,1.3c1.2,0.3,2.5,0.4,3.7,0.5l7.2,0.6
			L763.7,1080.6z"/>
		<path class="st14" d="M725.8,1096.1l-26.9-4.4l0.8-4.7l21.8,3.6l2.2-13.4l-20.4-3.3l0.8-4.7l20.4,3.3l2.5-15.2l-22.9-3.7l0.8-4.7
			l28,4.6L725.8,1096.1z"/>
		<path class="st15" d="M449.3,960.4l-3.4-3.4l17.4-43.7l4.3,4.2l-4.4,10.7l15.4,15.3l10.7-4.4l4.1,4.1L449.3,960.4z M452.3,954.1
			L452.3,954.1l21.5-8.7l-12.6-12.5L452.3,954.1z"/>
		<path class="st15" d="M426.1,936.2l-7.1-8.5c-1.3-1.6-2.6-3.3-3.7-5c-1.1-1.7-1.9-3.5-2.3-5.3c-0.4-1.8-0.4-3.6,0.2-5.3
			c0.5-1.8,1.9-3.5,3.9-5.3c2.4-2,5-3,7.8-2.7c2.7,0.2,5.4,1.4,8,3.7l7.4-22.2l4,4.8l-7.4,21.5l4.2,5.1l14.9-12.5l3.3,3.9
			L426.1,936.2z M437.4,920l-2.9-3.5c-0.9-1.1-1.9-2.2-2.9-3.3s-2.2-2-3.3-2.7c-1.2-0.7-2.4-1.1-3.7-1.1c-1.3,0-2.6,0.5-4,1.7
			c-1.2,1-1.9,2-2.3,3.1c-0.3,1.1-0.4,2.2-0.1,3.2c0.3,1.1,0.7,2.2,1.4,3.2c0.7,1.1,1.4,2.1,2.2,3l4.6,5.5L437.4,920z"/>
		<path class="st15" d="M389.6,873.7c-0.7,2.1-0.9,4.1-0.5,6.2c0.4,2.1,1.1,4,2.3,5.7c1.4,2,3,3.5,5,4.6c2,1.1,4,1.8,6.2,2.1
			c2.2,0.3,4.4,0.1,6.7-0.5c2.3-0.6,4.4-1.5,6.3-2.9c2.1-1.4,3.8-3.1,5.1-5c1.3-1.9,2.2-3.9,2.7-6c0.5-2.1,0.6-4.3,0.2-6.5
			c-0.4-2.2-1.3-4.3-2.7-6.3c-1.5-2.2-3.3-3.8-5.3-4.9c-2-1.1-4.3-1.8-6.8-1.9l0.5-5c3.3,0.1,6.2,1,8.8,2.5c2.6,1.6,4.9,3.8,6.8,6.6
			c1.8,2.5,2.9,5.3,3.5,8.1c0.6,2.9,0.6,5.7,0.1,8.5c-0.5,2.8-1.6,5.4-3.3,7.9c-1.6,2.5-3.8,4.7-6.5,6.6c-2.6,1.8-5.4,3.1-8.3,3.8
			c-2.9,0.7-5.7,0.8-8.5,0.4c-2.8-0.4-5.4-1.4-7.9-3c-2.5-1.5-4.7-3.6-6.5-6.3c-1.7-2.4-2.8-5-3.5-7.9c-0.7-2.8-0.5-5.7,0.4-8.6
			L389.6,873.7z"/>
		<path class="st15" d="M372.9,863.9l-2.5-4.5l16-8.9l-11.2-20.2l-16,8.9l-2.5-4.5l37.9-21.1l2.5,4.5l-17.6,9.8l11.2,20.2l17.6-9.8
			l2.5,4.5L372.9,863.9z"/>
		<path class="st15" d="M350.5,821.5l-2.2-4.7l39.2-18.4l2.2,4.7L350.5,821.5z"/>
		<path class="st15" d="M344.5,809.4l-2.1-5.4l28.2-25.5l0-0.1l-38.2,0.3l-2-5.1l46.5-0.2l1.8,4.6L344.5,809.4z"/>
		<path class="st15" d="M327.6,764.9l-7.9-26.1l4.6-1.4l6.4,21.1l13-3.9l-6-19.7l4.6-1.4l6,19.7l14.8-4.5l-6.7-22.2l4.6-1.4
			l8.2,27.1L327.6,764.9z"/>
	</g>
	<g>
		<path class="st16" d="M1221.6,726.4c-63.2,237.5-307,378.8-544.5,315.6c-237.5-63.2-378.8-307-315.6-544.5
			C424.7,260,668.5,118.7,906,182C1143.5,245.2,1284.8,489,1221.6,726.4z"/>
		<path class="st17" d="M352.6,728l1.3,4.7l-37,29.1l-1.6-5.8l9.1-7l-5.7-20.9l-11.4-1.5l-1.5-5.6L352.6,728z M346.9,732l0-0.1
			l-22.9-3.1l4.6,17.1L346.9,732z"/>
		<path class="st17" d="M361.1,756.8l3.8,10.4c0.7,2,1.3,3.9,1.8,6c0.5,2,0.6,3.9,0.4,5.7c-0.2,1.8-0.9,3.5-2,5
			c-1.1,1.5-2.9,2.7-5.5,3.7c-3,1.1-5.7,1.1-8.2,0c-2.5-1.1-4.6-3.2-6.3-6.2l-14.4,18.5l-2.2-5.9l14.2-17.8l-2.3-6.2l-18.2,6.8
			l-1.8-4.8L361.1,756.8z M345,768.2l1.6,4.3c0.5,1.3,1,2.7,1.7,4.1c0.6,1.4,1.3,2.6,2.2,3.7c0.9,1,1.9,1.8,3.1,2.3
			c1.2,0.5,2.6,0.4,4.3-0.3c1.5-0.5,2.5-1.3,3.2-2.2c0.7-0.9,1.1-1.9,1.2-3c0.1-1.1,0.1-2.3-0.2-3.5c-0.3-1.2-0.6-2.4-1.1-3.6
			l-2.5-6.8L345,768.2z"/>
		<path class="st17" d="M379.8,823.9c1-1.9,1.5-4,1.5-6.1c0-2.1-0.5-4.1-1.4-6c-1-2.2-2.4-4-4.2-5.4c-1.8-1.4-3.7-2.4-5.8-3
			c-2.1-0.6-4.3-0.8-6.7-0.6c-2.3,0.2-4.6,0.8-6.7,1.8c-2.3,1.1-4.2,2.5-5.9,4.1c-1.6,1.7-2.8,3.5-3.7,5.5c-0.8,2-1.2,4.1-1.2,6.3
			c0,2.2,0.6,4.4,1.6,6.7c1.1,2.4,2.6,4.3,4.5,5.7c1.8,1.4,4,2.4,6.4,3l-1.3,4.9c-3.2-0.6-5.9-1.9-8.2-3.9c-2.3-2-4.2-4.5-5.7-7.6
			c-1.3-2.8-2.1-5.7-2.2-8.6c-0.1-2.9,0.3-5.7,1.3-8.4c1-2.7,2.5-5.1,4.5-7.3c2-2.2,4.5-4,7.5-5.4c2.9-1.4,5.8-2.2,8.8-2.4
			c3-0.2,5.8,0.1,8.5,1c2.7,0.9,5.1,2.3,7.4,4.2c2.2,1.9,4,4.3,5.4,7.2c1.3,2.7,2,5.4,2.2,8.3c0.2,2.9-0.4,5.7-1.8,8.4L379.8,823.9z
			"/>
		<path class="st17" d="M394.2,832.1l2.7,4.4l-15.7,9.5l11.9,19.8l15.7-9.5l2.7,4.4l-37.1,22.4l-2.7-4.4l17.3-10.4l-11.9-19.8
			l-17.3,10.4l-2.7-4.4L394.2,832.1z"/>
		<path class="st17" d="M418.3,870.4l2.9,4.2l-35.5,24.8l-2.9-4.2L418.3,870.4z"/>
		<path class="st17" d="M424.4,879.7l3.6,4.5l-19.6,32.6l0.1,0.1l36.4-11.4l3.4,4.3l-44.5,13.7l-3.1-3.9L424.4,879.7z"/>
		<path class="st17" d="M452.4,914.1l18.7,19.8l-3.5,3.3l-15.1-16.1l-9.9,9.3l14.1,15l-3.5,3.3l-14.1-15l-11.2,10.6l15.9,16.9
			l-3.5,3.3l-19.4-20.6L452.4,914.1z"/>
		<path class="st18" d="M716.8,1067.6c-0.6-1.5-1.5-2.7-2.8-3.6c-1.3-0.9-2.7-1.5-4.2-1.7c-1.1-0.2-2.3-0.3-3.4-0.2
			c-1.1,0.1-2.2,0.3-3.2,0.7c-1,0.4-1.8,1-2.5,1.8c-0.7,0.8-1.2,1.9-1.4,3.1c-0.2,1-0.2,1.8,0,2.6c0.2,0.8,0.5,1.6,1.1,2.3
			c0.6,0.7,1.4,1.5,2.5,2.2c1.1,0.7,2.4,1.5,4,2.4c1.5,0.8,3,1.7,4.5,2.6c1.4,0.9,2.7,1.9,3.7,3c1,1.1,1.7,2.5,2.2,4
			c0.4,1.5,0.5,3.3,0.1,5.4c-0.4,2.1-1.2,3.9-2.3,5.3s-2.5,2.5-4.1,3.3c-1.6,0.8-3.3,1.2-5.2,1.4c-1.9,0.2-3.8,0.1-5.7-0.3
			c-1.2-0.2-2.5-0.6-3.7-1c-1.2-0.5-2.3-1-3.4-1.7c-1.1-0.7-2-1.5-2.9-2.4c-0.9-0.9-1.6-2-2.1-3.2l5-2.7c0.6,1.7,1.7,3.2,3.2,4.3
			c1.5,1.1,3.2,1.8,5,2.2c1.1,0.2,2.2,0.2,3.4,0.1c1.2-0.1,2.2-0.4,3.2-0.9c1-0.5,1.9-1.1,2.6-1.9c0.7-0.8,1.2-1.8,1.4-3
			c0.2-1.3,0.2-2.4-0.1-3.3c-0.3-0.9-0.8-1.7-1.7-2.5c-0.8-0.8-1.9-1.5-3.2-2.3c-1.3-0.7-2.9-1.6-4.6-2.6c-1.4-0.8-2.7-1.6-3.9-2.4
			c-1.2-0.9-2.1-1.8-2.9-2.9c-0.8-1.1-1.3-2.3-1.6-3.7s-0.3-2.9,0-4.7c0.4-2,1.1-3.8,2.2-5.1c1.1-1.4,2.4-2.4,4-3.2
			c1.6-0.8,3.2-1.3,5.1-1.5c1.8-0.2,3.7-0.1,5.6,0.2c2.4,0.4,4.5,1.2,6.4,2.3c1.8,1.1,3.4,2.7,4.6,4.9L716.8,1067.6z"/>
		<path class="st18" d="M732.4,1062.4l5.1,0.5l-1.7,18.3l23,2.2l1.7-18.3l5.1,0.5l-4.1,43.1l-5.1-0.5l1.9-20.1l-23-2.2l-1.9,20.1
			l-5.1-0.5L732.4,1062.4z"/>
		<path class="st18" d="M791.4,1066l4.8,0l18.6,43.3l-6,0l-4.4-10.6l-21.7,0.1l-4.4,10.7l-5.8,0L791.4,1066z M793.8,1072.6l-0.1,0
			l-8.9,21.3l17.7-0.1L793.8,1072.6z"/>
		<path class="st18" d="M821.4,1065.3l11-1c2.1-0.2,4.1-0.3,6.2-0.2c2.1,0,4,0.4,5.7,1.1c1.7,0.7,3.1,1.7,4.3,3.2
			c1.2,1.5,1.9,3.5,2.1,6.2c0.3,3.2-0.4,5.8-2.1,7.9c-1.7,2.1-4.2,3.6-7.6,4.5l14.1,18.7l-6.3,0.6l-13.5-18.3l-6.6,0.6l1.8,19.4
			l-5.1,0.5L821.4,1065.3z M828.3,1083.8l4.6-0.4c1.4-0.1,2.9-0.3,4.4-0.5c1.5-0.2,2.9-0.6,4.1-1.2c1.2-0.6,2.2-1.4,3-2.4
			c0.7-1,1-2.4,0.9-4.2c-0.1-1.5-0.6-2.8-1.3-3.6c-0.7-0.9-1.6-1.5-2.6-1.9c-1-0.4-2.2-0.6-3.4-0.7c-1.3,0-2.5,0-3.8,0.1l-7.2,0.7
			L828.3,1083.8z"/>
		<path class="st18" d="M859.5,1061.1l26.8-4.8l0.8,4.7l-21.7,3.9l2.4,13.4l20.3-3.7l0.8,4.7l-20.3,3.7l2.7,15.2l22.8-4.1l0.8,4.7
			l-27.9,5L859.5,1061.1z"/>
		<path class="st6" d="M1195.7,873.1c1.9,1.4,3.6,2.9,5,4.6c1.4,1.7,2.4,3.5,3,5.5c0.6,2,0.7,4.1,0.3,6.3c-0.4,2.3-1.5,4.6-3.2,7
			c-1.7,2.4-3.5,4.2-5.5,5.4c-2,1.2-4,1.8-6,1.9s-4.1-0.2-6.2-0.9c-2.1-0.7-4.1-1.8-6-3.1l-22-15.3l2.9-4.2l21.4,14.9
			c1.4,1,2.9,1.8,4.5,2.4c1.5,0.6,3.1,1,4.6,1c1.5,0,3-0.3,4.4-1.1c1.4-0.7,2.8-2,4-3.8c1.2-1.8,2-3.5,2.1-5.1
			c0.2-1.6,0-3.1-0.5-4.5c-0.5-1.4-1.4-2.8-2.5-4c-1.1-1.2-2.4-2.4-3.9-3.4l-21.4-14.9l2.9-4.2L1195.7,873.1z"/>
		<path class="st6" d="M1196.5,833.9c-1.6,0.1-3.1,0.5-4.3,1.5c-1.3,0.9-2.3,2.1-3,3.4c-0.6,1-1,2-1.3,3.1c-0.3,1.1-0.4,2.2-0.4,3.2
			c0.1,1,0.4,2,0.9,3c0.6,0.9,1.4,1.7,2.5,2.3c0.8,0.5,1.7,0.8,2.5,0.9c0.8,0.1,1.6,0,2.5-0.3s1.8-0.8,2.9-1.6c1-0.8,2.2-1.8,3.5-3
			c1.3-1.2,2.6-2.3,3.9-3.4c1.3-1.1,2.7-1.9,4.1-2.5c1.4-0.6,2.9-0.8,4.5-0.7c1.6,0.1,3.3,0.6,5.1,1.7c1.9,1.1,3.3,2.4,4.2,3.9
			c1,1.5,1.5,3.2,1.7,4.9c0.2,1.7,0.1,3.5-0.4,5.4c-0.5,1.8-1.2,3.6-2.2,5.3c-0.6,1.1-1.4,2.1-2.2,3.1c-0.8,1-1.7,1.9-2.7,2.6
			c-1,0.8-2.1,1.4-3.2,1.9c-1.2,0.5-2.4,0.8-3.7,0.9l-0.9-5.6c1.8,0,3.5-0.6,5.1-1.6c1.5-1,2.8-2.4,3.7-4c0.5-1,1-2,1.2-3.1
			c0.3-1.1,0.4-2.2,0.3-3.3c-0.1-1.1-0.4-2.1-1-3.1c-0.5-1-1.3-1.7-2.4-2.4c-1.2-0.7-2.2-1-3.2-1c-0.9,0-1.9,0.2-2.9,0.7
			c-1,0.5-2.1,1.3-3.2,2.3c-1.1,1-2.5,2.2-4,3.5c-1.2,1.1-2.4,2.1-3.6,2.9c-1.2,0.8-2.4,1.4-3.7,1.8c-1.3,0.4-2.6,0.5-4,0.3
			c-1.4-0.2-2.9-0.7-4.4-1.6c-1.8-1-3.2-2.3-4.1-3.8c-0.9-1.5-1.5-3.1-1.7-4.8c-0.2-1.7-0.1-3.5,0.3-5.3c0.4-1.8,1.1-3.5,2-5.2
			c1.2-2.1,2.7-3.9,4.3-5.3c1.7-1.4,3.7-2.3,6.1-2.7L1196.5,833.9z"/>
		<path class="st6" d="M1196.7,817.3l11.6-24.6l4.3,2l-9.4,20l12.3,5.8l8.8-18.7l4.3,2l-8.8,18.7l14,6.6l9.9-21l4.3,2l-12.1,25.6
			L1196.7,817.3z"/>
	</g>
	<g>
		<path class="st16" d="M1221.6,726.4c-63.2,237.5-307,378.8-544.5,315.6c-237.5-63.2-378.8-307-315.6-544.5
			C424.7,260,668.5,118.7,906,182C1143.5,245.2,1284.8,489,1221.6,726.4z"/>
		<path class="st17" d="M315.1,502.5l4.5-16c0.4-1.4,1-2.8,1.7-4.2c0.7-1.4,1.7-2.8,2.8-4.1c1.1-1.3,2.4-2.5,3.9-3.6
			c1.5-1.1,3.2-1.9,5-2.6c1.9-0.6,3.9-1,6.1-1c2.2-0.1,4.6,0.3,7.1,1c2.6,0.7,4.7,1.7,6.6,2.9c1.8,1.2,3.4,2.6,4.6,4.1
			c1.3,1.5,2.2,3.1,2.9,4.8c0.7,1.7,1.2,3.4,1.4,5.1c0.3,1.7,0.3,3.4,0.2,5c-0.1,1.6-0.4,3.1-0.8,4.5l-4.5,16L315.1,502.5z
			 M353.6,508.1l2.7-9.4c0.7-2.4,1-4.7,0.9-6.9c0-2.2-0.5-4.3-1.4-6.1c-0.9-1.9-2.2-3.5-4-5c-1.8-1.4-4.1-2.6-7-3.4
			c-2.9-0.8-5.4-1.1-7.7-0.8c-2.3,0.3-4.3,1-6,2.1c-1.7,1.1-3.2,2.6-4.4,4.5c-1.2,1.9-2.2,4-2.8,6.4l-2.7,9.4L353.6,508.1z"/>
		<path class="st17" d="M329.2,454.4l9.4-25.5l4.5,1.7l-7.6,20.7l12.7,4.7l7.1-19.3l4.5,1.7l-7.1,19.3l14.5,5.3l8-21.8l4.5,1.7
			l-9.8,26.6L329.2,454.4z"/>
		<path class="st17" d="M359.4,401.3c-1.6,0.2-3,0.8-4.2,1.8c-1.2,1-2.1,2.2-2.7,3.7c-0.5,1-0.8,2.1-1,3.2s-0.2,2.2-0.1,3.2
			c0.1,1,0.5,2,1.2,2.9c0.6,0.9,1.5,1.6,2.7,2.1c0.9,0.4,1.7,0.6,2.6,0.7c0.8,0,1.6-0.1,2.5-0.5c0.8-0.4,1.8-1,2.7-1.8
			s2.1-1.9,3.3-3.3c1.2-1.3,2.4-2.5,3.6-3.7s2.5-2.1,3.9-2.8c1.4-0.7,2.8-1.1,4.4-1.1c1.6-0.1,3.3,0.4,5.3,1.3
			c2,0.9,3.5,2.1,4.6,3.5c1.1,1.4,1.8,3,2.2,4.7c0.4,1.7,0.4,3.5,0.1,5.4c-0.3,1.9-0.9,3.7-1.7,5.5c-0.5,1.1-1.2,2.2-1.9,3.3
			c-0.7,1.1-1.6,2-2.5,2.9c-0.9,0.9-1.9,1.6-3,2.2c-1.1,0.6-2.3,1-3.6,1.2l-1.4-5.5c1.8-0.2,3.5-0.9,4.9-2c1.4-1.2,2.6-2.6,3.3-4.3
			c0.5-1,0.8-2.1,1-3.2c0.2-1.2,0.2-2.3,0-3.4c-0.2-1.1-0.6-2.1-1.2-3c-0.6-0.9-1.5-1.6-2.6-2.1c-1.2-0.6-2.3-0.8-3.3-0.8
			c-0.9,0.1-1.9,0.4-2.8,1c-1,0.6-1.9,1.4-3,2.5c-1,1.1-2.3,2.4-3.7,3.8c-1.1,1.2-2.2,2.3-3.3,3.2c-1.1,0.9-2.3,1.6-3.5,2.1
			c-1.2,0.5-2.6,0.7-4,0.7c-1.4,0-2.9-0.4-4.5-1.2c-1.9-0.9-3.4-2-4.4-3.4c-1.1-1.4-1.8-2.9-2.1-4.6c-0.4-1.7-0.4-3.5-0.2-5.3
			c0.3-1.8,0.8-3.6,1.6-5.3c1-2.2,2.3-4.1,3.8-5.6c1.5-1.5,3.5-2.6,5.9-3.3L359.4,401.3z"/>
		<path class="st17" d="M378.8,359.3l-7,12.5l33.6,18.9l-2.5,4.5l-33.6-18.9l-7,12.5l-4.2-2.3l16.6-29.4L378.8,359.3z"/>
		<path class="st17" d="M380.2,348.3l6.2-9.2c1.2-1.7,2.4-3.4,3.8-4.9c1.4-1.6,2.8-2.8,4.4-3.7c1.6-0.9,3.3-1.3,5.2-1.3
			c1.9,0,3.9,0.8,6.1,2.3c2.6,1.8,4.2,4,4.8,6.7c0.5,2.7,0.1,5.6-1.4,8.7l23.4,1.1l-3.5,5.2l-22.7-1.2l-3.7,5.5l16.1,10.9l-2.9,4.2
			L380.2,348.3z M398.9,354.8l2.6-3.8c0.8-1.2,1.6-2.4,2.4-3.7c0.8-1.3,1.4-2.6,1.7-3.9c0.4-1.3,0.4-2.6,0-3.8
			c-0.3-1.2-1.2-2.4-2.7-3.4c-1.3-0.9-2.5-1.3-3.6-1.3c-1.1,0-2.2,0.2-3.2,0.8c-1,0.5-1.9,1.3-2.7,2.2c-0.8,0.9-1.6,1.9-2.3,3
			l-4.1,6L398.9,354.8z"/>
		<path class="st17" d="M451.3,326.7c-2.1,2.5-4.5,4.5-7.2,5.9c-2.6,1.4-5.4,2.2-8.2,2.4c-2.8,0.2-5.7-0.1-8.6-1
			c-2.9-0.9-5.5-2.5-8-4.6c-2.5-2.1-4.5-4.5-5.9-7.1c-1.4-2.7-2.3-5.4-2.5-8.3c-0.2-2.8,0.1-5.7,1-8.5c0.9-2.8,2.4-5.5,4.5-8.1
			c2.1-2.5,4.5-4.5,7.2-5.9c2.6-1.4,5.4-2.2,8.2-2.4c2.8-0.2,5.7,0.1,8.6,1c2.9,0.9,5.5,2.5,8,4.6c2.5,2.1,4.5,4.5,5.9,7.1
			c1.4,2.7,2.3,5.4,2.5,8.3c0.2,2.8-0.1,5.7-1,8.5S453.5,324.2,451.3,326.7z M447.7,323.7c1.6-1.9,2.8-4,3.4-6.2
			c0.6-2.2,0.8-4.4,0.5-6.6c-0.3-2.2-1-4.3-2.1-6.4c-1.1-2-2.7-3.9-4.6-5.5c-1.9-1.6-4-2.8-6.2-3.5c-2.2-0.8-4.4-1.1-6.6-1
			c-2.2,0.1-4.4,0.7-6.4,1.7c-2.1,1-3.9,2.5-5.5,4.4c-1.6,1.9-2.8,4-3.4,6.2c-0.6,2.2-0.8,4.4-0.5,6.6c0.3,2.2,1,4.3,2.1,6.4
			c1.1,2,2.7,3.9,4.6,5.5c1.9,1.6,4,2.8,6.2,3.5c2.2,0.8,4.4,1.1,6.6,1c2.2-0.1,4.4-0.7,6.4-1.7
			C444.2,327.1,446.1,325.6,447.7,323.7z"/>
		<path class="st17" d="M465.7,282.1l-28.8-6.4l4.7-4.6l22.4,5.5l-4.7-22.8l4.4-4.3l5.7,28.9l13,13.4l-3.7,3.6L465.7,282.1z"/>
		<path class="st18" d="M712.8,138.8c-1.6-1.5-3.5-2.4-5.5-2.9c-2.1-0.5-4.1-0.5-6.1-0.1c-2.4,0.5-4.4,1.4-6.2,2.7
			c-1.8,1.4-3.2,3-4.4,4.9c-1.1,1.9-1.9,4-2.2,6.3c-0.4,2.3-0.3,4.6,0.1,6.9c0.5,2.5,1.3,4.7,2.6,6.7c1.2,2,2.7,3.6,4.4,4.9
			c1.7,1.3,3.7,2.2,5.8,2.7c2.2,0.5,4.4,0.6,6.8,0.1c2.6-0.5,4.8-1.5,6.7-2.9c1.8-1.4,3.3-3.2,4.5-5.5l4.4,2.4
			c-1.4,2.9-3.4,5.3-5.8,7c-2.5,1.7-5.4,2.9-8.8,3.6c-3,0.6-6,0.6-8.9,0c-2.9-0.6-5.5-1.7-7.8-3.3c-2.3-1.6-4.3-3.6-6-6.2
			c-1.6-2.5-2.8-5.4-3.4-8.6c-0.6-3.1-0.7-6.1-0.1-9.1c0.5-2.9,1.5-5.6,3.1-8c1.5-2.4,3.5-4.4,5.9-6.1c2.4-1.7,5.2-2.8,8.4-3.5
			c2.9-0.6,5.8-0.6,8.6-0.1c2.9,0.5,5.4,1.8,7.7,3.8L712.8,138.8z"/>
		<path class="st18" d="M728.2,127.5l11-1.1c2.1-0.2,4.1-0.3,6.2-0.3c2.1,0,4,0.4,5.7,1c1.7,0.6,3.1,1.7,4.3,3.2
			c1.2,1.5,1.9,3.5,2.2,6.2c0.3,3.2-0.4,5.8-2.1,8c-1.7,2.1-4.2,3.7-7.5,4.5l14.3,18.6l-6.3,0.6L742.3,150l-6.6,0.7l2,19.4l-5.1,0.5
			L728.2,127.5z M735.2,146l4.6-0.5c1.4-0.1,2.9-0.3,4.4-0.6c1.5-0.2,2.9-0.6,4.1-1.2c1.2-0.6,2.2-1.4,2.9-2.4c0.7-1,1-2.5,0.8-4.2
			c-0.2-1.5-0.6-2.7-1.3-3.6c-0.7-0.9-1.6-1.5-2.6-1.9c-1-0.4-2.2-0.6-3.5-0.7c-1.3,0-2.5,0-3.8,0.1l-7.2,0.7L735.2,146z"/>
		<path class="st18" d="M769.7,123.9l27.2-0.5l0.1,4.8l-22.1,0.4l0.2,13.6l20.6-0.4l0.1,4.8l-20.6,0.4l0.3,15.4l23.2-0.4l0.1,4.8
			l-28.3,0.5L769.7,123.9z"/>
		<path class="st18" d="M824.6,124.7l4.8,0.4l15.2,44.6l-6-0.4l-3.6-10.9l-21.6-1.6l-5.2,10.3l-5.8-0.4L824.6,124.7z M826.4,131.5
			l-0.1,0L815.8,152l17.6,1.3L826.4,131.5z"/>
		<path class="st18" d="M885.8,137.4l-14.1-2.3l-6.2,38l-5.1-0.8l6.2-38l-14.1-2.3l0.8-4.7l33.3,5.5L885.8,137.4z"/>
		<path class="st18" d="M896.6,134.9l26.4,6.6l-1.1,4.6l-21.4-5.3l-3.3,13.2l20,5l-1.1,4.6l-20-5l-3.7,15l22.5,5.6l-1.1,4.6
			l-27.5-6.8L896.6,134.9z"/>
		<path class="st19" d="M1183.4,333.4c0.6-1.5,0.7-3,0.4-4.6c-0.3-1.5-1-2.9-1.9-4.2c-0.7-0.9-1.5-1.7-2.3-2.5
			c-0.9-0.7-1.8-1.3-2.8-1.6c-1-0.4-2-0.5-3.1-0.4c-1.1,0.1-2.1,0.6-3.1,1.3c-0.8,0.6-1.4,1.2-1.8,1.9c-0.4,0.7-0.7,1.5-0.8,2.4
			c-0.1,0.9,0,2,0.3,3.3c0.3,1.3,0.7,2.7,1.3,4.4c0.6,1.7,1.1,3.3,1.5,4.9c0.4,1.6,0.6,3.2,0.6,4.7c0,1.5-0.4,3-1.1,4.4
			c-0.7,1.4-1.9,2.7-3.6,4c-1.7,1.3-3.5,2.1-5.3,2.3c-1.8,0.3-3.5,0.1-5.2-0.4c-1.7-0.5-3.3-1.4-4.8-2.5c-1.5-1.2-2.8-2.5-4-4.1
			c-0.8-1-1.4-2.1-2-3.3c-0.6-1.2-1-2.3-1.3-3.5c-0.3-1.2-0.5-2.5-0.5-3.7c0-1.3,0.2-2.5,0.7-3.8l5.5,1.4c-0.7,1.7-0.9,3.5-0.6,5.3
			c0.3,1.8,1.1,3.5,2.2,5c0.7,0.9,1.4,1.7,2.4,2.4c0.9,0.7,1.9,1.2,3,1.6c1,0.3,2.1,0.5,3.2,0.4c1.1-0.1,2.1-0.5,3.1-1.2
			c1.1-0.8,1.8-1.6,2.2-2.5c0.4-0.9,0.6-1.8,0.5-3c-0.1-1.1-0.3-2.4-0.8-3.8c-0.5-1.4-1-3.1-1.6-5.1c-0.5-1.5-0.9-3-1.2-4.4
			c-0.3-1.4-0.3-2.8-0.1-4.1c0.2-1.3,0.6-2.6,1.3-3.8c0.7-1.2,1.8-2.3,3.2-3.4c1.7-1.2,3.4-2,5.1-2.3c1.7-0.3,3.4-0.1,5.1,0.3
			c1.7,0.5,3.2,1.3,4.7,2.4c1.5,1.1,2.8,2.4,3.9,4c1.5,2,2.5,4,3.1,6.1c0.6,2.1,0.6,4.3,0,6.7L1183.4,333.4z"/>
		<path class="st19" d="M1210.8,370.5l-7.6-12.2l-32.7,20.4l-2.7-4.4l32.7-20.4l-7.6-12.2l4.1-2.5l17.9,28.7L1210.8,370.5z"/>
		<path class="st19" d="M1189.4,415.1c-1.5-3-2.3-5.9-2.5-8.9c-0.2-3,0.2-5.8,1.1-8.5c0.9-2.7,2.4-5.2,4.4-7.4
			c2-2.2,4.5-4.1,7.4-5.5c2.9-1.4,5.9-2.3,8.9-2.5c3-0.2,5.9,0.1,8.6,1c2.7,0.9,5.2,2.4,7.4,4.3c2.2,2,4.1,4.4,5.6,7.4
			c1.5,3,2.3,5.9,2.5,8.9c0.2,3-0.2,5.8-1.1,8.5c-0.9,2.7-2.4,5.2-4.4,7.4c-2,2.2-4.5,4.1-7.4,5.5c-2.9,1.4-5.9,2.3-8.9,2.5
			c-3,0.2-5.9-0.1-8.6-1s-5.2-2.4-7.4-4.3C1192.7,420.5,1190.9,418.1,1189.4,415.1z M1193.7,413c1.1,2.3,2.6,4.1,4.3,5.6
			c1.8,1.5,3.7,2.5,5.9,3.1c2.1,0.6,4.4,0.8,6.7,0.6c2.3-0.2,4.6-0.9,6.8-2c2.2-1.1,4.1-2.5,5.7-4.2c1.6-1.7,2.8-3.6,3.6-5.7
			c0.8-2.1,1.1-4.3,1-6.6c-0.1-2.3-0.7-4.6-1.8-6.8c-1.1-2.3-2.6-4.1-4.3-5.6c-1.8-1.5-3.7-2.5-5.9-3.1c-2.1-0.6-4.4-0.8-6.7-0.6
			c-2.3,0.2-4.6,0.9-6.8,2c-2.2,1.1-4.1,2.5-5.7,4.2c-1.6,1.7-2.8,3.6-3.6,5.7c-0.8,2.1-1.1,4.3-1.1,6.6
			C1192,408.4,1192.6,410.7,1193.7,413z"/>
		<path class="st19" d="M1244.1,427.9l3.9,10.4c0.7,1.9,1.3,3.9,1.8,5.9s0.7,3.9,0.5,5.7c-0.2,1.8-0.8,3.5-1.9,5
			c-1.1,1.5-2.9,2.7-5.4,3.7c-3,1.1-5.7,1.1-8.2,0c-2.5-1.1-4.6-3.1-6.3-6.1L1214,471l-2.2-5.9l14.1-17.9l-2.3-6.2l-18.2,6.9
			l-1.8-4.8L1244.1,427.9z M1228,439.4l1.6,4.3c0.5,1.3,1.1,2.7,1.7,4.1c0.6,1.4,1.4,2.6,2.2,3.7c0.9,1,1.9,1.8,3.1,2.2
			c1.2,0.4,2.6,0.4,4.3-0.3c1.5-0.5,2.5-1.3,3.2-2.2s1.1-1.9,1.2-3c0.1-1.1,0-2.3-0.2-3.5c-0.3-1.2-0.7-2.4-1.1-3.6l-2.5-6.8
			L1228,439.4z"/>
		<path class="st19" d="M1258.1,467.1l7.4,26.2l-4.6,1.3l-6-21.3l-13.1,3.7l5.6,19.8l-4.6,1.3l-5.6-19.8l-14.8,4.2l6.3,22.3
			l-4.6,1.3l-7.7-27.3L1258.1,467.1z"/>
	</g>
	<g class="st12">
		<path class="st13" d="M1221.6,726.4c-63.2,237.5-307,378.8-544.5,315.6c-237.5-63.2-378.8-307-315.6-544.5
			C424.7,260,668.5,118.7,906,182C1143.5,245.2,1284.8,489,1221.6,726.4z"/>
		<path class="st14" d="M315.1,502.5l4.5-16c0.4-1.4,1-2.8,1.7-4.2c0.7-1.4,1.7-2.8,2.8-4.1c1.1-1.3,2.4-2.5,3.9-3.6
			c1.5-1.1,3.2-1.9,5-2.6c1.9-0.6,3.9-1,6.1-1c2.2-0.1,4.6,0.3,7.1,1c2.6,0.7,4.7,1.7,6.6,2.9c1.8,1.2,3.4,2.6,4.6,4.1
			c1.3,1.5,2.2,3.1,2.9,4.8c0.7,1.7,1.2,3.4,1.4,5.1c0.3,1.7,0.3,3.4,0.2,5c-0.1,1.6-0.4,3.1-0.8,4.5l-4.5,16L315.1,502.5z
			 M353.6,508.1l2.7-9.4c0.7-2.4,1-4.7,0.9-6.9c0-2.2-0.5-4.3-1.4-6.1c-0.9-1.9-2.2-3.5-4-5c-1.8-1.4-4.1-2.6-7-3.4
			c-2.9-0.8-5.4-1.1-7.7-0.8c-2.3,0.3-4.3,1-6,2.1c-1.7,1.1-3.2,2.6-4.4,4.5c-1.2,1.9-2.2,4-2.8,6.4l-2.7,9.4L353.6,508.1z"/>
		<path class="st14" d="M329.2,454.4l9.4-25.5l4.5,1.7l-7.6,20.7l12.7,4.7l7.1-19.3l4.5,1.7l-7.1,19.3l14.5,5.3l8-21.8l4.5,1.7
			l-9.8,26.6L329.2,454.4z"/>
		<path class="st14" d="M359.4,401.3c-1.6,0.2-3,0.8-4.2,1.8c-1.2,1-2.1,2.2-2.7,3.7c-0.5,1-0.8,2.1-1,3.2s-0.2,2.2-0.1,3.2
			c0.1,1,0.5,2,1.2,2.9c0.6,0.9,1.5,1.6,2.7,2.1c0.9,0.4,1.7,0.6,2.6,0.7c0.8,0,1.6-0.1,2.5-0.5c0.8-0.4,1.8-1,2.7-1.8
			s2.1-1.9,3.3-3.3c1.2-1.3,2.4-2.5,3.6-3.7s2.5-2.1,3.9-2.8c1.4-0.7,2.8-1.1,4.4-1.1c1.6-0.1,3.3,0.4,5.3,1.3
			c2,0.9,3.5,2.1,4.6,3.5c1.1,1.4,1.8,3,2.2,4.7c0.4,1.7,0.4,3.5,0.1,5.4c-0.3,1.9-0.9,3.7-1.7,5.5c-0.5,1.1-1.2,2.2-1.9,3.3
			c-0.7,1.1-1.6,2-2.5,2.9c-0.9,0.9-1.9,1.6-3,2.2c-1.1,0.6-2.3,1-3.6,1.2l-1.4-5.5c1.8-0.2,3.5-0.9,4.9-2c1.4-1.2,2.6-2.6,3.3-4.3
			c0.5-1,0.8-2.1,1-3.2c0.2-1.2,0.2-2.3,0-3.4c-0.2-1.1-0.6-2.1-1.2-3c-0.6-0.9-1.5-1.6-2.6-2.1c-1.2-0.6-2.3-0.8-3.3-0.8
			c-0.9,0.1-1.9,0.4-2.8,1c-1,0.6-1.9,1.4-3,2.5c-1,1.1-2.3,2.4-3.7,3.8c-1.1,1.2-2.2,2.3-3.3,3.2c-1.1,0.9-2.3,1.6-3.5,2.1
			c-1.2,0.5-2.6,0.7-4,0.7c-1.4,0-2.9-0.4-4.5-1.2c-1.9-0.9-3.4-2-4.4-3.4c-1.1-1.4-1.8-2.9-2.1-4.6c-0.4-1.7-0.4-3.5-0.2-5.3
			c0.3-1.8,0.8-3.6,1.6-5.3c1-2.2,2.3-4.1,3.8-5.6c1.5-1.5,3.5-2.6,5.9-3.3L359.4,401.3z"/>
		<path class="st14" d="M378.8,359.3l-7,12.5l33.6,18.9l-2.5,4.5l-33.6-18.9l-7,12.5l-4.2-2.3l16.6-29.4L378.8,359.3z"/>
		<path class="st14" d="M380.2,348.3l6.2-9.2c1.2-1.7,2.4-3.4,3.8-4.9c1.4-1.6,2.8-2.8,4.4-3.7c1.6-0.9,3.3-1.3,5.2-1.3
			c1.9,0,3.9,0.8,6.1,2.3c2.6,1.8,4.2,4,4.8,6.7c0.5,2.7,0.1,5.6-1.4,8.7l23.4,1.1l-3.5,5.2l-22.7-1.2l-3.7,5.5l16.1,10.9l-2.9,4.2
			L380.2,348.3z M398.9,354.8l2.6-3.8c0.8-1.2,1.6-2.4,2.4-3.7c0.8-1.3,1.4-2.6,1.7-3.9c0.4-1.3,0.4-2.6,0-3.8
			c-0.3-1.2-1.2-2.4-2.7-3.4c-1.3-0.9-2.5-1.3-3.6-1.3c-1.1,0-2.2,0.2-3.2,0.8c-1,0.5-1.9,1.3-2.7,2.2c-0.8,0.9-1.6,1.9-2.3,3
			l-4.1,6L398.9,354.8z"/>
		<path class="st14" d="M451.3,326.7c-2.1,2.5-4.5,4.5-7.2,5.9c-2.6,1.4-5.4,2.2-8.2,2.4c-2.8,0.2-5.7-0.1-8.6-1
			c-2.9-0.9-5.5-2.5-8-4.6c-2.5-2.1-4.5-4.5-5.9-7.1c-1.4-2.7-2.3-5.4-2.5-8.3c-0.2-2.8,0.1-5.7,1-8.5c0.9-2.8,2.4-5.5,4.5-8.1
			c2.1-2.5,4.5-4.5,7.2-5.9c2.6-1.4,5.4-2.2,8.2-2.4c2.8-0.2,5.7,0.1,8.6,1c2.9,0.9,5.5,2.5,8,4.6c2.5,2.1,4.5,4.5,5.9,7.1
			c1.4,2.7,2.3,5.4,2.5,8.3c0.2,2.8-0.1,5.7-1,8.5S453.5,324.2,451.3,326.7z M447.7,323.7c1.6-1.9,2.8-4,3.4-6.2
			c0.6-2.2,0.8-4.4,0.5-6.6c-0.3-2.2-1-4.3-2.1-6.4c-1.1-2-2.7-3.9-4.6-5.5c-1.9-1.6-4-2.8-6.2-3.5c-2.2-0.8-4.4-1.1-6.6-1
			c-2.2,0.1-4.4,0.7-6.4,1.7c-2.1,1-3.9,2.5-5.5,4.4c-1.6,1.9-2.8,4-3.4,6.2c-0.6,2.2-0.8,4.4-0.5,6.6c0.3,2.2,1,4.3,2.1,6.4
			c1.1,2,2.7,3.9,4.6,5.5c1.9,1.6,4,2.8,6.2,3.5c2.2,0.8,4.4,1.1,6.6,1c2.2-0.1,4.4-0.7,6.4-1.7
			C444.2,327.1,446.1,325.6,447.7,323.7z"/>
		<path class="st14" d="M465.7,282.1l-28.8-6.4l4.7-4.6l22.4,5.5l-4.7-22.8l4.4-4.3l5.7,28.9l13,13.4l-3.7,3.6L465.7,282.1z"/>
		<path class="st15" d="M712.8,138.8c-1.6-1.5-3.5-2.4-5.5-2.9c-2.1-0.5-4.1-0.5-6.1-0.1c-2.4,0.5-4.4,1.4-6.2,2.7
			c-1.8,1.4-3.2,3-4.4,4.9c-1.1,1.9-1.9,4-2.2,6.3c-0.4,2.3-0.3,4.6,0.1,6.9c0.5,2.5,1.3,4.7,2.6,6.7c1.2,2,2.7,3.6,4.4,4.9
			c1.7,1.3,3.7,2.2,5.8,2.7c2.2,0.5,4.4,0.6,6.8,0.1c2.6-0.5,4.8-1.5,6.7-2.9c1.8-1.4,3.3-3.2,4.5-5.5l4.4,2.4
			c-1.4,2.9-3.4,5.3-5.8,7c-2.5,1.7-5.4,2.9-8.8,3.6c-3,0.6-6,0.6-8.9,0c-2.9-0.6-5.5-1.7-7.8-3.3c-2.3-1.6-4.3-3.6-6-6.2
			c-1.6-2.5-2.8-5.4-3.4-8.6c-0.6-3.1-0.7-6.1-0.1-9.1c0.5-2.9,1.5-5.6,3.1-8c1.5-2.4,3.5-4.4,5.9-6.1c2.4-1.7,5.2-2.8,8.4-3.5
			c2.9-0.6,5.8-0.6,8.6-0.1c2.9,0.5,5.4,1.8,7.7,3.8L712.8,138.8z"/>
		<path class="st15" d="M728.2,127.5l11-1.1c2.1-0.2,4.1-0.3,6.2-0.3c2.1,0,4,0.4,5.7,1c1.7,0.6,3.1,1.7,4.3,3.2
			c1.2,1.5,1.9,3.5,2.2,6.2c0.3,3.2-0.4,5.8-2.1,8c-1.7,2.1-4.2,3.7-7.5,4.5l14.3,18.6l-6.3,0.6L742.3,150l-6.6,0.7l2,19.4l-5.1,0.5
			L728.2,127.5z M735.2,146l4.6-0.5c1.4-0.1,2.9-0.3,4.4-0.6c1.5-0.2,2.9-0.6,4.1-1.2c1.2-0.6,2.2-1.4,2.9-2.4c0.7-1,1-2.5,0.8-4.2
			c-0.2-1.5-0.6-2.7-1.3-3.6c-0.7-0.9-1.6-1.5-2.6-1.9c-1-0.4-2.2-0.6-3.5-0.7c-1.3,0-2.5,0-3.8,0.1l-7.2,0.7L735.2,146z"/>
		<path class="st15" d="M769.7,123.9l27.2-0.5l0.1,4.8l-22.1,0.4l0.2,13.6l20.6-0.4l0.1,4.8l-20.6,0.4l0.3,15.4l23.2-0.4l0.1,4.8
			l-28.3,0.5L769.7,123.9z"/>
		<path class="st15" d="M824.6,124.7l4.8,0.4l15.2,44.6l-6-0.4l-3.6-10.9l-21.6-1.6l-5.2,10.3l-5.8-0.4L824.6,124.7z M826.4,131.5
			l-0.1,0L815.8,152l17.6,1.3L826.4,131.5z"/>
		<path class="st15" d="M885.8,137.4l-14.1-2.3l-6.2,38l-5.1-0.8l6.2-38l-14.1-2.3l0.8-4.7l33.3,5.5L885.8,137.4z"/>
		<path class="st15" d="M896.6,134.9l26.4,6.6l-1.1,4.6l-21.4-5.3l-3.3,13.2l20,5l-1.1,4.6l-20-5l-3.7,15l22.5,5.6l-1.1,4.6
			l-27.5-6.8L896.6,134.9z"/>
		<path class="st15" d="M1183.4,333.4c0.6-1.5,0.7-3,0.4-4.6c-0.3-1.5-1-2.9-1.9-4.2c-0.7-0.9-1.5-1.7-2.3-2.5
			c-0.9-0.7-1.8-1.3-2.8-1.6c-1-0.4-2-0.5-3.1-0.4c-1.1,0.1-2.1,0.6-3.1,1.3c-0.8,0.6-1.4,1.2-1.8,1.9c-0.4,0.7-0.7,1.5-0.8,2.4
			c-0.1,0.9,0,2,0.3,3.3c0.3,1.3,0.7,2.7,1.3,4.4c0.6,1.7,1.1,3.3,1.5,4.9c0.4,1.6,0.6,3.2,0.6,4.7c0,1.5-0.4,3-1.1,4.4
			c-0.7,1.4-1.9,2.7-3.6,4c-1.7,1.3-3.5,2.1-5.3,2.3c-1.8,0.3-3.5,0.1-5.2-0.4c-1.7-0.5-3.3-1.4-4.8-2.5c-1.5-1.2-2.8-2.5-4-4.1
			c-0.8-1-1.4-2.1-2-3.3c-0.6-1.2-1-2.3-1.3-3.5c-0.3-1.2-0.5-2.5-0.5-3.7c0-1.3,0.2-2.5,0.7-3.8l5.5,1.4c-0.7,1.7-0.9,3.5-0.6,5.3
			c0.3,1.8,1.1,3.5,2.2,5c0.7,0.9,1.4,1.7,2.4,2.4c0.9,0.7,1.9,1.2,3,1.6c1,0.3,2.1,0.5,3.2,0.4c1.1-0.1,2.1-0.5,3.1-1.2
			c1.1-0.8,1.8-1.6,2.2-2.5c0.4-0.9,0.6-1.8,0.5-3c-0.1-1.1-0.3-2.4-0.8-3.8c-0.5-1.4-1-3.1-1.6-5.1c-0.5-1.5-0.9-3-1.2-4.4
			c-0.3-1.4-0.3-2.8-0.1-4.1c0.2-1.3,0.6-2.6,1.3-3.8c0.7-1.2,1.8-2.3,3.2-3.4c1.7-1.2,3.4-2,5.1-2.3c1.7-0.3,3.4-0.1,5.1,0.3
			c1.7,0.5,3.2,1.3,4.7,2.4c1.5,1.1,2.8,2.4,3.9,4c1.5,2,2.5,4,3.1,6.1c0.6,2.1,0.6,4.3,0,6.7L1183.4,333.4z"/>
		<path class="st15" d="M1210.8,370.5l-7.6-12.2l-32.7,20.4l-2.7-4.4l32.7-20.4l-7.6-12.2l4.1-2.5l17.9,28.7L1210.8,370.5z"/>
		<path class="st15" d="M1189.4,415.1c-1.5-3-2.3-5.9-2.5-8.9c-0.2-3,0.2-5.8,1.1-8.5c0.9-2.7,2.4-5.2,4.4-7.4
			c2-2.2,4.5-4.1,7.4-5.5c2.9-1.4,5.9-2.3,8.9-2.5c3-0.2,5.9,0.1,8.6,1c2.7,0.9,5.2,2.4,7.4,4.3c2.2,2,4.1,4.4,5.6,7.4
			c1.5,3,2.3,5.9,2.5,8.9c0.2,3-0.2,5.8-1.1,8.5c-0.9,2.7-2.4,5.2-4.4,7.4c-2,2.2-4.5,4.1-7.4,5.5c-2.9,1.4-5.9,2.3-8.9,2.5
			c-3,0.2-5.9-0.1-8.6-1s-5.2-2.4-7.4-4.3C1192.7,420.5,1190.9,418.1,1189.4,415.1z M1193.7,413c1.1,2.3,2.6,4.1,4.3,5.6
			c1.8,1.5,3.7,2.5,5.9,3.1c2.1,0.6,4.4,0.8,6.7,0.6c2.3-0.2,4.6-0.9,6.8-2c2.2-1.1,4.1-2.5,5.7-4.2c1.6-1.7,2.8-3.6,3.6-5.7
			c0.8-2.1,1.1-4.3,1-6.6c-0.1-2.3-0.7-4.6-1.8-6.8c-1.1-2.3-2.6-4.1-4.3-5.6c-1.8-1.5-3.7-2.5-5.9-3.1c-2.1-0.6-4.4-0.8-6.7-0.6
			c-2.3,0.2-4.6,0.9-6.8,2c-2.2,1.1-4.1,2.5-5.7,4.2c-1.6,1.7-2.8,3.6-3.6,5.7c-0.8,2.1-1.1,4.3-1.1,6.6
			C1192,408.4,1192.6,410.7,1193.7,413z"/>
		<path class="st15" d="M1244.1,427.9l3.9,10.4c0.7,1.9,1.3,3.9,1.8,5.9s0.7,3.9,0.5,5.7c-0.2,1.8-0.8,3.5-1.9,5
			c-1.1,1.5-2.9,2.7-5.4,3.7c-3,1.1-5.7,1.1-8.2,0c-2.5-1.1-4.6-3.1-6.3-6.1L1214,471l-2.2-5.9l14.1-17.9l-2.3-6.2l-18.2,6.9
			l-1.8-4.8L1244.1,427.9z M1228,439.4l1.6,4.3c0.5,1.3,1.1,2.7,1.7,4.1c0.6,1.4,1.4,2.6,2.2,3.7c0.9,1,1.9,1.8,3.1,2.2
			c1.2,0.4,2.6,0.4,4.3-0.3c1.5-0.5,2.5-1.3,3.2-2.2s1.1-1.9,1.2-3c0.1-1.1,0-2.3-0.2-3.5c-0.3-1.2-0.7-2.4-1.1-3.6l-2.5-6.8
			L1228,439.4z"/>
		<path class="st15" d="M1258.1,467.1l7.4,26.2l-4.6,1.3l-6-21.3l-13.1,3.7l5.6,19.8l-4.6,1.3l-5.6-19.8l-14.8,4.2l6.3,22.3
			l-4.6,1.3l-7.7-27.3L1258.1,467.1z"/>
		<path class="st14" d="M1205.1,817.7c-2.2-1-4.1-2.2-5.8-3.6c-1.7-1.4-3-3-3.9-4.9c-0.9-1.8-1.4-3.9-1.4-6.2c0-2.3,0.6-4.8,1.8-7.5
			c1.2-2.7,2.7-4.8,4.4-6.3c1.7-1.5,3.6-2.5,5.6-3c2-0.5,4.1-0.6,6.3-0.3c2.2,0.3,4.3,1,6.5,2L1243,799l-2.1,4.7l-23.7-10.8
			c-1.6-0.7-3.2-1.3-4.9-1.6c-1.6-0.3-3.2-0.4-4.7-0.1c-1.5,0.3-2.9,0.9-4.2,1.9c-1.3,1-2.4,2.5-3.3,4.4c-0.9,2-1.3,3.8-1.2,5.4
			c0.1,1.6,0.5,3.1,1.3,4.4c0.8,1.3,1.9,2.5,3.2,3.5c1.3,1,2.8,1.9,4.4,2.6l23.7,10.8l-2.1,4.7L1205.1,817.7z"/>
		<path class="st14" d="M1205.8,856.3c1.6-0.1,3.1-0.6,4.3-1.5c1.3-0.9,2.3-2.1,3-3.4c0.6-1,1-2,1.3-3.1c0.3-1.1,0.4-2.2,0.3-3.2
			s-0.4-2-0.9-3c-0.6-0.9-1.4-1.7-2.5-2.3c-0.9-0.5-1.7-0.8-2.5-0.9c-0.8-0.1-1.6,0-2.5,0.3c-0.9,0.3-1.8,0.8-2.9,1.6
			c-1,0.8-2.2,1.8-3.5,3c-1.3,1.2-2.6,2.3-3.9,3.4c-1.3,1.1-2.7,1.9-4.1,2.5c-1.4,0.6-2.9,0.8-4.5,0.8c-1.6-0.1-3.3-0.6-5.1-1.7
			c-1.9-1.1-3.3-2.4-4.3-3.9s-1.6-3.2-1.8-4.9c-0.2-1.7-0.1-3.5,0.4-5.4c0.5-1.8,1.2-3.6,2.1-5.3c0.6-1.1,1.3-2.1,2.2-3.1
			c0.8-1,1.7-1.9,2.7-2.7c1-0.8,2-1.4,3.2-1.9c1.2-0.5,2.4-0.8,3.7-0.9l1,5.6c-1.8,0-3.5,0.6-5.1,1.6c-1.5,1.1-2.8,2.4-3.7,4
			c-0.5,1-0.9,2-1.2,3.1c-0.3,1.1-0.3,2.3-0.2,3.3c0.1,1.1,0.4,2.1,1,3.1c0.5,1,1.3,1.7,2.4,2.3c1.2,0.7,2.2,1,3.2,1
			c0.9,0,1.9-0.2,2.9-0.7c1-0.5,2.1-1.3,3.2-2.3c1.1-1,2.4-2.2,4-3.5c1.2-1.1,2.4-2.1,3.6-2.9c1.2-0.8,2.4-1.4,3.7-1.8
			c1.3-0.4,2.6-0.5,4-0.3c1.4,0.2,2.9,0.7,4.4,1.6c1.8,1,3.2,2.3,4.1,3.7c0.9,1.5,1.5,3.1,1.8,4.8c0.2,1.7,0.1,3.5-0.3,5.3
			c-0.4,1.8-1.1,3.5-2,5.2c-1.2,2.1-2.6,3.9-4.3,5.3c-1.7,1.4-3.7,2.3-6.1,2.8L1205.8,856.3z"/>
		<path class="st14" d="M1203.3,875.1l-15.3,22.6l-4-2.7l12.4-18.3l-11.3-7.6l-11.6,17.1l-4-2.7l11.6-17.1l-12.8-8.6l-13,19.2
			l-4-2.7l15.9-23.5L1203.3,875.1z"/>
		<path class="st14" d="M879.9,1084.7c1.1,1.2,2.4,1.9,4,2.3c1.5,0.3,3,0.3,4.6,0c1.1-0.2,2.2-0.6,3.2-1.1s1.9-1.1,2.6-1.9
			c0.7-0.7,1.3-1.6,1.6-2.6c0.3-1,0.4-2.2,0.1-3.4c-0.2-1-0.5-1.8-1-2.5c-0.5-0.7-1.1-1.2-1.9-1.7c-0.8-0.5-1.8-0.8-3.1-1.1
			c-1.3-0.3-2.8-0.5-4.6-0.7c-1.7-0.2-3.4-0.4-5.1-0.7c-1.7-0.3-3.2-0.8-4.5-1.4c-1.4-0.7-2.5-1.6-3.5-2.9c-1-1.2-1.7-2.9-2.1-5
			c-0.4-2.1-0.4-4,0.1-5.8s1.4-3.2,2.5-4.6c1.2-1.3,2.6-2.4,4.3-3.3c1.7-0.9,3.5-1.5,5.4-1.9c1.2-0.3,2.5-0.4,3.8-0.4
			s2.5,0.1,3.8,0.3c1.2,0.2,2.4,0.6,3.6,1.1c1.2,0.5,2.2,1.3,3.1,2.2l-3.6,4.4c-1.2-1.4-2.8-2.3-4.6-2.7c-1.8-0.5-3.6-0.5-5.5-0.1
			c-1.1,0.2-2.1,0.6-3.2,1.2c-1,0.5-1.9,1.2-2.7,2c-0.8,0.8-1.3,1.7-1.7,2.8c-0.4,1-0.4,2.2-0.2,3.3c0.3,1.3,0.7,2.3,1.3,3.1
			c0.6,0.7,1.4,1.3,2.5,1.7c1,0.4,2.3,0.7,3.8,0.9c1.5,0.2,3.3,0.4,5.3,0.7c1.6,0.2,3.1,0.4,4.5,0.8c1.4,0.4,2.7,0.9,3.8,1.6
			c1.1,0.7,2.1,1.6,2.9,2.8c0.8,1.1,1.4,2.6,1.7,4.4c0.4,2,0.4,3.9-0.1,5.6s-1.3,3.2-2.4,4.5c-1.1,1.3-2.5,2.4-4.1,3.3
			c-1.6,0.9-3.4,1.5-5.2,1.9c-2.4,0.5-4.7,0.6-6.8,0.2s-4.2-1.3-6.1-2.8L879.9,1084.7z"/>
		<path class="st14" d="M863.8,1095.4l-5.1,0.6l-2.1-18.2l-23,2.6l2.1,18.2l-5.1,0.6l-4.9-43l5.1-0.6l2.3,20.1l23-2.6l-2.3-20.1
			l5.1-0.6L863.8,1095.4z"/>
		<path class="st14" d="M800.9,1100.3l-4.8,0.1l-19-43.1l6-0.1l4.6,10.6l21.7-0.3l4.3-10.7l5.8-0.1L800.9,1100.3z M798.5,1093.8
			l0.1,0l8.7-21.4l-17.7,0.3L798.5,1093.8z"/>
		<path class="st14" d="M767.3,1100l-11-0.9c-2.1-0.2-4.1-0.4-6.2-0.9c-2-0.4-3.8-1.1-5.4-2c-1.6-0.9-2.8-2.2-3.7-3.9
			c-0.9-1.6-1.2-3.8-1-6.5c0.2-3.2,1.4-5.7,3.5-7.5c2.1-1.8,4.8-2.8,8.2-3.1l-10.7-20.8l6.3,0.5l10.2,20.3l6.6,0.5l1.5-19.4l5.1,0.4
			L767.3,1100z M763.7,1080.6l-4.6-0.4c-1.4-0.1-2.9-0.2-4.4-0.2c-1.5,0-3,0.1-4.3,0.5c-1.3,0.3-2.4,1-3.3,1.9
			c-0.9,0.9-1.4,2.2-1.6,4c-0.1,1.5,0.1,2.8,0.6,3.8c0.5,1,1.3,1.8,2.2,2.4c1,0.6,2,1,3.3,1.3c1.2,0.3,2.5,0.4,3.7,0.5l7.2,0.6
			L763.7,1080.6z"/>
		<path class="st14" d="M725.8,1096.1l-26.9-4.4l0.8-4.7l21.8,3.6l2.2-13.4l-20.4-3.3l0.8-4.7l20.4,3.3l2.5-15.2l-22.9-3.7l0.8-4.7
			l28,4.6L725.8,1096.1z"/>
		<path class="st15" d="M449.3,960.4l-3.4-3.4l17.4-43.7l4.3,4.2l-4.4,10.7l15.4,15.3l10.7-4.4l4.1,4.1L449.3,960.4z M452.3,954.1
			L452.3,954.1l21.5-8.7l-12.6-12.5L452.3,954.1z"/>
		<path class="st15" d="M426.1,936.2l-7.1-8.5c-1.3-1.6-2.6-3.3-3.7-5c-1.1-1.7-1.9-3.5-2.3-5.3c-0.4-1.8-0.4-3.6,0.2-5.3
			c0.5-1.8,1.9-3.5,3.9-5.3c2.4-2,5-3,7.8-2.7c2.7,0.2,5.4,1.4,8,3.7l7.4-22.2l4,4.8l-7.4,21.5l4.2,5.1l14.9-12.5l3.3,3.9
			L426.1,936.2z M437.4,920l-2.9-3.5c-0.9-1.1-1.9-2.2-2.9-3.3s-2.2-2-3.3-2.7c-1.2-0.7-2.4-1.1-3.7-1.1c-1.3,0-2.6,0.5-4,1.7
			c-1.2,1-1.9,2-2.3,3.1c-0.3,1.1-0.4,2.2-0.1,3.2c0.3,1.1,0.7,2.2,1.4,3.2c0.7,1.1,1.4,2.1,2.2,3l4.6,5.5L437.4,920z"/>
		<path class="st15" d="M389.6,873.7c-0.7,2.1-0.9,4.1-0.5,6.2c0.4,2.1,1.1,4,2.3,5.7c1.4,2,3,3.5,5,4.6c2,1.1,4,1.8,6.2,2.1
			c2.2,0.3,4.4,0.1,6.7-0.5c2.3-0.6,4.4-1.5,6.3-2.9c2.1-1.4,3.8-3.1,5.1-5c1.3-1.9,2.2-3.9,2.7-6c0.5-2.1,0.6-4.3,0.2-6.5
			c-0.4-2.2-1.3-4.3-2.7-6.3c-1.5-2.2-3.3-3.8-5.3-4.9c-2-1.1-4.3-1.8-6.8-1.9l0.5-5c3.3,0.1,6.2,1,8.8,2.5c2.6,1.6,4.9,3.8,6.8,6.6
			c1.8,2.5,2.9,5.3,3.5,8.1c0.6,2.9,0.6,5.7,0.1,8.5c-0.5,2.8-1.6,5.4-3.3,7.9c-1.6,2.5-3.8,4.7-6.5,6.6c-2.6,1.8-5.4,3.1-8.3,3.8
			c-2.9,0.7-5.7,0.8-8.5,0.4c-2.8-0.4-5.4-1.4-7.9-3c-2.5-1.5-4.7-3.6-6.5-6.3c-1.7-2.4-2.8-5-3.5-7.9c-0.7-2.8-0.5-5.7,0.4-8.6
			L389.6,873.7z"/>
		<path class="st15" d="M372.9,863.9l-2.5-4.5l16-8.9l-11.2-20.2l-16,8.9l-2.5-4.5l37.9-21.1l2.5,4.5l-17.6,9.8l11.2,20.2l17.6-9.8
			l2.5,4.5L372.9,863.9z"/>
		<path class="st15" d="M350.5,821.5l-2.2-4.7l39.2-18.4l2.2,4.7L350.5,821.5z"/>
		<path class="st15" d="M344.5,809.4l-2.1-5.4l28.2-25.5l0-0.1l-38.2,0.3l-2-5.1l46.5-0.2l1.8,4.6L344.5,809.4z"/>
		<path class="st15" d="M327.6,764.9l-7.9-26.1l4.6-1.4l6.4,21.1l13-3.9l-6-19.7l4.6-1.4l6,19.7l14.8-4.5l-6.7-22.2l4.6-1.4
			l8.2,27.1L327.6,764.9z"/>
	</g>
	<g>
	</g>
	<g>
	</g>
	<g>
	</g>
	<g>
	</g>
	<g>
	</g>
	<g>
	</g>
	<g>
	</g>
	<g>
	</g>
	<g>
	</g>
	<g>
	</g>
	<g>
	</g>
	<g>
	</g>
	<g>
	</g>
	<g>
	</g>
	<g>
	</g>
</g>
</svg>
