<?xml version="1.0" encoding="utf-8"?>
<!-- Generator: Adobe Illustrator 16.0.0, SVG Export Plug-In . SVG Version: 6.00 Build 0)  -->
<!DOCTYPE svg PUBLIC "-//W3C//DTD SVG 1.1//EN" "http://www.w3.org/Graphics/SVG/1.1/DTD/svg11.dtd">
<svg version="1.1" xmlns="http://www.w3.org/2000/svg" xmlns:xlink="http://www.w3.org/1999/xlink" x="0px" y="0px" width="730px"
	 height="320px" viewBox="0 0 730 320" enable-background="new 0 0 730 320" xml:space="preserve">
<g id="Layer_1">
	<text transform="matrix(1 0 0 1 19.7637 222.3096)" fill="#808080" font-family="'MyriadPro-Regular'" font-size="12">-0.5</text>
	<text transform="matrix(1 0 0 1 23.4478 157.5625)" fill="#808080" font-family="'MyriadPro-Regular'" font-size="12">0.0</text>
	<text transform="matrix(1 0 0 1 23.4478 94.4775)" fill="#808080" font-family="'MyriadPro-Regular'" font-size="12">0.5</text>
	<text transform="matrix(1 0 0 1 23.4478 30.0596)" fill="#808080" font-family="'MyriadPro-Regular'" font-size="12">1.0</text>
	<g>
		<g>
			<line fill="none" stroke="#999999" stroke-width="0.5" x1="43.496" y1="219.015" x2="706" y2="219.015"/>
			<line fill="none" stroke="#999999" stroke-width="0.5" x1="43.496" y1="155.011" x2="706" y2="155.011"/>
			<line fill="none" stroke="#999999" stroke-width="0.5" x1="43.496" y1="91.007" x2="706" y2="91.007"/>
			<line fill="none" stroke="#999999" stroke-width="0.5" x1="43.496" y1="27.007" x2="706" y2="27.007"/>
		</g>
	</g>
	<g>
		<line fill="none" stroke="#666666" x1="47.709" y1="283.015" x2="706.5" y2="283.015"/>
	</g>
	<line fill="none" stroke="#666666" x1="119.828" y1="283.008" x2="119.828" y2="290.508"/>
	<line fill="none" stroke="#666666" x1="223.062" y1="283.008" x2="223.062" y2="290.508"/>
	<line fill="none" stroke="#666666" x1="326.297" y1="283.008" x2="326.297" y2="290.508"/>
	<line fill="none" stroke="#666666" x1="429.531" y1="283.008" x2="429.531" y2="290.508"/>
	<line fill="none" stroke="#666666" x1="532.766" y1="283.008" x2="532.766" y2="290.508"/>
	<line fill="none" stroke="#666666" x1="636" y1="283.008" x2="636" y2="290.508"/>
	<g>
		<text transform="matrix(1 0 0 1 116.1631 305.0049)" fill="#808080" font-family="'MyriadPro-Regular'" font-size="12">A</text>
	</g>
	<g>
		<text transform="matrix(1 0 0 1 219.8335 305.0049)" fill="#808080" font-family="'MyriadPro-Regular'" font-size="12">B</text>
	</g>
	<g>
		<text transform="matrix(1 0 0 1 322.3335 305.0049)" fill="#808080" font-family="'MyriadPro-Regular'" font-size="12">C</text>
	</g>
	<g>
		<text transform="matrix(1 0 0 1 425.8301 305.0049)" fill="#808080" font-family="'MyriadPro-Regular'" font-size="12">D</text>
	</g>
	<g>
		<text transform="matrix(1 0 0 1 529.8359 305.0049)" fill="#808080" font-family="'MyriadPro-Regular'" font-size="12">E</text>
	</g>
	<g>
		<text transform="matrix(1 0 0 1 632.8359 305.0049)" fill="#808080" font-family="'MyriadPro-Regular'" font-size="12">F</text>
	</g>
</g>
<g id="Layer_2">
	<path fill="#AA62DE" stroke="#532475" stroke-width="0.5" stroke-miterlimit="10" d="M222.562,243.582c0,0-0.17-0.391-0.5-0.662
		c-0.325-0.273-0.841-0.803-1.403-1.33c-0.291-0.264-0.616-0.621-0.973-0.943c-0.329-0.324-0.688-0.711-1.076-1.092
		c-0.811-0.766-1.588-1.66-2.503-2.645c-1.742-1.969-3.755-4.367-5.61-7.109c-0.92-1.371-1.876-2.834-2.734-4.371
		c-0.852-1.539-1.22-3.158-1.278-4.846c-0.067-1.688,0-3.445-0.567-5.266c-0.161-0.455-0.269-0.914-0.523-1.377
		c-0.269-0.461-0.754-0.928-1.396-1.398c-0.594-0.469-1.239-0.941-1.747-1.418c-0.494-0.477-0.739-0.957-0.72-1.441
		c0.233-1.934,1.823-3.92,3.848-5.949c0.96-1.016,1.954-2.041,2.599-3.078c0.69-1.035,1.039-2.082,1.146-3.137
		c0.314-2.109,0.102-4.254-1.245-6.424c-0.312-0.543-0.697-1.088-1.106-1.633c-0.385-0.547-0.831-1.094-1.277-1.643
		c-0.899-1.098-1.845-2.201-3.127-3.309c-4.601-4.43-13.073-8.93-18.72-13.43c-2.786-2.25-4.616-4.5-5.318-6.74
		c-0.751-2.242-0.237-4.474,0.529-6.689c0.798-2.215,2.101-4.412,3.904-6.583c1.778-2.171,4.082-4.315,6.656-6.425
		c1.23-1.055,2.652-2.101,3.978-3.137c1.399-1.036,2.784-2.062,4.155-3.077c1.386-1.015,2.694-2.02,3.996-3.012
		c1.288-0.991,2.621-1.972,3.826-2.938c1.143-0.967,2.381-1.92,3.372-2.859c1.042-0.939,2.084-1.865,2.934-2.774
		c0.448-0.455,0.891-0.906,1.331-1.353c0.434-0.447,0.799-0.891,1.197-1.329c0.74-0.878,1.477-1.739,2.004-2.583
		c1.046-1.688,0.965-3.305,0.582-4.843c-0.371-1.538-0.693-2.997-0.424-4.368c0.689-2.742,1.658-5.133,2.58-7.102
		c0.882-1.969,1.822-3.516,2.479-4.57c0.347-0.527,0.616-0.682,0.829-0.954c0.201-0.272,0.305-0.163,0.305-0.163h1
		c0,0,0.104-0.109,0.305,0.163c0.213,0.272,0.482,0.552,0.829,1.079c0.657,1.055,1.598,2.539,2.479,4.508
		c0.922,1.969,1.891,4.328,2.58,7.07c0.27,1.371-0.053,2.814-0.424,4.353c-0.383,1.538-0.464,3.147,0.582,4.835
		c0.527,0.844,1.264,1.701,2.004,2.579c0.398,0.438,0.764,0.88,1.197,1.327c0.439,0.446,0.883,0.896,1.331,1.352
		c0.851,0.909,1.892,1.834,2.935,2.773c0.99,0.939,2.229,1.893,3.371,2.859c1.205,0.967,2.538,1.947,3.826,2.938
		c1.303,0.992,2.609,1.997,3.996,3.012c1.371,1.015,2.756,2.041,4.154,3.077c1.326,1.036,2.748,2.082,3.979,3.137
		c2.574,2.109,4.877,4.254,6.656,6.425c1.803,2.171,3.105,4.368,3.903,6.583c0.766,2.215,1.28,4.447,0.528,6.689
		c-0.701,2.24-2.531,4.49-5.317,6.74c-5.646,4.5-14.119,9-18.72,13.43c-1.282,1.107-2.229,2.211-3.127,3.309
		c-0.446,0.549-0.893,1.096-1.277,1.643c-0.409,0.545-0.795,1.09-1.106,1.633c-1.347,2.17-1.56,4.314-1.245,6.424
		c0.107,1.055,0.455,2.102,1.146,3.137c0.645,1.037,1.638,2.062,2.599,3.078c2.024,2.029,3.615,4.016,3.848,5.949
		c0.02,0.484-0.226,0.965-0.72,1.441c-0.508,0.477-1.152,0.949-1.747,1.418c-0.642,0.471-1.127,0.938-1.396,1.398
		c-0.255,0.463-0.362,0.922-0.523,1.377c-0.567,1.818-0.5,3.576-0.567,5.264c-0.059,1.688-0.426,3.305-1.278,4.844
		c-0.858,1.537-1.814,2.996-2.734,4.367c-1.855,2.742-3.868,5.133-5.61,7.102c-0.915,0.984-1.692,1.863-2.503,2.629
		c-0.388,0.381-0.747,0.736-1.076,1.061c-0.356,0.322-0.682,0.617-0.973,0.881c-0.562,0.527-1.078,1.182-1.403,1.455
		c-0.33,0.271-0.5,0.662-0.5,0.662H222.562z"/>
	<path fill="#AA62DE" stroke="#532475" stroke-width="0.5" stroke-miterlimit="10" d="M119.328,171.333c0,0-0.275-1.984-1.38-5.457
		c-1.084-3.473-3.041-8.434-6.036-14.387c-0.772-1.488-1.562-3.039-2.464-4.643c-0.442-0.802-0.875-1.618-1.401-2.447
		c-0.263-0.414-0.546-0.832-0.871-1.252s-0.597-0.844-0.971-1.27c-0.363-0.426-0.728-0.855-1.096-1.288
		c-0.405-0.432-0.812-0.867-1.223-1.304c-0.899-0.875-1.809-1.761-2.729-2.656c-1.874-1.791-3.941-3.62-5.547-5.48
		c-1.645-1.86-2.836-3.752-3.446-5.667c-0.66-1.915-0.5-3.852-0.49-5.806c0.077-3.907,0.501-7.875,1.302-11.844
		c0.812-3.969,2.024-7.938,3.503-11.844c1.461-3.907,3.142-7.751,4.732-11.472c0.808-1.86,1.55-3.689,2.299-5.48
		c0.75-1.791,1.478-3.542,2.123-5.248c0.682-1.706,1.253-3.364,1.846-4.969c0.544-1.604,1.28-3.155,2.291-4.643
		c0.994-1.488,2.047-2.915,3.003-4.271c0.897-1.356,1.645-2.643,2.179-3.853c1.15-2.418,2.044-4.527,2.69-6.263
		c0.656-1.736,1.083-3.101,1.336-4.031c0.264-0.93,0.35-1.426,0.35-1.426c0.048-0.276,0.31-0.461,0.586-0.414
		c0.217,0.038,0.378,0.208,0.414,0.414c0,0,0.086,0.496,0.35,1.426c0.253,0.93,0.68,2.294,1.336,4.031
		c0.646,1.736,1.54,3.845,2.69,6.263c0.534,1.209,1.281,2.496,2.179,3.853c0.956,1.356,2.009,2.783,3.003,4.271
		c1.011,1.488,1.747,3.039,2.291,4.643c0.592,1.604,1.164,3.263,1.846,4.969c0.645,1.706,1.372,3.457,2.123,5.248
		c0.75,1.791,1.492,3.62,2.299,5.48c1.591,3.721,3.271,7.565,4.732,11.472c1.479,3.907,2.691,7.875,3.503,11.844
		c0.8,3.969,1.225,7.938,1.302,11.844c0.01,1.954,0.17,3.891-0.49,5.806c-0.61,1.915-1.802,3.806-3.446,5.667
		c-1.605,1.86-3.673,3.689-5.547,5.48c-0.92,0.895-1.83,1.781-2.729,2.656c-0.41,0.438-0.818,0.872-1.223,1.304
		c-0.368,0.432-0.733,0.861-1.096,1.288c-0.374,0.426-0.646,0.85-0.971,1.27s-0.608,0.838-0.871,1.252
		c-0.526,0.829-0.959,1.645-1.401,2.447c-0.902,1.604-1.692,3.155-2.464,4.643c-2.995,5.953-4.951,10.914-6.036,14.387
		c-1.105,3.473-1.38,5.457-1.38,5.457c-0.038,0.276-0.293,0.469-0.569,0.431C119.53,171.732,119.358,171.551,119.328,171.333z"/>
	<path fill="#AA62DE" stroke="#532475" stroke-width="0.5" stroke-miterlimit="10" d="M326.797,58c0,0-0.042,0.49,0.066,1.409
		c0.107,0.919,0.381,2.268,0.963,3.983s1.474,3.799,2.828,6.189c0.683,1.195,1.441,2.466,2.366,3.807
		c0.464,0.67,1.001,1.358,1.608,2.062c0.303,0.352,0.573,0.708,0.913,1.068c0.341,0.36,0.687,0.724,1.036,1.091
		c2.792,2.941,6.988,6.128,10.756,9.498c1.971,1.686,3.661,3.417,5.051,5.186c1.362,1.77,2.296,3.577,2.829,5.416
		c0.248,0.919,0.519,1.846,0.167,2.78c-0.342,0.933-1.092,1.874-2.363,2.82c-0.573,0.473-1.328,0.947-2.078,1.423
		c-0.826,0.476-1.654,0.953-2.484,1.431c-1.655,0.957-3.474,1.918-4.864,2.883c-1.443,0.965-2.449,1.934-3.012,2.906
		c-0.584,0.972-0.537,1.947-0.386,2.923c0.292,1.953,1.335,3.914,3.062,5.875c1.649,1.961,4.047,3.922,6.141,5.875
		c2.176,1.954,4.18,3.899,5.31,5.829c1.176,1.931,1.565,3.846,1.272,5.737c-0.261,1.892-0.974,3.761-2.06,5.6
		c-2.151,3.677-6.234,7.231-10.098,10.602c-0.977,0.842-1.865,1.673-2.76,2.492c-0.875,0.818-1.819,1.625-2.562,2.417
		c-0.385,0.396-0.792,0.79-1.15,1.179c-0.347,0.39-0.69,0.775-1.031,1.158c-0.702,0.765-1.266,1.516-1.817,2.251
		c-1.102,1.471-1.854,2.88-2.624,4.221c-0.354,0.67-0.699,1.323-1.035,1.958c-0.307,0.635-0.605,1.251-0.894,1.849
		c-1.1,2.391-1.835,4.474-2.312,6.189c-0.961,3.432-0.838,5.393-0.838,5.393c0.018,0.276-0.192,0.514-0.469,0.531
		c-0.276,0.018-0.514-0.192-0.531-0.469c-0.001-0.02-0.001-0.043,0-0.062c0,0,0.123-1.961-0.838-5.393
		c-0.476-1.716-1.211-3.799-2.312-6.189c-0.289-0.598-0.587-1.214-0.894-1.849c-0.336-0.635-0.681-1.288-1.035-1.958
		c-0.77-1.341-1.522-2.75-2.624-4.221c-0.551-0.735-1.115-1.486-1.817-2.251c-0.34-0.383-0.684-0.769-1.031-1.158
		c-0.357-0.39-0.765-0.783-1.15-1.179c-0.744-0.792-1.687-1.599-2.562-2.417c-0.895-0.819-1.783-1.65-2.76-2.492
		c-3.864-3.371-7.947-6.925-10.098-10.602c-1.086-1.838-1.799-3.708-2.06-5.6c-0.293-1.892,0.096-3.807,1.272-5.737
		c1.13-1.93,3.134-3.875,5.31-5.829c2.093-1.953,4.491-3.914,6.141-5.875c1.727-1.961,2.771-3.922,3.062-5.875
		c0.151-0.977,0.198-1.952-0.386-2.923c-0.563-0.972-1.568-1.941-3.012-2.906c-1.39-0.965-3.208-1.927-4.864-2.883
		c-0.83-0.478-1.658-0.955-2.484-1.431c-0.75-0.476-1.505-0.95-2.078-1.423c-1.271-0.946-2.021-1.887-2.363-2.82
		c-0.352-0.934-0.082-1.861,0.167-2.78c0.533-1.838,1.467-3.646,2.829-5.416c1.39-1.77,3.08-3.5,5.051-5.186
		c3.768-3.37,7.964-6.557,10.756-9.498c0.349-0.368,0.694-0.731,1.036-1.091c0.339-0.36,0.61-0.716,0.913-1.068
		c0.607-0.704,1.144-1.391,1.608-2.062c0.925-1.34,1.683-2.612,2.366-3.807c1.354-2.39,2.246-4.474,2.828-6.189
		s0.856-3.064,0.963-3.983c0.108-0.919,0.066-1.409,0.066-1.409c-0.023-0.276,0.181-0.519,0.457-0.543
		c0.276-0.023,0.52,0.181,0.543,0.458C326.799,57.942,326.799,57.973,326.797,58z"/>
	<path fill="#AA62DE" stroke="#532475" stroke-width="0.5" stroke-miterlimit="10" d="M429.031,272.439c0,0-0.307-0.186-0.902-0.545
		c-0.584-0.359-1.515-0.893-2.552-1.588c-0.534-0.348-1.13-0.735-1.786-1.163c-0.614-0.427-1.284-0.894-2.009-1.397
		c-1.494-1.009-3.011-2.168-4.734-3.466c-3.371-2.596-7.251-5.748-11.1-9.364c-0.938-0.903-1.908-1.837-2.905-2.797
		c-0.938-0.961-1.902-1.948-2.892-2.963c-0.948-1.014-1.967-2.054-2.926-3.119c-0.484-0.532-0.975-1.07-1.471-1.615
		c-0.458-0.544-0.922-1.095-1.39-1.651c-1.878-2.225-3.342-4.543-4.208-6.941c-0.434-1.2-0.724-2.42-0.903-3.658
		c-0.168-1.238-0.33-2.496-0.093-3.771c0.221-1.275,0.754-2.567,1.561-3.876c0.405-0.653,0.889-1.312,1.385-1.974
		c0.527-0.662,1.058-1.327,1.59-1.997c1.095-1.338,2.118-2.691,2.887-4.058c0.729-1.366,1.158-2.745,1.169-4.136
		c0.001-1.391-0.233-2.793-1.448-4.205c-1.158-1.413-3.183-2.835-5.592-4.267c-2.398-1.432-5.021-2.871-6.914-4.318
		c-1.938-1.447-3.013-2.901-3.065-4.362c-0.017-0.365,0.032-0.73,0.136-1.096c0.105-0.366,0.216-0.732,0.721-1.099
		c0.891-0.732,2.925-1.467,5.909-2.202l1.028-0.275l1.211-0.276l2.479-0.552l5.129-1.105l2.35-0.553l1.175-0.276l0.588-0.139
		l0.501-0.139c0.651-0.185,1.388-0.369,1.908-0.554c0.555-0.185,1.184-0.369,1.588-0.554c1.952-0.738,2.899-1.479,3.108-2.219
		c0.203-0.739-0.609-1.48-1.739-2.222c-0.543-0.37-1.147-0.741-1.667-1.111c-0.26-0.186-0.497-0.371-0.684-0.556
		c-0.215-0.186-0.375-0.371-0.49-0.557c-0.247-0.371-0.301-0.741-0.17-1.112c0.124-0.371,0.494-0.741,0.783-1.112
		c0.638-0.742,1.388-1.483,2.311-2.226c0.87-0.741,1.91-1.482,3.072-2.224l1.704-1.111l1.859-1.11l3.706-2.219
		c2.454-1.478,4.514-2.952,6.05-4.423c0.761-0.734,1.4-1.469,1.896-2.202c0.451-0.732,0.361-1.464-0.278-2.194
		c-0.586-0.73-1.71-1.459-2.559-2.186c-0.918-0.727-1.554-1.453-1.781-2.176c-0.229-0.724-0.243-1.445-0.081-2.165
		c0.168-0.72,0.459-1.438,0.636-2.153c0.335-1.431,0.063-2.854-1.469-4.266c-0.702-0.707-1.604-1.41-2.209-2.111
		c-0.609-0.701-0.913-1.399-0.895-2.095c-0.051-1.391,0.288-2.77,0.922-4.136c0.616-1.366,1.478-2.719,2.052-4.058
		c0.594-1.338,0.848-2.663,0.692-3.971c-0.099-0.654-0.183-1.304-0.571-1.95c-0.185-0.323-0.452-0.645-0.755-0.966
		c-0.308-0.321-0.716-0.641-1.109-0.959c-0.831-0.638-1.895-1.271-2.927-1.899c-0.527-0.314-1.004-0.627-1.496-0.939l-0.731-0.467
		l-0.634-0.465c-1.65-1.239-2.245-2.458-1.872-3.658c0.317-1.2,1.33-2.379,2.93-3.536c0.411-0.29,0.818-0.578,1.274-0.864
		c0.472-0.287,0.94-0.572,1.407-0.856c0.923-0.567,1.917-1.129,2.856-1.686c0.85-0.556,1.778-1.106,2.522-1.651
		c0.364-0.272,0.736-0.543,1.021-0.812c0.312-0.269,0.614-0.537,0.858-0.803c0.498-0.532,0.87-1.059,1.129-1.579
		c0.241-0.52,0.264-1.033,0.107-1.541c-0.315-1.014-1.451-2.002-2.258-2.962c-0.828-0.96-1.151-1.893-0.881-2.797
		c0.228-0.904,0.788-1.779,1.562-2.624c0.794-0.844,1.743-1.659,2.555-2.441c0.817-0.782,1.485-1.533,1.903-2.25
		c0.207-0.358,0.424-0.708,0.471-1.05c0.037-0.342-0.129-0.675-0.411-1c-0.27-0.324-0.61-0.64-0.828-0.947
		c-0.221-0.307-0.325-0.605-0.294-0.894c0.089-0.578,0.213-1.12,0.359-1.624c0.296-1.008,0.681-1.866,1.066-2.562
		c0.389-0.695,0.777-1.229,1.068-1.587c0.294-0.359,0.482-0.545,0.482-0.545c0.277-0.273,0.724-0.272,1,0
		c0,0,0.188,0.186,0.482,0.545c0.291,0.359,0.68,0.892,1.068,1.587c0.386,0.695,0.771,1.553,1.066,2.562
		c0.146,0.504,0.271,1.046,0.359,1.624c0.031,0.289-0.073,0.587-0.294,0.894c-0.218,0.307-0.559,0.623-0.828,0.947
		c-0.282,0.325-0.448,0.658-0.411,1c0.047,0.342,0.264,0.692,0.471,1.05c0.418,0.717,1.086,1.468,1.903,2.25
		c0.812,0.782,1.761,1.597,2.555,2.441c0.774,0.845,1.335,1.72,1.562,2.624c0.271,0.904-0.053,1.837-0.881,2.797
		c-0.807,0.96-1.942,1.949-2.258,2.962c-0.156,0.507-0.134,1.021,0.107,1.541c0.259,0.52,0.631,1.046,1.129,1.579
		c0.244,0.266,0.546,0.534,0.858,0.803c0.285,0.269,0.657,0.54,1.021,0.812c0.744,0.544,1.673,1.095,2.522,1.651
		c0.939,0.557,1.934,1.119,2.856,1.686c0.467,0.284,0.936,0.569,1.407,0.856c0.456,0.287,0.863,0.575,1.274,0.864
		c1.6,1.157,2.612,2.336,2.93,3.536c0.373,1.199-0.222,2.419-1.872,3.658l-0.634,0.465l-0.731,0.467
		c-0.492,0.312-0.969,0.625-1.496,0.939c-1.032,0.628-2.096,1.261-2.927,1.899c-0.394,0.318-0.802,0.638-1.109,0.959
		c-0.303,0.321-0.57,0.643-0.755,0.966c-0.389,0.646-0.473,1.296-0.571,1.95c-0.155,1.308,0.099,2.632,0.692,3.971
		c0.574,1.339,1.436,2.692,2.052,4.058c0.634,1.366,0.973,2.746,0.922,4.136c0.019,0.695-0.285,1.394-0.895,2.095
		c-0.604,0.701-1.507,1.404-2.209,2.111c-1.532,1.412-1.804,2.835-1.469,4.266c0.177,0.716,0.468,1.434,0.636,2.153
		c0.162,0.72,0.148,1.441-0.081,2.165c-0.228,0.724-0.863,1.449-1.781,2.176c-0.849,0.727-1.973,1.456-2.559,2.186
		c-0.64,0.73-0.729,1.461-0.278,2.194c0.496,0.733,1.136,1.468,1.896,2.202c1.536,1.471,3.596,2.945,6.05,4.423l3.706,2.219
		l1.859,1.11l1.704,1.111c1.162,0.741,2.202,1.482,3.072,2.224c0.923,0.742,1.673,1.483,2.311,2.226
		c0.289,0.371,0.659,0.741,0.783,1.112c0.131,0.371,0.077,0.741-0.17,1.112c-0.115,0.186-0.275,0.371-0.49,0.557
		c-0.187,0.185-0.424,0.37-0.684,0.556c-0.52,0.37-1.124,0.741-1.667,1.111c-1.13,0.741-1.942,1.482-1.739,2.222
		c0.209,0.74,1.156,1.48,3.108,2.219c0.404,0.185,1.033,0.369,1.588,0.554c0.521,0.185,1.257,0.369,1.908,0.554l0.501,0.139
		l0.588,0.139l1.175,0.276l2.35,0.553l5.129,1.105l2.479,0.552l1.211,0.276l1.028,0.275c2.984,0.735,5.019,1.47,5.909,2.202
		c0.505,0.366,0.615,0.732,0.721,1.099c0.104,0.365,0.152,0.73,0.136,1.096c-0.053,1.461-1.128,2.915-3.065,4.362
		c-1.894,1.447-4.516,2.887-6.914,4.318c-2.409,1.432-4.434,2.854-5.592,4.267c-1.215,1.412-1.449,2.814-1.448,4.205
		c0.011,1.391,0.439,2.77,1.169,4.136c0.769,1.366,1.792,2.72,2.887,4.058c0.532,0.67,1.062,1.335,1.59,1.997
		c0.496,0.662,0.979,1.32,1.385,1.974c0.807,1.309,1.34,2.601,1.561,3.876c0.237,1.274,0.075,2.532-0.093,3.771
		c-0.18,1.238-0.47,2.458-0.903,3.658c-0.866,2.398-2.33,4.717-4.208,6.941c-0.468,0.557-0.932,1.107-1.39,1.651
		c-0.496,0.545-0.986,1.083-1.471,1.615c-0.959,1.065-1.978,2.105-2.926,3.119c-0.989,1.015-1.954,2.002-2.892,2.963
		c-0.997,0.96-1.967,1.894-2.905,2.797c-3.849,3.616-7.729,6.769-11.1,9.364c-1.724,1.298-3.24,2.457-4.734,3.466
		c-0.725,0.504-1.395,0.971-2.009,1.397c-0.656,0.428-1.252,0.815-1.786,1.163c-1.037,0.695-1.968,1.229-2.552,1.588
		c-0.596,0.359-0.902,0.545-0.902,0.545C429.714,272.631,429.329,272.618,429.031,272.439z"/>
	<path fill="#AA62DE" stroke="#532475" stroke-width="0.5" stroke-miterlimit="10" d="M533.266,50.333c0,0-0.047,0.341,0.003,0.981
		c0.054,0.64,0.208,1.578,0.577,2.771c0.367,1.194,0.971,2.644,1.876,4.307c0.217,0.416,0.477,0.845,0.739,1.287
		c0.242,0.442,0.567,0.896,1.027,1.363c0.928,0.933,2.366,1.914,4.469,2.937c0.928,0.512,2.109,1.034,3.236,1.566
		c1.118,0.532,2.257,1.075,3.416,1.626c2.16,1.104,3.948,2.244,4.819,3.417c0.469,0.586,0.642,1.181,0.856,1.783
		c0.213,0.602,0.446,1.21,0.647,1.826c0.411,1.231,0.776,2.489,1.08,3.769c0.612,2.559,0.963,5.203,0.932,7.889
		c-0.022,2.687-0.441,5.416-1.044,8.145c-0.602,2.729-1.378,5.458-2.138,8.145c-0.711,2.687-1.605,5.331-2.84,7.889
		c-1.214,2.559-2.728,5.032-4.32,7.377c-1.621,2.345-3.203,4.562-4.661,6.609c-1.403,2.047-2.705,3.923-3.742,5.586
		c-1.011,1.663-1.893,3.113-2.618,4.307c-0.729,1.194-1.275,2.132-1.693,2.771c-0.405,0.64-0.622,0.981-0.622,0.981
		c-0.175,0.276-0.541,0.358-0.817,0.183c-0.075-0.047-0.138-0.112-0.183-0.183c0,0-0.217-0.341-0.622-0.981
		c-0.418-0.64-0.964-1.578-1.693-2.771c-0.726-1.194-1.607-2.644-2.618-4.307c-1.037-1.663-2.339-3.54-3.742-5.586
		c-1.458-2.047-3.04-4.264-4.661-6.609c-1.593-2.346-3.106-4.819-4.32-7.377c-1.234-2.559-2.129-5.203-2.84-7.889
		c-0.76-2.687-1.536-5.416-2.138-8.145c-0.603-2.729-1.021-5.458-1.044-8.145c-0.031-2.687,0.319-5.331,0.932-7.889
		c0.304-1.279,0.669-2.537,1.08-3.769c0.201-0.616,0.435-1.225,0.647-1.826c0.215-0.602,0.388-1.196,0.856-1.783
		c0.871-1.172,2.659-2.313,4.819-3.417c1.159-0.552,2.298-1.094,3.416-1.626c1.127-0.532,2.309-1.055,3.236-1.566
		c2.103-1.023,3.541-2.004,4.469-2.937c0.46-0.467,0.785-0.921,1.027-1.363c0.263-0.442,0.522-0.871,0.739-1.287
		c0.905-1.663,1.509-3.113,1.876-4.307c0.369-1.194,0.523-2.132,0.577-2.771c0.05-0.64,0.003-0.981,0.003-0.981
		c-0.038-0.276,0.154-0.531,0.431-0.569c0.276-0.038,0.531,0.155,0.569,0.431C533.272,50.241,533.271,50.29,533.266,50.333z"/>
	<path fill="#AA62DE" stroke="#532475" stroke-width="0.5" stroke-miterlimit="10" d="M635.5,231c0,0-1.006-0.594-2.508-1.707
		c-1.561-1.113-3.587-2.746-5.714-4.824c-2.136-2.078-4.346-4.602-6.347-7.496c-1.977-2.895-3.691-6.16-4.953-9.723
		c-1.292-3.562-1.846-7.422-2.157-11.504c-0.196-2.041-0.351-4.138-0.663-6.281c-0.302-2.143-0.787-4.332-1.398-6.559
		c-0.59-2.227-1.317-4.49-2.087-6.781c-0.775-2.292-1.668-4.611-2.53-6.949c-1.768-4.676-3.536-9.426-4.624-14.176
		c-0.3-1.188-0.518-2.375-0.763-3.562c-0.2-1.186-0.399-2.371-0.6-3.554c-0.367-2.366-0.89-4.722-1.399-7.06
		c-0.989-4.676-2.157-9.277-2.02-13.73c0.083-4.453,1.341-8.758,3.283-12.84c1.938-4.082,4.324-7.941,7.02-11.504
		c2.666-3.562,5.669-6.828,8.668-9.723c3.034-2.895,6.068-5.418,8.817-7.496c2.75-2.078,5.236-3.711,7.067-4.824
		c0.929-0.557,1.606-0.983,2.121-1.271C635.232,79.148,635.5,79,635.5,79c0.322-0.179,0.699-0.166,1,0c0,0,0.268,0.148,0.786,0.436
		c0.515,0.288,1.192,0.714,2.121,1.271c1.831,1.113,4.317,2.746,7.067,4.824c2.749,2.078,5.783,4.602,8.817,7.496
		c2.999,2.895,6.002,6.16,8.668,9.723c2.695,3.562,5.082,7.422,7.02,11.504c1.942,4.082,3.2,8.387,3.283,12.84
		c0.138,4.453-1.03,9.055-2.02,13.73c-0.51,2.338-1.032,4.694-1.399,7.06c-0.2,1.183-0.399,2.368-0.6,3.554
		c-0.245,1.187-0.463,2.374-0.763,3.562c-1.088,4.75-2.856,9.5-4.624,14.176c-0.862,2.338-1.755,4.657-2.53,6.949
		c-0.77,2.291-1.497,4.555-2.087,6.781c-0.611,2.227-1.097,4.416-1.398,6.559c-0.312,2.144-0.467,4.24-0.663,6.281
		c-0.312,4.082-0.865,7.941-2.157,11.504c-1.262,3.562-2.977,6.828-4.953,9.723c-2.001,2.895-4.211,5.418-6.347,7.496
		c-2.127,2.078-4.153,3.711-5.714,4.824C637.506,230.406,636.5,231,636.5,231C636.181,231.188,635.798,231.175,635.5,231z"/>
</g>
<g id="Layer_3">
	
		<line fill="none" stroke="#000000" stroke-width="0.5" stroke-miterlimit="10" x1="223.062" y1="99.083" x2="223.062" y2="239.25"/>
	<rect x="219.062" y="147.167" fill="#262626" width="8" height="50.25"/>
	<circle fill="#FFFFFF" cx="223.062" cy="171.572" r="2.636"/>
	<line fill="none" stroke="#000000" stroke-width="0.5" stroke-miterlimit="10" x1="326.297" y1="66.5" x2="326.297" y2="175"/>
	<rect x="322.297" y="87.667" fill="#262626" width="8" height="40.726"/>
	<circle fill="#FFFFFF" cx="326.297" cy="108.031" r="2.636"/>
	<line fill="none" stroke="#000000" stroke-width="0.5" stroke-miterlimit="10" x1="532.766" y1="56.5" x2="532.766" y2="137.942"/>
	<rect x="528.766" y="78.871" fill="#262626" width="8" height="30.878"/>
	<circle fill="#FFFFFF" cx="532.766" cy="94.312" r="2.636"/>
	<line fill="none" stroke="#000000" stroke-width="0.5" stroke-miterlimit="10" x1="636" y1="78.871" x2="636" y2="227.5"/>
	<rect x="632" y="109.75" fill="#262626" width="8" height="71.751"/>
	<circle fill="#FFFFFF" cx="636" cy="145.627" r="2.636"/>
	
		<line fill="none" stroke="#000000" stroke-width="0.5" stroke-miterlimit="10" x1="429.531" y1="83.105" x2="429.531" y2="272.439"/>
	<rect x="425.531" y="183.5" fill="#262626" width="8" height="71.027"/>
	<circle fill="#FFFFFF" cx="429.531" cy="219.016" r="2.636"/>
	<line fill="none" stroke="#000000" stroke-width="0.5" stroke-miterlimit="10" x1="119.828" y1="48" x2="119.828" y2="166.994"/>
	<rect x="115.828" y="96.5" fill="#262626" width="8" height="36.44"/>
	<circle fill="#FFFFFF" cx="119.828" cy="114.001" r="2.636"/>
</g>
</svg>
