<?xml version='1.0' encoding='utf-8'?>
<?xml-stylesheet href="https://fonts.googleapis.com/css?family=Open+Sans:300italic,400italic,600italic,700italic,800italic,400,300,600,700,800|Open+Sans+Condensed:300,300italic,700|Cousine|Lato|Noto+Serif" type="text/css"?><svg xmlns="http://www.w3.org/2000/svg" xmlns:xlink="http://www.w3.org/1999/xlink" class="marks" width="705" height="345" viewBox="0 0 705 345" version="1.1"><rect width="705" height="345" fill="#ffffff"/><rect width="705" height="345" style="fill: #ffffff;"/><g transform="translate(68,56)"><g class="mark-group role-frame root" role="graphics-object" aria-roledescription="group mark container"><g transform="translate(0,0)"><path class="background" aria-hidden="true" d="M0,0h617v246h-617Z" style="fill: none;"/><g><g class="mark-group role-axis" aria-hidden="true"><g transform="translate(0.5,0.5)"><path class="background" aria-hidden="true" d="M0,0h0v0h0Z" style="pointer-events: none; fill: none;"/><g><g class="mark-rule role-axis-grid" style="pointer-events: none;"><line transform="translate(0,246)" x2="617" y2="0" style="fill: none; stroke: #E4EEF5; stroke-width: 1; opacity: 1;"/><line transform="translate(0,197)" x2="617" y2="0" style="fill: none; stroke: #E4EEF5; stroke-width: 1; opacity: 1;"/><line transform="translate(0,148)" x2="617" y2="0" style="fill: none; stroke: #E4EEF5; stroke-width: 1; opacity: 1;"/><line transform="translate(0,98)" x2="617" y2="0" style="fill: none; stroke: #E4EEF5; stroke-width: 1; opacity: 1;"/><line transform="translate(0,49)" x2="617" y2="0" style="fill: none; stroke: #E4EEF5; stroke-width: 1; opacity: 1;"/><line transform="translate(0,0)" x2="617" y2="0" style="fill: none; stroke: #E4EEF5; stroke-width: 1; opacity: 1;"/></g></g><path class="foreground" aria-hidden="true" d="" style="pointer-events: none; display: none; fill: none;"/></g></g><g class="mark-group role-axis" aria-hidden="true"><g transform="translate(0.5,246.5)"><path class="background" aria-hidden="true" d="M0,0h0v0h0Z" style="pointer-events: none; fill: none;"/><g><g class="mark-rule role-axis-tick" style="pointer-events: none;"><line transform="translate(28,0)" x2="0" y2="5" style="fill: none; stroke: #E4EEF5; stroke-width: 1; opacity: 1;"/><line transform="translate(84,0)" x2="0" y2="5" style="fill: none; stroke: #E4EEF5; stroke-width: 1; opacity: 1;"/><line transform="translate(140,0)" x2="0" y2="5" style="fill: none; stroke: #E4EEF5; stroke-width: 1; opacity: 1;"/><line transform="translate(196,0)" x2="0" y2="5" style="fill: none; stroke: #E4EEF5; stroke-width: 1; opacity: 1;"/><line transform="translate(252,0)" x2="0" y2="5" style="fill: none; stroke: #E4EEF5; stroke-width: 1; opacity: 1;"/><line transform="translate(308,0)" x2="0" y2="5" style="fill: none; stroke: #E4EEF5; stroke-width: 1; opacity: 1;"/><line transform="translate(364,0)" x2="0" y2="5" style="fill: none; stroke: #E4EEF5; stroke-width: 1; opacity: 1;"/><line transform="translate(420,0)" x2="0" y2="5" style="fill: none; stroke: #E4EEF5; stroke-width: 1; opacity: 1;"/><line transform="translate(476,0)" x2="0" y2="5" style="fill: none; stroke: #E4EEF5; stroke-width: 1; opacity: 1;"/><line transform="translate(532,0)" x2="0" y2="5" style="fill: none; stroke: #E4EEF5; stroke-width: 1; opacity: 1;"/><line transform="translate(588,0)" x2="0" y2="5" style="fill: none; stroke: #E4EEF5; stroke-width: 1; opacity: 1;"/></g><g class="mark-text role-axis-label" style="pointer-events: none;"><text text-anchor="middle" transform="translate(27.545454545454547,20)" style="font-family: Lato; font-size: 13px; font-weight: normal; fill: #687299; opacity: 1;">February</text><text text-anchor="middle" transform="translate(83.63636363636364,20)" style="font-family: Lato; font-size: 13px; font-weight: normal; fill: #687299; opacity: 0;">March</text><text text-anchor="middle" transform="translate(139.72727272727275,20)" style="font-family: Lato; font-size: 13px; font-weight: normal; fill: #687299; opacity: 1;">April</text><text text-anchor="middle" transform="translate(195.8181818181818,20)" style="font-family: Lato; font-size: 13px; font-weight: normal; fill: #687299; opacity: 0;">May</text><text text-anchor="middle" transform="translate(251.90909090909093,20)" style="font-family: Lato; font-size: 13px; font-weight: normal; fill: #687299; opacity: 1;">June</text><text text-anchor="middle" transform="translate(308.00000000000006,20)" style="font-family: Lato; font-size: 13px; font-weight: normal; fill: #687299; opacity: 0;">July</text><text text-anchor="middle" transform="translate(364.0909090909091,20)" style="font-family: Lato; font-size: 13px; font-weight: normal; fill: #687299; opacity: 1;">August</text><text text-anchor="middle" transform="translate(420.1818181818182,20)" style="font-family: Lato; font-size: 13px; font-weight: normal; fill: #687299; opacity: 0;">September</text><text text-anchor="middle" transform="translate(476.2727272727273,20)" style="font-family: Lato; font-size: 13px; font-weight: normal; fill: #687299; opacity: 1;">October</text><text text-anchor="middle" transform="translate(532.3636363636364,20)" style="font-family: Lato; font-size: 13px; font-weight: normal; fill: #687299; opacity: 0;">November</text><text text-anchor="middle" transform="translate(588.4545454545455,20)" style="font-family: Lato; font-size: 13px; font-weight: normal; fill: #687299; opacity: 1;">December</text></g></g><path class="foreground" aria-hidden="true" d="" style="pointer-events: none; display: none; fill: none;"/></g></g><g class="mark-group role-axis" aria-hidden="true"><g transform="translate(0.5,0.5)"><path class="background" aria-hidden="true" d="M0,0h0v0h0Z" style="pointer-events: none; fill: none;"/><g><g class="mark-rule role-axis-tick" style="pointer-events: none;"><line transform="translate(0,246)" x2="-5" y2="0" style="fill: none; stroke: #E4EEF5; stroke-width: 1; opacity: 1;"/><line transform="translate(0,197)" x2="-5" y2="0" style="fill: none; stroke: #E4EEF5; stroke-width: 1; opacity: 1;"/><line transform="translate(0,148)" x2="-5" y2="0" style="fill: none; stroke: #E4EEF5; stroke-width: 1; opacity: 1;"/><line transform="translate(0,98)" x2="-5" y2="0" style="fill: none; stroke: #E4EEF5; stroke-width: 1; opacity: 1;"/><line transform="translate(0,49)" x2="-5" y2="0" style="fill: none; stroke: #E4EEF5; stroke-width: 1; opacity: 1;"/><line transform="translate(0,0)" x2="-5" y2="0" style="fill: none; stroke: #E4EEF5; stroke-width: 1; opacity: 1;"/></g><g class="mark-text role-axis-label" style="pointer-events: none;"><text text-anchor="end" transform="translate(-15,250)" style="font-family: Lato; font-size: 13px; font-weight: normal; fill: #687299; opacity: 1;">0</text><text text-anchor="end" transform="translate(-15,200.8)" style="font-family: Lato; font-size: 13px; font-weight: normal; fill: #687299; opacity: 1;">200</text><text text-anchor="end" transform="translate(-15,151.6)" style="font-family: Lato; font-size: 13px; font-weight: normal; fill: #687299; opacity: 1;">400</text><text text-anchor="end" transform="translate(-15,102.4)" style="font-family: Lato; font-size: 13px; font-weight: normal; fill: #687299; opacity: 1;">600</text><text text-anchor="end" transform="translate(-15,53.19999999999999)" style="font-family: Lato; font-size: 13px; font-weight: normal; fill: #687299; opacity: 1;">800</text><text text-anchor="end" transform="translate(-15,4)" style="font-family: Lato; font-size: 13px; font-weight: normal; fill: #687299; opacity: 1;">1,000</text></g></g><path class="foreground" aria-hidden="true" d="" style="pointer-events: none; display: none; fill: none;"/></g></g><g class="mark-rule role-mark layer_0_marks" aria-hidden="true"><line transform="translate(28.045454545454547,221.154)" x2="0" y2="-103.44299999999998" style="fill: none; stroke: #475999;"/><line transform="translate(84.13636363636364,227.304)" x2="0" y2="-73.06200000000001" style="fill: none; stroke: #475999;"/><line transform="translate(140.22727272727275,223.122)" x2="0" y2="-37.023000000000025" style="fill: none; stroke: #475999;"/><line transform="translate(196.3181818181818,230.99400000000003)" x2="0" y2="-29.64300000000003" style="fill: none; stroke: #475999;"/><line transform="translate(252.40909090909093,218.202)" x2="0" y2="-81.18" style="fill: none; stroke: #475999;"/><line transform="translate(308.50000000000006,227.304)" x2="0" y2="-56.64150000000001" style="fill: none; stroke: #475999;"/><line transform="translate(364.5909090909091,232.962)" x2="0" y2="-55.472999999999985" style="fill: none; stroke: #475999;"/><line transform="translate(420.6818181818182,225.58200000000002)" x2="0" y2="-24.354000000000013" style="fill: none; stroke: #475999;"/><line transform="translate(476.7727272727273,232.71599999999998)" x2="0" y2="-45.940499999999986" style="fill: none; stroke: #475999;"/><line transform="translate(532.8636363636364,228.042)" x2="0" y2="-47.72400000000002" style="fill: none; stroke: #475999;"/><line transform="translate(588.9545454545455,230.01000000000002)" x2="0" y2="-42.496500000000026" style="fill: none; stroke: #475999;"/></g><g class="mark-rule role-mark layer_1_marks" aria-hidden="true"><line transform="translate(28.045454545454547,35.178000000000004)" x2="0" y2="-30.996000000000002" style="fill: none; stroke: #475999;"/><line transform="translate(84.13636363636364,46.24799999999998)" x2="0" y2="-46.00199999999998" style="fill: none; stroke: #475999;"/><line transform="translate(140.22727272727275,72.939)" x2="0" y2="-69.987" style="fill: none; stroke: #475999;"/><line transform="translate(196.3181818181818,52.64399999999999)" x2="0" y2="-46.00199999999999" style="fill: none; stroke: #475999;"/><line transform="translate(252.40909090909093,62.976)" x2="0" y2="-62.73" style="fill: none; stroke: #475999;"/><line transform="translate(308.50000000000006,55.96500000000001)" x2="0" y2="-38.25300000000002" style="fill: none; stroke: #475999;"/><line transform="translate(364.5909090909091,74.53800000000001)" x2="0" y2="-62.976" style="fill: none; stroke: #475999;"/><line transform="translate(420.6818181818182,84.009)" x2="0" y2="-77.36699999999999" style="fill: none; stroke: #475999;"/><line transform="translate(476.7727272727273,43.54200000000001)" x2="0" y2="-43.05000000000001" style="fill: none; stroke: #475999;"/><line transform="translate(532.8636363636364,57.071999999999996)" x2="0" y2="-57.071999999999996" style="fill: none; stroke: #475999;"/><line transform="translate(588.9545454545455,66.66600000000001)" x2="0" y2="-58.794000000000004" style="fill: none; stroke: #475999;"/></g><g class="mark-rect role-mark layer_2_marks" aria-hidden="true"><path d="M20.545454545454547,220.654h15v1h-15Z" style="fill: black; opacity: 1;"/><path d="M76.63636363636364,226.804h15v1h-15Z" style="fill: black; opacity: 1;"/><path d="M132.72727272727275,222.622h15v1h-15Z" style="fill: black; opacity: 1;"/><path d="M188.8181818181818,230.49400000000003h15v1h-15Z" style="fill: black; opacity: 1;"/><path d="M244.90909090909093,217.702h15v1h-15Z" style="fill: black; opacity: 1;"/><path d="M301.00000000000006,226.804h15v1h-15Z" style="fill: black; opacity: 1;"/><path d="M357.0909090909091,232.462h15v1h-15Z" style="fill: black; opacity: 1;"/><path d="M413.1818181818182,225.08200000000002h15v1h-15Z" style="fill: black; opacity: 1;"/><path d="M469.2727272727273,232.21599999999998h15v1h-15Z" style="fill: black; opacity: 1;"/><path d="M525.3636363636364,227.542h15v1h-15Z" style="fill: black; opacity: 1;"/><path d="M581.4545454545455,229.51000000000002h15v1h-15Z" style="fill: black; opacity: 1;"/></g><g class="mark-rect role-mark layer_3_marks" aria-hidden="true"><path d="M20.545454545454547,3.682000000000004h15v1h-15Z" style="fill: black; opacity: 1;"/><path d="M76.63636363636364,-0.2539999999999998h15v1h-15Z" style="fill: black; opacity: 1;"/><path d="M132.72727272727275,2.4520000000000026h15v1h-15Z" style="fill: black; opacity: 1;"/><path d="M188.8181818181818,6.142000000000006h15v1h-15Z" style="fill: black; opacity: 1;"/><path d="M244.90909090909093,-0.2539999999999998h15v1h-15Z" style="fill: black; opacity: 1;"/><path d="M301.00000000000006,17.21199999999999h15v1h-15Z" style="fill: black; opacity: 1;"/><path d="M357.0909090909091,11.06200000000001h15v1h-15Z" style="fill: black; opacity: 1;"/><path d="M413.1818181818182,6.142000000000006h15v1h-15Z" style="fill: black; opacity: 1;"/><path d="M469.2727272727273,-0.007999999999999563h15v1h-15Z" style="fill: black; opacity: 1;"/><path d="M525.3636363636364,-0.5h15v1h-15Z" style="fill: black; opacity: 1;"/><path d="M581.4545454545455,7.372000000000007h15v1h-15Z" style="fill: black; opacity: 1;"/></g><g class="mark-rect role-mark layer_4_marks" role="graphics-symbol" aria-roledescription="rect mark container"><path d="M21.045454545454547,35.178000000000004h14v82.53300000000002h-14Z" style="fill: #475999;"/><path d="M77.13636363636364,46.24799999999998h14v107.994h-14Z" style="fill: #475999;"/><path d="M133.22727272727275,72.939h14v113.16h-14Z" style="fill: #475999;"/><path d="M189.3181818181818,52.64399999999999h14v148.707h-14Z" style="fill: #475999;"/><path d="M245.40909090909093,62.976h14v74.04599999999999h-14Z" style="fill: #475999;"/><path d="M301.50000000000006,55.96500000000001h14v114.69749999999999h-14Z" style="fill: #475999;"/><path d="M357.5909090909091,74.53800000000001h14v102.951h-14Z" style="fill: #475999;"/><path d="M413.6818181818182,84.009h14v117.21900000000001h-14Z" style="fill: #475999;"/><path d="M469.7727272727273,43.54200000000001h14v143.2335h-14Z" style="fill: #475999;"/><path d="M525.8636363636364,57.071999999999996h14v123.24599999999998h-14Z" style="fill: #475999;"/><path d="M581.9545454545455,66.66600000000001h14v120.84749999999998h-14Z" style="fill: #475999;"/></g><g class="mark-rect role-mark layer_5_marks" aria-hidden="true"><path d="M21.045454545454547,79.204h14v1h-14Z" style="fill: white; opacity: 0.7;"/><path d="M77.13636363636364,114.62799999999999h14v1h-14Z" style="fill: white; opacity: 0.7;"/><path d="M133.22727272727275,142.67200000000003h14v1h-14Z" style="fill: white; opacity: 0.7;"/><path d="M189.3181818181818,114.874h14v1h-14Z" style="fill: white; opacity: 0.7;"/><path d="M245.40909090909093,94.94800000000001h14v1h-14Z" style="fill: white; opacity: 0.7;"/><path d="M301.50000000000006,101.83600000000001h14v1h-14Z" style="fill: white; opacity: 0.7;"/><path d="M357.5909090909091,125.69800000000001h14v1h-14Z" style="fill: white; opacity: 0.7;"/><path d="M413.6818181818182,149.80599999999998h14v1h-14Z" style="fill: white; opacity: 0.7;"/><path d="M469.7727272727273,115.11999999999999h14v1h-14Z" style="fill: white; opacity: 0.7;"/><path d="M525.8636363636364,118.81h14v1h-14Z" style="fill: white; opacity: 0.7;"/><path d="M581.9545454545455,103.189h14v1h-14Z" style="fill: white; opacity: 0.7;"/></g><g class="mark-group role-title"><g transform="translate(-47.91603088378906,-36)"><path class="background" aria-hidden="true" d="M0,0h0v0h0Z" style="pointer-events: none; fill: none;"/><g><g class="mark-text role-title-text" role="graphics-symbol" aria-roledescription="title" aria-label="Title text 'Marketing Spend'" style="pointer-events: none;"><text text-anchor="start" transform="translate(0,12)" style="font-family: Lato; font-size: 15px; font-weight: 500; fill: #00092E; opacity: 1;">Marketing Spend</text></g></g><path class="foreground" aria-hidden="true" d="" style="pointer-events: none; display: none; fill: none;"/></g></g></g><path class="foreground" aria-hidden="true" d="" style="display: none; fill: none;"/></g></g></g></svg>