<?xml version="1.0" encoding="utf-8"?>
<!-- Generator: Adobe Illustrator 16.0.0, SVG Export Plug-In . SVG Version: 6.00 Build 0)  -->
<!DOCTYPE svg PUBLIC "-//W3C//DTD SVG 1.1//EN" "http://www.w3.org/Graphics/SVG/1.1/DTD/svg11.dtd">
<svg version="1.1" id="Layer_1" xmlns="http://www.w3.org/2000/svg" xmlns:xlink="http://www.w3.org/1999/xlink" x="0px" y="0px"
	 width="730px" height="320px" viewBox="0 0 730 320" enable-background="new 0 0 730 320" xml:space="preserve">
<g id="Layer_3">
	<path opacity="0.6" fill="none" stroke="#F15A24" stroke-width="2" enable-background="new    " d="M536.334,25.668
		c0,0-7,209.332,21.253,266.999"/>
	<path opacity="0.6" fill="none" stroke="#F15A24" stroke-width="2" enable-background="new    " d="M535.666,24.333
		C535.666,24.333,543,240,510,293"/>
	<path opacity="0.6" fill="none" stroke="#F15A24" stroke-width="2" enable-background="new    " d="M634.835,252
		c0,0-98.168-87-98.168-222"/>
	<path opacity="0.6" fill="none" stroke="#F15A24" stroke-width="2" enable-background="new    " d="M410.667,215.668
		c0,0,125.335-44.004,125.335-192.335"/>
	<path opacity="0.6" fill="none" stroke="#F15A24" stroke-width="2" enable-background="new    " d="M536,19.667
		c0,0-14.667,106,130,106"/>
	<path opacity="0.6" fill="none" stroke="#F15A24" stroke-width="2" enable-background="new    " d="M579.501,36.167
		c0,0-52.167,50.833-127.501,16.833"/>
	<path opacity="0.6" fill="none" stroke="#F15A24" stroke-width="2" enable-background="new    " d="M580,31.667
		c0,0-35.875,138.583-177.875,138.583"/>
	<path opacity="0.6" fill="none" stroke="#F15A24" stroke-width="2" enable-background="new    " d="M619.333,53.667
		c0,0-75.791,97.167,35.542,161.833"/>
	<path opacity="0.6" fill="none" stroke="#F15A24" stroke-width="2" enable-background="new    " d="M648.171,86.332
		c0,0-102.505,91.543-243.171,39.543"/>
	<path opacity="0.6" fill="none" stroke="#F15A24" stroke-width="2" enable-background="new    " d="M646.671,84.332
		c0,0-72.796,146.293-176.796,192.293"/>
	<path opacity="0.6" fill="none" stroke="#F15A24" stroke-width="2" enable-background="new    " d="M670,172.333
		c0,0-130.584-22.708-235.25,79.292"/>
	<path opacity="0.6" fill="none" stroke="#F15A24" stroke-width="2" enable-background="new    " d="M599.125,277.75
		c0,0-40.792-136.917-198.125-106.25"/>
	<path opacity="0.6" fill="none" stroke="#F15A24" stroke-width="2" enable-background="new    " d="M597.5,275.5
		c0,0-13.542-62.791,59.125-62.125"/>
	<path opacity="0.6" fill="none" stroke="#F15A24" stroke-width="2" enable-background="new    " d="M473.25,278.375
		c0,0,87.416-130.042-51.25-194.042"/>
	<path opacity="0.6" fill="none" stroke="#F15A24" stroke-width="2" enable-background="new    " d="M491,32
		c0,0-31.75,114.75,108.25,241.75"/>
	<path opacity="0.6" fill="none" stroke="#F15A24" stroke-width="2" enable-background="new    " d="M580.667,31.667
		c0,0-35.162,77.166,84.171,94.5"/>
	
		<line opacity="0.5" fill="none" stroke="#72A133" stroke-width="1.5" enable-background="new    " x1="189.75" y1="26.25" x2="285.168" y2="255.83"/>
	
		<line opacity="0.5" fill="none" stroke="#72A133" stroke-width="1.5" enable-background="new    " x1="189.5" y1="28.084" x2="64.667" y2="211.66"/>
	
		<line opacity="0.5" fill="none" stroke="#72A133" stroke-width="1.5" enable-background="new    " x1="242.834" y1="33.994" x2="136.667" y2="283.667"/>
	
		<line opacity="0.5" fill="none" stroke="#72A133" stroke-width="1.5" enable-background="new    " x1="136" y1="279.667" x2="94" y2="63.327"/>
	
		<line opacity="0.5" fill="none" stroke="#72A133" stroke-width="1.5" enable-background="new    " x1="94.167" y1="63.66" x2="314" y2="211.498"/>
	
		<line opacity="0.5" fill="none" stroke="#72A133" stroke-width="1.5" enable-background="new    " x1="313.333" y1="211.998" x2="136.667" y2="34.333"/>
	
		<line opacity="0.5" fill="none" stroke="#72A133" stroke-width="1.5" enable-background="new    " x1="314" y1="212.498" x2="54" y2="159.667"/>
	
		<line opacity="0.5" fill="none" stroke="#72A133" stroke-width="1.5" enable-background="new    " x1="285.333" y1="63.666" x2="285.333" y2="256.332"/>
	
		<line opacity="0.5" fill="none" stroke="#72A133" stroke-width="1.5" enable-background="new    " x1="285.5" y1="69" x2="241.501" y2="281.997"/>
	
		<line opacity="0.5" fill="none" stroke="#72A133" stroke-width="1.5" enable-background="new    " x1="284.334" y1="68.333" x2="54.835" y2="159.161"/>
	
		<line opacity="0.5" fill="none" stroke="#72A133" stroke-width="1.5" enable-background="new    " x1="314" y1="107" x2="137.333" y2="34.334"/>
	
		<line opacity="0.5" fill="none" stroke="#72A133" stroke-width="1.5" enable-background="new    " x1="312.333" y1="109.5" x2="136.668" y2="282.996"/>
	
		<line opacity="0.5" fill="none" stroke="#72A133" stroke-width="1.5" enable-background="new    " x1="314.333" y1="106.833" x2="242.334" y2="282.83"/>
	
		<line opacity="0.5" fill="none" stroke="#72A133" stroke-width="1.5" enable-background="new    " x1="326" y1="161" x2="92.667" y2="254.334"/>
	
		<line opacity="0.5" fill="none" stroke="#72A133" stroke-width="1.5" enable-background="new    " x1="326" y1="161" x2="64.335" y2="106.329"/>
	
		<line opacity="0.5" fill="none" stroke="#72A133" stroke-width="1.5" enable-background="new    " x1="188.667" y1="293.667" x2="285.333" y2="64.333"/>
	
		<line opacity="0.5" fill="none" stroke="#72A133" stroke-width="1.5" enable-background="new    " x1="189.333" y1="296.334" x2="94.667" y2="63"/>
	
		<line opacity="0.5" fill="none" stroke="#72A133" stroke-width="1.5" enable-background="new    " x1="65.334" y1="210.826" x2="285.001" y2="255.83"/>
	
		<line opacity="0.5" fill="none" stroke="#72A133" stroke-width="1.5" enable-background="new    " x1="242" y1="283.667" x2="242.667" y2="35"/>
	
		<line opacity="0.5" fill="none" stroke="#72A133" stroke-width="1.5" enable-background="new    " x1="284.834" y1="69" x2="314.167" y2="212.664"/>
</g>
<g>
	<circle fill="#F15A24" cx="535.91" cy="23.603" r="8.575"/>
	<circle fill="#F15A24" cx="491.075" cy="31.349" r="8.575"/>
	<circle fill="#F15A24" cx="452.402" cy="52.493" r="8.575"/>
	<circle fill="#F15A24" cx="422.59" cy="84.464" r="8.575"/>
	<circle fill="#F15A24" cx="404.341" cy="124.689" r="8.575"/>
	<circle fill="#F15A24" cx="400.336" cy="170.417" r="8.575"/>
	<circle fill="#F15A24" cx="411.484" cy="214.021" r="8.575"/>
	<circle fill="#F15A24" cx="435.514" cy="250.628" r="8.575"/>
	<circle fill="#F15A24" cx="469.827" cy="277.646" r="8.575"/>
	<circle fill="#F15A24" cx="511.824" cy="292.471" r="8.575"/>
	<circle fill="#F15A24" cx="557.999" cy="292.609" r="8.575"/>
	<circle fill="#F15A24" cx="600.11" cy="278.026" r="8.575"/>
	<circle fill="#F15A24" cx="634.583" cy="251.206" r="8.575"/>
	<circle fill="#F15A24" cx="658.821" cy="214.747" r="8.575"/>
	<circle fill="#F15A24" cx="670.223" cy="171.246" r="8.575"/>
	<circle fill="#F15A24" cx="666.541" cy="125.355" r="8.575"/>
	<circle fill="#F15A24" cx="648.677" cy="84.89" r="8.575"/>
	<circle fill="#F15A24" cx="619.217" cy="52.71" r="8.575"/>
	<circle fill="#F15A24" cx="580.762" cy="31.414" r="8.575"/>
	<circle fill="#F15A24" cx="535.91" cy="23.603" r="8.575"/>
</g>
<g>
	<circle fill="#8CC63F" cx="189.91" cy="23.603" r="8.575"/>
	<circle fill="#8CC63F" cx="137.273" cy="34.371" r="8.575"/>
	<circle fill="#8CC63F" cx="94.039" cy="63.352" r="8.575"/>
	<circle fill="#8CC63F" cx="64.729" cy="106.24" r="8.575"/>
	<circle fill="#8CC63F" cx="53.867" cy="158.73" r="8.575"/>
	<circle fill="#8CC63F" cx="64.383" cy="211.473" r="8.575"/>
	<circle fill="#8CC63F" cx="93.294" cy="254.583" r="8.575"/>
	<circle fill="#8CC63F" cx="136.247" cy="283.709" r="8.575"/>
	<circle fill="#8CC63F" cx="188.892" cy="294.5" r="8.575"/>
	<circle fill="#8CC63F" cx="241.648" cy="284.021" r="8.575"/>
	<circle fill="#8CC63F" cx="284.781" cy="255.139" r="8.575"/>
	<circle fill="#8CC63F" cx="313.937" cy="212.207" r="8.575"/>
	<circle fill="#8CC63F" cx="324.764" cy="159.576" r="8.575"/>
	<circle fill="#8CC63F" cx="314.318" cy="106.799" r="8.575"/>
	<circle fill="#8CC63F" cx="285.458" cy="63.641" r="8.575"/>
	<circle fill="#8CC63F" cx="242.538" cy="34.458" r="8.575"/>
	<circle fill="#8CC63F" cx="189.91" cy="23.603" r="8.575"/>
</g>
</svg>
