<?xml version='1.0' encoding='utf-8'?>
<?xml-stylesheet href="https://fonts.googleapis.com/css?family=Open+Sans:300italic,400italic,600italic,700italic,800italic,400,300,600,700,800|Open+Sans+Condensed:300,300italic,700|Cousine|Lato|Noto+Serif" type="text/css"?><svg xmlns="http://www.w3.org/2000/svg" xmlns:xlink="http://www.w3.org/1999/xlink" class="marks" width="705" height="345" viewBox="0 0 705 345" version="1.1"><rect width="705" height="345" fill="#ffffff"/><rect width="705" height="345" style="fill: #ffffff;"/><g transform="translate(20,50)"><g class="mark-group role-frame root" role="graphics-object" aria-roledescription="group mark container"><g transform="translate(0,0)"><path class="background" aria-hidden="true" d="M0,0h665v275h-665Z" style="fill: none;"/><g><g class="mark-arc role-mark marks" role="graphics-symbol" aria-roledescription="arc mark container"><path transform="translate(332.5,137.5)" d="M-128.44763908764511,49.065813076011096A137.5,137.5,0,1,0,8.419446744138054e-15,-137.5L0,0Z" style="fill: #475999;"/><path transform="translate(332.5,137.5)" d="M-131.13225952998886,-41.35916477105951A137.5,137.5,0,0,0,-128.44763908764511,49.065813076011096L0,0Z" style="fill: #E59043;"/><path transform="translate(332.5,137.5)" d="M-78.22018613178584,-113.08338729233742A137.5,137.5,0,0,0,-131.13225952998886,-41.35916477105951L0,0Z" style="fill: #9156B5;"/><path transform="translate(332.5,137.5)" d="M-45.58259896335792,-129.72461860319993A137.5,137.5,0,0,0,-78.22018613178584,-113.08338729233742L0,0Z" style="fill: #E5CC49;"/><path transform="translate(332.5,137.5)" d="M-18.64162296930284,-136.2304660972367A137.5,137.5,0,0,0,-45.58259896335792,-129.72461860319993L0,0Z" style="fill: #528848;"/><path transform="translate(332.5,137.5)" d="M-2.525834023241416e-14,-137.5A137.5,137.5,0,0,0,-18.64162296930284,-136.2304660972367L0,0Z" style="fill: #D6685C;"/></g><g class="mark-group role-legend" aria-hidden="true"><g transform="translate(525,18)"><path class="background" aria-hidden="true" d="M5,0L117,0C119.75957512247,0,122,2.24042487753,122,5L122,99C122,101.75957512247,119.75957512247,104,117,104L5,104C2.24042487753,104,0,101.75957512247,0,99L0,5C0,2.24042487753,2.24042487753,0,5,0Z" style="pointer-events: none; fill: none;"/><g><g class="mark-group role-legend-entry"><g transform="translate(5,5)"><path class="background" aria-hidden="true" d="M0,0h0v0h0Z" style="pointer-events: none; fill: none;"/><g><g class="mark-group role-scope" role="graphics-object" aria-roledescription="group mark container"><g transform="translate(0,0)"><path class="background" aria-hidden="true" d="M0,0h111.93962097167969v14h-111.93962097167969Z" style="pointer-events: none; fill: none; opacity: 1;"/><g><g class="mark-symbol role-legend-symbol" style="pointer-events: none;"><path transform="translate(7,7)" d="M2.23606797749979,0A2.23606797749979,2.23606797749979,0,1,1,-2.23606797749979,0A2.23606797749979,2.23606797749979,0,1,1,2.23606797749979,0" style="fill: #475999; stroke-width: 1.5; opacity: 1;"/></g><g class="mark-text role-legend-label" style="pointer-events: none;"><text text-anchor="start" transform="translate(18,11)" style="font-family: Lato; font-size: 14px; font-weight: normal; fill: #687299; opacity: 1;">69.2% Chrome</text></g></g><path class="foreground" aria-hidden="true" d="" style="pointer-events: none; display: none; fill: none;"/></g><g transform="translate(0,16)"><path class="background" aria-hidden="true" d="M0,0h111.93962097167969v14h-111.93962097167969Z" style="pointer-events: none; fill: none; opacity: 1;"/><g><g class="mark-symbol role-legend-symbol" style="pointer-events: none;"><path transform="translate(7,7)" d="M2.23606797749979,0A2.23606797749979,2.23606797749979,0,1,1,-2.23606797749979,0A2.23606797749979,2.23606797749979,0,1,1,2.23606797749979,0" style="fill: #E59043; stroke-width: 1.5; opacity: 1;"/></g><g class="mark-text role-legend-label" style="pointer-events: none;"><text text-anchor="start" transform="translate(18,11)" style="font-family: Lato; font-size: 14px; font-weight: normal; fill: #687299; opacity: 1;">10.7% Firefox</text></g></g><path class="foreground" aria-hidden="true" d="" style="pointer-events: none; display: none; fill: none;"/></g><g transform="translate(0,32)"><path class="background" aria-hidden="true" d="M0,0h111.93962097167969v14h-111.93962097167969Z" style="pointer-events: none; fill: none; opacity: 1;"/><g><g class="mark-symbol role-legend-symbol" style="pointer-events: none;"><path transform="translate(7,7)" d="M2.23606797749979,0A2.23606797749979,2.23606797749979,0,1,1,-2.23606797749979,0A2.23606797749979,2.23606797749979,0,1,1,2.23606797749979,0" style="fill: #9156B5; stroke-width: 1.5; opacity: 1;"/></g><g class="mark-text role-legend-label" style="pointer-events: none;"><text text-anchor="start" transform="translate(18,11)" style="font-family: Lato; font-size: 14px; font-weight: normal; fill: #687299; opacity: 1;">10.5% Explorer</text></g></g><path class="foreground" aria-hidden="true" d="" style="pointer-events: none; display: none; fill: none;"/></g><g transform="translate(0,48)"><path class="background" aria-hidden="true" d="M0,0h111.93962097167969v14h-111.93962097167969Z" style="pointer-events: none; fill: none; opacity: 1;"/><g><g class="mark-symbol role-legend-symbol" style="pointer-events: none;"><path transform="translate(7,7)" d="M2.23606797749979,0A2.23606797749979,2.23606797749979,0,1,1,-2.23606797749979,0A2.23606797749979,2.23606797749979,0,1,1,2.23606797749979,0" style="fill: #E5CC49; stroke-width: 1.5; opacity: 1;"/></g><g class="mark-text role-legend-label" style="pointer-events: none;"><text text-anchor="start" transform="translate(18,11)" style="font-family: Lato; font-size: 14px; font-weight: normal; fill: #687299; opacity: 1;">4.25% Edge</text></g></g><path class="foreground" aria-hidden="true" d="" style="pointer-events: none; display: none; fill: none;"/></g><g transform="translate(0,64)"><path class="background" aria-hidden="true" d="M0,0h111.93962097167969v14h-111.93962097167969Z" style="pointer-events: none; fill: none; opacity: 1;"/><g><g class="mark-symbol role-legend-symbol" style="pointer-events: none;"><path transform="translate(7,7)" d="M2.23606797749979,0A2.23606797749979,2.23606797749979,0,1,1,-2.23606797749979,0A2.23606797749979,2.23606797749979,0,1,1,2.23606797749979,0" style="fill: #528848; stroke-width: 1.5; opacity: 1;"/></g><g class="mark-text role-legend-label" style="pointer-events: none;"><text text-anchor="start" transform="translate(18,11)" style="font-family: Lato; font-size: 14px; font-weight: normal; fill: #687299; opacity: 1;">3.21% Safari</text></g></g><path class="foreground" aria-hidden="true" d="" style="pointer-events: none; display: none; fill: none;"/></g><g transform="translate(0,80)"><path class="background" aria-hidden="true" d="M0,0h111.93962097167969v14h-111.93962097167969Z" style="pointer-events: none; fill: none; opacity: 1;"/><g><g class="mark-symbol role-legend-symbol" style="pointer-events: none;"><path transform="translate(7,7)" d="M2.23606797749979,0A2.23606797749979,2.23606797749979,0,1,1,-2.23606797749979,0A2.23606797749979,2.23606797749979,0,1,1,2.23606797749979,0" style="fill: #D6685C; stroke-width: 1.5; opacity: 1;"/></g><g class="mark-text role-legend-label" style="pointer-events: none;"><text text-anchor="start" transform="translate(18,11)" style="font-family: Lato; font-size: 14px; font-weight: normal; fill: #687299; opacity: 1;">2.16% Opera</text></g></g><path class="foreground" aria-hidden="true" d="" style="pointer-events: none; display: none; fill: none;"/></g></g></g><path class="foreground" aria-hidden="true" d="" style="pointer-events: none; display: none; fill: none;"/></g></g></g><path class="foreground" aria-hidden="true" d="" style="pointer-events: none; display: none; fill: none;"/></g></g><g class="mark-group role-title"><g transform="translate(0,-30)"><path class="background" aria-hidden="true" d="M0,0h0v0h0Z" style="pointer-events: none; fill: none;"/><g><g class="mark-text role-title-text" role="graphics-symbol" aria-roledescription="title" aria-label="Title text 'Browser Sessions'" style="pointer-events: none;"><text text-anchor="start" transform="translate(0,12)" style="font-family: Lato; font-size: 15px; font-weight: 500; fill: #00092E; opacity: 1;">Browser Sessions</text></g></g><path class="foreground" aria-hidden="true" d="" style="pointer-events: none; display: none; fill: none;"/></g></g></g><path class="foreground" aria-hidden="true" d="" style="display: none; fill: none;"/></g></g></g></svg>