<?xml version='1.0' encoding='utf-8'?>
<?xml-stylesheet href="https://fonts.googleapis.com/css?family=Open+Sans:300italic,400italic,600italic,700italic,800italic,400,300,600,700,800|Open+Sans+Condensed:300,300italic,700|Cousine|Lato|Noto+Serif" type="text/css"?><svg xmlns="http://www.w3.org/2000/svg" xmlns:xlink="http://www.w3.org/1999/xlink" class="marks" width="945" height="465" viewBox="0 0 945 465" version="1.1"><rect width="945" height="465" fill="#ffffff"/><rect width="945" height="465" style="fill: #ffffff;"/><defs><linearGradient id="gradient_57fd75d9c925387dc259a9cfb6709230_1" x1="0" x2="1" y1="0" y2="0"><stop offset="0" stop-color="#475999" stop-opacity="0.3"/><stop offset="0.08298755186721991" stop-color="#475999" stop-opacity="0.36"/><stop offset="0.16597510373443983" stop-color="#475999" stop-opacity="0.42"/><stop offset="0.24896265560165975" stop-color="#475999" stop-opacity="0.47"/><stop offset="0.33195020746887965" stop-color="#475999" stop-opacity="0.53"/><stop offset="0.4149377593360996" stop-color="#475999" stop-opacity="0.59"/><stop offset="0.4979253112033195" stop-color="#475999" stop-opacity="0.65"/><stop offset="0.5809128630705395" stop-color="#475999" stop-opacity="0.71"/><stop offset="0.6639004149377593" stop-color="#475999" stop-opacity="0.76"/><stop offset="0.7468879668049793" stop-color="#475999" stop-opacity="0.82"/><stop offset="0.8298755186721992" stop-color="#475999" stop-opacity="0.88"/><stop offset="0.9128630705394191" stop-color="#475999" stop-opacity="0.94"/><stop offset="0.995850622406639" stop-color="#475999" stop-opacity="1.0"/><stop offset="1" stop-color="#475999" stop-opacity="1"/></linearGradient></defs><g transform="translate(90,99)"><g class="mark-group role-frame root" role="graphics-object" aria-roledescription="group mark container"><g transform="translate(0,0)"><path class="background" aria-hidden="true" d="M0,0h835v328h-835Z" style="fill: none;"/><g><g class="mark-rect role-mark marks" role="graphics-symbol" aria-roledescription="rect mark container"><path d="M0,0h69.58333333333333v65.6h-69.58333333333333Z" style="fill: rgb(71, 89, 153); fill-opacity: 0.4022406639004149;"/><path d="M0,65.6h69.58333333333333v65.6h-69.58333333333333Z" style="fill: rgb(71, 89, 153); fill-opacity: 0.41211618257261406;"/><path d="M0,131.2h69.58333333333333v65.6h-69.58333333333333Z" style="fill: rgb(71, 89, 153); fill-opacity: 0.3;"/><path d="M0,196.79999999999998h69.58333333333333v65.6h-69.58333333333333Z" style="fill: rgb(71, 89, 153); fill-opacity: 0.5590871369294605;"/><path d="M0,262.4h69.58333333333333v65.6h-69.58333333333333Z" style="fill: rgb(71, 89, 153); fill-opacity: 0.3621576763485477;"/><path d="M69.58333333333333,0h69.58333333333333v65.6h-69.58333333333333Z" style="fill: rgb(71, 89, 153); fill-opacity: 0.4301244813278008;"/><path d="M69.58333333333333,65.6h69.58333333333333v65.6h-69.58333333333333Z" style="fill: rgb(71, 89, 153); fill-opacity: 0.41792531120331944;"/><path d="M69.58333333333333,131.2h69.58333333333333v65.6h-69.58333333333333Z" style="fill: rgb(71, 89, 153); fill-opacity: 0.3;"/><path d="M69.58333333333333,196.79999999999998h69.58333333333333v65.6h-69.58333333333333Z" style="fill: rgb(71, 89, 153); fill-opacity: 0.616597510373444;"/><path d="M69.58333333333333,262.4h69.58333333333333v65.6h-69.58333333333333Z" style="fill: rgb(71, 89, 153); fill-opacity: 0.4092116182572614;"/><path d="M139.16666666666666,0h69.58333333333333v65.6h-69.58333333333333Z" style="fill: rgb(71, 89, 153); fill-opacity: 0.43651452282157677;"/><path d="M139.16666666666666,65.6h69.58333333333333v65.6h-69.58333333333333Z" style="fill: rgb(71, 89, 153); fill-opacity: 0.43999999999999995;"/><path d="M139.16666666666666,131.2h69.58333333333333v65.6h-69.58333333333333Z" style="fill: rgb(71, 89, 153); fill-opacity: 0.3;"/><path d="M139.16666666666666,196.79999999999998h69.58333333333333v65.6h-69.58333333333333Z" style="fill: rgb(71, 89, 153); fill-opacity: 0.5974273858921162;"/><path d="M139.16666666666666,262.4h69.58333333333333v65.6h-69.58333333333333Z" style="fill: rgb(71, 89, 153); fill-opacity: 0.41734439834024895;"/><path d="M208.75,0h69.58333333333333v65.6h-69.58333333333333Z" style="fill: rgb(71, 89, 153); fill-opacity: 0.48937759336099584;"/><path d="M208.75,65.6h69.58333333333333v65.6h-69.58333333333333Z" style="fill: rgb(71, 89, 153); fill-opacity: 0.4998340248962655;"/><path d="M208.75,131.2h69.58333333333333v65.6h-69.58333333333333Z" style="fill: rgb(71, 89, 153); fill-opacity: 0.3;"/><path d="M208.75,196.79999999999998h69.58333333333333v65.6h-69.58333333333333Z" style="fill: rgb(71, 89, 153); fill-opacity: 0.7304564315352697;"/><path d="M208.75,262.4h69.58333333333333v65.6h-69.58333333333333Z" style="fill: rgb(71, 89, 153); fill-opacity: 0.39410788381742734;"/><path d="M278.3333333333333,0h69.58333333333333v65.6h-69.58333333333333Z" style="fill: rgb(71, 89, 153); fill-opacity: 0.4928630705394191;"/><path d="M278.3333333333333,65.6h69.58333333333333v65.6h-69.58333333333333Z" style="fill: rgb(71, 89, 153); fill-opacity: 0.4597510373443983;"/><path d="M278.3333333333333,131.2h69.58333333333333v65.6h-69.58333333333333Z" style="fill: rgb(71, 89, 153); fill-opacity: 0.3;"/><path d="M278.3333333333333,196.79999999999998h69.58333333333333v65.6h-69.58333333333333Z" style="fill: rgb(71, 89, 153); fill-opacity: 0.6502904564315353;"/><path d="M278.3333333333333,262.4h69.58333333333333v65.6h-69.58333333333333Z" style="fill: rgb(71, 89, 153); fill-opacity: 0.41211618257261406;"/><path d="M347.91666666666663,0h69.58333333333333v65.6h-69.58333333333333Z" style="fill: rgb(71, 89, 153); fill-opacity: 0.4742738589211618;"/><path d="M347.91666666666663,65.6h69.58333333333333v65.6h-69.58333333333333Z" style="fill: rgb(71, 89, 153); fill-opacity: 0.5277178423236515;"/><path d="M347.91666666666663,131.2h69.58333333333333v65.6h-69.58333333333333Z" style="fill: rgb(71, 89, 153); fill-opacity: 0.3;"/><path d="M347.91666666666663,196.79999999999998h69.58333333333333v65.6h-69.58333333333333Z" style="fill: rgb(71, 89, 153); fill-opacity: 0.757759336099585;"/><path d="M347.91666666666663,262.4h69.58333333333333v65.6h-69.58333333333333Z" style="fill: rgb(71, 89, 153); fill-opacity: 0.3865560165975104;"/><path d="M417.5,0h69.58333333333333v65.6h-69.58333333333333Z" style="fill: rgb(71, 89, 153); fill-opacity: 0.48066390041493773;"/><path d="M417.5,65.6h69.58333333333333v65.6h-69.58333333333333Z" style="fill: rgb(71, 89, 153); fill-opacity: 0.5445643153526971;"/><path d="M417.5,131.2h69.58333333333333v65.6h-69.58333333333333Z" style="fill: rgb(71, 89, 153); fill-opacity: 0.3;"/><path d="M417.5,196.79999999999998h69.58333333333333v65.6h-69.58333333333333Z" style="fill: rgb(71, 89, 153); fill-opacity: 0.7885477178423236;"/><path d="M417.5,262.4h69.58333333333333v65.6h-69.58333333333333Z" style="fill: rgb(71, 89, 153); fill-opacity: 0.41618257261410785;"/><path d="M487.0833333333333,0h69.58333333333333v65.6h-69.58333333333333Z" style="fill: rgb(71, 89, 153); fill-opacity: 0.6189211618257261;"/><path d="M487.0833333333333,65.6h69.58333333333333v65.6h-69.58333333333333Z" style="fill: rgb(71, 89, 153); fill-opacity: 0.5039004149377593;"/><path d="M487.0833333333333,131.2h69.58333333333333v65.6h-69.58333333333333Z" style="fill: rgb(71, 89, 153); fill-opacity: 0.3;"/><path d="M487.0833333333333,196.79999999999998h69.58333333333333v65.6h-69.58333333333333Z" style="fill: rgb(71, 89, 153);"/><path d="M487.0833333333333,262.4h69.58333333333333v65.6h-69.58333333333333Z" style="fill: rgb(71, 89, 153); fill-opacity: 0.45917012448132777;"/><path d="M556.6666666666666,0h69.58333333333333v65.6h-69.58333333333333Z" style="fill: rgb(71, 89, 153); fill-opacity: 0.7292946058091285;"/><path d="M556.6666666666666,65.6h69.58333333333333v65.6h-69.58333333333333Z" style="fill: rgb(71, 89, 153); fill-opacity: 0.6183402489626555;"/><path d="M556.6666666666666,131.2h69.58333333333333v65.6h-69.58333333333333Z" style="fill: rgb(71, 89, 153); fill-opacity: 0.3;"/><path d="M556.6666666666666,196.79999999999998h69.58333333333333v65.6h-69.58333333333333Z" style="fill: rgb(71, 89, 153); fill-opacity: 0.9180912863070538;"/><path d="M556.6666666666666,262.4h69.58333333333333v65.6h-69.58333333333333Z" style="fill: rgb(71, 89, 153); fill-opacity: 0.4760165975103734;"/><path d="M626.25,0h69.58333333333333v65.6h-69.58333333333333Z" style="fill: rgb(71, 89, 153); fill-opacity: 0.6224066390041494;"/><path d="M626.25,65.6h69.58333333333333v65.6h-69.58333333333333Z" style="fill: rgb(71, 89, 153); fill-opacity: 0.5956846473029045;"/><path d="M626.25,131.2h69.58333333333333v65.6h-69.58333333333333Z" style="fill: rgb(71, 89, 153); fill-opacity: 0.3;"/><path d="M626.25,196.79999999999998h69.58333333333333v65.6h-69.58333333333333Z" style="fill: rgb(71, 89, 153); fill-opacity: 0.9808298755186722;"/><path d="M626.25,262.4h69.58333333333333v65.6h-69.58333333333333Z" style="fill: rgb(71, 89, 153); fill-opacity: 0.46265560165975106;"/><path d="M695.8333333333333,0h69.58333333333333v65.6h-69.58333333333333Z" style="fill: rgb(71, 89, 153); fill-opacity: 0.47369294605809126;"/><path d="M695.8333333333333,65.6h69.58333333333333v65.6h-69.58333333333333Z" style="fill: rgb(71, 89, 153); fill-opacity: 0.48531120331950206;"/><path d="M695.8333333333333,131.2h69.58333333333333v65.6h-69.58333333333333Z" style="fill: rgb(71, 89, 153); fill-opacity: 0.3;"/><path d="M695.8333333333333,196.79999999999998h69.58333333333333v65.6h-69.58333333333333Z" style="fill: rgb(71, 89, 153); fill-opacity: 0.787966804979253;"/><path d="M695.8333333333333,262.4h69.58333333333333v65.6h-69.58333333333333Z" style="fill: rgb(71, 89, 153); fill-opacity: 0.4272199170124481;"/><path d="M765.4166666666666,0h69.58333333333333v65.6h-69.58333333333333Z" style="fill: rgb(71, 89, 153); fill-opacity: 0.4458091286307053;"/><path d="M765.4166666666666,65.6h69.58333333333333v65.6h-69.58333333333333Z" style="fill: rgb(71, 89, 153); fill-opacity: 0.40398340248962655;"/><path d="M765.4166666666666,131.2h69.58333333333333v65.6h-69.58333333333333Z" style="fill: rgb(71, 89, 153); fill-opacity: 0.3;"/><path d="M765.4166666666666,196.79999999999998h69.58333333333333v65.6h-69.58333333333333Z" style="fill: rgb(71, 89, 153); fill-opacity: 0.48356846473029047;"/><path d="M765.4166666666666,262.4h69.58333333333333v65.6h-69.58333333333333Z" style="fill: rgb(71, 89, 153); fill-opacity: 0.3784232365145228;"/></g><g class="mark-group role-legend" aria-hidden="true"><g transform="translate(625,-49)"><path class="background" aria-hidden="true" d="M5,0L205,0C207.75957512247,0,210,2.24042487753,210,5L210,37C210,39.75957512247,207.75957512247,42,205,42L5,42C2.24042487753,42,0,39.75957512247,0,37L0,5C0,2.24042487753,2.24042487753,0,5,0Z" style="pointer-events: none; fill: none;"/><g><g class="mark-group role-legend-entry"><g transform="translate(5,5)"><path class="background" aria-hidden="true" d="M0,0h0v0h0Z" style="pointer-events: none; fill: none;"/><g><g class="mark-rect role-legend-gradient" style="pointer-events: none;"><path d="M0,0h200v16h-200Z" style="fill: url(#gradient_57fd75d9c925387dc259a9cfb6709230_1); stroke: #ddd; stroke-width: 0; opacity: 1;"/></g><g class="mark-text role-legend-label" style="pointer-events: none;"><text text-anchor="start" transform="translate(0,29)" style="font-family: Lato; font-size: 14px; font-weight: normal; fill: #687299; opacity: 1;">0</text><text text-anchor="middle" transform="translate(41.49377593360996,29)" style="font-family: Lato; font-size: 14px; font-weight: normal; fill: #687299; opacity: 0;">5,000</text><text text-anchor="middle" transform="translate(82.98755186721992,29)" style="font-family: Lato; font-size: 14px; font-weight: normal; fill: #687299; opacity: 1;">10,000</text><text text-anchor="middle" transform="translate(124.48132780082987,29)" style="font-family: Lato; font-size: 14px; font-weight: normal; fill: #687299; opacity: 0;">15,000</text><text text-anchor="middle" transform="translate(165.97510373443984,29)" style="font-family: Lato; font-size: 14px; font-weight: normal; fill: #687299; opacity: 1;">20,000</text></g></g><path class="foreground" aria-hidden="true" d="" style="pointer-events: none; display: none; fill: none;"/></g></g></g><path class="foreground" aria-hidden="true" d="" style="pointer-events: none; display: none; fill: none;"/></g></g><g class="mark-group role-title"><g transform="translate(-69.8780517578125,-79)"><path class="background" aria-hidden="true" d="M0,0h0v0h0Z" style="pointer-events: none; fill: none;"/><g><g class="mark-text role-title-text" role="graphics-symbol" aria-roledescription="title" aria-label="Title text 'Created Plans by Month of Year'" style="pointer-events: none;"><text text-anchor="start" transform="translate(0,12)" style="font-family: Lato; font-size: 15px; font-weight: 500; fill: #00092E; opacity: 1;">Created Plans by Month of Year</text></g></g><path class="foreground" aria-hidden="true" d="" style="pointer-events: none; display: none; fill: none;"/></g></g><g class="mark-group role-axis" aria-hidden="true"><g transform="translate(0.5,328.5)"><path class="background" aria-hidden="true" d="M0,0h0v0h0Z" style="pointer-events: none; fill: none;"/><g><g class="mark-rule role-axis-grid" style="pointer-events: none;"><line transform="translate(69,0)" x2="0" y2="-328" style="fill: none; stroke: #E4EEF5; stroke-width: 1; opacity: 1;"/><line transform="translate(139,0)" x2="0" y2="-328" style="fill: none; stroke: #E4EEF5; stroke-width: 1; opacity: 1;"/><line transform="translate(208,0)" x2="0" y2="-328" style="fill: none; stroke: #E4EEF5; stroke-width: 1; opacity: 1;"/><line transform="translate(278,0)" x2="0" y2="-328" style="fill: none; stroke: #E4EEF5; stroke-width: 1; opacity: 1;"/><line transform="translate(347,0)" x2="0" y2="-328" style="fill: none; stroke: #E4EEF5; stroke-width: 1; opacity: 1;"/><line transform="translate(417,0)" x2="0" y2="-328" style="fill: none; stroke: #E4EEF5; stroke-width: 1; opacity: 1;"/><line transform="translate(487,0)" x2="0" y2="-328" style="fill: none; stroke: #E4EEF5; stroke-width: 1; opacity: 1;"/><line transform="translate(556,0)" x2="0" y2="-328" style="fill: none; stroke: #E4EEF5; stroke-width: 1; opacity: 1;"/><line transform="translate(626,0)" x2="0" y2="-328" style="fill: none; stroke: #E4EEF5; stroke-width: 1; opacity: 1;"/><line transform="translate(695,0)" x2="0" y2="-328" style="fill: none; stroke: #E4EEF5; stroke-width: 1; opacity: 1;"/><line transform="translate(765,0)" x2="0" y2="-328" style="fill: none; stroke: #E4EEF5; stroke-width: 1; opacity: 1;"/><line transform="translate(835,0)" x2="0" y2="-328" style="fill: none; stroke: #E4EEF5; stroke-width: 1; opacity: 1;"/><line transform="translate(0,0)" x2="0" y2="-328" style="fill: none; stroke: #E4EEF5; stroke-width: 1; opacity: 1;"/></g></g><path class="foreground" aria-hidden="true" d="" style="pointer-events: none; display: none; fill: none;"/></g></g><g class="mark-group role-axis" aria-hidden="true"><g transform="translate(0.5,0.5)"><path class="background" aria-hidden="true" d="M0,0h0v0h0Z" style="pointer-events: none; fill: none;"/><g><g class="mark-rule role-axis-grid" style="pointer-events: none;"><line transform="translate(0,65)" x2="835" y2="0" style="fill: none; stroke: #E4EEF5; stroke-width: 1; opacity: 1;"/><line transform="translate(0,131)" x2="835" y2="0" style="fill: none; stroke: #E4EEF5; stroke-width: 1; opacity: 1;"/><line transform="translate(0,196)" x2="835" y2="0" style="fill: none; stroke: #E4EEF5; stroke-width: 1; opacity: 1;"/><line transform="translate(0,262)" x2="835" y2="0" style="fill: none; stroke: #E4EEF5; stroke-width: 1; opacity: 1;"/><line transform="translate(0,328)" x2="835" y2="0" style="fill: none; stroke: #E4EEF5; stroke-width: 1; opacity: 1;"/><line transform="translate(0,0)" x2="835" y2="0" style="fill: none; stroke: #E4EEF5; stroke-width: 1; opacity: 1;"/></g></g><path class="foreground" aria-hidden="true" d="" style="pointer-events: none; display: none; fill: none;"/></g></g><g class="mark-group role-axis" aria-hidden="true"><g transform="translate(0.5,328.5)"><path class="background" aria-hidden="true" d="M0,0h0v0h0Z" style="pointer-events: none; fill: none;"/><g><g class="mark-text role-axis-label" style="pointer-events: none;"><text text-anchor="middle" transform="translate(34.291666666666664,15)" style="font-family: Lato; font-size: 13px; font-weight: normal; fill: #687299; opacity: 1;">January</text><text text-anchor="middle" transform="translate(103.875,15)" style="font-family: Lato; font-size: 13px; font-weight: normal; fill: #687299; opacity: 1;">February</text><text text-anchor="middle" transform="translate(173.45833333333331,15)" style="font-family: Lato; font-size: 13px; font-weight: normal; fill: #687299; opacity: 1;">March</text><text text-anchor="middle" transform="translate(243.04166666666666,15)" style="font-family: Lato; font-size: 13px; font-weight: normal; fill: #687299; opacity: 1;">April</text><text text-anchor="middle" transform="translate(312.625,15)" style="font-family: Lato; font-size: 13px; font-weight: normal; fill: #687299; opacity: 1;">May</text><text text-anchor="middle" transform="translate(382.2083333333333,15)" style="font-family: Lato; font-size: 13px; font-weight: normal; fill: #687299; opacity: 1;">June</text><text text-anchor="middle" transform="translate(451.7916666666667,15)" style="font-family: Lato; font-size: 13px; font-weight: normal; fill: #687299; opacity: 1;">July</text><text text-anchor="middle" transform="translate(521.375,15)" style="font-family: Lato; font-size: 13px; font-weight: normal; fill: #687299; opacity: 1;">August</text><text text-anchor="middle" transform="translate(590.9583333333333,15)" style="font-family: Lato; font-size: 13px; font-weight: normal; fill: #687299; opacity: 1;">September</text><text text-anchor="middle" transform="translate(660.5416666666666,15)" style="font-family: Lato; font-size: 13px; font-weight: normal; fill: #687299; opacity: 1;">October</text><text text-anchor="middle" transform="translate(730.1249999999999,15)" style="font-family: Lato; font-size: 13px; font-weight: normal; fill: #687299; opacity: 1;">November</text><text text-anchor="middle" transform="translate(799.7083333333333,15)" style="font-family: Lato; font-size: 13px; font-weight: normal; fill: #687299; opacity: 1;">December</text><text text-anchor="middle" transform="translate(0,15)" style="font-family: Lato; font-size: 13px; font-weight: normal; fill: #687299; opacity: 1;"/></g></g><path class="foreground" aria-hidden="true" d="" style="pointer-events: none; display: none; fill: none;"/></g></g><g class="mark-group role-axis" aria-hidden="true"><g transform="translate(0.5,0.5)"><path class="background" aria-hidden="true" d="M0,0h0v0h0Z" style="pointer-events: none; fill: none;"/><g><g class="mark-text role-axis-label" style="pointer-events: none;"><text text-anchor="end" transform="translate(-10,36.3)" style="font-family: Lato; font-size: 13px; font-weight: normal; fill: #687299; opacity: 1;">Enterprise</text><text text-anchor="end" transform="translate(-10,101.89999999999999)" style="font-family: Lato; font-size: 13px; font-weight: normal; fill: #687299; opacity: 1;">Extended</text><text text-anchor="end" transform="translate(-10,167.5)" style="font-family: Lato; font-size: 13px; font-weight: normal; fill: #687299; opacity: 1;">None</text><text text-anchor="end" transform="translate(-10,233.09999999999997)" style="font-family: Lato; font-size: 13px; font-weight: normal; fill: #687299; opacity: 1;">Premium</text><text text-anchor="end" transform="translate(-10,298.7)" style="font-family: Lato; font-size: 13px; font-weight: normal; fill: #687299; opacity: 1;">Startup</text><text text-anchor="end" transform="translate(-10,4)" style="font-family: Lato; font-size: 13px; font-weight: normal; fill: #687299; opacity: 1;"/></g></g><path class="foreground" aria-hidden="true" d="" style="pointer-events: none; display: none; fill: none;"/></g></g></g><path class="foreground" aria-hidden="true" d="" style="display: none; fill: none;"/></g></g></g></svg>