<?xml version="1.0" encoding="utf-8"?>
<!-- Generator: Adobe Illustrator 16.0.0, SVG Export Plug-In . SVG Version: 6.00 Build 0)  -->
<!DOCTYPE svg PUBLIC "-//W3C//DTD SVG 1.1//EN" "http://www.w3.org/Graphics/SVG/1.1/DTD/svg11.dtd">
<svg version="1.1" xmlns="http://www.w3.org/2000/svg" xmlns:xlink="http://www.w3.org/1999/xlink" x="0px" y="0px" width="730px"
	 height="320px" viewBox="0 0 730 320" enable-background="new 0 0 730 320" xml:space="preserve">
<g id="Layer_3">
	<g opacity="0.7">
		<path fill="#F15A24" d="M69.694,123.625c0,0,1.036,0.421,2.986,1.147c1.95,0.719,4.812,1.756,8.469,2.943
			c3.654,1.213,8.101,2.589,13.213,4.065c5.112,1.479,10.891,3.037,17.208,4.615c12.633,3.175,27.483,6.467,43.409,9.34
			c7.966,1.431,16.223,2.935,24.619,4.239c8.397,1.324,16.938,2.506,25.506,3.797c4.281,0.629,8.569,1.206,12.844,1.758
			c2.139,0.268,4.274,0.535,6.402,0.801c2.132,0.226,4.255,0.52,6.371,0.832c8.467,1.162,16.828,2.168,24.957,3.006
			c8.102,1.054,15.966,1.997,23.475,2.73c1.879,0.18,3.732,0.357,5.558,0.532c1.818,0.213,3.608,0.422,5.369,0.628
			c3.528,0.393,6.947,0.749,10.243,1.054c3.307,0.279,6.476,0.547,9.489,0.802c1.511,0.113,3.003,0.18,4.419,0.325
			c1.422,0.13,2.798,0.281,4.146,0.373c5.375,0.434,10.091,0.74,14.005,0.907c7.82,0.363,12.405,0.242,12.405,0.243l-12.57,45.473
			c0,0.001-3.728-2.314-10.455-5.791c-3.36-1.753-7.476-3.777-12.232-6.018c-2.377-1.128-4.926-2.266-7.619-3.374
			c-2.709-1.084-5.557-2.223-8.529-3.412c-2.983-1.162-6.104-2.335-9.346-3.526c-1.624-0.585-3.275-1.18-4.952-1.784
			c-1.687-0.559-3.411-1.072-5.154-1.623c-6.985-2.143-14.392-4.304-22.113-6.329c-7.771-1.814-15.841-3.548-24.069-5.171
			c-4.102-0.851-8.311-1.435-12.509-2.096c-4.206-0.636-8.432-1.251-12.665-1.815c-8.443-1.225-16.983-2.024-25.388-2.743
			c-8.413-0.691-16.674-1.344-24.734-1.654c-8.055-0.327-15.854-0.508-23.26-0.554c-7.409-0.039-14.406,0.019-20.927,0.276
			c-6.508,0.226-12.485,0.543-17.793,0.923c-5.308,0.377-9.945,0.795-13.772,1.22c-3.825,0.398-12.058,1.61-12.058,1.61
			L69.694,123.625z"/>
	</g>
	<g opacity="0.7">
		<path fill="#F15A24" d="M332.663,101.142c0,0-0.167,0.153-0.493,0.451c-0.327,0.287-0.807,0.763-1.452,1.289
			c-0.643,0.54-1.438,1.222-2.394,1.949c-0.475,0.367-0.993,0.784-1.54,1.188c-0.553,0.383-1.141,0.79-1.762,1.22
			c-2.504,1.776-5.588,3.637-9.241,5.55c-3.631,1.851-7.834,3.725-12.492,5.241c-1.164,0.382-2.362,0.806-3.589,1.154
			c-1.217,0.318-2.465,0.665-3.743,0.958c-1.283,0.316-2.578,0.604-3.899,0.825c-1.319,0.223-2.686,0.527-4.041,0.663
			c-5.478,0.778-11.285,1.006-17.208,0.504c-5.921-0.491-11.972-1.678-17.829-3.707c-5.869-2-11.526-4.863-16.732-8.39
			c-5.183-3.559-9.914-7.802-13.847-12.615c-3.978-4.769-7.202-10.042-9.676-15.444c-2.457-5.421-4.174-10.964-5.178-16.375
			c-1.035-5.396-1.376-10.647-1.261-15.487c0.083-2.431,0.246-4.747,0.529-6.954c0.332-2.218,0.669-4.291,1.094-6.228
			c0.479-1.951,0.932-3.735,1.475-5.377c0.589-1.644,1.056-3.111,1.679-4.419c0.579-1.306,1.114-2.428,1.678-3.37
			c0.523-0.943,1.034-1.685,1.476-2.245c0.386-0.494,0.745-0.842,1.003-0.992l-28,1.45c-0.914,1.602-2.449,2.918-4.71,3.592
			c-6.824,2.032-13.69,3.899-20.667,5.333c-1.895,0.39-3.806,0.212-5.466-0.478c-1.223,0.888-2.789,1.438-4.713,1.438
			c-1.191,0-2.241-0.217-3.164-0.586c0.711,1.542,1.529,3.283,2.473,5.225c1.706,3.503,3.722,7.627,6.125,12.203
			c1.174,2.294,2.418,4.708,3.818,7.2c1.301,2.519,2.772,5.113,4.308,7.786c1.49,2.691,3.112,5.444,4.838,8.249
			c1.668,2.828,3.463,5.697,5.396,8.584c1.842,2.926,3.846,5.864,5.993,8.785c1.031,1.483,2.113,2.957,3.229,4.425
			c1.088,1.483,2.234,2.952,3.391,4.422c4.648,5.875,9.729,11.7,15.32,17.21c5.547,5.548,11.659,10.703,18.054,15.482
			c6.439,4.729,13.282,8.9,20.246,12.594c6.971,3.691,14.114,6.778,21.164,9.422c3.53,1.308,7.028,2.528,10.486,3.686
			c3.465,1.056,6.882,2.074,10.223,3.03c6.689,1.792,13.035,3.155,19.06,4.106c15.438,2.438,39.25,4.743,39.25,4.743
			L332.663,101.142z"/>
	</g>
	<path opacity="0.6" fill="#29ABE2" d="M67,170.25l11.833,46.917l63.667-25.334c0,0,3.513-0.897,4.709,0.459
		c1.25,1.417-0.709,3.875-0.709,3.875l-49,43l36,36c0,0,40-50.667,20-87.334C133.499,151.167,55.667,176.25,67,170.25z"/>
	<path opacity="0.7" fill="#FBB03B" d="M204,289.5c0,0,5.001-128.893-57-260.53L89.863,78.7c0,0,125.121,72.728,45.462,194.014
		c-1.827,2.453,29.008,19.953,29.008,19.953L204,289.5z"/>
	<path opacity="0.7" fill="#FBB03B" d="M69.694,123.625l10.973-31c0,0,133.83,86.708,129.748-73.958
		C210.333,18.667,241,28.97,241,28.97S217.055,171.916,69.694,123.625z"/>
	<g opacity="0.7">
		<path fill="#F15A24" d="M78.687,224.736c0,0,0.238-0.139,0.698-0.407c0.256-0.149,0.573-0.336,0.95-0.557
			c0.343-0.188,0.741-0.407,1.191-0.654c1.79-0.989,4.411-2.288,7.669-3.938c3.268-1.649,7.277-3.471,11.829-5.566
			c2.301-0.997,4.727-2.09,7.333-3.118c2.566-1.111,5.292-2.2,8.138-3.319c1.413-0.581,2.892-1.087,4.38-1.641
			c1.497-0.532,2.998-1.127,4.564-1.634c3.1-1.09,6.28-2.26,9.615-3.279c3.302-1.104,6.75-2.064,10.262-3.055
			c1.745-0.528,3.533-0.983,5.329-1.471c1.801-0.467,3.6-1.001,5.447-1.422c3.697-0.828,7.421-1.78,11.262-2.443
			c1.915-0.352,3.832-0.74,5.759-1.126c1.939-0.328,3.888-0.658,5.844-0.989c0.978-0.165,1.958-0.33,2.939-0.496l2.969-0.378
			c1.981-0.25,3.969-0.5,5.96-0.751c1.994-0.229,4.004-0.347,6.008-0.524c1.003-0.088,2.008-0.149,3.009-0.259
			c1.001-0.11,2.004-0.201,3.012-0.24l6.036-0.33c1.005-0.051,2.01-0.12,3.015-0.153l3.016-0.021
			c2.009-0.014,4.014-0.027,6.013-0.041c2-0.036,3.99,0.136,5.975,0.193c1.984,0.099,3.962,0.153,5.934,0.195
			c1.965,0.146,3.92,0.29,5.863,0.435c1.943,0.157,3.881,0.269,5.796,0.464c1.91,0.245,3.806,0.488,5.687,0.729
			c1.88,0.252,3.753,0.462,5.596,0.745c1.84,0.306,3.663,0.608,5.466,0.907c1.808,0.299,3.595,0.595,5.361,0.887
			c1.755,0.346,3.474,0.756,5.18,1.124c6.846,1.413,13.212,3.178,19.15,4.725c2.918,0.906,5.691,1.854,8.381,2.64
			c1.341,0.407,2.648,0.804,3.919,1.189c1.258,0.417,2.456,0.881,3.632,1.3c2.346,0.851,4.538,1.666,6.598,2.361
			c1.027,0.356,2.013,0.699,2.955,1.025c0.919,0.374,1.795,0.73,2.627,1.069c3.317,1.383,6.005,2.342,7.808,3.062
			c1.815,0.702,2.783,1.077,2.783,1.077l-10.024,17.927c0,0-0.793-0.524-2.281-1.509c-1.498-0.969-3.656-2.475-6.494-4.248
			c-0.707-0.449-1.452-0.923-2.233-1.42c-0.804-0.451-1.646-0.922-2.523-1.414c-1.75-0.997-3.673-2.02-5.726-3.13
			c-1.03-0.547-2.08-1.146-3.187-1.701c-1.12-0.526-2.272-1.067-3.455-1.622c-2.361-1.129-4.882-2.236-7.507-3.415
			c-2.682-1.033-5.477-2.108-8.368-3.222c-0.725-0.279-1.456-0.562-2.192-0.846c-0.735-0.292-1.508-0.478-2.27-0.725
			c-1.532-0.466-3.087-0.939-4.665-1.42c-1.58-0.473-3.174-0.989-4.805-1.445c-1.645-0.403-3.309-0.812-4.992-1.226
			c-1.686-0.412-3.389-0.829-5.11-1.25c-1.736-0.343-3.502-0.613-5.277-0.929c-1.777-0.307-3.569-0.615-5.375-0.926
			c-1.812-0.263-3.648-0.443-5.491-0.672c-1.845-0.217-3.701-0.436-5.566-0.654c-1.873-0.13-3.757-0.249-5.651-0.331
			c-1.894-0.066-3.792-0.248-5.702-0.223c-1.909,0.001-3.823,0.002-5.742,0.003h-2.88c-0.96,0.025-1.921,0.087-2.882,0.129
			l-5.771,0.278c-1.926,0.058-3.84,0.32-5.754,0.521c-1.912,0.229-3.827,0.397-5.726,0.674c-1.896,0.298-3.788,0.596-5.674,0.892
			l-2.823,0.445c-0.933,0.188-1.865,0.375-2.794,0.562c-1.858,0.372-3.708,0.743-5.55,1.112c-1.835,0.397-3.641,0.896-5.438,1.362
			c-3.608,0.878-7.098,2.036-10.552,3.059c-1.726,0.519-3.403,1.148-5.082,1.707c-1.668,0.593-3.346,1.096-4.948,1.769
			c-3.222,1.292-6.371,2.538-9.373,3.911c-3.033,1.291-5.911,2.71-8.703,4.043c-1.391,0.68-2.716,1.44-4.037,2.135
			c-1.312,0.715-2.616,1.377-3.851,2.107c-2.489,1.425-4.876,2.771-7.08,4.164c-2.218,1.37-4.253,2.771-6.18,4.051
			c-3.823,2.602-7.038,5.021-9.577,7.092c-2.579,2.023-4.438,3.774-5.67,4.911c-0.304,0.286-0.572,0.54-0.803,0.759
			c-0.191,0.194-0.352,0.358-0.481,0.491c-0.305,0.303-0.462,0.458-0.462,0.458L78.687,224.736z"/>
	</g>
	<path opacity="0.7" fill="#8CC63F" d="M94.064,88.751l-13.397,4.583c121.71,59.114,129.379,178.282,129.733,201.252
		c0.441,0.139,0.846,0.446,1.13,0.991c0.539,1.034,1.169,1.992,1.853,2.907c2.083-0.055,4.166-0.094,6.249-0.121
		c0.724-1.16,0.817-2.095,0.951-2.363C207.917,150.667,94.064,88.751,94.064,88.751z"/>
	<path opacity="0.7" fill="#8CC63F" d="M221,296c0,0-20.578-110.831,21.422-271.498c0.667,0,31.678,12.881,31.678,12.881
		s-81.767,110.618-21.767,249.284C252.333,287.333,221,296,221,296z"/>
	<path opacity="0.7" fill="#8CC63F" d="M278.681,41.403c0,0-85.68,108.598-26.347,245.264l66.311-51.155
		c0,0-142.036-72.574,16.73-130.449C335.474,105.299,278.681,41.403,278.681,41.403z"/>
	<g opacity="0.7">
		<path fill="#0071BC" d="M490.122,24.694c0,0,0.421,1.036,1.146,2.986c0.719,1.949,1.756,4.812,2.943,8.469
			c1.214,3.653,2.59,8.101,4.065,13.213c1.479,5.111,3.037,10.891,4.615,17.207c3.175,12.633,6.467,27.483,9.34,43.408
			c1.431,7.967,2.936,16.224,4.239,24.619c1.324,8.396,2.506,16.938,3.797,25.506c0.629,4.281,1.206,8.569,1.759,12.844
			c0.268,2.14,0.534,4.274,0.801,6.402c0.227,2.133,0.52,4.256,0.832,6.371c1.161,8.467,2.168,16.828,3.006,24.957
			c1.054,8.102,1.997,15.966,2.73,23.475c0.18,1.879,0.357,3.732,0.532,5.558c0.213,1.817,0.422,3.608,0.628,5.369
			c0.393,3.528,0.749,6.947,1.054,10.243c0.279,3.307,0.547,6.475,0.802,9.488c0.113,1.512,0.18,3.004,0.325,4.42
			c0.13,1.422,0.281,2.799,0.373,4.146c0.434,5.375,0.74,10.092,0.907,14.005c0.363,7.819,0.242,12.405,0.243,12.405l45.473-12.57
			c0.001,0-2.314-3.729-5.791-10.455c-1.753-3.359-3.777-7.476-6.018-12.232c-1.128-2.377-2.266-4.926-3.374-7.618
			c-1.084-2.709-2.223-5.558-3.412-8.529c-1.162-2.983-2.335-6.104-3.526-9.346c-0.585-1.624-1.18-3.274-1.784-4.952
			c-0.559-1.687-1.072-3.41-1.623-5.154c-2.143-6.984-4.304-14.392-6.329-22.112c-1.814-7.771-3.548-15.841-5.171-24.069
			c-0.851-4.102-1.435-8.311-2.096-12.509c-0.636-4.206-1.251-8.432-1.815-12.665c-1.225-8.443-2.024-16.983-2.743-25.389
			c-0.691-8.412-1.344-16.674-1.654-24.733c-0.327-8.056-0.508-15.854-0.554-23.261c-0.039-7.408,0.019-14.405,0.276-20.926
			c0.226-6.508,0.543-12.485,0.923-17.794c0.377-5.308,0.795-9.945,1.22-13.772c0.398-3.824,1.61-12.058,1.61-12.058L490.122,24.694
			z"/>
	</g>
	<g opacity="0.7">
		<path fill="#0071BC" d="M467.639,287.663c0,0,0.153-0.168,0.451-0.492c0.287-0.328,0.762-0.808,1.288-1.452
			c0.54-0.644,1.222-1.438,1.949-2.394c0.366-0.475,0.784-0.993,1.188-1.539c0.383-0.554,0.789-1.141,1.219-1.762
			c1.776-2.505,3.638-5.589,5.551-9.242c1.852-3.631,3.725-7.834,5.24-12.491c0.383-1.163,0.807-2.362,1.154-3.589
			c0.318-1.217,0.665-2.465,0.959-3.743c0.316-1.282,0.604-2.578,0.824-3.899c0.223-1.318,0.527-2.686,0.663-4.04
			c0.778-5.478,1.006-11.284,0.504-17.208c-0.491-5.921-1.678-11.971-3.706-17.828c-2-5.869-4.863-11.525-8.391-16.732
			c-3.559-5.183-7.802-9.914-12.615-13.846c-4.77-3.979-10.041-7.203-15.444-9.677c-5.421-2.456-10.964-4.174-16.376-5.179
			c-5.396-1.035-10.646-1.376-15.486-1.26c-2.432,0.082-4.747,0.245-6.954,0.528c-2.218,0.331-4.29,0.669-6.228,1.094
			c-1.951,0.479-3.735,0.932-5.378,1.476c-1.644,0.589-3.11,1.055-4.419,1.679c-1.306,0.579-2.428,1.114-3.37,1.678
			c-0.943,0.523-1.686,1.034-2.245,1.476c-0.493,0.387-0.842,0.746-0.992,1.004l1.45-28.001c1.602-0.914,2.919-2.449,3.592-4.71
			c2.032-6.824,3.899-13.691,5.334-20.668c0.39-1.895,0.212-3.806-0.479-5.466c0.889-1.223,1.438-2.789,1.438-4.713
			c0-1.191-0.217-2.241-0.586-3.164c1.542,0.711,3.282,1.528,5.225,2.473c3.504,1.706,7.628,3.722,12.203,6.125
			c2.294,1.175,4.708,2.418,7.2,3.818c2.519,1.301,5.112,2.772,7.786,4.308c2.691,1.49,5.444,3.111,8.248,4.838
			c2.828,1.669,5.697,3.463,8.584,5.396c2.927,1.843,5.864,3.846,8.785,5.994c1.483,1.03,2.957,2.112,4.425,3.229
			c1.483,1.088,2.952,2.234,4.423,3.391c5.875,4.648,11.7,9.729,17.21,15.32c5.549,5.547,10.703,11.658,15.482,18.053
			c4.729,6.439,8.9,13.282,12.594,20.246c3.691,6.971,6.778,14.113,9.423,21.164c1.308,3.53,2.528,7.028,3.686,10.486
			c1.056,3.465,2.074,6.881,3.03,10.223c1.792,6.688,3.155,13.035,4.106,19.06c2.438,15.438,4.743,39.25,4.743,39.25
			L467.639,287.663z"/>
	</g>
	<path opacity="0.7" fill="#9327C9" d="M536.747,22l46.917,11.833L558.33,97.499c0,0-0.897,3.513,0.459,4.709
		c1.417,1.25,3.875-0.709,3.875-0.709l43-49l36,36c0,0-50.667,40-87.334,20C517.664,88.499,542.747,10.667,536.747,22z"/>
	<path opacity="0.7" fill="#ED1E79" d="M655.997,159c0,0-128.893,5.001-260.53-56.999l49.729-57.138
		c0,0,72.729,125.121,194.015,45.462c2.453-1.826,19.953,29.008,19.953,29.008L655.997,159z"/>
	<path opacity="0.7" fill="#ED1E79" d="M490.122,24.694l-31,10.973c0,0,86.708,133.83-73.959,129.748
		c0-0.082,10.304,30.585,10.304,30.585S538.413,172.056,490.122,24.694z"/>
	<g opacity="0.7">
		<path fill="#0071BC" d="M591.233,33.687c0,0-0.139,0.238-0.407,0.698c-0.149,0.256-0.336,0.573-0.557,0.95
			c-0.188,0.344-0.407,0.741-0.654,1.191c-0.989,1.789-2.288,4.41-3.938,7.67c-1.649,3.268-3.471,7.276-5.566,11.828
			c-0.997,2.302-2.09,4.728-3.118,7.334c-1.111,2.566-2.2,5.293-3.319,8.138c-0.581,1.413-1.087,2.892-1.641,4.38
			c-0.532,1.498-1.127,2.998-1.634,4.564c-1.09,3.1-2.26,6.28-3.279,9.615c-1.104,3.302-2.064,6.75-3.055,10.262
			c-0.528,1.744-0.983,3.533-1.471,5.328c-0.467,1.802-1.001,3.601-1.422,5.447c-0.828,3.697-1.78,7.422-2.443,11.262
			c-0.352,1.916-0.74,3.832-1.126,5.76c-0.328,1.938-0.658,3.887-0.989,5.844c-0.165,0.978-0.33,1.957-0.496,2.938l-0.378,2.969
			c-0.25,1.981-0.5,3.969-0.751,5.96c-0.229,1.994-0.347,4.004-0.524,6.009c-0.088,1.003-0.149,2.008-0.259,3.009
			c-0.11,1.002-0.201,2.005-0.24,3.012l-0.33,6.036c-0.051,1.005-0.12,2.011-0.153,3.015l-0.021,3.016
			c-0.014,2.01-0.027,4.015-0.041,6.014c-0.036,2,0.136,3.99,0.193,5.975c0.099,1.984,0.153,3.963,0.195,5.934
			c0.146,1.965,0.29,3.92,0.435,5.863c0.157,1.943,0.269,3.882,0.464,5.797c0.245,1.91,0.488,3.807,0.729,5.687
			c0.252,1.88,0.462,3.753,0.745,5.596c0.306,1.84,0.608,3.663,0.907,5.466c0.299,1.808,0.595,3.596,0.887,5.361
			c0.346,1.755,0.756,3.474,1.124,5.18c1.413,6.846,3.178,13.213,4.725,19.15c0.906,2.918,1.854,5.691,2.64,8.381
			c0.407,1.342,0.804,2.648,1.189,3.92c0.417,1.258,0.881,2.455,1.3,3.631c0.851,2.346,1.666,4.539,2.361,6.599
			c0.356,1.027,0.699,2.013,1.025,2.955c0.374,0.919,0.73,1.796,1.069,2.627c1.383,3.317,2.342,6.005,3.062,7.808
			c0.702,1.814,1.077,2.783,1.077,2.783l17.927-10.025c0,0-0.524-0.793-1.509-2.281c-0.969-1.498-2.475-3.656-4.248-6.493
			c-0.449-0.707-0.923-1.452-1.42-2.233c-0.451-0.805-0.922-1.646-1.414-2.523c-0.997-1.75-2.02-3.673-3.13-5.725
			c-0.547-1.03-1.146-2.08-1.701-3.188c-0.526-1.12-1.067-2.271-1.622-3.455c-1.129-2.36-2.236-4.881-3.415-7.507
			c-1.033-2.683-2.108-5.477-3.222-8.368c-0.279-0.725-0.562-1.455-0.846-2.192c-0.292-0.735-0.478-1.508-0.725-2.27
			c-0.466-1.532-0.939-3.087-1.42-4.665c-0.473-1.58-0.989-3.174-1.445-4.805c-0.403-1.645-0.812-3.309-1.226-4.992
			c-0.412-1.686-0.829-3.389-1.25-5.109c-0.343-1.736-0.613-3.502-0.929-5.277c-0.307-1.777-0.615-3.569-0.926-5.375
			c-0.263-1.812-0.443-3.647-0.672-5.49c-0.217-1.845-0.436-3.701-0.654-5.566c-0.13-1.873-0.249-3.758-0.331-5.651
			c-0.066-1.894-0.248-3.792-0.223-5.702c0.001-1.908,0.002-3.823,0.003-5.742v-2.88c0.025-0.96,0.087-1.921,0.129-2.882
			l0.278-5.771c0.058-1.927,0.32-3.841,0.521-5.754c0.229-1.911,0.397-3.827,0.674-5.726c0.298-1.896,0.596-3.788,0.892-5.674
			l0.445-2.823c0.188-0.933,0.375-1.864,0.562-2.794c0.372-1.858,0.743-3.709,1.112-5.551c0.397-1.836,0.896-3.641,1.362-5.438
			c0.878-3.608,2.036-7.098,3.059-10.552c0.519-1.726,1.148-3.403,1.707-5.081c0.593-1.669,1.096-3.346,1.769-4.949
			c1.292-3.221,2.538-6.371,3.911-9.373c1.291-3.032,2.71-5.91,4.043-8.703c0.68-1.391,1.44-2.715,2.135-4.036
			c0.715-1.312,1.377-2.616,2.107-3.851c1.425-2.49,2.771-4.877,4.164-7.08c1.37-2.219,2.771-4.254,4.051-6.181
			c2.602-3.823,5.021-7.038,7.092-9.577c2.023-2.578,3.774-4.438,4.911-5.67c0.286-0.304,0.54-0.572,0.759-0.803
			c0.194-0.191,0.358-0.352,0.491-0.481c0.303-0.305,0.458-0.462,0.458-0.462L591.233,33.687z"/>
	</g>
	<path opacity="0.7" fill="#FCCC21" d="M455.248,49.063l4.582-13.396c59.115,121.71,178.282,129.379,201.253,129.732
		c0.139,0.441,0.446,0.847,0.991,1.131c1.034,0.539,1.992,1.17,2.907,1.854c-0.055,2.082-0.094,4.165-0.121,6.248
		c-1.16,0.725-2.095,0.817-2.363,0.951C517.164,162.917,455.248,49.063,455.248,49.063z"/>
	<path opacity="0.7" fill="#FCCC21" d="M662.497,176c0,0-110.831-20.577-271.498,21.423c0,0.666,12.881,31.678,12.881,31.678
		s110.618-81.768,249.284-21.768C653.83,207.333,662.497,176,662.497,176z"/>
	<path opacity="0.7" fill="#FCCC21" d="M407.9,233.681c0,0,108.598-85.68,245.264-26.348l-51.155,66.312
		c0,0-72.574-142.036-130.449,16.73C471.797,290.474,407.9,233.681,407.9,233.681z"/>
</g>
<g id="Layer_1">
	<path fill="#8CC63F" d="M312.421,231.551c-22.327,33.257-59.531,55.724-102.006,57.79l0.366,13.995
		c47.279-2.195,88.69-27.216,113.448-64.271L312.421,231.551z"/>
	<path fill="#F15A24" d="M274.101,48.971C310.391,72.173,334.5,112.823,334.5,159c0,24.685-6.891,47.79-18.847,67.495l11.811,7.517
		C340.806,212.132,348.5,186.448,348.5,159c0-51.246-26.817-96.342-67.152-122.003L274.101,48.971z"/>
	<path fill="#29ABE2" d="M73.5,159c0-25.844,7.552-49.957,20.564-70.249l-11.618-7.806C67.931,103.47,59.5,130.269,59.5,159
		c0,22.074,4.983,43.005,13.871,61.736l12.533-6.244C77.955,197.643,73.5,178.833,73.5,159z"/>
	<path fill="#666666" d="M204.417,289.495c-0.139,0-0.277,0.005-0.417,0.005c-49.992,0-93.501-28.262-115.41-69.642l-12.532,6.244
		C100.269,272.077,148.53,303.5,204,303.5c0.262,0,0.521-0.009,0.783-0.01L204.417,289.495z"/>
	<path fill="#F7931E" d="M97.42,83.777C121.076,50.358,160.032,28.5,204,28.5c23.639,0,45.83,6.319,64.974,17.354l7.247-11.974
		C254.96,21.561,230.29,14.5,204,14.5c-48.8,0-92.022,24.32-118.197,61.472L97.42,83.777z"/>
	<path fill="#FCCC21" d="M598.048,267.421c33.257-22.326,55.724-59.531,57.79-102.006l13.995,0.366
		c-2.195,47.278-27.216,88.69-64.271,113.448L598.048,267.421z"/>
	<path fill="#0071BC" d="M415.468,229.101c23.202,36.29,63.853,60.399,110.029,60.399c24.685,0,47.79-6.891,67.495-18.847
		l7.517,11.811c-21.88,13.342-47.563,21.036-75.012,21.036c-51.245,0-96.342-26.817-122.004-67.152L415.468,229.101z"/>
	<path fill="#9327C9" d="M525.497,28.5c-25.844,0-49.957,7.552-70.249,20.563l-7.806-11.617
		C469.967,22.931,496.766,14.5,525.497,14.5c22.074,0,43.005,4.983,61.736,13.871l-6.244,12.533
		C564.14,32.955,545.33,28.5,525.497,28.5z"/>
	<path fill="#666666" d="M655.992,159.417c0-0.14,0.005-0.277,0.005-0.417c0-49.992-28.262-93.501-69.642-115.41l6.244-12.532
		C638.574,55.269,669.997,103.53,669.997,159c0,0.262-0.009,0.521-0.01,0.783L655.992,159.417z"/>
	<path fill="#ED1E79" d="M450.274,52.42c-33.419,23.656-55.277,62.612-55.277,106.58c0,23.64,6.318,45.83,17.354,64.974
		l-11.975,7.247c-12.319-21.261-19.38-45.931-19.38-72.221c0-48.8,24.319-92.022,61.472-118.197L450.274,52.42z"/>
</g>
</svg>
